<?xml version="1.0" encoding="UTF-8"?>
<svg width="16px" height="628px" viewBox="0 0 16 628" version="1.1" xmlns="http://www.w3.org/2000/svg" xmlns:xlink="http://www.w3.org/1999/xlink">
    <!-- Generator: Sketch 51.2 (57519) - http://www.bohemiancoding.com/sketch -->
    <title>border-v</title>
    <desc>Created with Sketch.</desc>
    <defs>
        <filter x="-0.8%" y="-0.8%" width="101.5%" height="102.2%" filterUnits="objectBoundingBox" id="filter-1">
            <feOffset dx="0" dy="2" in="SourceAlpha" result="shadowOffsetOuter1"></feOffset>
            <feGaussianBlur stdDeviation="2" in="shadowOffsetOuter1" result="shadowBlurOuter1"></feGaussianBlur>
            <feColorMatrix values="0 0 0 0 0   0 0 0 0 0   0 0 0 0 0  0 0 0 0.5 0" type="matrix" in="shadowBlurOuter1" result="shadowMatrixOuter1"></feColorMatrix>
            <feMerge>
                <feMergeNode in="shadowMatrixOuter1"></feMergeNode>
                <feMergeNode in="SourceGraphic"></feMergeNode>
            </feMerge>
        </filter>
    </defs>
    <g id="index" stroke="none" stroke-width="1" fill="none" fill-rule="evenodd">
        <g id="1首頁" transform="translate(-234.000000, -86.000000)" fill-rule="nonzero">
            <g id="明信片BG" filter="url(#filter-1)" transform="translate(238.000000, 76.000000)">
                <g id="border-v" transform="translate(0.000000, 12.000000)">
                    <polygon id="Shape" fill="#687C8F" points="8 597.494253 8 620 0 612.517241 0 590"></polygon>
                    <polygon id="Shape" fill="#687C8F" points="8 513.485627 8 536 0 528.502875 0 506"></polygon>
                    <polygon id="Shape" fill="#687C8F" points="8 428.485627 8 451 0 443.502875 0 421"></polygon>
                    <polygon id="Shape" fill="#687C8F" points="8 344.494253 8 367 0 359.517241 0 337"></polygon>
                    <polygon id="Shape" fill="#B75B60" points="8 555.494253 8 578 0 570.517241 0 548"></polygon>
                    <polygon id="Shape" fill="#B75B60" points="8 471.494253 8 494 0 486.517241 0 464"></polygon>
                    <polygon id="Shape" fill="#B75B60" points="8 386.494253 8 409 0 401.517241 0 379"></polygon>
                    <polygon id="Shape" fill="#687C8F" points="8 260.494253 8 283 0 275.517241 0 253"></polygon>
                    <polygon id="Shape" fill="#687C8F" points="8 176.485627 8 199 0 191.502875 0 169"></polygon>
                    <polygon id="Shape" fill="#687C8F" points="8 91.4856267 8 114 0 106.502875 0 84"></polygon>
                    <polygon id="Shape" fill="#687C8F" points="8 7.49425287 8 30 0 22.5172414 0 0"></polygon>
                    <polygon id="Shape" fill="#B75B60" points="8 218.494253 8 241 0 233.517241 0 211"></polygon>
                    <polygon id="Shape-Copy" fill="#B75B60" points="8 325 0 317.517241 0 295 8 302.494253"></polygon>
                    <polygon id="Shape" fill="#B75B60" points="8 133.494253 8 156 0 148.517241 0 126"></polygon>
                    <polygon id="Shape" fill="#B75B60" points="8 49.4942529 8 72 0 64.5172414 0 42"></polygon>
                </g>
            </g>
        </g>
    </g>
</svg>