<?xml version="1.0" encoding="UTF-8"?>
<svg width="45px" height="63px" viewBox="0 0 45 63" version="1.1" xmlns="http://www.w3.org/2000/svg" xmlns:xlink="http://www.w3.org/1999/xlink">
    <!-- Generator: Sketch 51.2 (57519) - http://www.bohemiancoding.com/sketch -->
    <title>map-school</title>
    <desc>Created with Sketch.</desc>
    <defs>
        <filter x="-2.3%" y="-1.6%" width="105.5%" height="103.9%" filterUnits="objectBoundingBox" id="filter-1">
            <feOffset dx="2" dy="2" in="SourceAlpha" result="shadowOffsetOuter1"></feOffset>
            <feGaussianBlur stdDeviation="3.5" in="shadowOffsetOuter1" result="shadowBlurOuter1"></feGaussianBlur>
            <feColorMatrix values="0 0 0 0 0   0 0 0 0 0   0 0 0 0 0  0 0 0 0.3 0" type="matrix" in="shadowBlurOuter1" result="shadowMatrixOuter1"></feColorMatrix>
            <feMerge>
                <feMergeNode in="shadowMatrixOuter1"></feMergeNode>
                <feMergeNode in="SourceGraphic"></feMergeNode>
            </feMerge>
        </filter>
        <filter x="-32.5%" y="-97.6%" width="165.1%" height="295.2%" filterUnits="objectBoundingBox" id="filter-2">
            <feGaussianBlur stdDeviation="1.78247569" in="SourceGraphic"></feGaussianBlur>
        </filter>
    </defs>
    <g id="Symbols" stroke="none" stroke-width="1" fill="none" fill-rule="evenodd">
        <g id="map-st1" transform="translate(-28.000000, -370.000000)">
            <g id="Group-19" transform="translate(-111.000000, 0.000000)">
                <g id="COMBO-Copy" filter="url(#filter-1)" transform="translate(111.000000, 0.000000)">
                    <g id="COMBO-1">
                        <g id="CONTENT" transform="translate(33.000000, 366.000000)">
                            <g id="ic-section-info" transform="translate(0.000000, 9.000000)">
                                <ellipse id="Oval" fill-opacity="0.5" fill="#4A4A4A" fill-rule="nonzero" style="mix-blend-mode: multiply;" filter="url(#filter-2)" cx="15.8887987" cy="44.3790584" rx="8.21834416" ry="2.73944805"></ellipse>
                                <path d="M30.6818182,15.3697454 C30.6818182,16.7598576 30.4720792,18.6025644 29.5017483,20.0988978 L18.8811189,42.5623718 C18.1574041,44.1372165 16.7791193,44.9269481 15.3409091,44.9269481 C13.9026989,44.9269481 12.5244141,44.1372165 11.8006993,42.5623718 L1.18006993,20.0988978 C0.209738991,18.6025644 0,16.7598576 0,15.3697454 C0,6.69809317 6.86146129,0 15.3409091,0 C23.8203569,0 30.6818182,6.69809317 30.6818182,15.3697454 Z" id="map-marker---FontAwesome-Copy-13" fill="#E0342B" fill-rule="evenodd"></path>
                                <path d="M21.7394977,17.2585146 L21.9156053,20.3501811 C21.9938754,21.7296905 19.1076677,22.8548223 15.6540023,22.8548223 C12.2003369,22.8548223 9.31412925,21.7296905 9.39239929,20.3501811 L9.56850688,17.2585146 L15.1843821,19.0293742 C15.3409222,19.0782929 15.4974622,19.0978604 15.6540023,19.0978604 C15.8105424,19.0978604 15.9670825,19.0782929 16.1236225,19.0293742 L21.7394977,17.2585146 Z M26.9248877,14.088578 C26.9248877,14.2255506 26.8368339,14.3429557 26.7096451,14.3918744 L15.7518399,17.8357561 C15.7127048,17.8455398 15.6833536,17.8455398 15.6540023,17.8455398 C15.624651,17.8455398 15.5952998,17.8455398 15.5561648,17.8357561 L9.17715669,15.8203026 C8.61948267,16.2605716 8.22813248,17.3367846 8.14986244,18.6575915 C8.52164512,18.8728341 8.76623899,19.2641843 8.76623899,19.7240207 C8.76623899,20.1642897 8.54121263,20.5458561 8.19878122,20.7708825 L8.76623899,25.0072483 C8.77602275,25.0953021 8.74667148,25.1833559 8.68796895,25.2518422 C8.62926643,25.3203284 8.54121263,25.3594635 8.45315884,25.3594635 L6.57467794,25.3594635 C6.48662414,25.3594635 6.39857035,25.3203284 6.33986782,25.2518422 C6.2811653,25.1833559 6.25181403,25.0953021 6.26159779,25.0072483 L6.82905556,20.7708825 C6.48662414,20.5458561 6.26159779,20.1642897 6.26159779,19.7240207 C6.26159779,19.2544005 6.52575916,18.8532666 6.89754184,18.638024 C6.95624437,17.4933247 7.24975701,16.2605716 7.8563498,15.4093849 L4.59835949,14.3918744 C4.47117068,14.3429557 4.38311688,14.2255506 4.38311688,14.088578 C4.38311688,13.9516055 4.47117068,13.8342004 4.59835949,13.7852816 L15.5561648,10.3414 C15.5952998,10.3316162 15.624651,10.3316162 15.6540023,10.3316162 C15.6833536,10.3316162 15.7127048,10.3316162 15.7518399,10.3414 L26.7096451,13.7852816 C26.8368339,13.8342004 26.9248877,13.9516055 26.9248877,14.088578 Z" id="Graduation-Cap---FontAwesome" fill="#FFFFFF" fill-rule="evenodd"></path>
                            </g>
                        </g>
                    </g>
                </g>
            </g>
        </g>
    </g>
</svg>