<?xml version="1.0" encoding="UTF-8"?>
<svg width="551px" height="622px" viewBox="0 0 551 622" version="1.1" xmlns="http://www.w3.org/2000/svg" xmlns:xlink="http://www.w3.org/1999/xlink">
    <!-- Generator: Sketch 51.2 (57519) - http://www.bohemiancoding.com/sketch -->
    <title>11</title>
    <desc>Created with Sketch.</desc>
    <defs></defs>
    <g id="11" stroke="none" stroke-width="1" fill="none" fill-rule="evenodd">
        <path d="M473.464733,188.99643 C469.089452,183.642191 467.109191,177.687344 465.933742,171.101859 C464.936552,165.496777 461.71554,160.343918 462.594479,154.313112 C462.742734,153.309744 461.989106,152.209219 461.203708,151.407231 C452.860846,142.875071 443.667283,136.238358 430.809709,137.693948 C426.046141,138.234495 421.50672,137.247025 417.074961,135.510563 C413.832769,134.240454 410.606462,132.86789 407.126004,132.366206 C400.957546,131.47236 394.617888,131.368137 388.975381,127.949974 C388.101737,130.488424 386.497408,132.129496 384.796008,133.669877 C379.995376,138.017216 377.353263,143.450948 376.596105,149.835053 C376.357838,151.834722 375.480664,153.406901 373.897515,154.622248 C369.225723,158.206462 364.379203,161.539834 359.181461,164.313227 C356.608181,165.685792 353.803694,166.761586 350.882722,166.404755 C345.972664,165.804147 341.860358,167.26857 338.176932,170.365231 C333.196277,174.551819 327.412575,175.613481 321.298829,175.592283 L321.298829,177.41707 C321.058798,180.508433 322.571349,182.999187 324.076842,185.472277 C325.218757,187.342993 326.40303,189.199577 327.709084,190.955471 C330.818905,195.136759 332.504421,199.325114 328.332107,203.838502 C328.139729,204.046949 328.074427,204.371983 327.945586,204.64049 C327.006639,206.615429 327.656136,207.684157 329.797006,207.926167 C332.003179,208.175242 334.152873,207.721254 336.320217,207.445681 C339.004688,207.104748 341.540904,207.38562 343.371145,209.692659 C345.586142,212.485485 348.643015,213.370497 351.991103,213.873948 C359.665054,215.025701 367.05485,213.714963 374.437586,211.771821 C380.17187,210.26147 385.895564,210.556474 390.627363,214.410962 C393.883674,217.060701 396.931722,217.361005 400.528666,215.765862 C402.346552,214.958574 404.219151,214.267876 406.054687,213.495918 C409.418659,212.080958 412.851464,211.914907 416.24897,213.215046 C419.127584,214.313805 421.947955,215.569781 424.743617,216.86462 C427.359255,218.078201 428.836508,220.095535 429.270683,223.068543 C429.690738,225.951459 430.643805,228.807878 433.294742,230.464848 C438.61603,233.79292 444.255008,234.393528 449.59218,230.837578 C453.208539,228.431615 456.904319,227.444145 461.126051,227.702053 C465.651352,227.975859 469.636582,226.235864 473.657112,224.211463 C473.383546,223.176299 473.252941,222.280687 472.919367,221.469867 C470.443159,215.458492 470.199598,209.962933 473.99598,203.972756 C476.864004,199.447002 477.104036,193.449759 473.464733,188.99643 Z" id="500" fill="#C9A68A"></path>
        <text id="彰化市" font-family="MicrosoftJhengHeiRegular, Microsoft JhengHei" font-size="16" font-weight="normal" fill="#EFE9D6">
            <tspan x="384.131058" y="186.79312">彰化市</tspan>
        </text>
        <path d="M440.178,235.48522 C444.828612,235.31917 448.8915,234.208046 452.488444,231.586571 C453.87392,230.57967 455.427066,229.813012 457.199064,229.919002 C463.072778,230.2723 468.678221,229.293663 474.077167,226.380717 C475.506767,231.107851 475.344392,235.681301 475.160839,240.242385 C475.009054,244.027979 474.746078,247.794142 475.210257,251.590335 C475.377926,252.945235 475.907408,253.519345 477.114625,253.76842 C483.163068,255.029696 489.206216,256.57891 495.424093,256.326302 C502.745057,256.03483 509.185316,257.93911 514.792524,262.710406 C518.571257,265.923657 523.228928,267.555896 527.637744,269.629759 C531.248807,271.327358 534.852811,273.053222 537.874385,275.734758 C541.068923,278.568212 541.926683,281.419331 540.694756,284.752703 C539.180439,288.858032 535.985901,291.622593 531.965372,291.147407 C526.667028,290.522068 520.893915,290.804707 516.958103,285.915055 C516.05975,284.798632 514.492485,284.67851 513.091124,284.560155 C508.209305,284.152096 503.323956,284.152096 498.449197,284.584886 C492.992009,285.070672 489.970434,287.920025 489.040312,293.34669 C488.805575,294.715722 488.712034,296.114784 488.623787,297.506781 C488.330807,301.990139 490.131044,305.152161 494.36513,306.964583 C500.452402,309.571926 503.391024,314.157741 502.912726,320.905744 C502.658575,324.486425 502.801535,328.093603 502.593272,331.677817 C502.427368,334.558966 502.104384,337.440116 501.675504,340.296535 C500.697728,346.820192 497.801465,352.147935 491.998348,355.700352 C488.067831,358.104548 485.201572,362.310567 479.769092,362.688597 C479.144304,355.27286 473.648287,350.054641 470.84733,343.530983 C469.27124,339.869043 467.629848,336.233601 466.678546,332.343784 C466.073172,329.861862 464.897724,327.696142 463.180439,325.834259 C459.085782,321.396829 457.216713,316.150345 456.644873,310.151336 C456.152455,305.00201 454.496943,300.016967 452.926148,295.084919 C452.126631,292.580032 451.860126,290.329521 453.201479,287.914725 C454.352218,285.846162 454.223378,283.70164 452.647288,281.77263 C452.206054,281.232083 451.89013,280.580247 451.410067,280.083863 C440.62453,268.900197 438.305401,255.25934 439.886786,240.470263 C440.04916,238.899851 440.075634,237.308241 440.178,235.48522 Z" id="502" fill="#C2917A"></path>
        <text id="芬-園-鄉" font-family="MicrosoftJhengHeiRegular, Microsoft JhengHei" font-size="16" font-weight="normal" line-spacing="16.96" letter-spacing="-1.1428566" fill="#EFE9D6">
            <tspan x="466.625593" y="282.818879">芬</tspan>
            <tspan x="466.625593" y="299.778879">園</tspan>
            <tspan x="466.625593" y="316.738879">鄉</tspan>
        </text>
        <path d="M344.288913,213.979937 C353.524834,217.147259 362.236569,216.958244 371.011841,214.721864 C375.553027,213.564812 380.094212,212.300003 384.820717,213.808588 C386.735674,214.419794 388.615334,215.114026 390.069643,216.548418 C392.824711,219.263517 396.045723,219.482562 399.480293,218.352007 C401.55586,217.666608 403.634957,216.921148 405.583449,215.946044 C409.53691,213.960506 413.428598,214.022333 417.38559,215.824156 C419.014628,216.564316 420.636606,217.330974 422.299177,217.989876 C425.329576,219.192858 426.962144,221.192527 427.495155,224.593026 C428.20466,229.094049 430.747936,232.551076 435.409138,233.784088 C437.883581,234.439456 438.458951,235.831453 437.977123,238.138492 C436.145117,246.962124 437.698262,255.580842 439.567332,264.19426 C440.453331,268.281925 442.18297,271.906768 444.75272,275.16948 C445.591066,276.236442 446.413527,277.310469 447.382478,278.559379 C442.874826,278.559379 438.741341,278.587643 434.609621,278.552314 C428.968879,278.502852 423.448152,278.872049 418.566333,282.207187 C417.583263,282.876688 416.416639,283.343042 415.198831,283.318311 C407.629012,283.173459 400.135085,284.694409 392.531731,284.106167 C386.507997,283.641579 381.239657,282.31141 377.803323,276.635669 C375.939548,273.553139 372.579106,271.816677 369.236313,270.940496 C359.3456,268.347285 355.34272,260.440463 352.331736,252.065521 C350.66034,247.414346 349.841408,242.538826 346.906316,238.316908 C345.033717,235.623007 345.014302,232.217209 345.50672,229.025156 C346.288588,223.972987 346.897491,218.982645 344.288913,213.979937 Z" id="503" fill="#C9B188"></path>
        <text id="花壇鄉" font-family="MicrosoftJhengHeiRegular, Microsoft JhengHei" font-size="16" font-weight="normal" line-spacing="16.96" letter-spacing="-1.1428566" fill="#EFE9D6">
            <tspan x="373.106714" y="256.125199">花壇鄉</tspan>
        </text>
        <path d="M348.957174,247.000986 C348.810684,245.57366 348.178837,244.300019 347.310487,243.204794 C343.138173,237.910615 342.709293,231.915138 343.870623,225.589328 C344.438933,222.489133 344.35951,219.461364 343.025217,216.513088 C342.539859,215.435527 342.042147,214.209581 342.095095,213.07726 C342.220405,210.358627 340.598427,209.588436 338.454028,209.572538 C336.371401,209.558406 334.294068,209.945268 332.207912,210.107785 C329.874663,210.291501 327.391395,210.385125 326.025333,208.106349 C324.669861,205.845238 325.654696,203.547031 327.167248,201.748742 C329.389305,199.113134 328.928657,196.696572 327.225491,194.11396 C325.141099,190.953704 323.070827,187.781083 321.092331,184.551935 C319.766863,182.391514 319.069712,180.006749 319.13325,177.432969 C319.13678,177.249254 319.138545,177.062005 319.150899,176.880057 L319.195023,175.537522 C319.055593,175.532223 318.921457,175.533989 318.785557,175.52869 C315.744569,175.390903 312.818301,175.207188 310.230902,173.106828 C308.961912,174.313343 308.012375,175.544588 306.773388,176.305946 C305.432035,177.130899 304.620164,178.482266 303.139381,179.190629 C299.101202,181.123172 298.665263,182.707716 299.913074,187.113349 C301.383267,192.303305 301.44151,197.429667 297.710431,201.833533 C295.837832,204.038116 295.74782,206.286861 296.796193,208.761718 C297.572766,210.593571 298.400522,212.400693 299.219453,214.213114 C300.228998,216.454794 300.686117,218.770666 300.140751,221.204893 C299.45419,224.27859 300.038385,227.099679 301.487399,229.86954 C302.959357,232.685329 304.558391,235.472855 305.116112,238.675506 C305.673832,241.883457 304.632519,243.835431 301.706251,245.103773 C301.249132,245.30162 300.795543,245.510067 300.357838,245.748543 C297.429806,247.357818 297.269197,248.327622 299.570676,250.661159 C301.125586,252.236871 302.971712,253.416888 304.854901,254.54921 C310.463874,257.924978 311.092192,259.382334 309.048394,265.503232 C308.015905,268.591061 307.913538,271.304394 310.400336,273.763352 C311.321634,274.676628 311.833466,275.91494 312.186454,277.174449 C314.163184,284.249253 318.42551,290.260627 321.342953,296.897341 C321.69241,297.694029 322.197183,298.480118 323.213787,298.995934 C324.465128,298.462453 325.753533,297.51738 327.294324,297.674598 C330.578874,298.008465 333.028608,296.510479 335.25949,294.332393 C338.201641,291.454777 341.413829,288.964022 345.379645,287.609122 C347.419913,286.909591 348.314737,285.372742 348.447107,283.279448 C348.522999,282.085299 348.821274,280.896449 348.810684,279.709366 C348.771856,275.434454 352.942404,273.31113 354.041961,269.529069 C354.266108,268.757111 357.118248,268.758878 358.752581,268.380848 C358.867302,268.354351 358.936134,268.115874 359.086154,267.884464 C358.629035,267.283856 358.164856,266.647919 357.674204,266.026113 C353.235384,260.389235 349.700213,254.338997 348.957174,247.000986 Z" id="504" fill="#89AD94"></path>
        <text id="秀-水-鄉" font-family="MicrosoftJhengHeiRegular, Microsoft JhengHei" font-size="16" font-weight="normal" line-spacing="16.96" letter-spacing="-1.1428566" fill="#EFE9D6">
            <tspan x="317.047275" y="233.50587">秀</tspan>
            <tspan x="317.047275" y="250.46587">水</tspan>
            <tspan x="317.047275" y="267.42587">鄉</tspan>
        </text>
        <path d="M236.659457,110.843258 C239.631613,109.885819 242.213717,110.097798 244.755228,110.149026 C247.789157,110.210854 250.717189,109.83989 253.528736,108.675771 C258.188172,106.746761 262.196347,107.66887 265.867418,111.120597 C270.79336,115.754108 275.128048,120.723252 277.272448,127.310503 C278.846773,132.138328 281.990127,135.627151 286.817233,137.328284 C291.543737,138.994086 295.340119,142.143743 299.374768,144.906538 C301.397387,146.289702 302.045119,148.550812 302.232203,150.926745 C303.112907,162.147507 303.112907,162.147507 308.356538,171.541715 C306.672787,174.433464 303.702396,175.93145 301.097347,177.75977 C297.085643,180.575559 296.321425,182.633523 297.826917,187.376557 C299.320055,192.064828 299.401242,196.668308 295.940198,200.634085 C293.511643,203.418077 293.557532,206.399917 294.815933,209.561939 C295.620745,211.577507 296.543807,213.54538 297.489814,215.714633 C294.782399,217.073066 292.31678,216.520154 289.692317,215.68107 C281.92306,213.197381 274.490905,209.904639 266.989918,206.742617 C262.25106,204.744713 257.222751,204.808307 252.473303,207.127712 C247.487352,209.563706 246.493692,212.994234 248.98049,217.926282 C249.801186,219.554989 251.959706,221.483999 249.686465,223.170999 C247.748563,224.605391 245.957151,222.679914 244.435774,221.514029 C241.175934,219.016208 238.969761,216.025536 238.680311,211.561609 C238.198483,204.108776 233.090752,201.047444 226.154545,203.884431 C223.364178,205.023819 221.039755,204.908997 219.145976,202.637287 C215.164276,197.857158 209.952414,196.286746 203.960449,196.4104 C203.582752,195.901651 204.066345,195.53952 204.21107,195.145592 C205.416523,191.852849 204.857037,190.983735 201.433057,190.96077 C199.738717,190.950171 198.042611,191.047328 196.348271,191.034963 C191.759432,191.0014 188.789041,189.008796 187.954225,184.553701 C186.602282,177.348177 187.069991,170.052562 187.929516,162.817008 C188.201316,160.534699 190.006848,159.241626 192.179487,158.674582 C196.7948,157.468068 202.16145,158.997602 207,158.674582 C227.612712,157.298484 244.335173,114.713644 240.443484,112.842928 C239.299804,112.291782 238.191423,111.655845 236.659457,110.843258 Z" id="505" fill="#9CAB7E"></path>
        <text id="鹿港鎮" font-family="MicrosoftJhengHeiRegular, Microsoft JhengHei" font-size="16" font-weight="normal" letter-spacing="-1.1428566" fill="#EFE9D6">
            <tspan x="237.157661" y="173.5626">鹿港鎮</tspan>
        </text>
        <path d="M297.902809,218.15416 C298.398757,219.526725 298.144606,220.729706 297.969877,221.890292 C297.486284,225.077045 298.1852,227.998824 299.60068,230.844644 C300.836137,233.331866 302.334569,235.714864 302.929353,238.490024 C303.421771,240.79883 303.015835,242.340979 300.470794,243.402641 C294.623554,245.840401 294.265272,249.334523 299.290051,253.284401 C301.242072,254.81595 303.390002,256.10549 305.499103,257.426827 C307.737045,258.832955 308.679522,260.64361 307.636443,263.229755 C307.451125,263.692576 307.394647,264.226057 307.129906,264.630584 C306.060353,266.257524 307.324049,269.159872 305.041984,269.838205 C301.820972,270.795644 298.291096,271.443947 295.073614,269.8859 C291.443136,268.12824 287.673228,267.698982 283.756831,267.665419 C282.567262,267.656586 281.234734,267.810271 280.2146,267.34745 C275.052156,265.012147 269.651445,263.337511 264.383105,261.307811 C263.37003,260.91565 262.773481,260.111896 262.501681,259.119127 C261.65804,256.027764 259.347736,254.459119 256.67209,253.12365 C253.143979,251.360691 249.414665,250.367922 245.530036,249.954562 C241.892499,249.564167 239.086247,251.072752 237.268361,254.195911 C235.722275,256.854483 233.697891,258.866518 231.032834,260.445763 C227.60003,262.480762 226.560481,265.100471 227.559436,269.131608 C228.106567,271.339724 227.705926,273.012592 226.230438,274.605969 C224.659643,276.307101 224.144281,278.359766 224.124867,280.657973 C224.077213,286.867195 219.892545,290.197034 214.04354,288.117872 C210.268337,286.773571 206.359,287.497833 202.636745,286.333714 C201.21244,285.886791 200.22584,285.833797 199.362785,284.123832 C196.214135,277.898711 190.788716,273.887006 184.433173,271.519906 C180.449708,270.036052 177.811126,267.831469 176.26504,263.946951 C175.234316,261.35904 174.018274,258.718133 171.820926,256.930442 C166.769673,252.82688 165.490093,247.368417 165.306539,241.226322 C165.175934,236.850719 165.461854,232.441553 164.628803,228.088915 C164.240516,226.055682 163.606904,224.236194 161.271891,222.88836 C170.42486,220.369342 177.5305,214.859651 185.174447,210.222607 C190.6687,206.887469 195.426973,202.428841 201.544248,199.978716 C206.376649,198.04264 211.879726,198.535491 215.812008,202.283989 C217.107473,203.518767 218.344694,204.8825 219.829007,205.836406 C221.893985,207.161275 224.16193,206.9069 226.433406,206.036019 C232.820717,203.591194 236.01349,205.28526 236.634748,212.123354 C237.178349,218.122363 240.635863,221.690678 245.226467,224.626589 C247.13613,225.847236 249.345832,226.587396 251.308443,224.778508 C253.343417,222.900726 252.828055,220.655514 251.723204,218.463296 C251.633192,218.28488 251.534355,218.11353 251.442579,217.935115 C248.662801,212.466053 250.440094,209.019626 256.605023,207.885537 C261.09326,207.064118 265.466777,207.730086 269.335521,209.927603 C275.890501,213.653136 283.211465,215.27301 290.094723,218.064069 C292.583286,219.078035 295.177745,218.710605 297.902809,218.15416 Z" id="506" fill="#94B6B0"></path>
        <text id="福興鄉" font-family="MicrosoftJhengHeiRegular, Microsoft JhengHei" font-size="16" font-weight="normal" letter-spacing="-1.1428566" fill="#EFE9D6">
            <tspan x="185.57575" y="244.431519">福興鄉</tspan>
        </text>
        <path d="M321.26353,93.5475274 C313.174819,109.203953 305.188474,124.658998 297.207424,140.103444 C293.216899,138.137338 289.385218,136.257789 285.564127,134.362342 C282.533728,132.859057 280.592297,130.357703 279.556278,127.231011 C277.22656,120.198604 272.844218,114.65005 267.489396,109.700337 C263.405329,105.921809 258.842964,104.286037 253.556975,106.506518 C248.472188,108.642208 243.053828,107.347369 237.956687,108.458493 C234.813332,109.143892 232.30712,108.424929 229.465569,107.515186 C225.45563,106.234478 221,105.330034 217,107.515186 C213,109.700337 210,119 205.580662,126.648069 C201.161324,134.296137 200,134.428548 189,134.362342 C181.666667,134.318206 178.333333,131.941095 179,127.231011 C186.962085,113.281367 191.962085,104.537696 194,101 C197.056873,95.6934558 201.542483,95.1479699 205.580662,95.1356044 C213.06047,95.1108735 218.455885,91.5407917 222.16402,85.2167476 C223.371238,83.1587835 224.518448,81.0531242 225.526227,78.890937 C227.386472,74.9092624 230.060353,71.6606822 233.634353,69.1098667 C238.159654,65.8754184 241.218292,61.22071 244.98114,57.2443348 C247.69385,54.3773171 249.767652,54.3879161 251.645547,57.9420995 C254.014093,62.4201586 258.054037,65.5415513 260.613197,69.8535601 C261.940431,72.0934729 264.466057,72.6499181 266.966974,72.330183 C269.992078,71.9450875 272.560063,72.9413894 275.235709,74.1920663 C281.372399,77.0590841 287.710292,79.4067529 294.512363,80.1946087 C296.847377,80.4631156 299.230043,81.0637231 300.719651,82.8266829 C305.781493,88.8256923 312.696521,91.1433308 319.876289,93.0546759 C320.257516,93.151833 320.622858,93.3161169 321.26353,93.5475274 Z" id="507" fill="#C9B188"></path>
        <text id="線西鄉" font-family="MicrosoftJhengHeiRegular, Microsoft JhengHei" font-size="16" font-weight="normal" letter-spacing="-1.1428566" fill="#EFE9D6">
            <tspan x="236.213279" y="96.0930099">線西鄉</tspan>
        </text>
        <path d="M299.657158,142.308027 C308.035319,126.075725 316.259931,110.154326 324.466893,94.2223277 C324.890478,93.3973755 325.462318,92.8091334 326.214182,92.2668202 C328.266805,90.7864992 329.901137,88.8945855 331.007754,86.6175763 C332.40735,83.7328937 332.578549,81.0425252 330.291189,78.299162 C327.229021,74.6213241 328.053247,71.7560728 332.375581,69.8040983 C332.649146,69.6804438 332.906827,69.5073275 333.189217,69.4296019 C339.253544,67.7267028 344.603072,64.9321113 348.500055,59.758054 C349.647265,58.2335708 351.334546,57.2708322 353.138313,56.0996475 C357.240029,60.8373811 358.736696,66.2269505 357.663614,72.3867107 C356.811149,77.2869616 355.475091,82.1501162 356.475811,87.1987525 C357.698913,93.3761776 361.345275,98.2728955 365.018111,103.123685 C371.061259,111.102932 378.006291,118.258995 385.434915,124.938104 C387.090427,126.425491 387.055128,127.771558 385.904389,129.320772 C385.134876,130.352404 384.259466,131.34164 383.29581,132.193089 C378.276326,136.616387 375.535377,142.214403 374.684677,148.77869 C374.46759,150.451558 373.945168,151.903616 372.589696,152.917582 C367.478435,156.734973 362.356584,160.538232 356.50405,163.191504 C354.566148,164.067685 352.49411,164.528739 350.400894,164.28143 C346.013257,163.763848 341.941545,164.604698 338.642876,167.501747 C332.357931,173.02027 324.952251,173.914115 317.080627,173.419497 C314.104941,173.234016 311.702861,172.101694 309.960867,169.656868 C306.713381,165.095783 304.531917,160.174335 304.521327,154.431467 C304.512503,149.850951 304.085388,145.371125 299.657158,142.308027 Z" id="508" fill="#B0B282"></path>
        <text id="和美鎮" font-family="MicrosoftJhengHeiRegular, Microsoft JhengHei" font-size="16" font-weight="normal" letter-spacing="-1.1428566" fill="#EFE9D6">
            <tspan x="319.577814" y="130.95301">和美鎮</tspan>
        </text>
        <path d="M249.41643,53.3686497 C252.716864,50.6394184 256.343812,50.0017146 259.988409,49.651949 C265.059076,49.1626305 269.640856,47.698208 273.79905,44.6015462 C277.778985,41.6373714 281.77304,38.6361002 286.421887,36.6876587 C287.946794,36.0499548 289.136362,34.8169428 289.06047,33.0133537 C288.883976,28.673081 291.226049,25.7407031 294.61826,23.7781296 C299.657158,20.8651831 301.603885,16.7103921 301.743315,10.9798896 C301.942753,2.77629728 311.395761,-2.01973055 318.393741,2.36647096 C323.284384,5.43133588 327.991474,8.79473809 332.751512,12.0680492 C334.710594,13.4158831 335.66366,15.387289 336.479062,17.6395673 C340.95318,30.0421129 343.695894,43.1830525 351.924035,54.2183328 C348.203546,56.7338184 345.0849,59.7827849 342.289238,63.1797505 C341.445598,64.2060828 340.134249,64.5964777 338.934091,65.0681312 C336.344926,66.0820981 333.68693,66.9423801 331.147184,68.06057 C326.26713,70.2103917 325.070502,74.7043492 328.102666,79.0587539 C330.448268,82.4309885 330.487097,83.7947209 328.24739,87.0733315 C325.928262,90.4685306 324.202152,91.8834912 319.961006,90.8235956 C313.683121,89.25495 307.516427,87.3365389 303.056429,82.0193957 C300.702001,79.2106722 297.210954,78.4528468 293.679313,77.933498 C287.636165,77.0449521 281.914235,75.0187849 276.428808,72.3973097 C273.327811,70.9169888 270.332711,69.5921192 266.730473,70.243955 C264.640786,70.623751 262.796426,69.7281391 261.67922,67.7832306 C259.190657,63.4570899 254.942451,60.4399202 252.865119,55.7852118 C252.332107,54.6016617 251.038408,54.0028206 249.41643,53.3686497 Z" id="509" fill="#C9A4A8"></path>
        <text id="伸港鄉" font-family="MicrosoftJhengHeiRegular, Microsoft JhengHei" font-size="16" font-weight="normal" letter-spacing="-1.1428566" fill="#EFE9D6">
            <tspan x="286.32212" y="55.14">伸港鄉</tspan>
        </text>
        <path d="M454.353983,308.785837 C454.578131,310.508167 454.758154,311.77121 454.906409,313.037785 C455.448245,317.602402 456.974916,321.787224 460.005315,325.276047 C462.538001,328.18546 464.244697,331.377513 465.321309,335.145442 C466.934462,340.796452 469.391256,346.161291 472.56638,351.160465 C473.847725,353.1725 475.017879,355.264028 476.090961,357.397951 C477.621163,360.443385 478.078281,363.612473 476.941661,366.95291 C476.186268,369.173392 476.251571,371.443335 476.932837,373.718578 C477.384661,375.225396 478.134759,376.244662 479.587304,377.069614 C485.508671,380.429484 486.445853,384.979969 482.82773,390.553254 C478.955456,396.516933 472.155149,398.089112 468.254636,393.63755 C462.539766,387.112126 454.74227,387.060897 447.267757,385.926809 C443.541973,385.363298 439.712057,385.504617 435.933324,385.234344 C432.737021,385.006466 430.608506,386.504452 429.907826,389.44213 C428.50117,395.328083 424.710083,397.977823 418.966974,398.767445 C416.487236,399.106611 414.686999,398.659689 413.25034,396.635288 C411.575413,394.278787 409.889898,391.932884 408.144374,389.629378 C407.609598,388.92808 406.765957,387.781626 406.236476,387.869951 C403.146069,388.387533 402.706599,385.773124 401.328183,384.170915 C399.967416,382.595204 398.523696,380.977096 396.811706,379.835942 C390.069643,375.338451 388.580035,369.007341 389.907268,361.505047 C390.270846,359.450616 390.459694,357.346723 390.512642,355.258728 C390.604419,351.547327 389.402496,349.855027 385.948512,348.381772 C383.357583,347.274181 380.574276,346.924416 377.856271,346.329107 C375.992496,345.921048 374.165785,345.442328 372.651468,344.218149 C370.072894,342.131921 369.651074,338.954 371.926079,336.655793 C373.998116,334.560733 375.189449,332.115907 375.618329,329.319549 C375.87601,327.625482 376.613754,326.80053 378.175725,326.138095 C380.72959,325.055235 383.096372,323.534285 385.609644,322.345435 C389.570165,320.472953 391.763983,321.562879 392.84236,325.781264 C393.772483,329.443203 395.826871,331.041879 399.589719,330.533129 C402.733074,330.109171 405.828775,329.296584 408.936831,328.607652 C410.152873,328.339145 411.067111,327.625482 411.66719,326.477262 C412.076656,325.689406 412.482592,324.617145 413.174447,324.306242 C418.414549,321.937376 422.93985,317.998097 429.06595,317.540575 C433.298272,317.226139 437.63296,316.752719 441.651724,315.484378 C444.452681,314.601131 446.473535,311.762377 449.498639,310.806705 C451.005896,310.331518 452.430201,309.60019 454.353983,308.785837 Z" id="510" fill="#C9A3A8"></path>
        <text id="員林市" font-family="MicrosoftJhengHeiRegular, Microsoft JhengHei" font-size="16" font-weight="normal" letter-spacing="-1.1428566" fill="#EFE9D6">
            <tspan x="409.38291" y="360.617539">員林市</tspan>
        </text>
        <path d="M473.399431,398.237497 C472.975845,399.020053 472.718164,399.498773 472.328113,400.215969 C474.664891,400.862505 476.950486,401.374788 479.158424,402.123781 C486.532335,404.623368 488.069596,410.233749 483.071291,416.225693 C482.370611,417.066543 481.664636,417.942724 480.817465,418.617524 C474.204242,423.874606 473.967741,431.009471 474.941986,438.483501 C475.328508,441.463575 475.383221,444.438349 475.349687,447.43432 C475.316153,450.460322 474.27131,453.072965 472.464013,455.434766 C467.204498,462.320555 467.206263,462.320555 466.870924,470.93574 C462.477994,470.329833 458.321564,471.808387 454.036295,472.463756 C451.87954,472.79409 449.980467,471.801321 448.143166,470.700796 C441.018111,466.431183 433.836578,465.102781 426.21381,469.762789 C421.552609,472.610375 414.639346,471.276673 410.961215,467.307364 C410.322307,466.614899 410.195232,465.744018 410.020503,464.846639 C408.82211,458.803468 406.234711,457.068772 400.549845,459.116137 C397.252941,460.30322 395.066182,458.529661 392.471723,457.393806 C392.764703,456.053038 393.920738,455.454197 394.670836,454.579783 C398.825501,449.730761 399.213787,444.65916 395.713915,439.294322 C395.332688,438.711379 394.907338,438.154934 394.489048,437.598489 C389.57546,431.076597 389.951392,427.172648 396.005129,421.5658 C398.052458,419.670354 400.147439,417.812003 402.065927,415.789369 C405.113975,412.581418 406.11646,408.80819 404.83688,404.47145 C404.41506,403.047657 404.044423,401.56027 403.991474,400.088781 C403.867929,396.737745 403.952646,393.379642 403.952646,390.120463 C405.018668,389.380302 405.523441,390.063935 406.107635,390.622147 C408.222031,392.646547 409.623392,395.202662 411.257725,397.578595 C413.087965,400.2407 415.477692,401.267032 418.693409,400.88547 C425.043656,400.138243 429.992543,397.712849 431.603931,390.894187 C432.226954,388.265645 433.818928,387.212816 436.575762,387.251679 C444.182645,387.357668 451.634214,388.654274 459.103432,389.853722 C461.523162,390.242351 463.053363,392.093635 464.738879,393.611053 C467.132135,395.775006 469.57128,397.788808 473.399431,398.237497 Z" id="511" fill="#C9A58A"></path>
        <text id="社頭鄉" font-family="MicrosoftJhengHeiRegular, Microsoft JhengHei" font-size="16" font-weight="normal" letter-spacing="-1.1428566" fill="#EFE9D6">
            <tspan x="416.112311" y="436.714489">社頭鄉</tspan>
        </text>
        <path d="M309.006035,393.441469 C310.356213,392.063605 312.14586,391.424134 313.736069,390.477294 C315.70221,389.30611 317.892499,388.306275 319.12266,386.31897 C320.455189,384.160316 321.736534,384.536579 323.499707,385.672434 C331.676665,390.925984 330.179998,389.963245 334.920621,382.884909 C336.184317,381.000061 336.752627,378.216068 338.455792,377.172071 C340.24897,376.071546 342.737532,378.092414 345.035482,378.178972 C346.023847,378.217835 346.996328,378.511072 347.981163,378.67359 C352.112884,379.366055 353.235384,380.399453 354.186686,384.404092 C355.685118,390.72107 356.458161,391.182125 362.849002,391.387038 C367.47314,391.535424 371.382478,390.394269 374.908824,387.269344 C379.29999,383.37776 385.703186,383.234674 390.625598,386.621041 C393.980745,388.929847 397.189403,391.50186 401.813541,391.072602 C401.635282,396.774841 401.799421,402.197974 403.26432,407.552213 C403.892638,409.857486 402.530106,412.060303 400.946956,413.782633 C399.063767,415.829998 397.057033,417.785506 394.967346,419.624425 C390.202013,423.816312 387.208678,428.520482 390.180834,435.063571 C385.591995,436.066939 384.584215,435.475164 383.699981,431.339805 C383.412296,429.984905 382.778683,428.925009 381.589115,428.243143 C380.383662,427.550678 379.169385,426.863512 377.910984,426.278803 C372.496154,423.749185 371.338354,424.120149 368.696242,429.576845 C367.785534,431.45816 366.673623,431.661306 364.873386,431.01477 C359.972153,429.255343 355.591577,427.075491 353.517774,421.719485 C352.615891,419.385948 350.522674,417.797871 348.092355,416.840432 C342.617517,414.681778 337.10738,412.883488 331.085411,412.888788 C323.978005,412.894087 321.102921,410.168389 320.231042,403.040591 C319.615078,397.999021 316.184038,395.805037 311.861705,394.414807 C310.936877,394.118036 309.839086,394.349446 309.006035,393.441469 Z" id="512" fill="#A5BBAB"></path>
        <text id="永靖鄉" font-family="MicrosoftJhengHeiRegular, Microsoft JhengHei" font-size="15" font-weight="normal" letter-spacing="-1.07142842" fill="#EFE9D6">
            <tspan x="342.227143" y="410.1">永靖鄉</tspan>
        </text>
        <path d="M401.153454,388.728467 C398.188358,389.440363 396.186918,387.827555 394.174889,386.412595 C391.548661,384.56661 388.915373,382.867244 385.609644,382.446818 C380.828427,381.833845 376.435496,382.468016 372.896795,386.05753 C369.148066,389.860788 364.448036,389.562251 359.746241,389.193054 C358.20545,389.074699 357.227674,388.055433 356.825268,386.573345 C356.459926,385.230811 356.186361,383.863546 355.838668,382.513945 C355.007382,379.270664 352.907106,377.442344 349.627851,376.843503 C346.595687,376.292358 343.510575,375.866633 340.579013,374.971021 C337.845124,374.133703 336.454353,375.209498 335.39539,377.465309 C333.868718,380.715655 332.077306,383.803485 329.606393,386.668736 C326.464803,385.727195 324.251571,382.975 320.949371,382.174778 C320.99879,379.014523 323.009054,376.905331 324.643387,374.757275 C329.669931,368.138227 331.939641,360.72779 331.874338,352.465903 C331.793151,342.396895 331.854924,332.326119 331.854924,322.122857 C333.376301,321.909112 334.692944,322.306573 336.002528,322.665171 C339.772436,323.702102 343.52646,324.380435 347.492276,323.672071 C350.102619,323.207484 352.352915,323.926446 353.584842,326.761667 C356.216365,332.831336 360.446921,334.437078 366.857177,332.133572 C369.234548,331.280356 371.114207,329.61102 373.493344,328.349744 C373.31332,331.024214 372.370843,333.087478 370.665913,334.903432 C367.007196,338.803848 367.859661,343.997337 372.529688,346.677107 C374.462295,347.784698 376.599635,348.254585 378.7458,348.703274 C380.59369,349.091902 382.489233,349.372774 384.257701,349.998113 C388.045259,351.337114 388.726525,352.418208 388.456489,356.479375 C388.290585,358.961297 387.925243,361.436154 387.591669,363.903944 C386.705671,370.429368 388.394716,375.935526 393.786602,380.060287 C395.288565,381.208507 396.730519,382.450351 398.108936,383.746957 C399.483822,385.043563 400.740458,386.462056 401.153454,388.728467 Z" id="513" fill="#88AD95"></path>
        <text id="埔心鄉" font-family="MicrosoftJhengHeiRegular, Microsoft JhengHei" font-size="14" font-weight="normal" letter-spacing="-0.99999994" fill="#EFE9D6">
            <tspan x="338.811058" y="364.231219">埔心鄉</tspan>
        </text>
        <path d="M329.874663,322.691668 C329.40519,334.891067 330.555929,346.952679 329.260465,358.977196 C328.55096,365.564447 324.982255,370.895722 321.162929,376.055648 C319.890408,377.776211 319.023824,379.581567 318.868509,381.780851 C318.690251,384.283971 317.100041,385.988636 315.015649,387.149222 C310.375627,389.728301 306.208608,392.777268 302.525182,396.716547 C298.499359,401.019723 287.862077,401.703356 282.796704,398.661455 C281.384754,397.811772 280.316966,396.652953 279.62864,395.170866 C278.153152,391.985879 275.309837,389.671774 274.049671,386.356067 C273.843173,385.808454 273.384289,385.651236 272.883047,385.569978 C267.822969,384.73266 266.419843,380.63263 265.272634,376.597961 C264.561364,374.087775 263.629476,372.026278 261.485077,370.427602 C258.804136,368.426165 257.157448,365.518518 255.39604,362.732759 C252.519191,358.187573 249.813541,353.532865 246.020689,349.62185 C244.42342,347.970179 244.017484,346.435097 246.84315,345.179121 C249.4129,344.037966 251.082531,341.902277 250.731309,338.754387 C250.634237,337.879973 250.378321,336.844808 251.287264,336.300728 C252.332107,335.67539 253.230461,336.343124 253.918787,337.09035 C256.40735,339.782485 259.54541,340.648067 263.08764,340.561509 C264.80316,340.519113 266.208051,340.3142 266.638696,338.224439 C266.93697,336.781214 267.740017,335.443979 268.078885,334.000755 C268.67014,331.488802 269.725573,329.460868 271.921156,327.856893 C274.78918,325.765365 275.604581,322.628074 275.585167,319.125119 C275.541044,312.034417 276.742966,311.230663 283.615635,313.353987 C285.77592,314.021722 287.666168,314.956196 288.527458,317.293266 C290.502424,322.656338 294.655323,324.935114 300.103687,325.131194 C303.305285,325.24425 306.418636,325.761832 309.554931,326.401303 C312.895959,327.081402 316.192863,326.86589 319.516242,325.55162 C322.728429,324.283278 326.198297,323.675604 329.874663,322.691668 Z" id="514" fill="#84A698"></path>
        <text id="溪湖鎮" font-family="MicrosoftJhengHeiRegular, Microsoft JhengHei" font-size="16" font-weight="normal" letter-spacing="-0.114285655" fill="#EFE9D6">
            <tspan x="266.933009" y="363.330851">溪湖鎮</tspan>
        </text>
        <path d="M324.55161,301.007969 C325.557625,299.971038 326.817791,299.543547 328.120315,299.658369 C331.514291,299.962206 334.055802,298.421824 336.371401,296.204876 C339.262369,293.438548 342.310417,290.905397 346.191516,289.576995 C349.530779,288.43584 350.835068,285.671279 350.586212,282.521623 C350.20675,277.725595 353.549543,274.784384 355.799839,271.449246 C356.883511,269.845271 360.033926,270.004255 361.970063,270.647258 C365.619955,271.862605 369.437516,272.791781 372.743245,274.957501 C374.014001,275.789519 375.367708,276.614471 376.093098,277.882813 C379.654743,284.095568 385.528457,285.717208 392.021664,286.218892 C400.113905,286.84423 408.123195,285.441635 416.180137,285.220824 C417.226745,285.190793 418.403959,284.807464 419.267014,284.213923 C425.484891,279.928411 432.551703,280.64914 439.493204,280.656206 C441.980002,280.659739 444.465035,280.896449 446.953598,280.944145 C450.850581,281.020104 452.735535,283.954248 451.027075,287.543762 C449.8781,289.953258 449.89928,292.302693 450.638789,294.796981 C451.793058,298.690331 452.822017,302.619011 453.937458,306.646614 C449.396272,308.602122 444.789784,309.995885 441.277557,313.415814 C440.91045,313.774413 440.172706,313.903366 439.61322,313.889235 C434.807294,313.769113 430.36318,316.353492 425.472536,315.735219 C424.699493,315.636296 423.719953,316.169777 423.021037,316.667928 C420.641901,318.367294 418.052736,319.554377 415.288843,320.458821 C413.147973,321.160119 411.307143,322.407263 410.327602,324.507622 C409.607507,326.053304 408.469122,326.768733 406.873618,326.927718 C404.194442,327.192691 401.70235,328.372709 398.968461,328.443368 C396.735814,328.499896 395.496827,327.683776 394.923222,325.419133 C393.438909,319.596773 389.458974,317.620067 384.232992,320.684932 C379.075843,323.712701 373.196834,325.286646 368.405027,328.998047 C366.90836,330.153333 365.014581,330.602022 363.101388,330.851098 C359.419727,331.329818 357.234734,330.146267 355.773365,326.749302 C353.853113,322.295974 352.605301,321.176017 347.834674,321.721863 C342.502796,322.331303 337.596268,320.582476 332.500891,319.907675 C331.295439,319.746925 331.277789,318.821282 331.005989,317.980432 C330.054687,315.042754 329.066322,312.119209 328.088546,309.190364 C327.147834,306.362209 326.129465,303.560551 324.55161,301.007969 Z" id="515" fill="#AFB182"></path>
        <text id="大村鄉" font-family="MicrosoftJhengHeiRegular, Microsoft JhengHei" font-size="16" font-weight="normal" letter-spacing="-0.1142857" fill="#EFE9D6">
            <tspan x="364.518741" y="308.079919">大村鄉</tspan>
        </text>
        <path d="M244.776407,343.999104 C244.891128,338.690793 242.118411,335.258497 238.503817,332.90023 C232.015905,328.671246 227.4606,322.896581 223.500079,316.454182 C222.342279,314.572867 220.713241,313.067815 218.964188,311.727047 C217.358094,310.495802 216.304426,308.881228 216.387378,306.892157 C216.666238,300.232479 214.993077,294.304129 210.180091,289.301422 C214.161791,290.912463 217.972292,291.152706 221.860451,289.571695 C224.786718,288.384612 226.426346,286.372577 226.17749,283.161093 C225.925103,279.928411 226.535772,277.116155 228.846076,274.634233 C230.408046,272.956064 230.15919,270.664923 229.569701,268.63699 C228.731355,265.754074 229.707366,263.666079 232.109447,262.286448 C235.055128,260.601214 237.347783,258.375433 239.00153,255.427157 C240.554675,252.65553 242.963816,251.73872 246.070107,252.136181 C250.288309,252.678494 254.192352,254.031628 257.831655,256.20618 C258.992984,256.900412 259.870158,257.836653 260.221381,259.15269 C260.904412,261.73177 262.681705,263.189126 265.087315,263.973449 C269.439653,265.38841 273.765516,266.782172 277.881352,268.882532 C281.060005,270.502406 284.796379,269.269394 288.209769,270.041351 C289.371099,270.302792 290.682448,270.253331 291.684933,270.795644 C295.90137,273.06912 300.294301,273.017892 304.771949,272.076351 C306.063883,271.802545 306.709851,272.245934 307.447595,273.265201 C308.979561,275.383226 309.824966,277.771524 310.889224,280.117426 C314.090822,287.149834 316.830006,294.480779 321.57063,300.714732 C325.734119,306.196159 326.913097,312.868202 329.163393,319.11452 C329.590508,320.308669 328.618027,320.783856 327.756738,320.979936 C320.804646,322.553882 314.202013,326.468429 306.5916,323.696802 C304.328949,322.87185 301.667422,323.133291 299.187684,322.917779 C295.31541,322.582145 292.4668,320.923409 290.835997,317.171378 C288.808083,312.509604 281.675969,309.213328 276.834743,310.478137 C274.737997,311.02575 273.643735,312.463675 273.539604,314.578167 C273.449592,316.372923 273.483126,318.172979 273.525484,319.969503 C273.580197,322.446125 272.717143,324.643642 270.749237,325.986177 C267.957105,327.890456 266.8046,330.570226 265.999788,333.636857 C264.52077,339.284334 261.23622,340.240007 256.599728,336.470311 C255.980235,335.968627 255.367801,335.458111 254.741248,334.96526 C253.355772,333.8771 251.783212,333.696918 250.226536,334.373485 C248.583379,335.087148 248.283339,336.774148 248.546315,338.203241 C249.088151,341.215111 247.370866,342.525849 244.776407,343.999104 Z" id="516" fill="#82A9A2"></path>
        <text id="埔鹽鄉" font-family="MicrosoftJhengHeiRegular, Microsoft JhengHei" font-size="16" font-weight="normal" letter-spacing="-0.114285655" fill="#EFE9D6">
            <tspan x="242.170461" y="298.942819">埔鹽鄉</tspan>
        </text>
        <path d="M391.989895,459.359913 C395.450939,461.977855 398.786672,462.110342 402.427739,460.785472 C405.288704,459.741475 407.145419,460.527565 407.424279,463.588896 C408.012003,470.066625 413.38624,471.016998 417.602677,473.184485 C421.194326,475.03047 424.664194,473.324038 427.740482,471.400327 C434.164856,467.383323 440.398618,468.540376 446.316455,472.156386 C450.206379,474.532319 454.043354,475.168256 458.279206,473.843387 C461.076633,472.968973 463.904064,472.652771 466.960936,472.977805 C467.626318,474.731933 466.946817,476.295279 466.237312,477.795031 C464.608274,481.23086 462.451519,484.348719 460.232992,487.424183 C456.734885,492.274972 457.274956,495.253279 462.213253,498.69264 C462.458579,498.86399 462.705671,499.028274 462.963351,499.185492 C469.546571,503.197197 470.437864,506.104844 467.010355,513.165516 C464.382362,518.574516 460.834836,522.614485 453.949813,521.702975 C450.275211,521.218956 447.32247,522.826464 445.201014,525.825969 C443.227814,528.618794 440.702187,529.586832 437.405283,528.588764 C436.554583,528.330856 435.640345,528.260196 434.754346,528.136542 C431.333896,527.654289 429.457766,528.859037 428.534704,532.199475 C427.323956,536.573311 428.324676,540.925949 428.716492,545.283887 C428.7765,545.978118 428.947699,546.668817 428.942404,547.361282 C428.921225,549.943895 428.010517,552.302163 425.613731,553.279033 C423.545224,554.12165 421.658505,552.703156 420.153013,551.249333 C418.938735,550.072849 417.832119,548.770944 416.792571,547.435475 C415.089405,545.245024 413.001483,543.665779 410.354076,542.798432 C407.987294,542.022941 406.160583,540.54792 404.967485,538.323905 C404.732748,537.885815 404.494482,537.385898 404.116785,537.105025 C398.165414,532.648164 394.393741,526.22873 389.451914,520.865658 C387.964071,519.254616 386.248552,517.834356 385.561991,515.642138 C384.946027,513.674266 385.337844,512.257538 387.408116,511.273602 C392.154034,509.012491 392.974731,506.058915 390.313204,501.391841 C387.679916,496.770696 384.305355,492.702464 380.752534,488.77555 C377.73802,485.443945 378.131601,482.013416 379.206449,477.63958 C380.108332,473.974107 381.747959,471.145952 383.797053,468.252437 C385.260186,466.183874 386.832746,464.330823 389.128931,463.14374 C390.475578,462.444209 391.606904,461.460273 391.989895,459.359913 Z" id="520" fill="#C99574"></path>
        <text id="田中鎮" font-family="MicrosoftJhengHeiRegular, Microsoft JhengHei" font-size="16" font-weight="normal" letter-spacing="-0.1142857" fill="#EFE9D6">
            <tspan x="400.602563" y="506.824599">田中鎮</tspan>
        </text>
        <path d="M383.368173,516.006036 C378.230438,515.546748 373.712196,514.51335 369.449871,512.44302 C368.468565,511.966067 367.377833,511.104019 366.454771,511.234739 C362.406003,511.810616 360.282782,509.08845 357.942474,506.677188 C355.155637,503.80487 351.920505,502.541828 347.921156,503.64412 C346.630986,504.000951 345.568493,504.562696 344.643665,505.564297 C342.739297,507.625794 341.200271,507.63816 339.467102,505.456541 C336.67144,501.935921 335.097115,497.793496 334.719418,493.371964 C334.361136,489.226006 332.635027,486.351922 328.720394,484.972291 C325.003434,483.661554 323.210257,481.275022 323.812101,477.235053 C324.54102,472.348934 322.073637,468.987298 317.954271,467.180176 C313.367197,465.169907 311.949952,461.649287 311.865235,457.188893 C311.768163,452.101394 311.840526,447.005062 311.840526,441.106743 C316.146975,444.517841 321.037618,443.940198 325.621163,444.832276 C327.702025,445.236803 329.020433,446.791317 330.139404,448.513647 C331.279554,450.266008 332.380875,452.055465 333.649866,453.710669 C336.041357,456.839128 339.265899,458.379509 343.221125,458.379509 C347.111049,458.381276 350.999208,458.393641 354.885601,458.44487 C357.176491,458.476666 358.581382,459.545395 359.749771,461.674018 C362.093609,465.947164 364.723366,470.013631 365.905875,474.86442 C366.458301,477.129063 368.440326,478.408004 370.796518,478.733039 C372.45909,478.95915 374.142841,479.015678 376.02956,479.164063 C376.02956,480.289319 376.010146,481.347448 376.031325,482.407344 C376.091333,485.399782 376.956152,488.015958 379.123496,490.248805 C382.743384,493.977871 385.971456,498.044338 388.535911,502.59129 C390.574415,506.207301 390.170244,507.634627 386.446225,509.372856 C383.654093,510.674761 382.663962,512.729192 383.368173,516.006036 Z" id="521" fill="#C59F68"></path>
        <text id="北" font-family="MicrosoftJhengHeiRegular, Microsoft JhengHei" font-size="14" font-weight="normal" letter-spacing="-0.100000001" fill="#EFE9D6">
            <tspan x="326.720421" y="474.505789">北</tspan>
        </text>
        <text id="斗" font-family="MicrosoftJhengHeiRegular, Microsoft JhengHei" font-size="14" font-weight="normal" letter-spacing="-0.100000001" fill="#EFE9D6">
            <tspan x="341.05" y="485.945789">斗</tspan>
        </text>
        <text id="鎮" font-family="MicrosoftJhengHeiRegular, Microsoft JhengHei" font-size="14" font-weight="normal" letter-spacing="-0.100000001" fill="#EFE9D6">
            <tspan x="354.57" y="497.385789">鎮</tspan>
        </text>
        <path d="M387.812287,458.930655 C388.119386,459.75914 389.173054,458.87766 389.672532,459.847465 C383.913538,464.13121 378.853461,468.9661 377.256192,476.535522 C371.354239,478.196025 368.461505,476.62208 366.749515,470.490584 C365.462875,465.876505 362.135967,462.391214 360.078049,458.20286 C359.541508,457.112934 358.163091,456.805564 356.964698,456.643047 C353.304217,456.148429 349.610201,455.749202 345.9356,456.213789 C340.582543,456.890356 336.323747,455.107965 333.888133,450.377297 C330.903622,444.576135 326.554815,441.726782 320.015719,442.073015 C318.335498,442.161339 316.6994,441.495372 315.190378,440.659821 C311.00924,438.342182 306.831631,436.022777 302.004526,435.264952 C300.296066,434.998211 299.203569,433.812895 298.354634,432.410299 C295.784884,428.167184 292.445621,424.664229 288.430387,421.763648 C287.307886,420.951061 286.368939,419.884099 285.355864,418.924894 C281.690088,415.446669 280.234014,411.454396 282.258398,406.50645 C282.886716,404.967834 283.133807,403.270235 283.592691,401.496676 C287.862077,402.77385 292.112048,402.810947 296.362019,401.994827 C299.764819,401.342991 302.908174,400.03932 305.086108,397.225297 C306.256262,395.714945 307.482894,395.681382 309.15429,395.999351 C315.711035,397.250028 317.673646,399.244398 318.402566,405.706228 C319.011469,411.086965 323.764448,415.073939 330.442973,415.024478 C335.870158,414.985615 340.826104,416.42354 345.820879,418.175901 C348.837158,419.232263 351.129813,421.007589 352.331736,423.922302 C354.769115,429.813555 360.079814,431.601246 365.431107,433.288246 C367.76612,434.02664 369.423397,432.989709 370.489419,430.758629 C372.704417,426.141017 372.722066,426.222275 377.349734,428.3456 C379.797703,429.469089 381.749724,430.638507 382.097417,433.788164 C382.43452,436.83713 385.028979,437.907625 387.678151,437.404174 C391.57337,436.66578 393.355957,438.797937 394.663776,441.740914 C396.172799,445.13788 396.937017,448.584307 394.194303,451.847019 C392.15227,454.275947 389.607229,456.261485 387.881119,458.969518 C387.794637,459.096705 387.70639,459.227426 387.618144,459.354613 C387.858175,459.204461 387.836996,459.068442 387.812287,458.930655 Z" id="522" fill="#7DACA6"></path>
        <text id="田" font-family="MicrosoftJhengHeiRegular, Microsoft JhengHei" font-size="14" font-weight="normal" fill="#EFE9D6">
            <tspan x="308.636509" y="428.403039">田</tspan>
        </text>
        <text id="尾" font-family="MicrosoftJhengHeiRegular, Microsoft JhengHei" font-size="14" font-weight="normal" fill="#EFE9D6">
            <tspan x="326.316509" y="436.723039">尾</tspan>
        </text>
        <text id="鄉" font-family="MicrosoftJhengHeiRegular, Microsoft JhengHei" font-size="14" font-weight="normal" fill="#EFE9D6">
            <tspan x="343.996509" y="446.083039">鄉</tspan>
        </text>
        <path d="M321.374721,477.462931 C318.974406,477.233286 316.528201,476.968313 314.080232,476.768699 C310.44446,476.475461 307.096372,477.183825 304.546037,480.01198 C302.864051,481.875629 300.795543,481.921558 298.531127,481.810269 C291.62669,481.464037 289.923524,483.096276 289.694082,490.126917 C289.634074,491.934039 289.61819,493.734095 288.705717,495.359269 C288.117993,496.401499 287.509089,497.606247 286.015951,497.263548 C284.630475,496.943813 283.3456,496.355571 283.172636,494.635007 C282.936134,492.269673 282.224864,490.199343 279.365665,490.204643 C276.898281,490.206409 274.990383,492.543479 274.771531,495.608344 C274.619746,497.721069 274.896841,499.84616 275.659294,501.782236 C277.013002,505.216298 275.954039,507.731784 273.285453,509.943433 C271.142818,511.718758 268.964884,513.453454 267.418798,515.866483 C265.366175,519.067368 265.406769,522.669247 265.117319,526.230496 C264.933766,528.491607 265.191447,531.556472 262.851139,532.271901 C260.23903,533.068589 259.275374,529.936598 258.091101,528.145374 C256.456768,525.675817 254.183528,523.492432 254.822435,519.883488 C255.170128,517.917381 253.440489,516.221548 252.047952,514.788922 C250.729544,513.434022 249.329948,512.133884 247.831515,510.983897 C241.28536,505.952926 239.84517,499.199624 241.114161,491.495949 C241.41067,489.699426 241.654232,487.86404 240.679986,486.2371 C237.181879,480.400608 237.928448,474.145457 238.853275,467.906205 C239.149785,465.901235 239.444529,463.970459 238.639718,461.877165 C245.893613,457.736506 243.443879,450.875448 243.309744,444.733353 C243.256796,442.272628 242.120176,439.928493 241.264181,437.584357 C239.13743,431.749631 239.343928,426.148083 242.748494,420.698452 C245.491207,416.314017 247.900348,411.721136 249.10933,406.60184 C249.679405,404.179979 249.186988,402.125548 247.639137,400.189472 C245.222937,397.165236 245.057033,394.103904 246.994935,391.12913 C248.932837,388.157889 252.213857,387.060897 255.876103,388.027169 C258.272889,388.663106 260.694384,389.322008 263.147648,389.631144 C265.65386,389.947347 268.260674,389.966778 269.266689,387.022035 C271.310487,387.016735 272.198251,388.076631 273.257214,389.422698 C275.904621,392.784334 277.466591,396.92146 280.714077,399.827341 C281.450056,400.482709 281.393578,401.210504 281.257678,401.99836 C281.139427,402.681993 281.035296,403.393889 280.758201,404.020994 C277.191261,412.100932 280.281667,418.167068 286.676038,423.063786 C290.763635,426.194011 294.291746,429.751728 296.983277,434.155594 C298.192259,436.135833 300.108982,437.042043 302.378693,437.533128 C309.805552,439.135337 309.775548,439.190099 309.800257,446.819581 C309.814377,450.909011 309.777313,455.007275 309.990871,459.087873 C310.220313,463.467008 312.069968,466.761517 316.351708,468.706426 C320.98467,470.815618 322.382501,473.550149 321.374721,477.462931 Z" id="523" fill="#C9A58A"></path>
        <text id="埤頭鄉" font-family="MicrosoftJhengHeiRegular, Microsoft JhengHei" font-size="16" font-weight="normal" fill="#EFE9D6">
            <tspan x="252.269071" y="466.394489">埤頭鄉</tspan>
        </text>
        <path d="M421.95325,555.16918 C420.435403,555.960569 419.07993,556.591207 417.805645,557.356098 C416.000113,558.435425 414.491091,560.18602 414.53698,562.125629 C414.637581,566.347546 412.417289,569.36295 410.458208,572.728118 C406.624762,579.324202 406.949511,586.231189 410.348781,593.477342 C405.163393,592.754847 400.371586,592.037651 395.563895,591.428211 C382.914583,589.826002 370.247623,588.329782 357.605371,586.662213 C353.138313,586.073971 348.925405,584.4223 344.853693,582.555117 C335.243605,578.147718 325.11992,576.430687 314.636188,576.467783 C307.562316,576.490748 300.657878,575.363725 294.291746,572.309459 C281.829518,566.331648 268.940175,561.184088 257.26158,553.649997 C255.166598,552.296863 253.172218,550.791811 251.045468,549.491673 C249.250526,548.394681 248.68751,547.248227 250.166528,545.457003 C251.883813,543.379608 251.612013,540.952447 250.941336,538.61891 C249.557625,533.787552 249.836485,529.390752 253.851719,525.751776 C255.413689,527.993456 256.95801,530.270465 258.567634,532.499779 C259.704254,534.071957 261.252105,534.900442 263.232365,534.520646 C265.163208,534.15145 265.918601,532.665829 266.435728,530.957631 C267.194651,528.447444 267.381735,525.848934 267.429388,523.266321 C267.50528,519.157459 269.305517,516.025467 272.381804,513.479951 C273.454887,512.587872 274.529734,511.690494 275.549868,510.738355 C278.109029,508.339457 279.039151,505.513069 277.861937,502.066642 C277.152432,499.985713 276.810034,497.818227 276.954759,495.594212 C277.055361,494.078561 277.542483,492.679499 279.190936,492.488718 C281.097069,492.264373 281.026471,493.997303 281.169431,495.191452 C281.492415,497.901252 283.375604,498.818061 285.63296,499.291482 C287.962678,499.779034 289.401103,498.500093 290.451241,496.601113 C291.863191,494.048531 291.681403,491.190346 291.969088,488.436384 C292.389143,484.412313 293.225724,483.423077 297.263902,483.875299 C301.109702,484.306323 304.242467,483.650955 306.997536,480.697379 C308.780123,478.786034 311.42753,478.549324 313.995515,478.800166 C316.459369,479.036876 318.919693,479.335413 321.547685,479.626884 C321.83184,483.405412 324.207447,485.59763 327.490232,486.729952 C331.023638,487.948832 332.405585,490.398957 332.696799,493.907212 C333.033903,497.948947 334.505861,501.672714 336.569074,505.122674 C339.438863,509.924001 342.412784,510.335594 346.586862,506.673655 C348.537119,504.961923 351.533984,504.841802 354.126678,506.336255 C355.805134,507.306059 356.999997,508.788147 358.300757,510.164244 C360.07099,512.031427 361.996537,513.517048 364.815143,513.093089 C365.842337,512.935872 366.770695,513.416358 367.647869,513.889778 C372.107867,516.290441 376.904969,517.526986 381.920923,517.887351 C383.421121,517.996873 384.423606,518.493258 385.445505,519.660909 C388.576505,523.24159 392.415245,526.221664 394.199598,530.890504 C394.653187,532.08112 395.996305,532.706458 397.049973,533.469583 C399.649727,535.347365 402.039453,537.407096 403.694965,540.258215 C404.757458,542.093601 406.324723,543.549191 408.416174,544.213392 C411.790736,545.28742 414.284593,547.463739 416.372515,550.238899 C417.828589,552.169676 419.544109,553.831945 421.95325,555.16918 Z" id="524" fill="#C9B188"></path>
        <text id="溪州鄉" font-family="MicrosoftJhengHeiRegular, Microsoft JhengHei" font-size="16" font-weight="normal" fill="#EFE9D6">
            <tspan x="303.62" y="547.1">溪州鄉</tspan>
        </text>
        <path d="M246.140705,512.379426 C241.177699,508.698055 239.035064,503.555795 238.756204,497.653943 C238.500288,492.193714 239.942242,486.553302 236.493553,481.53293 C236.195278,481.101906 236.325884,480.367045 236.283525,479.766437 C235.983486,475.470327 236.087617,471.198947 236.881839,466.948766 C237.171289,465.399552 237.406026,463.784977 236.504143,462.571397 C231.627619,462.571397 226.957592,462.657955 222.289331,462.548432 C216.443856,462.408879 212.809848,459.580724 212.564522,454.519723 C212.400383,451.115691 210.63015,449.455188 207.882141,448.338765 C204.082229,446.79485 200.058171,446.029958 196.065881,445.199707 C188.398989,443.599264 185.126794,446.379724 185.310348,454.166424 C185.419774,458.845863 185.788646,463.505871 185.026193,468.202976 C183.577178,477.141429 180.470887,479.921888 171.497942,479.745239 C171.201432,479.738173 170.906688,479.658681 170.608413,479.635717 C162.618538,479.051008 154.73456,480.568425 146.898235,480.587856 C145.295671,484.652556 145.350384,489.383224 140.833907,491.796253 L139.370774,492.698931 L139.363714,492.702464 C140.145581,493.939008 140.960983,495.762029 141.162186,497.486126 C141.416337,499.67481 142.648264,501.061507 144.6197,501.978317 C146.509948,502.856264 148.4655,503.707713 150.138661,504.915994 C152.694291,506.761979 152.498383,509.307495 149.914514,510.943268 C145.593945,513.676032 144.928564,515.666869 146.917649,520.369273 C148.267827,523.559559 149.58447,526.737479 149.374443,530.411784 C155.29934,530.717388 160.700051,532.591636 166.249016,533.759288 C180.942126,536.845351 195.628176,539.171822 210.635445,535.356198 C215.434311,534.139084 220.489094,534.828016 224.820252,537.513085 C231.72822,541.791531 238.941522,545.218527 247.053178,546.702381 C247.070827,546.458605 246.910218,545.729043 247.166134,545.527663 C250.854854,542.60765 248.862239,539.014604 248.25863,535.700664 C247.667376,532.434419 248.221567,529.592132 250.177118,526.956525 C250.708364,526.239328 251.165483,525.458539 251.610248,524.681282 C253.54462,521.293149 253.442254,519.533722 250.791317,516.587212 C249.400545,515.039764 247.813866,513.621271 246.140705,512.379426 Z" id="525" fill="#AFB183"></path>
        <text id="竹塘鄉" font-family="MicrosoftJhengHeiRegular, Microsoft JhengHei" font-size="16" font-weight="normal" fill="#EFE9D6">
            <tspan x="172.333937" y="508.179101">竹塘鄉 </tspan>
        </text>
        <path d="M266.885787,384.83865 C264.789041,381.809114 263.451218,378.5729 262.648171,375.036381 C262.473442,374.264424 262.007498,373.594923 261.324467,373.096772 C257.766352,370.512393 255.464873,366.891083 253.188102,363.23621 C250.503632,358.922434 247.930352,354.522101 244.2734,350.902557 C242.9797,349.623616 242.591414,347.876555 242.760848,346.186022 C243.29033,340.920107 240.800002,337.245802 236.910078,334.157972 C234.802742,332.483337 232.737765,330.766306 230.413341,329.381376 C228.86549,328.461033 227.45001,327.348143 226.721091,325.592249 C224.732005,320.80682 221.544527,316.879907 217.702257,313.518271 C215.247228,311.368449 214.103548,308.838832 214.221799,305.637947 C214.301221,303.438663 214.320635,301.219949 213.556417,299.123122 C211.387308,293.162975 206.858477,286.881327 200.280553,288.449972 C199.768721,289.773075 199.445737,291.168605 198.745057,292.336256 C194.390954,299.591242 192.661315,307.64115 191.381735,315.857107 C190.059796,324.32744 188.699029,332.79424 187.267664,341.245141 C186.344601,346.698304 183.455398,350.30195 177.675225,351.202861 C175.728499,351.504931 173.808246,352.147935 172.168618,353.38448 C165.050623,358.766983 160.052318,365.242945 161.00009,374.836768 C161.058333,375.42501 160.963026,376.032683 160.917138,376.627991 C160.032904,388.119027 156.910729,391.789798 146.179905,393.30015 C143.304821,393.704677 141.564592,395.013648 140.648589,397.541499 C139.024846,402.030157 137.033996,406.464054 136.093284,411.10463 C134.771345,417.644186 131.419727,422.650427 126.518494,426.845847 C124.580592,428.502817 123.168642,430.460091 122.238519,432.855456 C120.722437,436.755872 119.040451,440.589161 116.947235,444.229902 C115.702954,446.397389 114.642226,448.722093 114.343951,451.186351 C114.0898,453.295543 113.313227,454.7529 111.37003,455.574319 C111.542994,457.183594 111.551819,458.497864 111.843034,459.746775 C113.66798,467.501678 114.95462,475.560418 123.338076,479.556224 C125.330691,480.504831 126.943844,482.094675 128.06458,484.034284 C129.439467,486.40845 131.483265,487.902903 133.987712,488.803814 C135.727941,489.429152 137.166366,490.2965 138.310046,491.405858 L138.327695,491.391726 L140.9098,489.459183 C142.784164,487.613198 143.396597,485.161306 144.03021,482.767708 C145.152711,478.506928 145.32391,478.388573 149.757434,478.241954 C157.922038,477.973447 166.072522,477.348109 174.26007,477.485895 C178.975985,477.567154 181.341002,475.408499 182.399965,470.716695 C183.368916,466.424117 183.926636,462.087378 183.353031,457.649948 C182.994749,454.88362 182.945331,452.083729 183.593063,449.317402 C184.53907,445.289798 187.558879,442.634759 191.688834,442.738982 C198.023197,442.8962 204.094584,444.471912 209.888876,446.978565 C212.705717,448.199212 214.331225,450.352566 214.571257,453.678872 C214.881886,457.983815 216.629174,459.619587 220.930329,460.248459 C225.805088,460.960355 230.715145,460.532864 235.545781,460.034713 C240.067553,459.566592 241.437145,457.512161 241.682471,452.760296 C241.947212,447.598604 240.960611,442.69482 239.186848,437.831666 C236.968321,431.744332 237.218942,425.709992 240.697635,420.011287 C243.195023,415.921856 245.41708,411.696405 246.844915,407.092925 C247.512061,404.943104 247.420285,403.012327 245.752418,401.284697 C244.070432,399.541169 243.41211,397.387814 243.606253,394.971252 C244.149854,388.205585 249.998859,384.112621 256.506186,385.967438 C259.278904,386.757061 262.003968,387.751596 264.962005,387.650906 C266.966974,387.590845 267.824734,386.193549 266.885787,384.83865 Z" id="526" fill="#C89575"></path>
        <text id="二林鎮" font-family="MicrosoftJhengHeiRegular, Microsoft JhengHei" font-size="16" font-weight="normal" fill="#EFE9D6">
            <tspan x="173.723898" y="404.838729">二林鎮</tspan>
        </text>
        <path d="M50.92443,425.339029 C54.3042865,426.708061 57.7635652,427.575409 60.1815304,430.594345 C61.5687718,432.323741 63.4113672,432.111762 65.2610223,430.901715 C70.4428806,427.513581 75.7747586,428.758959 80.9389675,430.846953 C83.3286937,431.813225 83.0392439,434.286315 82.6156587,436.361944 C81.069573,443.924299 84.0311391,449.787289 89.340073,454.830625 C91.4438792,456.830295 93.6624064,457.738272 96.6469167,456.692509 C99.7585026,455.604349 103.065997,455.358807 106.373491,455.25635 C108.270799,455.196289 109.430363,455.66441 109.513316,457.807166 C109.66863,461.742912 111.302963,465.343024 112.166018,469.110953 C113.355586,474.300909 116.421283,477.787965 120.763031,480.40944 C123.272773,481.923325 125.493065,483.673919 127.019737,486.260064 C128.345205,488.50881 130.537258,489.826613 132.909335,490.655098 C136.439211,491.89341 138.666563,494.083861 139.127212,497.892419 C139.517263,501.112736 141.455165,502.942822 144.356724,504.188199 C146.368753,505.050248 148.73377,505.643789 149.732725,507.846606 C149.573881,508.733385 149.028515,509.005425 148.520213,509.32516 C143.799003,512.278736 142.775339,515.170485 144.654998,520.379872 C145.295671,522.156964 146.075773,523.882827 146.686442,525.672284 C147.669513,528.548134 146.469355,530.302262 143.403657,530.917001 C141.359859,531.326828 139.354889,531.938034 137.358744,532.545708 C131.980978,534.177947 126.504375,535.066493 120.872457,535.025863 C111.001158,534.95697 101.133389,534.852747 91.3185686,536.3472 C82.2220776,537.730364 73.2385426,536.997269 64.3767883,534.480017 C51.5262739,530.830443 38.3068875,528.790144 25.345182,525.638721 C8.13703541,521.4539 2.13624584,509.215638 3.00636033,493.002767 C3.18814895,489.618167 3.82705655,486.275963 4.5612708,482.956723 C4.86660509,481.575326 5.32901888,480.644384 6.76920838,480.128568 C14.0566378,477.519458 19.6250176,472.629806 24.2191515,466.551305 C27.1277695,462.702117 30.3752556,459.146167 34.213996,456.279149 C43.7923151,449.123087 49.3042168,439.760676 50.4302474,427.83155 C50.5061397,427.047227 50.7338167,426.277037 50.92443,425.339029 Z" id="527" fill="#C9A3A8"></path>
        <text id="大城鄉" font-family="MicrosoftJhengHeiRegular, Microsoft JhengHei" font-size="16" font-weight="normal" fill="#EFE9D6">
            <tspan x="46.08" y="493.850399">大城鄉</tspan>
        </text>
        <path d="M104.943891,295.6184 C107.716609,293.9208 110.667585,293.10998 113.839179,293.465045 C117.22786,293.850141 119.571698,292.422815 121.35605,289.663553 C124.321146,285.077738 126.622626,280.329405 126.474371,274.644832 C126.317291,268.621091 128.048696,263.028375 131.006732,257.822521 C136.62453,247.937228 142.249388,238.032503 150.385752,229.917235 C152.577805,227.730317 154.755739,225.407379 158.384452,225.213065 C161.501333,225.045248 162.521467,226.506138 162.692666,229.143511 C162.945052,233.024496 163.349223,236.914313 163.264506,240.791764 C163.107426,247.969024 164.98532,254.148216 170.687835,258.896549 C172.728104,260.597681 173.580569,263.162629 174.618353,265.526196 C176.362111,269.499038 179.118945,272.095782 183.393625,273.378256 C188.707854,274.971633 192.650725,278.743095 196.245904,282.788363 C198.275583,285.065372 198.859778,287.916492 197.241329,290.575063 C190.915791,300.960274 189.80035,312.751613 187.881862,324.33274 C187.018808,329.54566 186.208701,334.767412 185.412714,339.990931 C184.622022,345.173821 182.027563,348.254585 176.575669,349.401038 C167.336218,351.347713 159.415176,361.384925 159.139845,370.863925 C159.018065,374.979853 158.545061,378.984493 157.336079,382.943203 C155.30287,389.601114 154.469819,390.701639 147.424186,391.06377 C142.364109,391.321678 139.517263,393.614586 138.038245,398.216299 C136.608645,402.667861 134.716632,406.981636 133.811219,411.586883 C132.78226,416.828067 129.981303,420.998756 126.054316,424.370991 C123.248064,426.782253 121.274863,429.569779 119.854088,432.972044 C117.827939,437.833432 114.864608,442.375085 113.399709,447.376026 C112.107775,451.778126 110.861728,454.187622 105.618097,453.304376 C102.504746,452.777961 99.0737066,453.585248 95.9356467,454.706971 C94.1636488,455.337609 92.6281527,454.982544 91.2850347,453.677106 C86.687371,449.218478 83.2739807,444.429516 84.632983,437.368845 C85.8384357,431.108394 83.8175816,428.342067 77.4602745,427.451754 C72.8114275,426.803451 67.8960749,425.794784 63.7061118,429.324237 C63.1077978,429.829453 62.3135757,429.845352 61.8299826,429.198816 C59.2108145,425.717058 55.061445,424.839111 51.3180112,423.084984 C51.838668,418.658153 53.4394668,414.722407 55.7127071,411.062234 C58.2983415,406.902144 61.2369634,402.999962 64.784489,399.587098 C67.4283663,397.046881 69.4527503,394.178097 70.0387098,390.426066 C70.3864026,388.202052 71.7824686,386.447924 73.0091006,384.623137 C76.0253798,380.139779 75.4994283,377.772678 70.8505813,375.258959 C69.1844797,374.358048 68.6320541,373.098539 68.863261,371.333812 C69.2674318,368.238917 70.774689,365.712832 72.8484912,363.458788 C76.364248,359.63963 79.9929607,355.926463 83.9358325,352.554228 C86.8162115,350.088204 88.5952691,347.109897 88.9482567,343.3561 C89.310069,339.547542 90.6655415,336.256566 93.2794148,333.414279 C95.2402611,331.278589 95.4926472,329.093438 94.9419865,325.887253 C93.7382987,318.870744 93.0835067,311.49917 99.3560967,305.828728 C101.705229,303.703637 103.904342,301.318872 105.194512,298.319367 C105.573974,297.434355 106.40526,296.406256 104.943891,295.6184 Z" id="528" fill="#C59F69"></path>
        <text id="芳苑鄉" font-family="MicrosoftJhengHeiRegular, Microsoft JhengHei" font-size="16" font-weight="normal" fill="#EFE9D6">
            <tspan x="105.127567" y="354.137169">芳苑鄉</tspan>
        </text>
        <path d="M459.011655,523.877528 C456.989036,529.632761 456.985506,529.638061 462.578595,532.379657 C468.549381,535.308502 473.311184,539.574582 476.795171,545.241491 C480.508601,551.282896 484.297923,557.264241 489.622742,562.072634 C489.769232,562.206887 489.963375,562.344674 490.016323,562.516024 C491.350616,567.036479 495.023452,566.412907 498.429783,566.356379 C504.495875,566.255689 510.4949,564.773601 516.61394,565.566757 C519.001901,565.875893 521.301616,566.464135 523.592505,567.144235 C528.841431,568.704048 531.587675,572.429581 532.648403,577.62307 C533.188474,580.25691 533.770904,582.885452 534.300385,585.524592 C535.184619,589.926692 533.02963,593.445545 528.654348,592.988024 C520.539163,592.140107 515.496734,596.384989 510.892011,601.931776 C505.925475,607.914887 499.434033,609.55066 492.070711,608.534926 C483.10306,607.298381 474.048928,606.612982 465.264831,604.171689 C461.475509,603.117093 457.569701,603.286676 453.679777,603.680604 C450.854111,603.966776 447.973732,603.827223 445.557532,602.323938 C438.561317,597.966 430.552028,597.257637 422.7863,595.637763 C420.839574,595.231469 418.854018,594.542537 416.921411,594.641461 C413.163858,594.834009 411.935461,592.318523 411.001809,589.596358 C408.830935,583.247583 409.563384,577.160249 413.606857,571.747715 C415.2306,569.573162 416.363691,567.407442 416.296623,564.685277 C416.217201,561.336006 418.056266,559.364601 420.929585,558.043264 C431.102689,553.370891 431.372724,552.886872 430.416128,541.743835 C430.176096,538.965142 429.831933,536.200581 430.373769,533.40069 C430.830888,531.03359 432.013397,529.839441 434.500195,530.265165 C435.576807,530.448881 436.648124,530.687357 437.731796,530.828677 C440.587466,531.20494 443.699052,531.360391 445.402217,528.73185 C448.799723,523.4783 453.663893,523.199194 459.011655,523.877528 Z" id="530" fill="#C3927A"></path>
        <text id="二水鄉" font-family="MicrosoftJhengHeiRegular, Microsoft JhengHei" font-size="16" font-weight="normal" fill="#EFE9D6">
            <tspan x="433.12" y="580.180807">二水鄉 </tspan>
        </text>
    </g>
</svg>