<?xml version="1.0" encoding="UTF-8"?>
<svg width="551px" height="622px" viewBox="0 0 551 622" version="1.1" xmlns="http://www.w3.org/2000/svg" xmlns:xlink="http://www.w3.org/1999/xlink">
    <!-- Generator: Sketch 51.2 (57519) - http://www.bohemiancoding.com/sketch -->
    <title>map-ok</title>
    <desc>Created with Sketch.</desc>
    <defs>
        <filter x="-1.3%" y="-0.8%" width="102.5%" height="102.3%" filterUnits="objectBoundingBox" id="filter-1">
            <feOffset dx="0" dy="2" in="SourceAlpha" result="shadowOffsetOuter1"></feOffset>
            <feGaussianBlur stdDeviation="2" in="shadowOffsetOuter1" result="shadowBlurOuter1"></feGaussianBlur>
            <feColorMatrix values="0 0 0 0 0   0 0 0 0 0   0 0 0 0 0  0 0 0 0.5 0" type="matrix" in="shadowBlurOuter1" result="shadowMatrixOuter1"></feColorMatrix>
            <feMerge>
                <feMergeNode in="shadowMatrixOuter1"></feMergeNode>
                <feMergeNode in="SourceGraphic"></feMergeNode>
            </feMerge>
        </filter>
    </defs>
    <g id="map-ok" stroke="none" stroke-width="1" fill="none" fill-rule="evenodd">
        <g id="map" filter="url(#filter-1)" transform="translate(0.120000, 0.040000)">
            <g id="500" transform="translate(321.000000, 127.530000)">
                <path d="M160.996832,70.253383 C156.613644,64.91364 154.629805,58.9749157 153.452232,52.4072608 C152.45324,46.817355 149.226408,41.6784469 150.106935,35.663969 C150.255458,34.6633177 149.500467,33.5657724 148.713651,32.7659561 C140.355712,24.2568968 131.145537,17.6381523 118.264729,19.0898014 C113.492553,19.6288846 108.944929,18.6440887 104.505161,16.9123278 C101.257111,15.6456583 98.0249745,14.2768097 94.5382273,13.776484 C88.358622,12.8850588 82.0075084,12.7811179 76.3548052,9.37220902 C75.4795821,11.9037863 73.8723543,13.5404149 72.1678795,15.076626 C67.358573,19.4121943 64.7116863,24.8312142 63.9531596,31.1980342 C63.7144624,33.1922899 62.8357031,34.7602118 61.2496928,35.9722682 C56.5694596,39.5467778 51.7141818,42.8711246 46.5070466,45.6370093 C43.9291169,47.0058579 41.1195625,48.0787393 38.1933116,47.7228739 C33.2743812,47.1238925 29.1546444,48.5843501 25.4645625,51.6726277 C20.474907,55.8478804 14.6807536,56.9066681 8.55596029,56.8855276 L8.55596029,58.705374 C8.31549497,61.7883665 9.83078014,64.2723776 11.3389928,66.7387716 C12.4829712,68.6044225 13.6693847,70.4559797 14.977799,72.2071194 C18.0932394,76.377087 19.7818011,80.5541014 15.601948,85.0552704 C15.4092221,85.2631522 15.3438014,85.5873068 15.2147281,85.8550868 C14.2740843,87.8246785 14.9247552,88.8905131 17.0694937,89.1318673 C19.2796529,89.3802685 21.4332321,88.927509 23.6044925,88.6526822 C26.2938143,88.3126722 28.8346134,88.5927841 30.6681615,90.8935773 C32.8871613,93.6788408 35.949558,94.5614576 39.3036956,95.0635449 C46.9915136,96.2121798 54.3946629,94.904991 61.7907398,92.96711 C67.5353857,91.460848 73.2694229,91.7550535 78.0097724,95.5991047 C81.2719674,98.239908 84.3255234,98.5429221 87.9289671,96.9503363 C89.7501383,96.1452348 91.6261214,95.4581679 93.4649739,94.686539 C96.8350247,93.2754093 100.274033,93.1098085 103.677678,94.4064271 C106.561494,95.5022107 109.386961,96.7547865 112.187675,98.0478816 C114.80804,99.2564147 116.287962,101.268288 116.722922,104.235007 C117.143736,107.110118 118.098525,109.957041 120.754252,111.611287 C126.085156,114.930349 131.734323,115.52933 137.08114,111.983008 C140.704033,109.583559 144.406492,108.598763 148.635853,108.855972 C153.169332,109.129038 157.161763,107.393753 161.189557,105.374834 C160.915498,104.342471 160.784656,103.447523 160.45048,102.638898 C157.969797,96.6455605 157.725796,91.163119 161.529038,85.1891604 C164.402245,80.6756594 164.64271,74.6946539 160.996832,70.253383 Z" id="Shape" stroke="#000000" stroke-width="1.76666667" fill="#000000" fill-rule="nonzero" opacity="0.15"></path>
                <path d="M152.557227,61.7842937 C148.174039,56.4445507 146.1902,50.5058263 145.012628,43.9381714 C144.013636,38.3482656 140.786803,33.2093576 141.667331,27.1948796 C141.815853,26.1942284 141.060863,25.096683 140.274046,24.2968667 C131.916108,15.7878074 122.705932,9.16906296 109.825124,10.620712 C105.052948,11.1597953 100.505325,10.1749994 96.0655569,8.44323844 C92.8175069,7.17656895 89.58537,5.80772029 86.0986228,5.30739465 C79.9190176,4.41596939 73.567904,4.3120285 67.9152007,0.903119659 C67.0399777,3.43469692 65.4327499,5.07132551 63.7282751,6.60753662 C58.9189686,10.9431049 56.2720818,16.3621249 55.5135552,22.7289448 C55.274858,24.7232005 54.3960987,26.2911224 52.8100884,27.5031789 C48.1298552,31.0776885 43.2745774,34.4020352 38.0674422,37.1679199 C35.4895125,38.5367686 32.6799581,39.60965 29.7537072,39.2537845 C24.8347768,38.6548031 20.71504,40.1152607 17.0249581,43.2035384 C12.0353026,47.378791 6.24114915,48.4375788 0.116355865,48.4164382 L0.116355865,50.2362847 C-0.124109461,53.3192771 1.39117571,55.8032882 2.89938838,58.2696822 C4.0433668,60.1353331 5.22978028,61.9868903 6.53819455,63.7380301 C9.65363502,67.9079976 11.3421967,72.085012 7.16234352,76.5861811 C6.96961764,76.7940628 6.90419692,77.1182175 6.77512362,77.3859974 C5.83447985,79.3555892 6.48515073,80.4214237 8.62988926,80.662778 C10.8400485,80.9111791 12.9936277,80.4584196 15.1648881,80.1835929 C17.8542099,79.8435828 20.3950089,80.1236947 22.228557,82.424488 C24.4475569,85.2097515 27.5099536,86.0923682 30.8640912,86.5944555 C38.5519091,87.7430905 45.9550585,86.4359016 53.3511354,84.4980206 C59.0957813,82.9917586 64.8298184,83.2859642 69.570168,87.1300154 C72.832363,89.7725804 75.885919,90.0720711 79.4893626,88.4812469 C81.3105339,87.6761455 83.186517,86.9873169 85.0253695,86.2174496 C88.3954203,84.8063199 91.8344281,84.6407192 95.2380733,85.9373377 C98.1218891,87.0331213 100.947357,88.2856971 103.74807,89.5770306 C106.368435,90.7873253 107.848358,92.7991981 108.283317,95.7641561 C108.704132,98.6392668 109.65892,101.487952 112.314648,103.140436 C117.645552,106.459497 123.294719,107.058479 128.641536,103.512157 C132.264429,101.112708 135.966888,100.127912 140.196249,100.385121 C144.729727,100.658186 148.722159,98.9229021 152.749953,96.9039824 C152.475893,95.8716204 152.345052,94.9784334 152.010876,94.1698085 C149.530193,88.1747094 149.286191,82.6940296 153.089433,76.720071 C155.96264,72.20657 156.203106,66.2255646 152.557227,61.7842937 Z" id="Shape" stroke="#FFFFFF" stroke-width="1.76666667" fill="#FE9F7C"></path>
                <text id="彰化市" font-family="MicrosoftJhengHeiBold, Microsoft JhengHei" font-size="16.96" font-weight="bold" fill="#FFFFFF">
                    <tspan x="61.571058" y="59.2231197">彰化市</tspan>
                </text>
            </g>
        </g>
    </g>
</svg>