<?xml version="1.0" encoding="UTF-8"?>
<svg width="551px" height="622px" viewBox="0 0 551 622" version="1.1" xmlns="http://www.w3.org/2000/svg" xmlns:xlink="http://www.w3.org/1999/xlink">
    <!-- Generator: Sketch 51.2 (57519) - http://www.bohemiancoding.com/sketch -->
    <title>map-ok</title>
    <desc>Created with Sketch.</desc>
    <defs>
        <filter x="-1.3%" y="-0.8%" width="102.7%" height="102.3%" filterUnits="objectBoundingBox" id="filter-1">
            <feOffset dx="0" dy="2" in="SourceAlpha" result="shadowOffsetOuter1"></feOffset>
            <feGaussianBlur stdDeviation="2" in="shadowOffsetOuter1" result="shadowBlurOuter1"></feGaussianBlur>
            <feColorMatrix values="0 0 0 0 0   0 0 0 0 0   0 0 0 0 0  0 0 0 0.5 0" type="matrix" in="shadowBlurOuter1" result="shadowMatrixOuter1"></feColorMatrix>
            <feMerge>
                <feMergeNode in="shadowMatrixOuter1"></feMergeNode>
                <feMergeNode in="SourceGraphic"></feMergeNode>
            </feMerge>
        </filter>
    </defs>
    <g id="map-ok" stroke="none" stroke-width="1" fill="none" fill-rule="evenodd">
        <g id="map" filter="url(#filter-1)" transform="translate(0.120000, 0.040000)">
            <g id="502" transform="translate(439.000000, 226.060000)">
                <path d="M9.64994894,18.616305 C14.3089646,18.4507042 18.3791939,17.3425887 21.9826375,14.728211 C23.3706175,13.7240363 24.9265696,12.9594542 26.7017695,13.0651568 C32.5860975,13.4174988 38.2016701,12.4415115 43.6103718,9.53645167 C45.042555,14.2507876 44.8798872,18.8118548 44.696002,23.36059 C44.543943,27.1359345 44.280492,30.8919002 44.7455096,34.677815 C44.9134817,36.0290466 45.4439199,36.6016023 46.653319,36.8500034 C52.7126916,38.1078644 58.7667598,39.652884 64.9958726,39.4009595 C72.330065,39.1102774 78.7819619,41.0094007 84.3993026,45.7677794 C88.1848633,48.9723299 92.8509515,50.6001499 97.2677337,52.6683975 C100.885322,54.3614008 104.495839,56.0825915 107.522873,58.7568672 C110.723183,61.5826501 111.582493,64.42605 110.34834,67.7503968 C108.831287,71.8446108 105.630976,74.6016869 101.603182,74.1277869 C96.2952637,73.5041416 90.511719,73.7860152 86.5687949,68.9096019 C85.668818,67.7962012 84.0987209,67.6764049 82.6948278,67.5583704 C77.8041874,67.1514154 72.9100108,67.1514154 68.0264429,67.5830343 C62.559393,68.0675046 59.5323589,70.9091428 58.6005558,76.3211159 C58.3653949,77.6864411 58.2716841,79.0817154 58.1832777,80.4699429 C57.8897686,84.9411629 59.6932585,88.0946238 63.9349961,89.9021382 C70.0332675,92.5024222 72.9771996,97.0758213 72.4980371,103.805554 C72.2434268,107.37654 72.3866451,110.973951 72.178006,114.548461 C72.0118021,117.42181 71.6882348,120.295159 71.2585798,123.143844 C70.2790372,129.649839 67.3775402,134.963156 61.5639373,138.505955 C57.6263176,140.903643 54.7548787,145.098274 49.3125826,145.47528 C48.6866655,138.079621 43.1807168,132.87553 40.3746986,126.369535 C38.7957609,122.71751 37.1514024,119.091911 36.1983817,115.212626 C35.591914,112.737423 34.4143412,110.577567 32.6939532,108.720724 C28.5918977,104.295309 26.7194508,99.0630302 26.1465775,93.0802631 C25.65327,87.9448784 23.9947665,82.9733328 22.4211331,78.0546385 C21.6201714,75.5565337 21.3531841,73.3121152 22.696961,70.9038576 C23.84978,68.8408952 23.7207067,66.7021793 22.141769,64.778392 C21.6997371,64.2393087 21.3832423,63.5892377 20.9023117,63.0941972 C10.0972852,51.9408113 7.77396578,38.3368867 9.35820792,23.5878506 C9.52087564,22.0216904 9.54739755,20.4343897 9.64994894,18.616305 Z" id="Shape" stroke="#000000" stroke-width="1.76666667" fill="#000000" fill-rule="nonzero" opacity="0.15"></path>
                <path d="M1.29646983,9.57873271 C5.95548551,9.41313197 10.0257148,8.30501638 13.6291584,5.69063875 C15.0171384,4.68646405 16.5730905,3.92188191 18.3482904,4.02758451 C24.2326184,4.37992651 29.848191,3.40393918 35.2568927,0.498879394 C36.6890758,5.21321534 36.5264081,9.77428252 36.3425229,14.3230177 C36.1904639,18.0983622 35.9270129,21.854328 36.3920304,25.6402427 C36.5600025,26.9914743 37.0904408,27.5640301 38.2998399,27.8124312 C44.3592125,29.0702921 50.4132807,30.6153118 56.6423935,30.3633872 C63.9765859,30.0727051 70.4284827,31.9718285 76.0458235,36.7302072 C79.8313842,39.9347576 84.4974724,41.5625777 88.9142546,43.6308252 C92.5318433,45.3238285 96.1423594,47.0450192 99.1693935,49.719295 C102.369704,52.5450778 103.229014,55.3884777 101.994861,58.7128245 C100.477808,62.8070385 97.2774972,65.5641146 93.249703,65.0902147 C87.9417846,64.4665693 82.1582399,64.7484429 78.2153158,59.8720297 C77.3153389,58.7586289 75.7452418,58.6388327 74.3413487,58.5207981 C69.4507083,58.1138431 64.5565317,58.1138431 59.6729638,58.545462 C54.2059139,59.0299323 51.1788798,61.8715705 50.2470767,67.2835436 C50.0119157,68.6488689 49.918205,70.0441432 49.8297986,71.4323706 C49.5362895,75.9035906 51.3397794,79.0570515 55.581517,80.864566 C61.6797884,83.4648499 64.6237205,88.0382491 64.144558,94.7679812 C63.8899476,98.3389674 64.033166,101.936379 63.8245269,105.510889 C63.658323,108.384238 63.3347556,111.257587 62.9051007,114.106272 C61.9255581,120.612267 59.0240611,125.925584 53.2104582,129.468383 C49.2728385,131.86607 46.4013996,136.060702 40.9591035,136.437708 C40.3331864,129.042049 34.8272377,123.837958 32.0212195,117.331963 C30.4422818,113.679938 28.7979233,110.054339 27.8449026,106.175053 C27.2384349,103.699851 26.0608621,101.539994 24.3404741,99.6831521 C20.2384186,95.2577366 18.3659717,90.0254579 17.7930984,84.0426908 C17.2997909,78.9073062 15.6412874,73.9357605 14.067654,69.0170662 C13.2666923,66.5189615 12.999705,64.2745429 14.3434819,61.8662854 C15.4963009,59.803323 15.3672276,57.664607 13.7882899,55.7408197 C13.346258,55.2017365 13.0297632,54.5516655 12.5488326,54.056625 C1.74380606,42.903239 -0.579513334,29.2993144 1.00472881,14.5502783 C1.16739653,12.9841181 1.19391844,11.3968174 1.29646983,9.57873271 Z" id="Shape" stroke="#FFFFFF" stroke-width="1.76666667" fill="#E95D46"></path>
                <text id="芬-園-鄉" font-family="MicrosoftJhengHeiBold, Microsoft JhengHei" font-size="16.96" font-weight="bold" line-spacing="16.96" letter-spacing="-1.211428" fill="#FFFFFF">
                    <tspan x="27.0055933" y="57.7188794">芬</tspan>
                    <tspan x="27.0055933" y="74.6788794">園</tspan>
                    <tspan x="27.0055933" y="91.6388794">鄉</tspan>
                </text>
            </g>
        </g>
    </g>
</svg>