<?xml version="1.0" encoding="UTF-8"?>
<svg width="551px" height="622px" viewBox="0 0 551 622" version="1.1" xmlns="http://www.w3.org/2000/svg" xmlns:xlink="http://www.w3.org/1999/xlink">
    <!-- Generator: Sketch 51.2 (57519) - http://www.bohemiancoding.com/sketch -->
    <title>map-ok</title>
    <desc>Created with Sketch.</desc>
    <defs>
        <filter x="-1.3%" y="-0.8%" width="102.5%" height="102.3%" filterUnits="objectBoundingBox" id="filter-1">
            <feOffset dx="0" dy="2" in="SourceAlpha" result="shadowOffsetOuter1"></feOffset>
            <feGaussianBlur stdDeviation="2" in="shadowOffsetOuter1" result="shadowBlurOuter1"></feGaussianBlur>
            <feColorMatrix values="0 0 0 0 0   0 0 0 0 0   0 0 0 0 0  0 0 0 0.5 0" type="matrix" in="shadowBlurOuter1" result="shadowMatrixOuter1"></feColorMatrix>
            <feMerge>
                <feMergeNode in="shadowMatrixOuter1"></feMergeNode>
                <feMergeNode in="SourceGraphic"></feMergeNode>
            </feMerge>
        </filter>
    </defs>
    <g id="map-ok" stroke="none" stroke-width="1" fill="none" fill-rule="evenodd">
        <g id="map" filter="url(#filter-1)" transform="translate(0.120000, 0.040000)">
            <g id="503" transform="translate(344.000000, 213.060000)">
                <path d="M8.58758771,10.1692475 C17.8401984,13.3279935 26.5676752,13.1394906 35.3588046,10.9091657 C39.9081963,9.75524565 44.4575881,8.4938613 49.1926333,9.99836163 C51.1110515,10.6079133 52.9941072,11.3002653 54.4510441,12.7307738 C57.211091,15.4367604 60.4379235,15.6569741 63.8786994,14.5294797 C65.9580172,13.847698 68.0408713,13.1042564 69.9928839,12.1317924 C73.9534893,10.1516304 77.8522102,10.2132903 81.8163518,12.0102344 C83.4483334,12.7483909 85.0732424,13.5129731 86.7388185,14.1700909 C89.7746932,15.3715771 91.410211,17.3640711 91.9441855,20.7553629 C92.6549727,25.2441999 95.2028443,28.6918664 99.8724687,29.92154 C102.351383,30.5751344 102.927793,31.9633619 102.445094,34.2641551 C100.609778,43.0638965 102.16573,51.6592796 104.038177,60.2493775 C104.925777,64.3259745 106.658542,67.9410034 109.232935,71.1948817 C110.072796,72.2589546 110.896743,73.3300743 111.867445,74.5756032 C107.351648,74.5756032 103.210693,74.6037906 99.071507,74.5685564 C93.4205719,74.5192285 87.8898694,74.8874259 82.999229,78.2135344 C82.0143821,78.8812224 80.8456499,79.3463139 79.625642,79.3216499 C72.0421436,79.1771897 64.5346747,80.694022 56.9175819,80.1073726 C50.8829631,79.6440429 45.6051028,78.3174752 42.1625588,72.657101 C40.2954162,69.5829171 36.9289017,67.8511562 33.5800684,66.977348 C23.6714825,64.3911577 19.6613696,56.5057438 16.6449442,48.1534767 C14.9705276,43.5148943 14.1501165,38.6525747 11.2097206,34.4420878 C9.33373747,31.7554801 9.31428807,28.3589032 9.80759561,25.1754932 C10.590876,20.1352409 11.20088,15.1584102 8.58758771,10.1692475 Z" id="Shape" stroke="#000000" stroke-width="1.76666667" fill="#000000" fill-rule="nonzero" opacity="0.15"></path>
                <path d="M0.0767141326,1.32521253 C9.32932478,4.48395855 18.0568016,4.29545558 26.847931,2.06513073 C31.3973228,0.911210678 35.9467145,-0.350173678 40.6817597,1.15432666 C42.6001779,1.76387832 44.4832336,2.45623034 45.9401706,3.88673886 C48.7002174,6.59448712 51.9270499,6.81293916 55.3678258,5.68544477 C57.4471436,5.00190129 59.5299977,4.25845967 61.4820103,3.28599575 C65.4426157,1.30583372 69.3413366,1.36749357 73.3054782,3.16443776 C74.9374598,3.90259425 76.5623689,4.66717639 78.2279449,5.32429422 C81.2638196,6.52401872 82.8993374,8.51827444 83.4333119,11.9095662 C84.1440991,16.3984032 86.6919707,19.8460697 91.3615951,21.0757433 C93.8405098,21.7293377 94.4169193,23.1175652 93.9342205,25.4183584 C92.0989043,34.2180998 93.6548564,42.8134829 95.5273033,51.4035809 C96.4149032,55.4801778 98.1476681,59.0952067 100.722062,62.3490851 C101.561922,63.4131579 102.385869,64.4842776 103.356571,65.7298065 C98.840774,65.7298065 94.6998197,65.7579939 90.5606334,65.7227597 C84.9096983,65.6734318 79.3789958,66.0416292 74.4883554,69.3677377 C73.5035085,70.0354258 72.3347763,70.5005172 71.1147684,70.4758533 C63.53127,70.331393 56.0238011,71.8482253 48.4067083,71.2615759 C42.3720895,70.7982462 37.0942292,69.4716786 33.6516852,63.8113043 C31.7845427,60.7371204 28.4180281,59.0053595 25.0691948,58.1315513 C15.1606089,55.5453611 11.150496,47.6599471 8.13407066,39.30768 C6.45965402,34.6690976 5.63924291,29.806778 2.69884706,25.5962911 C0.822863892,22.9096834 0.803414491,19.5131065 1.29672203,16.3296966 C2.08000247,11.291206 2.69000642,6.31437523 0.0767141326,1.32521253 Z" id="Shape" stroke="#FFFFFF" stroke-width="1.76666667" fill="#FFC675"></path>
                <text id="花壇鄉" font-family="MicrosoftJhengHeiBold, Microsoft JhengHei" font-size="16.96" font-weight="bold" line-spacing="16.96" letter-spacing="-1.211428" fill="#FFFFFF">
                    <tspan x="27.4867141" y="44.0251994">花壇鄉</tspan>
                </text>
            </g>
        </g>
    </g>
</svg>