<?xml version="1.0" encoding="UTF-8"?>
<svg width="551px" height="622px" viewBox="0 0 551 622" version="1.1" xmlns="http://www.w3.org/2000/svg" xmlns:xlink="http://www.w3.org/1999/xlink">
    <!-- Generator: Sketch 51.2 (57519) - http://www.bohemiancoding.com/sketch -->
    <title>map-ok</title>
    <desc>Created with Sketch.</desc>
    <defs>
        <filter x="-1.3%" y="-0.8%" width="102.5%" height="102.3%" filterUnits="objectBoundingBox" id="filter-1">
            <feOffset dx="0" dy="2" in="SourceAlpha" result="shadowOffsetOuter1"></feOffset>
            <feGaussianBlur stdDeviation="2" in="shadowOffsetOuter1" result="shadowBlurOuter1"></feGaussianBlur>
            <feColorMatrix values="0 0 0 0 0   0 0 0 0 0   0 0 0 0 0  0 0 0 0.5 0" type="matrix" in="shadowBlurOuter1" result="shadowMatrixOuter1"></feColorMatrix>
            <feMerge>
                <feMergeNode in="shadowMatrixOuter1"></feMergeNode>
                <feMergeNode in="SourceGraphic"></feMergeNode>
            </feMerge>
        </filter>
    </defs>
    <g id="map-ok" stroke="none" stroke-width="1" fill="none" fill-rule="evenodd">
        <g id="map" filter="url(#filter-1)" transform="translate(0.120000, 0.040000)">
            <g id="504" transform="translate(295.000000, 174.060000)">
                <path d="M62.2642847,82.1008924 C62.1175301,80.6774308 61.4845405,79.4072379 60.6146218,78.3149777 C56.4347686,73.0351328 56.0051137,67.0558891 57.1685415,60.7472056 C57.7378785,57.6554046 57.6583128,54.6340719 56.3216085,51.6955396 C55.8353735,50.6226582 55.3367615,49.3982698 55.3898054,48.2690137 C55.5153424,45.557742 53.8904333,44.7896365 51.7421585,44.7737811 C49.6557682,44.7596874 47.5746823,45.1455019 45.4847557,45.3075792 C43.1472913,45.490797 40.6595361,45.5841677 39.2910055,43.3115618 C37.9330836,41.056573 38.9196987,38.7645883 40.4349839,36.9711675 C42.6610563,34.3426962 42.199575,31.9326769 40.4933321,29.3570569 C38.4051736,26.2053577 36.3311602,23.0413266 34.3490894,19.8209207 C33.0212257,17.6663494 32.3228154,15.2880409 32.386468,12.7212294 C32.3900042,12.5380116 32.3917724,12.3512703 32.4041493,12.1698142 L32.4483524,10.8309146 C32.3086704,10.8256295 32.1742927,10.8273912 32.0381469,10.822106 C28.9916634,10.6846927 26.0601082,10.5014748 23.4680334,8.40680163 C22.1967498,9.61004956 21.2454973,10.8379614 20.0042719,11.5972584 C18.660495,12.419977 17.8471564,13.7676851 16.3636976,14.4741309 C12.3182221,16.4014416 11.8814946,17.9816955 13.1315607,22.3754002 C14.6044108,27.5513042 14.662759,32.6637866 10.9249377,37.0557296 C9.04895453,39.2543436 8.95878003,41.4970005 10.0090477,43.9651562 C10.7870238,45.7920494 11.6162755,47.5942788 12.4366866,49.4017932 C13.4480555,51.6374032 13.9060005,53.9452433 13.3596491,56.3746414 C12.6718476,59.4400168 13.2570977,62.2552293 14.7087303,65.0158289 C16.1833486,67.8239946 17.785272,70.603973 18.3440002,73.7979532 C18.9027285,76.9972186 17.8595333,78.9439081 14.9279781,80.2088159 C14.4700331,80.4061274 14.0156244,80.6140092 13.5771288,80.8518401 C10.6438054,82.4567579 10.4829058,83.4239367 12.788544,85.7511556 C14.3462642,87.3226009 16.1957255,88.4994231 18.0823174,89.6286793 C23.7014262,92.9953071 24.3308796,94.4487178 22.2833881,100.553043 C21.2490335,103.632512 21.1464821,106.338499 23.6377736,108.790799 C24.5607361,109.701603 25.0734931,110.936562 25.4271186,112.192661 C27.4074212,119.248309 31.6774489,125.243409 34.6001635,131.862153 C34.9502527,132.656684 35.4559371,133.440645 36.4743785,133.955064 C37.7279808,133.423028 39.0187138,132.480513 40.562289,132.637305 C43.8527741,132.970269 46.3069349,131.476338 48.541848,129.30415 C51.4893163,126.434324 54.7073082,123.950313 58.6802904,122.599082 C60.7242457,121.901445 61.6206863,120.368757 61.7532958,118.281131 C61.8293253,117.090215 62.1281389,115.904584 62.1175301,114.720715 C62.0786313,110.457377 66.2567163,108.339801 67.3582597,104.56798 C67.5828119,103.798113 70.4401057,103.799874 72.0773917,103.422869 C72.19232,103.396443 72.2612769,103.158612 72.4115678,102.927828 C71.9536228,102.328847 71.4886053,101.694631 70.9970659,101.074509 C66.5502255,95.4528925 63.0086663,89.4190358 62.2642847,82.1008924 Z" id="Shape" stroke="#000000" stroke-width="1.76666667" fill="#000000" fill-rule="nonzero" opacity="0.15"></path>
                <path d="M53.2047598,73.6999604 C53.0580052,72.2764987 52.4250156,71.0063058 51.555097,69.9140456 C47.3752438,64.6342007 46.9455888,58.654957 48.1090167,52.3462735 C48.6783537,49.2544725 48.598788,46.2349015 47.2620837,43.2946075 C46.7758486,42.2199644 46.2772367,40.9973377 46.3302805,39.8680816 C46.4558176,37.1568099 44.8309085,36.3887044 42.6826337,36.372849 C40.5962434,36.3587553 38.5151574,36.7445698 36.4252309,36.9066471 C34.0877664,37.0898649 31.6000112,37.1832356 30.2314806,34.9106297 C28.8735588,32.6556409 29.8601739,30.3636562 31.375459,28.5702354 C33.6015314,25.9417641 33.1400502,23.5317448 31.4338072,20.9561248 C29.3456488,17.8044256 27.2716354,14.6403945 25.2895645,11.4199886 C23.9617009,9.26541728 23.2632906,6.88710878 23.3269431,4.32029732 C23.3304794,4.13707948 23.3322475,3.95033822 23.3446244,3.76888209 L23.3888276,2.42998249 C23.2491455,2.42469736 23.1147679,2.42645907 22.978622,2.42117394 C19.9321385,2.28376056 17.0005833,2.10054273 14.4085086,0.00586954076 C13.137225,1.20911747 12.1859724,2.43702933 10.944747,3.19632634 C9.60097019,4.01904491 8.78763159,5.36675306 7.30417271,6.07319876 C3.25869723,8.0005095 2.82196977,9.58076337 4.07203584,13.9744681 C5.54488595,19.1503721 5.60323416,24.2628545 1.86541285,28.6547975 C-0.0105703141,30.8534116 -0.100744811,33.0960684 0.94952286,35.5642241 C1.72749891,37.3911174 2.55675066,39.1933467 3.37716177,41.0008611 C4.38853064,43.2364711 4.84647563,45.5460729 4.30012427,47.9737093 C3.61232271,51.0390847 4.19757288,53.8525355 5.64920547,56.6148968 C7.12382371,59.4230626 8.72574713,62.2030409 9.28447539,65.3970211 C9.84320364,68.5962865 8.80000848,70.542976 5.86845327,71.8078838 C5.41050827,72.0051953 4.95609953,72.2130771 4.51760394,72.450908 C1.58428059,74.0558258 1.423381,75.0230046 3.72901912,77.3502235 C5.28673935,78.9216688 7.13620061,80.0984911 9.02279253,81.2277472 C14.6419014,84.594375 15.2713547,86.0477857 13.2238632,92.1521108 C12.1895087,95.2315799 12.0869573,97.9375665 14.5782488,100.389867 C15.5012113,101.300671 16.0139682,102.53563 16.3675937,103.791729 C18.3478964,110.847377 22.6179241,116.842476 25.5406386,123.461221 C25.8907279,124.255752 26.3964123,125.039713 27.4148537,125.554132 C28.668456,125.022096 29.959189,124.079581 31.5027642,124.236373 C34.7932493,124.569336 37.2474101,123.075406 39.4823231,120.903218 C42.4297915,118.033392 45.6477833,115.549381 49.6207656,114.19815 C51.6647209,113.500513 52.5611614,111.967825 52.693771,109.880199 C52.7698005,108.689283 53.068614,107.503652 53.0580052,106.319783 C53.0191064,102.056444 57.1971915,99.938869 58.2987348,96.1670479 C58.523287,95.3971807 61.3805809,95.3989424 63.0178668,95.0219364 C63.1327951,94.9955108 63.2017521,94.7576799 63.3520429,94.5268959 C62.8940979,93.9279145 62.4290804,93.2936989 61.937541,92.673577 C57.4907006,87.0519604 53.9491414,81.0181037 53.2047598,73.6999604 Z" id="Shape" stroke="#FFFFFF" stroke-width="1.76666667" fill="#28B99F"></path>
                <text id="秀-水-鄉" font-family="MicrosoftJhengHeiBold, Microsoft JhengHei" font-size="16.96" font-weight="bold" line-spacing="16.96" letter-spacing="-1.211428" fill="#FFFFFF">
                    <tspan x="21.4272745" y="60.4058695">秀</tspan>
                    <tspan x="21.4272745" y="77.3658695">水</tspan>
                    <tspan x="21.4272745" y="94.3258695">鄉</tspan>
                </text>
            </g>
        </g>
    </g>
</svg>