<?xml version="1.0" encoding="UTF-8"?>
<svg width="551px" height="622px" viewBox="0 0 551 622" version="1.1" xmlns="http://www.w3.org/2000/svg" xmlns:xlink="http://www.w3.org/1999/xlink">
    <!-- Generator: Sketch 51.2 (57519) - http://www.bohemiancoding.com/sketch -->
    <title>map-ok</title>
    <desc>Created with Sketch.</desc>
    <defs>
        <filter x="-1.3%" y="-0.8%" width="102.5%" height="102.3%" filterUnits="objectBoundingBox" id="filter-1">
            <feOffset dx="0" dy="2" in="SourceAlpha" result="shadowOffsetOuter1"></feOffset>
            <feGaussianBlur stdDeviation="2" in="shadowOffsetOuter1" result="shadowBlurOuter1"></feGaussianBlur>
            <feColorMatrix values="0 0 0 0 0   0 0 0 0 0   0 0 0 0 0  0 0 0 0.5 0" type="matrix" in="shadowBlurOuter1" result="shadowMatrixOuter1"></feColorMatrix>
            <feMerge>
                <feMergeNode in="shadowMatrixOuter1"></feMergeNode>
                <feMergeNode in="SourceGraphic"></feMergeNode>
            </feMerge>
        </filter>
    </defs>
    <g id="map-ok" stroke="none" stroke-width="1" fill="none" fill-rule="evenodd">
        <g id="map" filter="url(#filter-1)" transform="translate(0.120000, 0.040000)">
            <g id="505" transform="translate(186.000000, 107.060000)">
                <path d="M58.5550353,13.1591506 C61.5271911,12.2017116 64.1092955,12.4136907 66.6508064,12.464919 C69.684735,12.5267462 72.6127674,12.1557828 75.4243138,10.991664 C80.0837504,9.06265395 84.0919248,9.98476317 87.7629961,13.43649 C92.6889384,18.0700005 97.0236264,23.0391446 99.1680262,29.6263961 C100.742351,34.4542208 103.885706,37.943044 108.712811,39.6441765 C113.439316,41.3099792 117.235698,44.4596357 121.270346,47.2224304 C123.292965,48.6055942 123.940697,50.866705 124.127781,53.2426377 C125.008485,64.4633997 125.008485,64.4633997 130.252116,73.8576082 C128.568365,76.7493568 125.597974,78.2473426 122.992926,80.0756626 C118.981221,82.8914521 118.217003,84.9494162 119.722495,89.6924492 C121.215633,94.380721 121.29682,98.9842011 117.835777,102.949977 C115.407222,105.73397 115.45311,108.71581 116.711511,111.877832 C117.516323,113.8934 118.439385,115.861273 119.385392,118.030526 C116.677977,119.388959 114.212359,118.836047 111.587896,117.996963 C103.818638,115.513274 96.3864837,112.220531 88.8854967,109.058509 C84.1466379,107.060606 79.1183292,107.1242 74.3688808,109.443605 C69.3829306,111.879598 68.3892705,115.310127 70.8760683,120.242175 C71.6967645,121.870881 73.8552838,123.799891 71.5820435,125.486892 C69.6441415,126.921284 67.8527293,124.995807 66.3313526,123.829922 C63.0715119,121.332101 60.8653393,118.341429 60.5758894,113.877501 C60.0940613,106.424669 54.9863304,103.363337 48.0501237,106.200324 C45.2597565,107.339712 42.935333,107.22489 41.0415544,104.95318 C37.0598541,100.173051 31.8479918,98.6026386 25.8560269,98.7262931 C25.4783302,98.2175432 25.9619232,97.8554122 26.1066481,97.4614843 C27.3121009,94.1687418 26.7526155,93.2996274 23.3286356,93.276663 C21.634295,93.266064 19.9381894,93.3632211 18.2438489,93.3508557 C13.6550098,93.3172923 10.6846189,91.3246885 9.8498032,86.8695938 C8.49786061,79.6640698 8.96556921,72.3684548 9.82509407,65.1329004 C10.0968945,62.8505918 11.9024262,61.5575191 14.075065,60.9904749 C18.6903782,59.7839604 24.0570281,61.3134949 28.8955782,60.9904749 C49.5082904,59.6143771 66.2307511,17.0295363 62.3390626,15.1588204 C61.1953827,14.6076747 60.0870016,13.9717373 58.5550353,13.1591506 Z" id="Shape" stroke="#000000" stroke-width="1.76666667" fill="#000000" fill-rule="nonzero" opacity="0.15"></path>
                <path d="M50.5394571,3.74325797 C53.5116128,2.7858189 56.0937173,2.99779803 58.6352282,3.04902632 C61.6691568,3.11085357 64.5971891,2.73989009 67.4087355,1.57577136 C72.0681721,-0.353238725 76.0763466,0.568870493 79.7474179,4.02059733 C84.6733601,8.65410783 89.0080481,13.6232519 91.1524479,20.2105034 C92.7267727,25.0383281 95.8701275,28.5271513 100.697233,30.2282838 C105.423737,31.8940865 109.220119,35.0437431 113.254768,37.8065377 C115.277387,39.1897016 115.925119,41.4508123 116.112203,43.826745 C116.992907,55.047507 116.992907,55.047507 122.236538,64.4417155 C120.552787,67.3334641 117.582396,68.83145 114.977347,70.65977 C110.965643,73.4755594 110.201425,75.5335235 111.706917,80.2765565 C113.200055,84.9648283 113.281242,89.5683084 109.820198,93.5340846 C107.391643,96.3180772 107.437532,99.299917 108.695933,102.461939 C109.500745,104.477507 110.423807,106.44538 111.369814,108.614633 C108.662399,109.973066 106.19678,109.420154 103.572317,108.58107 C95.8030598,106.097381 88.3709055,102.804639 80.8699185,99.6426166 C76.1310597,97.6447133 71.102751,97.708307 66.3533025,100.027712 C61.3673524,102.463706 60.3736922,105.894234 62.86049,110.826282 C63.6811862,112.454989 65.8397055,114.383999 63.5664653,116.070999 C61.6285632,117.505391 59.837151,115.579914 58.3157744,114.414029 C55.0559337,111.916208 52.849761,108.925536 52.5603112,104.461609 C52.0784831,97.0087759 46.9707522,93.9474439 40.0345454,96.7844313 C37.2441783,97.9238191 34.9197548,97.8089971 33.0259762,95.5372874 C29.0442758,90.757158 23.8324136,89.186746 17.8404487,89.3104005 C17.4627519,88.8016506 17.946345,88.4395195 18.0910699,88.0455917 C19.2965226,84.7528492 18.7370372,83.8837347 15.3130573,83.8607703 C13.6187167,83.8501714 11.9226112,83.9473285 10.2282706,83.934963 C5.63943152,83.9013997 2.66904068,81.9087958 1.83422495,77.4537011 C0.482282358,70.2481772 0.949990958,62.9525621 1.80951582,55.7170078 C2.08131629,53.4346991 3.88684797,52.1416264 6.05948679,51.5745823 C10.6747999,50.3680677 16.0414499,51.8976023 20.88,51.5745823 C41.4927122,50.1984844 58.2151729,7.61364359 54.3234844,5.74292777 C53.1798045,5.19178203 52.0714233,4.55584464 50.5394571,3.74325797 Z" id="Shape" stroke="#FFFFFF" stroke-width="1.76666667" fill="#68B254"></path>
                <text id="鹿港鎮" font-family="MicrosoftJhengHeiBold, Microsoft JhengHei" font-size="16.96" font-weight="bold" letter-spacing="-1.211428" fill="#FFFFFF">
                    <tspan x="49.7005182" y="66.4625997">鹿港鎮</tspan>
                </text>
            </g>
        </g>
    </g>
</svg>