<?xml version="1.0" encoding="UTF-8"?>
<svg width="551px" height="622px" viewBox="0 0 551 622" version="1.1" xmlns="http://www.w3.org/2000/svg" xmlns:xlink="http://www.w3.org/1999/xlink">
    <!-- Generator: Sketch 51.2 (57519) - http://www.bohemiancoding.com/sketch -->
    <title>map-ok</title>
    <desc>Created with Sketch.</desc>
    <defs>
        <filter x="-1.3%" y="-0.8%" width="102.5%" height="102.3%" filterUnits="objectBoundingBox" id="filter-1">
            <feOffset dx="0" dy="2" in="SourceAlpha" result="shadowOffsetOuter1"></feOffset>
            <feGaussianBlur stdDeviation="2" in="shadowOffsetOuter1" result="shadowBlurOuter1"></feGaussianBlur>
            <feColorMatrix values="0 0 0 0 0   0 0 0 0 0   0 0 0 0 0  0 0 0 0.5 0" type="matrix" in="shadowBlurOuter1" result="shadowMatrixOuter1"></feColorMatrix>
            <feMerge>
                <feMergeNode in="shadowMatrixOuter1"></feMergeNode>
                <feMergeNode in="SourceGraphic"></feMergeNode>
            </feMerge>
        </filter>
    </defs>
    <g id="map-ok" stroke="none" stroke-width="1" fill="none" fill-rule="evenodd">
        <g id="map" filter="url(#filter-1)" transform="translate(0.120000, 0.040000)">
            <g id="506" transform="translate(0.380000, 0.460000)">
                <path d="M306.117664,226.33393 C306.614507,227.702779 306.359897,228.900741 306.184852,230.059947 C305.700386,233.238071 306.400564,236.150178 307.818602,238.988293 C309.056291,241.468781 310.557431,243.845327 311.15329,246.612974 C311.646598,248.915529 311.239929,250.453501 308.690289,251.512289 C302.832483,253.943449 302.473553,257.428111 307.507412,261.367295 C309.462961,262.894697 311.614772,264.180746 313.727684,265.498505 C315.969669,266.900826 316.913849,268.706579 315.868886,271.285722 C315.683233,271.74729 315.626653,272.279327 315.361434,272.682758 C314.289948,274.305293 315.555928,277.199783 313.269739,277.876279 C310.042906,278.831126 306.506652,279.477674 303.283355,277.923845 C299.646317,276.170944 295.869597,275.742848 291.946123,275.709376 C290.754405,275.700567 289.419468,275.853836 288.397491,275.392268 C283.225718,273.063288 277.815248,271.393186 272.537388,269.368982 C271.520715,268.977882 270.923088,268.176304 270.650796,267.186223 C269.805631,264.103231 267.491153,262.538832 264.810671,261.206979 C261.276185,259.448793 257.540132,258.458712 253.648483,258.046472 C250.004373,257.657134 247.19305,259.161634 245.371879,262.276337 C243.822999,264.927711 241.794957,266.934298 239.125085,268.509267 C235.686077,270.538757 234.64465,273.151373 235.64541,277.171595 C236.19353,279.373733 235.792165,281.042072 234.31401,282.631135 C232.740377,284.327661 232.224084,286.374768 232.204634,288.666753 C232.156895,294.859164 227.964665,298.179987 222.105091,296.106454 C218.323066,294.765793 214.406664,295.488094 210.677683,294.327127 C209.250804,293.881415 208.262421,293.828563 207.397807,292.123228 C204.243468,285.914962 198.808244,281.914119 192.441217,279.553427 C188.450554,278.073591 185.807203,275.874977 184.258324,272.000976 C183.225737,269.420071 182.007498,266.786315 179.806179,265.003464 C174.745798,260.911012 173.463906,255.467328 173.280021,249.341862 C173.149179,244.978107 173.435616,240.580879 172.60106,236.240025 C172.212072,234.212297 171.577314,232.397736 169.238081,231.053551 C178.40759,228.541353 185.526071,223.048341 193.183831,218.42209 C198.688011,215.095982 203.454883,210.649426 209.583212,208.205934 C214.424345,206.2751 219.937366,206.766617 223.876754,210.504966 C225.17456,211.736401 226.414017,213.096441 227.901012,214.047764 C229.969721,215.369047 232.241765,215.115361 234.517345,214.246838 C240.916198,211.808631 244.11474,213.498111 244.737121,220.31769 C245.281704,226.298696 248.745466,229.860873 253.344365,232.787074 C255.257479,234.004415 257.471175,234.742572 259.437332,232.938581 C261.475983,231.065883 260.95969,228.824988 259.852842,226.640467 C259.762668,226.464296 259.663653,226.293411 259.57171,226.113716 C256.786909,220.661224 258.567414,217.222366 264.743483,216.09311 C269.239831,215.273915 273.623018,215.938079 277.496985,218.129646 C284.063811,221.845093 291.396235,223.460581 298.2937,226.244083 C300.788528,227.251781 303.387675,226.887107 306.117664,226.33393 Z" id="Shape" stroke="#000000" stroke-width="1.76666667" fill="#000000" fill-rule="nonzero" opacity="0.15"></path>
                <path d="M297.069279,217.604535 C297.566123,218.973384 297.311513,220.173108 297.136468,221.330552 C296.652001,224.508677 297.35218,227.422545 298.770218,230.26066 C300.007907,232.741147 301.509047,235.117694 302.104906,237.885341 C302.598214,240.187896 302.191544,241.725868 299.641905,242.784656 C293.784099,245.215816 293.425169,248.700478 298.459027,252.639662 C300.414576,254.167064 302.566387,255.453113 304.6793,256.770872 C306.921285,258.173193 307.865465,259.978946 306.820502,262.558089 C306.634848,263.019657 306.578268,263.551694 306.313049,263.955125 C305.241564,265.57766 306.507543,268.47215 304.221355,269.148646 C300.994522,270.103493 297.458267,270.750041 294.234971,269.196212 C290.597933,267.443311 286.821213,267.015215 282.897738,266.981743 C281.70602,266.972934 280.371084,267.126203 279.349107,266.664635 C274.177334,264.335654 268.766864,262.665553 263.489004,260.641349 C262.474099,260.250249 261.876472,259.448671 261.60418,258.45859 C260.759015,255.375597 258.444536,253.811199 255.764055,252.479346 C252.229569,250.72116 248.493515,249.731079 244.601867,249.318838 C240.957756,248.929501 238.146434,250.434001 236.325263,253.548704 C234.776383,256.200078 232.748341,258.206665 230.078469,259.781634 C226.639461,261.811124 225.598034,264.42374 226.598794,268.443962 C227.146913,270.6461 226.745548,272.314439 225.267394,273.903501 C223.693761,275.600028 223.177467,277.647135 223.158018,279.93912 C223.110279,286.131531 218.918049,289.452354 213.058474,287.378821 C209.27645,286.03816 205.360048,286.760461 201.631067,285.599494 C200.204188,285.153781 199.215805,285.10093 198.351191,283.395595 C195.196851,277.187329 189.761628,273.186485 183.394601,270.825794 C179.403938,269.345958 176.760587,267.147344 175.211708,263.273343 C174.179121,260.692438 172.960881,258.058682 170.759563,256.275831 C165.699182,252.183379 164.41729,246.739695 164.233405,240.614229 C164.102563,236.250474 164.389,231.853246 163.554444,227.512392 C163.165456,225.484664 162.530698,223.670103 160.191465,222.325918 C169.360974,219.813719 176.479455,214.318946 184.137215,209.694457 C189.641395,206.368349 194.408267,201.921793 200.536596,199.478301 C205.377729,197.547467 210.89075,198.038984 214.830138,201.777333 C216.127944,203.008768 217.367401,204.368808 218.854396,205.320131 C220.923105,206.641414 223.195149,206.387728 225.470729,205.519205 C231.869582,203.080998 235.068124,204.770478 235.690505,211.590057 C236.235088,217.572824 239.69885,221.131479 244.297749,224.059441 C246.210863,225.276782 248.424558,226.014939 250.390716,224.210948 C252.429367,222.33825 251.913074,220.099116 250.806226,217.912834 C250.716052,217.734902 250.617036,217.564016 250.525094,217.386083 C247.740293,211.931829 249.520797,208.494733 255.696866,207.363715 C260.193214,206.54452 264.574634,207.208684 268.450369,209.400252 C275.017194,213.115698 282.351387,214.731186 289.247084,217.514688 C291.740143,218.525909 294.339291,218.159474 297.069279,217.604535 Z" id="Shape" stroke="#FFFFFF" stroke-width="1.76666667" fill="#4FD8FA"></path>
                <text id="福興鄉" font-family="MicrosoftJhengHeiBold, Microsoft JhengHei" font-size="16.96" font-weight="bold" letter-spacing="-1.211428" fill="#FFFFFF">
                    <tspan x="183.738607" y="243.931519">福興鄉</tspan>
                </text>
            </g>
        </g>
    </g>
</svg>