<?xml version="1.0" encoding="UTF-8"?>
<svg width="551px" height="622px" viewBox="0 0 551 622" version="1.1" xmlns="http://www.w3.org/2000/svg" xmlns:xlink="http://www.w3.org/1999/xlink">
    <!-- Generator: Sketch 51.2 (57519) - http://www.bohemiancoding.com/sketch -->
    <title>map-ok</title>
    <desc>Created with Sketch.</desc>
    <defs>
        <filter x="-1.3%" y="-0.8%" width="102.5%" height="102.3%" filterUnits="objectBoundingBox" id="filter-1">
            <feOffset dx="0" dy="2" in="SourceAlpha" result="shadowOffsetOuter1"></feOffset>
            <feGaussianBlur stdDeviation="2" in="shadowOffsetOuter1" result="shadowBlurOuter1"></feGaussianBlur>
            <feColorMatrix values="0 0 0 0 0   0 0 0 0 0   0 0 0 0 0  0 0 0 0.5 0" type="matrix" in="shadowBlurOuter1" result="shadowMatrixOuter1"></feColorMatrix>
            <feMerge>
                <feMergeNode in="shadowMatrixOuter1"></feMergeNode>
                <feMergeNode in="SourceGraphic"></feMergeNode>
            </feMerge>
        </filter>
    </defs>
    <g id="map-ok" stroke="none" stroke-width="1" fill="none" fill-rule="evenodd">
        <g id="map" filter="url(#filter-1)" transform="translate(0.120000, 0.040000)">
            <g id="507" transform="translate(178.000000, 55.060000)">
                <path d="M145.14353,47.4475274 C137.054819,63.1039527 129.068474,78.5589978 121.087424,94.0034439 C117.096899,92.0373375 113.265218,90.1577892 109.444127,88.2623425 C106.413728,86.7590572 104.472297,84.2577034 103.436278,81.1310112 C101.10656,74.0986036 96.7242182,68.5500499 91.369396,63.6003372 C87.2853292,59.8218092 82.7229642,58.1860369 77.4369745,60.4065183 C72.3521878,62.542208 66.9338278,61.2473688 61.8366866,62.3584928 C58.6933318,63.0438919 56.1871197,62.3249294 53.3455693,61.4151856 C49.3356299,60.1344784 44.88,59.2300341 40.88,61.4151856 C36.88,63.6003372 33.88,72.9 29.4606619,80.5480686 C25.0413237,88.1961373 23.88,88.3285477 12.88,88.2623425 C5.54666667,88.2182057 2.21333333,85.8410953 2.88,81.1310112 C10.8420848,67.1813666 15.8420848,58.4376962 17.88,54.9 C20.9368728,49.5934558 25.4224835,49.0479699 29.4606619,49.0356044 C36.9404696,49.0108735 42.3358854,45.4407917 46.0440204,39.1167476 C47.251238,37.0587835 48.3984478,34.9531242 49.4062275,32.790937 C51.2664722,28.8092624 53.9403535,25.5606822 57.5143531,23.0098667 C62.0396544,19.7754184 65.0982922,15.12071 68.8611402,11.1443348 C71.5738501,8.2773171 73.6476524,8.28791606 75.5255466,11.8420995 C77.8940935,16.3201586 81.9340368,19.4415513 84.4931971,23.7535601 C85.8204306,25.9934729 88.346057,26.5499181 90.8469743,26.230183 C93.8720782,25.8450875 96.4400632,26.8413894 99.1157093,28.0920663 C105.252399,30.9590841 111.590292,33.3067529 118.392363,34.0946087 C120.727377,34.3631156 123.110043,34.9637231 124.599651,36.7266829 C129.661493,42.7256923 136.576521,45.0433308 143.756289,46.9546759 C144.137516,47.051833 144.502858,47.2161169 145.14353,47.4475274 Z" id="Shape" stroke="#000000" stroke-width="1.76666667" fill="#000000" fill-rule="nonzero" opacity="0.15"></path>
                <path d="M143.14353,38.4475274 C135.054819,54.1039527 127.068474,69.5589978 119.087424,85.0034439 C115.096899,83.0373375 111.265218,81.1577892 107.444127,79.2623425 C104.413728,77.7590572 102.472297,75.2577034 101.436278,72.1310112 C99.1065595,65.0986036 94.7242182,59.5500499 89.369396,54.6003372 C85.2853292,50.8218092 80.7229642,49.1860369 75.4369745,51.4065183 C70.3521878,53.542208 64.9338278,52.2473688 59.8366866,53.3584928 C56.6933318,54.0438919 54.1871197,53.3249294 51.3455693,52.4151856 C47.3356299,51.1344784 42.88,50.2300341 38.88,52.4151856 C34.88,54.6003372 31.88,63.9 27.4606619,71.5480686 C23.0413237,79.1961373 21.88,79.3285477 10.88,79.2623425 C3.54666667,79.2182057 0.213333333,76.8410953 0.88,72.1310112 C8.84208479,58.1813666 13.8420848,49.4376962 15.88,45.9 C18.9368728,40.5934558 23.4224835,40.0479699 27.4606619,40.0356044 C34.9404696,40.0108735 40.3358854,36.4407917 44.0440204,30.1167476 C45.251238,28.0587835 46.3984478,25.9531242 47.4062275,23.790937 C49.2664722,19.8092624 51.9403535,16.5606822 55.5143531,14.0098667 C60.0396544,10.7754184 63.0982922,6.12071003 66.8611402,2.14433484 C69.5738501,-0.722682899 71.6476524,-0.712083942 73.5255466,2.84209948 C75.8940935,7.32015861 79.9340368,10.4415513 82.4931971,14.7535601 C83.8204306,16.9934729 86.346057,17.5499181 88.8469743,17.230183 C91.8720782,16.8450875 94.4400632,17.8413894 97.1157093,19.0920663 C103.252399,21.9590841 109.590292,24.3067529 116.392363,25.0946087 C118.727377,25.3631156 121.110043,25.9637231 122.599651,27.7266829 C127.661493,33.7256923 134.576521,36.0433308 141.756289,37.9546759 C142.137516,38.051833 142.502858,38.2161169 143.14353,38.4475274 Z" id="Shape" stroke="#FFFFFF" stroke-width="1.76666667" fill="#FFC675"></path>
                <text id="線西鄉" font-family="MicrosoftJhengHeiBold, Microsoft JhengHei" font-size="16.96" font-weight="bold" letter-spacing="-1.211428" fill="#FFFFFF">
                    <tspan x="56.756136" y="40.9930099">線西鄉</tspan>
                </text>
            </g>
        </g>
    </g>
</svg>