<?xml version="1.0" encoding="UTF-8"?>
<svg width="551px" height="622px" viewBox="0 0 551 622" version="1.1" xmlns="http://www.w3.org/2000/svg" xmlns:xlink="http://www.w3.org/1999/xlink">
    <!-- Generator: Sketch 51.2 (57519) - http://www.bohemiancoding.com/sketch -->
    <title>map-ok</title>
    <desc>Created with Sketch.</desc>
    <defs>
        <filter x="-1.3%" y="-0.8%" width="102.5%" height="102.3%" filterUnits="objectBoundingBox" id="filter-1">
            <feOffset dx="0" dy="2" in="SourceAlpha" result="shadowOffsetOuter1"></feOffset>
            <feGaussianBlur stdDeviation="2" in="shadowOffsetOuter1" result="shadowBlurOuter1"></feGaussianBlur>
            <feColorMatrix values="0 0 0 0 0   0 0 0 0 0   0 0 0 0 0  0 0 0 0.5 0" type="matrix" in="shadowBlurOuter1" result="shadowMatrixOuter1"></feColorMatrix>
            <feMerge>
                <feMergeNode in="shadowMatrixOuter1"></feMergeNode>
                <feMergeNode in="SourceGraphic"></feMergeNode>
            </feMerge>
        </filter>
    </defs>
    <g id="map-ok" stroke="none" stroke-width="1" fill="none" fill-rule="evenodd">
        <g id="map" filter="url(#filter-1)" transform="translate(0.120000, 0.040000)">
            <g id="508" transform="translate(298.000000, 56.060000)">
                <path d="M9.87518221,95.6913879 C18.2684829,79.5030347 26.5079566,63.6247425 34.729749,47.7358801 C35.1540995,46.9131615 35.7269728,46.3265121 36.4801951,45.7856671 C38.5365272,44.3093541 40.1738132,42.4225627 41.2824291,40.1517186 C42.6845541,37.2748461 42.8560625,34.5917618 40.5645694,31.8558262 C37.4968683,28.187946 38.3225838,25.3304524 42.6527278,23.3837628 C42.9267876,23.2604431 43.1849342,23.0877955 43.4678345,23.0102803 C49.5431203,21.3119919 54.9023144,18.5249667 58.8063397,13.3649181 C59.9556225,11.8445624 61.6459523,10.8844304 63.4529785,9.71641668 C67.5621065,14.4413229 69.0614785,19.8163001 67.9864571,25.9593828 C67.1324516,30.8463664 65.7939791,35.696354 66.7965074,40.7313211 C68.0218196,46.892021 71.6747708,51.7754811 75.3542439,56.6131368 C81.4083121,64.5707808 88.3658934,71.707468 95.8079416,78.3684935 C97.4664451,79.8518533 97.4310826,81.1942763 96.2782635,82.739296 C95.50736,83.7681346 94.6303688,84.7546922 93.6649712,85.6038364 C88.6364169,90.0151583 85.8905151,95.5980172 85.0382777,102.144532 C84.820798,103.812871 84.2974323,105.260997 82.9395104,106.272218 C77.8190135,110.079273 72.6879078,113.872235 66.8247974,116.518323 C64.8833935,117.392132 62.807612,117.851938 60.7106129,117.605298 C56.3150482,117.089117 52.2359783,117.927691 48.9313482,120.816896 C42.6350465,126.320478 35.215984,127.211903 27.3301358,126.718624 C24.349073,126.533645 21.9426517,125.404389 20.1975099,122.966182 C16.9441555,118.417447 14.7587501,113.509323 14.7481413,107.782004 C14.7393007,103.21389 14.3114138,98.746193 9.87518221,95.6913879 Z" id="Shape" stroke="#000000" stroke-width="1.76666667" fill="#000000" fill-rule="nonzero" opacity="0.15"></path>
                <path d="M0.813529322,86.647981 C9.20683005,70.4596279 17.4463037,54.5813357 25.6680961,38.6924733 C26.0924467,37.8697547 26.6653199,37.2831053 27.4185422,36.7422603 C29.4748744,35.2659473 31.1121603,33.3791559 32.2207762,31.1083117 C33.6229012,28.2314393 33.7944096,25.548355 31.5029165,22.8124194 C28.4352154,19.1445392 29.2609309,16.2870455 33.5910749,14.340356 C33.8651347,14.2170363 34.1232813,14.0443887 34.4061817,13.9668735 C40.4814674,12.268585 45.8406615,9.48155983 49.7446868,4.32151125 C50.8939696,2.80115553 52.5842994,1.84102358 54.3913256,0.673009853 C58.5004536,5.39791606 59.9998257,10.7728933 58.9248042,16.915976 C58.0707987,21.8029595 56.7323262,26.6529472 57.7348545,31.6879143 C58.9601667,37.8486142 62.6131179,42.7320743 66.292591,47.5697299 C72.3466592,55.527374 79.3042405,62.6640612 86.7462887,69.3250867 C88.4047922,70.8084465 88.3694297,72.1508695 87.2166106,73.6958892 C86.4457071,74.7247278 85.5687159,75.7112854 84.6033183,76.5604296 C79.574764,80.9717514 76.8288622,86.5546104 75.9766248,93.1011248 C75.7591451,94.7694641 75.2357794,96.2175897 73.8778576,97.2288113 C68.7573606,101.035867 63.6262549,104.828828 57.7631445,107.474917 C55.8217406,108.348725 53.7459591,108.808531 51.64896,108.561892 C47.2533953,108.045711 43.1743254,108.884285 39.8696953,111.773489 C33.5733936,117.277071 26.1543311,118.168496 18.2684829,117.675217 C15.2874202,117.490238 12.8809988,116.360982 11.135857,113.922775 C7.88250264,109.37404 5.69709718,104.465916 5.68648842,98.7385967 C5.67764778,94.1704827 5.24976095,89.7027862 0.813529322,86.647981 Z" id="Shape" stroke="#FFFFFF" stroke-width="1.76666667" fill="#AAC962"></path>
                <text id="和美鎮" font-family="MicrosoftJhengHeiBold, Microsoft JhengHei" font-size="16.96" font-weight="bold" letter-spacing="-1.211428" fill="#FFFFFF">
                    <tspan x="20.1206713" y="74.8530099">和美鎮</tspan>
                </text>
            </g>
        </g>
    </g>
</svg>