<?xml version="1.0" encoding="UTF-8"?>
<svg width="551px" height="622px" viewBox="0 0 551 622" version="1.1" xmlns="http://www.w3.org/2000/svg" xmlns:xlink="http://www.w3.org/1999/xlink">
    <!-- Generator: Sketch 51.2 (57519) - http://www.bohemiancoding.com/sketch -->
    <title>map-ok</title>
    <desc>Created with Sketch.</desc>
    <defs>
        <filter x="-1.3%" y="-0.8%" width="102.5%" height="102.3%" filterUnits="objectBoundingBox" id="filter-1">
            <feOffset dx="0" dy="2" in="SourceAlpha" result="shadowOffsetOuter1"></feOffset>
            <feGaussianBlur stdDeviation="2" in="shadowOffsetOuter1" result="shadowBlurOuter1"></feGaussianBlur>
            <feColorMatrix values="0 0 0 0 0   0 0 0 0 0   0 0 0 0 0  0 0 0 0.5 0" type="matrix" in="shadowBlurOuter1" result="shadowMatrixOuter1"></feColorMatrix>
            <feMerge>
                <feMergeNode in="shadowMatrixOuter1"></feMergeNode>
                <feMergeNode in="SourceGraphic"></feMergeNode>
            </feMerge>
        </filter>
    </defs>
    <g id="map-ok" stroke="none" stroke-width="1" fill="none" fill-rule="evenodd">
        <g id="map" filter="url(#filter-1)" transform="translate(0.120000, 0.040000)">
            <g id="509" transform="translate(248.000000, 2.060000)">
                <path d="M9.54366785,60.992813 C12.8500661,58.2709711 16.4835679,57.6349938 20.1347509,57.2861752 C25.2145809,56.7981815 29.8028715,55.3377239 33.9703478,52.2494463 C37.9574751,49.2932969 41.9587473,46.3001517 46.6159949,44.3569855 C48.143657,43.7210082 49.3353748,42.4913347 49.2593453,40.6926287 C49.0825326,36.3641073 51.4288377,33.4396687 54.8271785,31.4824089 C59.8751822,28.5773491 61.8254267,24.4338072 61.9651088,18.71882 C62.1649072,10.5374388 71.6349975,5.75439612 78.6456226,10.128722 C83.5451036,13.1852889 88.2606994,16.5395847 93.0293389,19.8040333 C94.9919603,21.1482181 95.9467491,23.1142864 96.763624,25.3604667 C101.245827,37.7294325 103.993497,50.8347932 112.236507,61.8401955 C108.509294,64.3488706 105.385013,67.389582 102.584299,70.7773503 C101.739134,71.8009038 100.425416,72.1902418 99.2230892,72.6606183 C96.6292463,73.6718399 93.9664465,74.5297926 91.4221111,75.6449551 C86.5332389,77.7889561 85.3344485,82.2707463 88.3720914,86.6133615 C90.7219327,89.9764659 90.7608315,91.336506 88.5170778,94.6062397 C86.1937584,97.9922463 84.4645299,99.4033761 80.2157197,98.3463501 C73.9264906,96.7819516 67.7486535,94.8687345 63.2805956,89.5659874 C60.9219136,86.7648685 57.4245576,86.009095 53.8865347,85.4911522 C47.8324665,84.6050121 42.1001975,82.5843307 36.6048576,79.9699531 C33.4982578,78.4936401 30.4977456,77.1723576 26.8889976,77.8224286 C24.7955347,78.2011963 22.9496097,77.3080093 21.828617,75.3683666 C19.3355574,71.0539388 15.0796747,68.0449381 12.9985888,63.4028323 C12.4646143,62.2224866 11.1685769,61.6252669 9.54366785,60.992813 Z" id="Shape" stroke="#000000" stroke-width="1.76666667" fill="#000000" fill-rule="nonzero" opacity="0.15"></path>
                <path d="M0.597834941,52.5801719 C3.90423316,49.8583299 7.53773496,49.2223526 11.188918,48.8735341 C16.268748,48.3855404 20.8588067,46.9250828 25.0245149,43.8368052 C29.0116421,40.8806558 33.0129144,37.8875105 37.670162,35.9443444 C39.197824,35.3083671 40.3895419,34.0786935 40.3135124,32.2799876 C40.1366997,27.9514662 42.4830047,25.0270276 45.8813456,23.0697678 C50.9293493,20.164708 52.8795938,16.0211661 53.0192759,10.3061788 C53.2190743,2.12479762 62.6891646,-2.65824502 69.6997897,1.7160809 C74.5992707,4.77264774 79.3148665,8.12694358 84.083506,11.3913922 C86.0461274,12.7355769 87.0009162,14.7016453 87.8177911,16.9478255 C92.299994,29.3167914 95.047664,42.4221521 103.290674,53.4275544 C99.5634614,55.9362294 96.4391802,58.9769409 93.6384665,62.3647092 C92.7933016,63.3882627 91.4795829,63.7776006 90.2772563,64.2479772 C87.6834134,65.2591987 85.0206135,66.1171515 82.4762782,67.2323139 C77.587406,69.376315 76.3886156,73.8581052 79.4262585,78.2007203 C81.7760998,81.5638247 81.8149986,82.9238648 79.5712449,86.1935986 C77.2479255,89.5796052 75.5186969,90.9907349 71.2698868,89.9337089 C64.9806577,88.3693104 58.8028206,86.4560934 54.3347627,81.1533463 C51.9760807,78.3522274 48.4787247,77.5964538 44.9407018,77.0785111 C38.8866336,76.192371 33.1543646,74.1716896 27.6590247,71.557312 C24.5524249,70.080999 21.5519127,68.7597165 17.9431647,69.4097875 C15.8497018,69.7885551 14.0020087,68.8953682 12.8827841,66.9557254 C10.3897244,62.6412977 6.13384181,59.632297 4.05275587,54.9901912 C3.51878139,53.8098455 2.22274401,53.2126258 0.597834941,52.5801719 Z" id="Shape" stroke="#FFFFFF" stroke-width="1.76666667" fill="#FF9AE0"></path>
                <text id="伸港鄉" font-family="MicrosoftJhengHeiBold, Microsoft JhengHei" font-size="16.96" font-weight="bold" letter-spacing="-1.211428" fill="#FFFFFF">
                    <tspan x="36.8649769" y="53.04">伸港鄉</tspan>
                </text>
            </g>
        </g>
    </g>
</svg>