<?xml version="1.0" encoding="UTF-8"?>
<svg width="551px" height="622px" viewBox="0 0 551 622" version="1.1" xmlns="http://www.w3.org/2000/svg" xmlns:xlink="http://www.w3.org/1999/xlink">
    <!-- Generator: Sketch 51.2 (57519) - http://www.bohemiancoding.com/sketch -->
    <title>map-ok</title>
    <desc>Created with Sketch.</desc>
    <defs>
        <filter x="-1.3%" y="-0.8%" width="102.5%" height="102.3%" filterUnits="objectBoundingBox" id="filter-1">
            <feOffset dx="0" dy="2" in="SourceAlpha" result="shadowOffsetOuter1"></feOffset>
            <feGaussianBlur stdDeviation="2" in="shadowOffsetOuter1" result="shadowBlurOuter1"></feGaussianBlur>
            <feColorMatrix values="0 0 0 0 0   0 0 0 0 0   0 0 0 0 0  0 0 0 0.5 0" type="matrix" in="shadowBlurOuter1" result="shadowMatrixOuter1"></feColorMatrix>
            <feMerge>
                <feMergeNode in="shadowMatrixOuter1"></feMergeNode>
                <feMergeNode in="SourceGraphic"></feMergeNode>
            </feMerge>
        </filter>
    </defs>
    <g id="map-ok" stroke="none" stroke-width="1" fill="none" fill-rule="evenodd">
        <g id="map" filter="url(#filter-1)" transform="translate(0.120000, 0.040000)">
            <g id="510" transform="translate(369.000000, 308.060000)">
                <path d="M93.8515482,9.71846124 C94.0761003,11.4361285 94.2564493,12.6957511 94.404972,13.9588972 C94.9477871,18.5111558 96.4772173,22.6846468 99.5130921,26.164024 C102.050355,29.0655604 103.760134,32.2489704 104.838692,36.0066978 C106.45476,41.6424081 108.915994,46.9927213 112.096855,51.9783606 C113.380515,53.9849483 114.552784,56.0708129 115.627805,58.1989586 C117.160772,61.2361466 117.618717,64.3966544 116.480043,67.728048 C115.723284,69.9425174 115.788705,72.2063148 116.471202,74.4753972 C116.923842,75.9781359 117.675297,76.9946425 119.130465,77.8173611 C125.062533,81.1681335 126.001409,85.7062985 122.376747,91.2644935 C118.497476,97.2120264 111.684881,98.7799483 107.777319,94.3404392 C102.052123,87.8326824 94.2405362,87.7815928 86.7525167,86.650575 C83.0199997,86.0885895 79.1831633,86.2295263 75.3976026,85.9599847 C72.1955239,85.7327241 70.0631622,87.2266542 69.3612156,90.1563779 C67.9520181,96.0263956 64.1540805,98.6689606 58.4005939,99.456445 C55.916375,99.7946933 54.112885,99.3489807 52.6736293,97.330061 C50.9956764,94.9799399 49.3071148,92.640389 47.5584368,90.3431192 C47.0226942,89.6437203 46.1775293,88.5003705 45.6470911,88.588456 C42.5511,89.104637 42.1108363,86.4973063 40.7299288,84.8994353 C39.3667026,83.32799 37.9203744,81.7142636 36.2052908,80.576199 C29.4510441,76.0908853 27.9587446,69.7769167 29.2883764,62.2949343 C29.6526107,60.2460656 29.8418003,58.147869 29.8948441,56.0655278 C29.9867867,52.3641751 28.782692,50.6764569 25.3224667,49.2071908 C22.7268557,48.1025986 19.9385188,47.75378 17.2156026,47.1600838 C15.3484601,46.7531288 13.5184482,46.2757054 12.0013949,45.0548403 C9.41816078,42.9742608 8.99557834,39.8049445 11.2746945,37.5129598 C13.3504761,35.4235718 14.5439621,32.9853651 14.9736171,30.1965782 C15.2317637,28.5070983 15.9708409,27.6843798 17.5356336,27.0237385 C20.094114,25.9438103 22.4651728,24.426978 24.9829862,23.2413472 C28.9506641,21.3739346 31.1484464,22.4609096 32.2287723,26.6678731 C33.1605754,30.3198979 35.2186757,31.9142455 38.9883233,31.406873 C42.1373582,30.9840626 45.2386536,30.173676 48.352326,29.4866091 C49.5705657,29.2188292 50.4864557,28.5070983 51.087619,27.3619868 C51.4978246,26.5762642 51.9044939,25.5069062 52.5975998,25.1968453 C57.8471701,22.8343922 62.3806487,18.9057789 68.5178189,18.449496 C72.7577884,18.1359116 77.1003092,17.6637733 81.1263353,16.3988655 C83.9323535,15.5180105 85.9568593,12.6869426 88.9874297,11.7338575 C90.4974105,11.2599575 91.9242893,10.5306095 93.8515482,9.71846124 Z" id="Shape" stroke="#000000" stroke-width="1.76666667" fill="#000000" fill-rule="nonzero" opacity="0.15"></path>
                <path d="M84.6008663,0.597539176 C84.8254185,2.31520642 85.0057675,3.57482907 85.1542902,4.83797513 C85.6971053,9.39023376 87.2265355,13.5637247 90.2624102,17.043102 C92.7996731,19.9446383 94.5094522,23.1280483 95.58801,26.8857757 C97.2040784,32.521486 99.6653117,37.8717993 102.846173,42.8574385 C104.129833,44.8640262 105.302102,46.9498909 106.377123,49.0780365 C107.91009,52.1152246 108.368035,55.2757323 107.229361,58.6071259 C106.472602,60.8215954 106.538023,63.0853927 107.22052,65.3544752 C107.673161,66.8572138 108.424615,67.8737205 109.879784,68.696439 C115.811851,72.0472115 116.750727,76.5853764 113.126066,82.1435714 C109.246794,88.0911044 102.434199,89.6590263 98.5266377,85.2195171 C92.8014412,78.7117604 84.9898544,78.6606708 77.5018349,77.529653 C73.7693179,76.9676675 69.9324815,77.1086043 66.1469207,76.8390626 C62.944842,76.6118021 60.8124804,78.1057321 60.1105338,81.0354559 C58.7013363,86.9054736 54.9033987,89.5480385 49.1499121,90.3355229 C46.6656931,90.6737712 44.8622032,90.2280586 43.4229475,88.209139 C41.7449946,85.8590178 40.0564329,83.5194669 38.3077549,81.2221971 C37.7720123,80.5227982 36.9268475,79.3794485 36.3964092,79.467534 C33.3004182,79.983715 32.8601545,77.3763842 31.479247,75.7785132 C30.1160207,74.2070679 28.6696925,72.5933416 26.954609,71.4552769 C20.2003623,66.9699632 18.7080628,60.6559946 20.0376946,53.1740123 C20.4019288,51.1251436 20.5911185,49.0269469 20.6441623,46.9446057 C20.7361049,43.243253 19.5320102,41.5555349 16.0717849,40.0862687 C13.4761738,38.9816766 10.687837,38.632858 7.96492077,38.0391617 C6.09777824,37.6322067 4.26776639,37.1547833 2.75071309,35.9339183 C0.167478966,33.8533388 -0.255103481,30.6840225 2.02401273,28.3920378 C4.09979429,26.3026497 5.29328028,23.8644431 5.72293523,21.0756562 C5.98108183,19.3861763 6.72015908,18.5634577 8.28495182,17.9028165 C10.8434322,16.8228882 13.214491,15.3060559 15.7323044,14.1204251 C19.6999823,12.2530125 21.8977646,13.3399876 22.9780905,17.546951 C23.9098936,21.1989759 25.9679939,22.7933234 29.7376415,22.2859509 C32.8866764,21.8631405 35.9879718,21.0527539 39.1016441,20.365687 C40.3198839,20.0979071 41.2357739,19.3861763 41.8369372,18.2410648 C42.2471428,17.4553421 42.6538121,16.3859842 43.346918,16.0759232 C48.5964882,13.7134701 53.1299669,9.7848568 59.2671371,9.32857391 C63.5071065,9.01498953 67.8496274,8.54285125 71.8756535,7.27794348 C74.6816717,6.39708848 76.7061775,3.56602052 79.7367479,2.61293541 C81.2467287,2.13903542 82.6736075,1.40968748 84.6008663,0.597539176 Z" id="Shape" stroke="#FFFFFF" stroke-width="1.76666667" fill="#FF9AE0"></path>
                <text id="員林市" font-family="MicrosoftJhengHeiBold, Microsoft JhengHei" font-size="16.96" font-weight="bold" letter-spacing="-1.211428" fill="#FFFFFF">
                    <tspan x="38.925767" y="52.5175392">員林市</tspan>
                </text>
            </g>
        </g>
    </g>
</svg>