<?xml version="1.0" encoding="UTF-8"?>
<svg width="551px" height="622px" viewBox="0 0 551 622" version="1.1" xmlns="http://www.w3.org/2000/svg" xmlns:xlink="http://www.w3.org/1999/xlink">
    <!-- Generator: Sketch 51.2 (57519) - http://www.bohemiancoding.com/sketch -->
    <title>map-ok</title>
    <desc>Created with Sketch.</desc>
    <defs>
        <filter x="-1.3%" y="-0.8%" width="102.5%" height="102.3%" filterUnits="objectBoundingBox" id="filter-1">
            <feOffset dx="0" dy="2" in="SourceAlpha" result="shadowOffsetOuter1"></feOffset>
            <feGaussianBlur stdDeviation="2" in="shadowOffsetOuter1" result="shadowBlurOuter1"></feGaussianBlur>
            <feColorMatrix values="0 0 0 0 0   0 0 0 0 0   0 0 0 0 0  0 0 0 0.5 0" type="matrix" in="shadowBlurOuter1" result="shadowMatrixOuter1"></feColorMatrix>
            <feMerge>
                <feMergeNode in="shadowMatrixOuter1"></feMergeNode>
                <feMergeNode in="SourceGraphic"></feMergeNode>
            </feMerge>
        </filter>
    </defs>
    <g id="map-ok" stroke="none" stroke-width="1" fill="none" fill-rule="evenodd">
        <g id="map" filter="url(#filter-1)" transform="translate(0.120000, 0.040000)">
            <g id="511" transform="translate(391.000000, 378.060000)">
                <path d="M90.9314108,28.927932 C90.5070603,29.7083695 90.2489137,30.1857929 89.8581575,30.9010472 C92.1991582,31.545833 94.4888832,32.0567289 96.7008105,32.803694 C104.088047,35.2965136 105.628086,40.8917046 100.620749,46.8674249 C99.9188024,47.7059988 99.2115514,48.579807 98.3628503,49.2527802 C91.7376769,54.4956291 91.5007479,61.6111758 92.4767542,69.0649708 C92.8639741,72.0369756 92.918786,75.0036952 92.8851916,77.9915553 C92.8515972,81.0093646 91.8048658,83.6149337 89.9943033,85.9703399 C84.7252837,92.8374855 84.7270518,92.8374855 84.3911076,101.429345 C79.9902385,100.825079 75.8262985,102.29963 71.5332852,102.953224 C69.3726336,103.282664 67.4701285,102.292583 65.6295079,101.195038 C58.4915776,96.9369846 51.2970672,95.6121787 43.660525,100.25957 C38.9909006,103.099446 32.0651456,101.769355 28.3803681,97.8107928 C27.740306,97.1202025 27.6130008,96.2516794 27.4379562,95.3567308 C26.2373977,89.3299209 23.6453229,87.5999217 17.9501846,89.6417435 C14.6473226,90.8256127 12.4566128,89.0568558 9.85746552,87.9240763 C10.1509747,86.5869384 11.3090981,85.9897187 12.0605523,85.1176723 C16.2227241,80.2817783 16.6117122,75.2239089 13.1055155,69.8735957 C12.7236,69.2922314 12.2974813,68.7372927 11.8784351,68.1823541 C6.95596847,61.6781208 7.3325796,57.7847417 13.3972566,52.1930742 C15.4482843,50.3027594 17.5470516,48.4494404 19.469006,46.4322825 C22.522562,43.2330171 23.5268584,39.4700046 22.244966,35.1450066 C21.8223836,33.7250683 21.4510768,32.2417085 21.398033,30.7742041 C21.2742641,27.4322402 21.3591342,24.0832295 21.3591342,20.8328746 C22.4270832,20.0947181 22.9327676,20.7764998 23.5180178,21.3332002 C25.6362344,23.3521198 27.0401275,25.9013142 28.6774135,28.2708142 C30.5109616,30.9257111 32.9050061,31.9492646 36.1265342,31.5687353 C42.4882565,30.8235319 47.4460858,28.4047041 49.0603861,21.6045035 C49.684535,18.9830791 51.2793859,17.9330999 54.0412009,17.9718575 C61.66183,18.0775601 69.1268638,19.3706553 76.609579,20.5668563 C79.0336816,20.9544325 80.5666481,22.8007046 82.2552097,24.3140135 C84.6527905,26.4721082 87.0963425,28.4804576 90.9314108,28.927932 Z" id="Shape" stroke="#000000" stroke-width="1.76666667" fill="#000000" fill-rule="nonzero" opacity="0.15"></path>
                <path d="M82.4444303,19.9571065 C82.0200797,20.7375441 81.7619331,21.2149675 81.3711769,21.9302217 C83.7121776,22.5750076 86.0019026,23.0859035 88.2138299,23.8328685 C95.6010662,26.3256882 97.1411051,31.9208791 92.1337684,37.8965994 C91.4318218,38.7351734 90.7245708,39.6089815 89.8758697,40.2819548 C83.2506964,45.5248037 83.0137673,52.6403504 83.9897736,60.0941454 C84.3769935,63.0661501 84.4318055,66.0328698 84.398211,69.0207299 C84.3646166,72.0385391 83.3178852,74.6441082 81.5073227,76.9995145 C76.2383031,83.86666 76.2400712,83.86666 75.904127,92.4585197 C71.503258,91.8542532 67.3393179,93.3288044 63.0463046,93.9823988 C60.885653,94.3118386 58.9831479,93.3217576 57.1425273,92.2242123 C50.004597,87.9661592 42.8100866,86.6413533 35.1735444,91.2887443 C30.50392,94.1286208 23.578165,92.7985297 19.8933875,88.8399674 C19.2533254,88.149377 19.1260202,87.280854 18.9509756,86.3859053 C17.7504171,80.3590954 15.1583423,78.6290962 9.46320401,80.6709181 C6.16034204,81.8547872 3.9696322,80.0860304 1.37048494,78.9532509 C1.66399408,77.616113 2.82211753,77.0188933 3.57357167,76.1468468 C7.73574355,71.3109529 8.12473158,66.2530835 4.61853496,60.9027703 C4.23661944,60.321406 3.81050074,59.7664673 3.39145455,59.2115287 C-1.53101211,52.7072954 -1.15440098,48.8139163 4.91027598,43.2222487 C6.96130375,41.3319339 9.06007097,39.478615 10.9820254,37.4614571 C14.0355814,34.2621917 15.0398778,30.4991792 13.7579854,26.1741811 C13.335403,24.7542429 12.9640962,23.270883 12.9110524,21.8033786 C12.7872835,18.4614148 12.8721536,15.1124041 12.8721536,11.8620491 C13.9401026,11.1238926 14.445787,11.8056744 15.0310372,12.3623748 C17.1492538,14.3812944 18.5531469,16.9304888 20.1904329,19.2999887 C22.023981,21.9548857 24.4180255,22.9784392 27.6395536,22.5979098 C34.001276,21.8527065 38.9591052,19.4338787 40.5734055,12.6336781 C41.1975545,10.0122536 42.7924054,8.96227446 45.5542203,9.00103208 C53.1748494,9.10673468 60.6398833,10.3998298 68.1225984,11.5960309 C70.546701,11.9836071 72.0796675,13.8298792 73.7682291,15.3431881 C76.1658099,17.5012828 78.6093619,19.5096322 82.4444303,19.9571065 Z" id="Shape" stroke="#FFFFFF" stroke-width="1.76666667" fill="#FF9F7C"></path>
                <text id="社頭鄉" font-family="MicrosoftJhengHeiBold, Microsoft JhengHei" font-size="16.96" font-weight="bold" letter-spacing="-1.211428" fill="#FFFFFF">
                    <tspan x="23.6551683" y="58.614489">社頭鄉</tspan>
                </text>
            </g>
        </g>
    </g>
</svg>