<?xml version="1.0" encoding="UTF-8"?>
<svg width="551px" height="622px" viewBox="0 0 551 622" version="1.1" xmlns="http://www.w3.org/2000/svg" xmlns:xlink="http://www.w3.org/1999/xlink">
    <!-- Generator: Sketch 51.2 (57519) - http://www.bohemiancoding.com/sketch -->
    <title>map-ok</title>
    <desc>Created with Sketch.</desc>
    <defs>
        <filter x="-1.3%" y="-0.8%" width="102.5%" height="102.3%" filterUnits="objectBoundingBox" id="filter-1">
            <feOffset dx="0" dy="2" in="SourceAlpha" result="shadowOffsetOuter1"></feOffset>
            <feGaussianBlur stdDeviation="2" in="shadowOffsetOuter1" result="shadowBlurOuter1"></feGaussianBlur>
            <feColorMatrix values="0 0 0 0 0   0 0 0 0 0   0 0 0 0 0  0 0 0 0.5 0" type="matrix" in="shadowBlurOuter1" result="shadowMatrixOuter1"></feColorMatrix>
            <feMerge>
                <feMergeNode in="shadowMatrixOuter1"></feMergeNode>
                <feMergeNode in="SourceGraphic"></feMergeNode>
            </feMerge>
        </filter>
    </defs>
    <g id="map-ok" stroke="none" stroke-width="1" fill="none" fill-rule="evenodd">
        <g id="map" filter="url(#filter-1)" transform="translate(0.120000, 0.040000)">
            <g id="512" transform="translate(309.000000, 376.060000)">
                <path d="M8.24095301,26.1448893 C9.59357046,24.7707555 11.3864516,24.1330165 12.9795344,23.18874 C14.9492283,22.0207262 17.1434744,21.0235984 18.3758592,19.0416746 C19.7107954,16.888865 20.9944559,17.2641093 22.7608152,18.3968888 C30.9525494,23.6362143 29.4531773,22.6760824 34.2023675,15.6169104 C35.4683467,13.7371658 36.0376837,10.9607109 37.7439267,9.91954029 C39.5403441,8.82199496 42.0334037,10.8373912 44.3355056,10.923715 C45.3256569,10.9624726 46.2998951,11.2549165 47.2865102,11.4169938 C51.4256964,12.1075841 52.5502255,13.1381844 53.5032461,17.131981 C55.0043863,23.4318559 55.7788261,23.8916623 62.1812154,24.0960206 C66.8137091,24.2440043 70.7301113,23.1059396 74.2628298,19.9894746 C78.6619308,16.1084275 85.076697,15.965729 90.0080043,19.3429271 C93.3692144,21.645482 96.58367,24.2105318 101.216164,23.7824362 C101.037583,29.4692361 101.202019,34.8776858 102.669565,40.2174288 C103.299018,42.5164603 101.934024,44.7133127 100.348013,46.4309799 C98.4614213,48.4728018 96.4510605,50.4230148 94.3575977,52.2569549 C89.5836537,56.4374927 86.5849096,61.1289264 89.5624362,67.6543003 C84.9653049,68.6549515 83.9557042,68.0647787 83.0698724,63.9406156 C82.7816676,62.589384 82.1469099,61.532358 80.955192,60.852338 C79.747561,60.1617476 78.5310894,59.4764425 77.2704145,58.8933164 C71.8457997,56.3705477 70.6859081,56.7405068 68.0390214,62.182429 C67.1266677,64.0586502 66.0127474,64.2612468 64.2092575,63.6164609 C59.2991677,61.8617978 54.9106755,59.6878477 52.8331258,54.3463429 C51.9296127,52.019124 49.8326137,50.4353468 47.3979022,49.4804999 C41.9131711,47.3276903 36.3930773,45.5342695 30.3602267,45.5395547 C23.2399777,45.5448398 20.3596982,42.8265213 19.4862432,35.7180215 C18.8691668,30.6901011 15.4319271,28.5020573 11.1017831,27.1155915 C10.1752844,26.8196243 9.07550913,27.0504083 8.24095301,26.1448893 Z" id="Shape" stroke="#000000" stroke-width="1.76666667" fill="#000000" fill-rule="nonzero" opacity="0.15"></path>
                <path d="M0,16.5517114 C1.35261746,15.1775776 3.14549863,14.5398386 4.73858141,13.595562 C6.70827533,12.4275483 8.90252142,11.4304204 10.1349062,9.44849669 C11.4698424,7.29568707 12.7535029,7.6709313 14.5198621,8.80371083 C22.7115964,14.0430364 21.2122243,13.0829044 25.9614145,6.02373246 C27.2273937,4.14398789 27.7967307,1.36753294 29.5029737,0.326362331 C31.2993911,-0.771182996 33.7924507,1.24421324 36.0945526,1.33053703 C37.0847039,1.36929465 38.0589421,1.66173851 39.0455572,1.82381583 C43.1847434,2.51440614 44.3092725,3.54500649 45.2622931,7.53880305 C46.7634333,13.838678 47.5378731,14.2984843 53.9402624,14.5028427 C58.5727561,14.6508263 62.4891583,13.5127616 66.0218768,10.3962967 C70.4209778,6.51524954 76.835744,6.37255103 81.7670513,9.7497491 C85.1282614,12.0523041 88.342717,14.6173538 92.9752108,14.1892583 C92.7966299,19.8760581 92.9610658,25.2845078 94.4286115,30.6242508 C95.0580649,32.9232824 93.6930705,35.1201347 92.1070603,36.837802 C90.2204683,38.8796239 88.2101075,40.8298368 86.1166446,42.6637769 C81.3427007,46.8443148 78.3439566,51.5357485 81.3214832,58.0611223 C76.7243519,59.0617736 75.7147512,58.4716007 74.8289194,54.3474376 C74.5407146,52.9962061 73.9059569,51.9391801 72.714239,51.25916 C71.506608,50.5685697 70.2901364,49.8832645 69.0294615,49.3001385 C63.6048467,46.7773698 62.4449551,47.1473289 59.7980684,52.5892511 C58.8857147,54.4654722 57.7717944,54.6680688 55.9683045,54.023283 C51.0582147,52.2686198 46.6697225,50.0946697 44.5921728,44.753165 C43.6886597,42.4259461 41.5916607,40.8421688 39.1569492,39.887322 C33.6722181,37.7345124 28.1521243,35.9410916 22.1192737,35.9463767 C14.9990247,35.9516619 12.1187451,33.2333433 11.2452902,26.1248435 C10.6282138,21.0969232 7.19097411,18.9088794 2.86083012,17.5224136 C1.93433137,17.2264463 0.834556129,17.4572303 0,16.5517114 Z" id="Shape" stroke="#FFFFFF" stroke-width="1.76666667" fill="#86E7EA"></path>
                <text id="永靖鄉" font-family="MicrosoftJhengHeiBold, Microsoft JhengHei" font-size="16" font-weight="bold" letter-spacing="-1.142857" fill="#FFFFFF">
                    <tspan x="31.7142855" y="34">永靖鄉</tspan>
                </text>
            </g>
        </g>
    </g>
</svg>