<?xml version="1.0" encoding="UTF-8"?>
<svg width="551px" height="622px" viewBox="0 0 551 622" version="1.1" xmlns="http://www.w3.org/2000/svg" xmlns:xlink="http://www.w3.org/1999/xlink">
    <!-- Generator: Sketch 51.2 (57519) - http://www.bohemiancoding.com/sketch -->
    <title>map-ok</title>
    <desc>Created with Sketch.</desc>
    <defs>
        <filter x="-1.3%" y="-0.8%" width="102.5%" height="102.3%" filterUnits="objectBoundingBox" id="filter-1">
            <feOffset dx="0" dy="2" in="SourceAlpha" result="shadowOffsetOuter1"></feOffset>
            <feGaussianBlur stdDeviation="2" in="shadowOffsetOuter1" result="shadowBlurOuter1"></feGaussianBlur>
            <feColorMatrix values="0 0 0 0 0   0 0 0 0 0   0 0 0 0 0  0 0 0 0.5 0" type="matrix" in="shadowBlurOuter1" result="shadowMatrixOuter1"></feColorMatrix>
            <feMerge>
                <feMergeNode in="shadowMatrixOuter1"></feMergeNode>
                <feMergeNode in="SourceGraphic"></feMergeNode>
            </feMerge>
        </filter>
    </defs>
    <g id="map-ok" stroke="none" stroke-width="1" fill="none" fill-rule="evenodd">
        <g id="map" filter="url(#filter-1)" transform="translate(0.120000, 0.040000)">
            <g id="513" transform="translate(320.000000, 321.060000)">
                <path d="M89.5548842,76.4446471 C86.5844301,77.1546162 84.5793737,75.546175 82.5637085,74.1350453 C79.9327349,72.2940583 77.2946888,70.5992933 73.9829862,70.1800063 C69.1931291,69.568693 64.79226,70.2011469 61.2471646,73.7809416 C57.491662,77.5739032 52.7831388,77.2761742 48.0728474,76.9079768 C46.5292722,76.7899422 45.5497296,75.7734356 45.1465966,74.2953609 C44.7805942,72.9564613 44.5065345,71.5928977 44.1582134,70.2469513 C43.3254254,67.0124518 41.2213538,65.1890819 37.9361731,64.5918622 C34.8985302,64.0422087 31.8078435,63.6176366 28.8709839,62.7244496 C26.1321546,61.8893991 24.7388702,62.9622805 23.6779938,65.2119841 C22.1485636,68.4535305 20.3539143,71.5329996 17.8785359,74.3904932 C14.7312692,73.4515018 12.5140374,70.7067576 9.20587107,69.908703 C9.25537864,66.7570038 11.2692757,64.6535221 12.9065617,62.5112827 C17.9421885,55.9101554 20.2160003,48.5197819 20.1505796,40.2802643 C20.0692458,30.2385173 20.1311302,20.1950086 20.1311302,10.0193717 C21.655256,9.80620479 22.9742791,10.2025895 24.2862296,10.5602167 C28.0629497,11.5943404 31.8237567,12.2708371 35.7967389,11.5643914 C38.4117993,11.1010616 40.6661618,11.8180776 41.9003147,14.6456222 C44.5365926,20.6988577 48.774794,22.3002521 55.1966327,20.0029822 C57.5783003,19.1520763 59.4613559,17.4872604 61.8447917,16.2293994 C61.6644427,18.8966284 60.7202626,20.9543056 59.0122516,22.7653435 C55.3469235,26.6551992 56.200929,31.8346266 60.8793941,34.5071406 C62.8154936,35.6117328 64.9566959,36.0803477 67.1067388,36.527822 C68.9579682,36.9153982 70.856937,37.1955101 72.6286006,37.8191554 C76.423002,39.1545316 77.1054992,40.2326981 76.8349757,44.2828694 C76.6687717,46.7580719 76.3027694,49.2262276 75.9685933,51.6873365 C75.0809933,58.1950932 76.7730912,63.6863433 82.1747204,67.7999361 C83.6793968,68.9450476 85.1239569,70.1835298 86.5048644,71.4766249 C87.8822357,72.76972 89.1411424,74.1843732 89.5548842,76.4446471 Z" id="Shape" stroke="#000000" stroke-width="1.76666667" fill="#000000" fill-rule="nonzero" opacity="0.15"></path>
                <path d="M80.3800711,67.1164697 C77.4096171,67.8264388 75.4045606,66.2179976 73.3888954,64.8068679 C70.7579219,62.9658809 68.1198758,61.2711159 64.8081732,60.8518289 C60.0183161,60.2405156 55.617447,60.8729695 52.0723516,64.4527642 C48.316849,68.2457258 43.6083257,67.9479968 38.8980344,67.5797994 C37.3544592,67.4617649 36.3749166,66.4452582 35.9717835,64.9671835 C35.6057812,63.6282839 35.3317214,62.2647204 34.9834003,60.9187739 C34.1506123,57.6842744 32.0465407,55.8609045 28.76136,55.2636848 C25.7237172,54.7140313 22.6330305,54.2894592 19.6961709,53.3962722 C16.9573416,52.5612217 15.5640572,53.6341031 14.5031807,55.8838068 C12.9737505,59.1253532 11.1791012,62.2048222 8.70372289,65.0623158 C5.55645613,64.1233244 3.33922438,61.3785802 0.0310580309,60.5805256 C0.0805655979,57.4288264 2.0944627,55.3253447 3.73174866,53.1831053 C8.76737548,46.581978 11.0411873,39.1916046 10.9757666,30.9520869 C10.8944327,20.9103399 10.9563172,10.8668313 10.9563172,0.691194321 C12.480443,0.478027411 13.799466,0.87441216 15.1114166,1.23203929 C18.8881367,2.26616306 22.6489436,2.94265969 26.6219259,2.23621399 C29.2369863,1.77288426 31.4913487,2.48990023 32.7255016,5.31744477 C35.3617796,11.3706803 39.5999809,12.9720747 46.0218196,10.6748049 C48.4034872,9.82389894 50.2865429,8.15908299 52.6699786,6.90122205 C52.4896296,9.56845099 51.5454496,11.6261283 49.8374385,13.4371661 C46.1721105,17.3270218 47.026116,22.5064492 51.7045811,25.1789633 C53.6406806,26.2835554 55.7818828,26.7521703 57.9319258,27.1996446 C59.7831551,27.5872208 61.682124,27.8673327 63.4537876,28.490978 C67.248189,29.8263542 67.9306862,30.9045207 67.6601627,34.954692 C67.4939587,37.4298946 67.1279563,39.8980503 66.7937802,42.3591591 C65.9061803,48.8669159 67.5982782,54.3581659 72.9999074,58.4717587 C74.5045838,59.6168702 75.9491439,60.8553524 77.3300514,62.1484475 C78.7074226,63.4415426 79.9663293,64.8561958 80.3800711,67.1164697 Z" id="Shape" stroke="#FFFFFF" stroke-width="1.76666667" fill="#29B99F"></path>
                <text id="埔心鄉" font-family="MicrosoftJhengHeiBold, Microsoft JhengHei" font-size="14.84" font-weight="bold" letter-spacing="-1.06" fill="#FFFFFF">
                    <tspan x="17.521058" y="43.1312191">埔心鄉</tspan>
                </text>
            </g>
        </g>
    </g>
</svg>