<?xml version="1.0" encoding="UTF-8"?>
<svg width="551px" height="622px" viewBox="0 0 551 622" version="1.1" xmlns="http://www.w3.org/2000/svg" xmlns:xlink="http://www.w3.org/1999/xlink">
    <!-- Generator: Sketch 51.2 (57519) - http://www.bohemiancoding.com/sketch -->
    <title>map-ok</title>
    <desc>Created with Sketch.</desc>
    <defs>
        <filter x="-1.3%" y="-0.8%" width="102.5%" height="102.3%" filterUnits="objectBoundingBox" id="filter-1">
            <feOffset dx="0" dy="2" in="SourceAlpha" result="shadowOffsetOuter1"></feOffset>
            <feGaussianBlur stdDeviation="2" in="shadowOffsetOuter1" result="shadowBlurOuter1"></feGaussianBlur>
            <feColorMatrix values="0 0 0 0 0   0 0 0 0 0   0 0 0 0 0  0 0 0 0.5 0" type="matrix" in="shadowBlurOuter1" result="shadowMatrixOuter1"></feColorMatrix>
            <feMerge>
                <feMergeNode in="shadowMatrixOuter1"></feMergeNode>
                <feMergeNode in="SourceGraphic"></feMergeNode>
            </feMerge>
        </filter>
    </defs>
    <g id="map-ok" stroke="none" stroke-width="1" fill="none" fill-rule="evenodd">
        <g id="map" filter="url(#filter-1)" transform="translate(0.120000, 0.040000)">
            <g id="514" transform="translate(244.000000, 312.060000)">
                <path d="M94.1472913,19.5866423 C93.6769694,31.7530115 94.8297885,43.7819674 93.531983,55.7739273 C92.8211957,62.3433439 89.2460422,67.6601847 85.4198145,72.8061396 C84.1449946,74.5220451 83.2768441,76.3225127 83.1212489,78.5158417 C82.942668,81.0121847 81.3495852,82.7122349 79.2614268,83.8696783 C74.6130199,86.4417749 70.4384711,89.4824864 66.7483892,93.4110997 C62.7152906,97.7026252 52.0587868,98.384407 46.9842612,95.3507424 C45.5697593,94.5033599 44.5000422,93.3476781 43.8104726,91.8696034 C42.3323181,88.6932403 39.4838648,86.3854002 38.2214219,83.0786706 C38.014551,82.5325405 37.5548378,82.3757483 37.0544578,82.2947096 C31.9852366,81.4596591 30.5795753,77.3707302 29.4285243,73.3469845 C28.7177371,70.8435946 27.7841659,68.7876791 25.6358911,67.1933315 C22.9501056,65.1973141 21.3004427,62.2975394 19.5358516,59.5193228 C16.6538039,54.986443 13.9432646,50.3443371 10.1435589,46.4439112 C8.54340359,44.7967124 8.13673429,43.2657864 10.9675062,42.0132106 C13.5418997,40.8751459 15.2145482,38.7452385 14.8626909,35.6058713 C14.7654439,34.7338249 14.5090654,33.7014628 15.419651,33.1588561 C16.4663824,32.5352108 17.3663593,33.2011372 18.055929,33.9463405 C20.5489886,36.6311865 23.6927191,37.4944244 27.2413508,37.4081006 C28.9599706,37.3658196 30.3656319,37.1614612 30.797055,35.0773583 C31.0976366,33.6380412 31.9021346,32.3044268 32.2398469,30.8651097 C32.8339377,28.3599581 33.8912779,26.337515 36.0908284,24.7378823 C38.9622672,22.6520177 39.7809102,19.5232208 39.7596927,16.0297498 C39.7154895,8.95824592 40.9195843,8.15666787 47.8046723,10.2742433 C49.9688603,10.9401697 51.8625247,11.8721143 52.7253709,14.2028566 C54.7039054,19.5514081 58.8643092,21.824014 64.3225184,22.0195638 C67.5299015,22.1323133 70.6488782,22.6484943 73.7908406,23.2862333 C77.1379058,23.9644917 80.4407677,23.749563 83.7701516,22.4388508 C86.9881435,21.173943 90.4642819,20.5679148 94.1472913,19.5866423 Z" id="Shape" stroke="#000000" stroke-width="1.76666667" fill="#000000" fill-rule="nonzero" opacity="0.15"></path>
                <path d="M85.2604159,10.7112195 C84.790094,22.8775887 85.9429131,34.9065446 84.6451076,46.8985045 C83.9343204,53.4679211 80.3591668,58.7847618 76.5329391,63.9307167 C75.2581193,65.6466223 74.3899687,67.4470899 74.2343735,69.6404188 C74.0557926,72.1367619 72.4627099,73.836812 70.3745514,74.9942555 C65.7261445,77.5663521 61.5515957,80.6070635 57.8615138,84.5356768 C53.8284153,88.8272024 43.1719115,89.5089841 38.0973859,86.4753195 C36.6828839,85.627937 35.6131669,84.4722553 34.9235972,82.9941806 C33.4454427,79.8178175 30.5969895,77.5099774 29.3345465,74.2032477 C29.1276756,73.6571176 28.6679625,73.5003254 28.1658143,73.4192868 C23.0965931,72.5842362 21.6909318,68.4953073 20.541649,64.4715617 C19.8290936,61.9681718 18.8955224,59.9122562 16.7472476,58.3179087 C14.0614621,56.3218913 12.4117992,53.4221166 10.6472081,50.6438999 C7.76516044,46.1110201 5.05462114,41.4689143 1.25491538,37.5684884 C-0.345239912,35.9212895 -0.751909213,34.3903635 2.07886274,33.1377877 C4.65325623,31.9997231 6.32590474,29.8698157 5.97404739,26.7304485 C5.87680038,25.858402 5.62042191,24.82604 6.53100752,24.2834333 C7.57773893,23.6597879 8.47771578,24.3257143 9.16728546,25.0709177 C11.6603451,27.7557637 14.8040756,28.6190016 18.3527073,28.5326778 C20.0713271,28.4903968 21.4787565,28.2860384 21.9101796,26.2019355 C22.2089931,24.7626184 23.0134911,23.4290039 23.3529715,21.9896869 C23.9452942,19.4845353 25.0026344,17.4620922 27.2021849,15.8624595 C30.0753919,13.7765949 30.8922667,10.6477979 30.8728173,7.154327 C30.8286141,0.0828230798 32.0327089,-0.718754968 38.917797,1.39882045 C41.0819849,2.06474682 42.9756493,2.99669141 43.8384955,5.32743374 C45.81703,10.6759853 49.9774338,12.9485912 55.4356431,13.144141 C58.6430262,13.2568904 61.7620029,13.7730715 64.9039653,14.4108105 C68.2510304,15.0890688 71.5538924,14.8741402 74.8832763,13.563428 C78.1012681,12.2985202 81.5774066,11.6924919 85.2604159,10.7112195 Z" id="Shape" stroke="#FFFFFF" stroke-width="1.76666667" fill="#1BA1A8"></path>
                <text id="溪湖鎮" font-family="MicrosoftJhengHeiBold, Microsoft JhengHei" font-size="16.96" font-weight="bold" letter-spacing="-0.1211428" fill="#FFFFFF">
                    <tspan x="21.3832944" y="51.2308513">溪湖鎮</tspan>
                </text>
            </g>
        </g>
    </g>
</svg>