<?xml version="1.0" encoding="UTF-8"?>
<svg width="551px" height="622px" viewBox="0 0 551 622" version="1.1" xmlns="http://www.w3.org/2000/svg" xmlns:xlink="http://www.w3.org/1999/xlink">
    <!-- Generator: Sketch 51.2 (57519) - http://www.bohemiancoding.com/sketch -->
    <title>map-ok</title>
    <desc>Created with Sketch.</desc>
    <defs>
        <filter x="-1.3%" y="-0.8%" width="102.5%" height="102.3%" filterUnits="objectBoundingBox" id="filter-1">
            <feOffset dx="0" dy="2" in="SourceAlpha" result="shadowOffsetOuter1"></feOffset>
            <feGaussianBlur stdDeviation="2" in="shadowOffsetOuter1" result="shadowBlurOuter1"></feGaussianBlur>
            <feColorMatrix values="0 0 0 0 0   0 0 0 0 0   0 0 0 0 0  0 0 0 0.5 0" type="matrix" in="shadowBlurOuter1" result="shadowMatrixOuter1"></feColorMatrix>
            <feMerge>
                <feMergeNode in="shadowMatrixOuter1"></feMergeNode>
                <feMergeNode in="SourceGraphic"></feMergeNode>
            </feMerge>
        </filter>
    </defs>
    <g id="map-ok" stroke="none" stroke-width="1" fill="none" fill-rule="evenodd">
        <g id="map" filter="url(#filter-1)" transform="translate(0.120000, 0.040000)">
            <g id="515" transform="translate(324.000000, 271.060000)">
                <path d="M8.81461908,38.9616521 C9.82245169,37.9275284 11.0848947,37.5011945 12.3897727,37.6157057 C15.7898816,37.9187198 18.3359851,36.3825087 20.6557682,34.1715627 C23.5519609,31.4127248 26.6055169,28.8864327 30.493629,27.5616268 C33.8389261,26.4235621 35.1455722,23.666486 34.8962662,20.525357 C34.5161189,15.7423144 37.8649521,12.8090672 40.1193146,9.48295878 C41.2049448,7.8833261 44.3610522,8.04188 46.3006879,8.68314244 C49.9571754,9.89519892 53.7816349,10.8218584 57.0933375,12.9817148 C58.3663893,13.8114802 59.722543,14.6341988 60.4492433,15.8991066 C64.0173244,22.0950406 69.9016524,23.7122904 76.406593,24.212616 C84.5134571,24.8362614 92.5372192,23.4374637 100.608721,23.2172499 C101.65722,23.1873008 102.836561,22.8050098 103.701176,22.2130752 C109.930288,17.9391668 117.00987,18.6579444 123.963916,18.6649913 C126.455207,18.6685147 128.94473,18.9045838 131.43779,18.95215 C135.341815,19.0279035 137.230175,21.9541038 135.518628,25.5338985 C134.367577,27.936871 134.388795,30.2799453 135.12964,32.7674798 C136.285995,36.6502886 137.316814,40.5683316 138.43427,44.5850304 C133.884878,46.5352434 129.270066,47.9252326 125.751492,51.3359031 C125.383722,51.6935303 124.644645,51.8221351 124.084148,51.8080414 C119.269537,51.6882451 114.817393,54.2656269 109.917912,53.6490284 C109.143472,53.5503726 108.162161,54.082409 107.461983,54.5792112 C105.078547,56.2739763 102.484704,57.4578454 99.7158165,58.3598409 C97.5710779,59.0592398 95.7269211,60.303007 94.7456104,62.3976802 C94.0242144,63.9391764 92.8837722,64.652669 91.285385,64.8112229 C88.6013677,65.0754794 86.1047718,66.2523017 83.3659425,66.3227701 C81.1292613,66.3791448 79.8880359,65.5652348 79.3133945,63.3067226 C77.8263993,57.5001264 73.8392721,55.5287729 68.6038469,58.5853398 C63.4373786,61.6049107 57.5477463,63.1745943 52.7472804,66.875947 C51.2479084,68.0281053 49.3507077,68.4755797 47.4340576,68.7239808 C43.7457438,69.2014042 41.5568021,68.0210585 40.0927927,64.6332902 C38.16907,60.1920193 36.919004,59.0750951 32.1397556,59.6194635 C26.7982428,60.2272535 21.8828486,58.4831606 16.7782649,57.8101874 C15.5706338,57.6498718 15.5529526,56.7267357 15.280661,55.8881618 C14.3276403,52.958438 13.3374889,50.042808 12.3579464,47.1218928 C11.4155345,44.3013951 10.395325,41.5073231 8.81461908,38.9616521 Z" id="Shape" stroke="#000000" stroke-width="1.76666667" fill="#000000" fill-rule="nonzero" opacity="0.15"></path>
                <path d="M0,30.736639 C1.00783261,29.7025152 2.27027557,29.2761814 3.57515359,29.3906925 C6.97526256,29.6937067 9.52136601,28.1574955 11.8411491,25.9465495 C14.7373418,23.1877117 17.7908978,20.6614195 21.67901,19.3366136 C25.024307,18.1985489 26.3309531,15.4414728 26.0816472,12.3003439 C25.7014998,7.51730125 29.0503331,4.5840541 31.3046955,1.25794563 C32.3903257,-0.341687044 35.5464331,-0.183133144 37.4860688,0.458129294 C41.1425563,1.67018577 44.9670158,2.59684523 48.2787185,4.75670168 C49.5517702,5.58646709 50.9079239,6.40918566 51.6346242,7.67409343 C55.2027053,13.8700275 61.0870333,15.4872773 67.591974,15.9876029 C75.6988381,16.6112482 83.7226002,15.2124505 91.7941017,14.9922368 C92.8426012,14.9622877 94.0219422,14.5799966 94.8865565,13.9880621 C101.115669,9.71415361 108.195251,10.4329313 115.149296,10.4399781 C117.640588,10.4435015 120.130111,10.6795707 122.623171,10.7271369 C126.527196,10.8028904 128.415556,13.7290907 126.704009,17.3088854 C125.552958,19.7118578 125.574176,22.0549321 126.315021,24.5424666 C127.471376,28.4252755 128.502195,32.3433185 129.619651,36.3600173 C125.070259,38.3102303 120.455447,39.7002194 116.936873,43.11089 C116.569103,43.4685171 115.830025,43.5971219 115.269529,43.5830283 C110.454918,43.463232 106.002773,46.0406137 101.103292,45.4240152 C100.328853,45.3253595 99.3475419,45.8573959 98.6473635,46.3541981 C96.2639278,48.0489631 93.6700849,49.2328322 90.9011974,50.1348277 C88.7564588,50.8342266 86.912302,52.0779939 85.9309913,54.172667 C85.2095953,55.7141633 84.0691531,56.4276558 82.470766,56.5862097 C79.7867486,56.8504662 77.2901527,58.0272885 74.5513234,58.0977569 C72.3146422,58.1541316 71.0734168,57.3402216 70.4987754,55.0817094 C69.0117803,49.2751133 65.024653,47.3037598 59.7892278,50.3603266 C54.6227595,53.3798976 48.7331272,54.9495812 43.9326613,58.6509339 C42.4332893,59.8030922 40.5360886,60.2505665 38.6194385,60.4989676 C34.9311248,60.9763911 32.7421831,59.7960454 31.2781736,56.408277 C29.354451,51.9670061 28.1043849,50.850082 23.3251366,51.3944504 C17.9836237,52.0022403 13.0682296,50.2581474 7.96364578,49.5851742 C6.75601477,49.4248586 6.73833349,48.5017226 6.46604187,47.6631486 C5.51302121,44.7334249 4.52286987,41.8177949 3.54332729,38.8968797 C2.60091539,36.076382 1.58070589,33.2823099 0,30.736639 Z" id="Shape" stroke="#FFFFFF" stroke-width="1.76666667" fill="#AAC962"></path>
                <text id="大村鄉" font-family="MicrosoftJhengHeiBold, Microsoft JhengHei" font-size="16.96" font-weight="bold" letter-spacing="-0.121142842" fill="#FFFFFF">
                    <tspan x="38.9690271" y="36.9799193">大村鄉</tspan>
                </text>
            </g>
        </g>
    </g>
</svg>