<?xml version="1.0" encoding="UTF-8"?>
<svg width="551px" height="622px" viewBox="0 0 551 622" version="1.1" xmlns="http://www.w3.org/2000/svg" xmlns:xlink="http://www.w3.org/1999/xlink">
    <!-- Generator: Sketch 51.2 (57519) - http://www.bohemiancoding.com/sketch -->
    <title>map-ok</title>
    <desc>Created with Sketch.</desc>
    <defs>
        <filter x="-1.3%" y="-0.8%" width="102.5%" height="102.3%" filterUnits="objectBoundingBox" id="filter-1">
            <feOffset dx="0" dy="2" in="SourceAlpha" result="shadowOffsetOuter1"></feOffset>
            <feGaussianBlur stdDeviation="2" in="shadowOffsetOuter1" result="shadowBlurOuter1"></feGaussianBlur>
            <feColorMatrix values="0 0 0 0 0   0 0 0 0 0   0 0 0 0 0  0 0 0 0.5 0" type="matrix" in="shadowBlurOuter1" result="shadowMatrixOuter1"></feColorMatrix>
            <feMerge>
                <feMergeNode in="shadowMatrixOuter1"></feMergeNode>
                <feMergeNode in="SourceGraphic"></feMergeNode>
            </feMerge>
        </filter>
    </defs>
    <g id="map-ok" stroke="none" stroke-width="1" fill="none" fill-rule="evenodd">
        <g id="map" filter="url(#filter-1)" transform="translate(0.120000, 0.040000)">
            <g id="516" transform="translate(209.000000, 252.060000)">
                <path d="M43.8952609,100.836388 C44.0101892,95.5424497 41.2324611,92.1194472 37.6113362,89.7675644 C31.1116999,85.5500307 26.5481631,79.7910007 22.5804852,73.3660443 C21.4205937,71.4898232 19.7886121,69.9888463 18.0363978,68.6517084 C16.4274019,67.4237965 15.3718298,65.8135936 15.4549318,63.8299081 C15.734296,57.1882614 14.0581112,51.2759627 9.23642779,46.2868 C13.2253232,47.8934795 17.0427102,48.1330721 20.9378949,46.5563416 C23.8694501,45.3724725 25.5120404,43.3658848 25.2627345,40.163096 C25.0098923,36.9391668 25.6216643,34.1345244 27.9361431,31.6593219 C29.5009358,29.9856974 29.2516299,27.7007595 28.6610753,25.6783165 C27.8212148,22.8032058 28.7989893,20.7208645 31.2054106,19.344969 C34.1564153,17.6642977 36.4532127,15.4445431 38.1099481,12.5042491 C39.6659002,9.74012614 42.0793941,8.82579865 45.1912983,9.2221834 C49.4171228,9.76302837 53.3282206,11.1124982 56.9740993,13.2811632 C58.1375271,13.9735153 59.0162864,14.9072216 59.3681438,16.2196955 C60.0524091,18.7917921 61.8329133,20.2452028 64.2411028,21.0274021 C68.6030731,22.4385318 72.9349852,23.828521 77.0582583,25.9231942 C80.2426557,27.5386822 83.9857814,26.3090086 87.4053398,27.0788759 C88.5687676,27.339609 89.8824863,27.2902811 90.8867826,27.8311261 C95.110839,30.0984468 99.5117081,30.0473573 103.997447,29.1083658 C105.291717,28.8353008 105.938851,29.27749 106.677928,30.2939967 C108.212663,32.4062869 109.059596,34.7881189 110.125777,37.1276697 C113.33316,44.1410372 116.077294,51.4521337 120.826484,57.6692083 C124.997496,63.1357944 126.178605,69.789773 128.432968,76.0191796 C128.860855,77.2100955 127.886616,77.6839955 127.02377,77.8795453 C120.059116,79.4492289 113.444552,83.3531783 105.820387,80.5890553 C103.553647,79.7663367 100.887311,80.0270698 98.4030922,79.8121412 C94.5238207,79.4774163 91.6700631,77.8231706 90.0363134,74.0812986 C88.004735,69.4321459 80.8597322,66.1447951 76.0097588,67.4061794 C73.9092234,67.9523095 72.8129844,69.3863414 72.7086649,71.4951083 C72.6184904,73.2850057 72.6520849,75.0801882 72.6945199,76.8718472 C72.7493319,79.3417646 71.8829494,81.5333319 69.9150236,82.8722315 C67.1178461,84.7713548 65.9614908,87.4438689 65.1569928,90.5021975 C63.6753021,96.1343843 60.3830489,97.0874694 55.7381782,93.3279803 C55.1175655,92.8276546 54.5040253,92.3185205 53.8763401,91.8270034 C52.4883601,90.74179 50.9129586,90.5620956 49.3534702,91.2368305 C47.7073436,91.9485614 47.4067619,93.6309944 47.6702129,95.0562178 C48.2147962,98.0599333 46.4944082,99.3671221 43.8952609,100.836388 Z" id="Shape" stroke="#000000" stroke-width="1.76666667" fill="#000000" fill-rule="nonzero" opacity="0.15"></path>
                <path d="M35.3578655,91.9251481 C35.4727937,86.6312096 32.6950656,83.2082071 29.0739407,80.8563242 C22.5743044,76.6387905 18.0107676,70.8797605 14.0430897,64.4548042 C12.8831982,62.578583 11.2512166,61.0776061 9.49900234,59.7404682 C7.89000641,58.5125564 6.83443436,56.9023534 6.91753635,54.918668 C7.19690047,48.2770213 5.52071571,42.3647225 0.699032307,37.3755598 C4.6879277,38.9822394 8.50531475,39.2218319 12.4004994,37.6451015 C15.3320546,36.4612324 16.974645,34.4546447 16.725339,31.2518559 C16.4724968,28.0279266 17.0842689,25.2232843 19.3987476,22.7480818 C20.9635404,21.0744573 20.7142344,18.7895194 20.1236798,16.7670763 C19.2838193,13.8919656 20.2615938,11.8096244 22.6680152,10.4337289 C25.6190198,8.75305755 27.9158173,6.53330296 29.5725526,3.59300897 C31.1285047,0.828885991 33.5419986,-0.0854414962 36.6539028,0.310943253 C40.8797273,0.851788221 44.7908251,2.20125808 48.4367038,4.36992308 C49.6001316,5.06227511 50.4788909,5.99598141 50.8307483,7.30845535 C51.5150136,9.88055195 53.2955179,11.3339627 55.7054755,12.1161619 C60.0656776,13.5272916 64.3993579,14.9172808 68.522631,17.011954 C71.7070284,18.6274421 75.4501541,17.3977685 78.8697125,18.1676358 C80.0331403,18.4283688 81.3468589,18.379041 82.3511553,18.9198859 C86.5752116,21.1872067 90.9760807,21.1361171 95.4618199,20.1971257 C96.7560892,19.9240606 97.4032238,20.3662498 98.142301,21.3827565 C99.6770356,23.4950468 100.523969,25.8768787 101.590149,28.2164296 C104.797533,35.2297971 107.541666,42.5408935 112.290856,48.7579681 C116.461869,54.2245542 117.642978,60.8785329 119.89734,67.1079394 C120.325227,68.2988554 119.350989,68.7727554 118.488143,68.9683052 C111.523489,70.5379888 104.908925,74.4419381 97.2847592,71.6778152 C95.0180199,70.8550966 92.3516838,71.1158297 89.8674648,70.9009011 C85.9881933,70.5661762 83.1344357,68.9119305 81.500686,65.1700584 C79.4691076,60.5209058 72.3241048,57.2335549 67.4741314,58.4949393 C65.3735961,59.0410694 64.2773571,60.4751013 64.1730376,62.5838682 C64.0828631,64.3737655 64.1164575,66.168948 64.1588925,67.9606071 C64.2137045,70.4305245 63.3490902,72.6220917 61.3776282,73.9609913 C58.5804506,75.8601147 57.4258634,78.5326288 56.6195973,81.5909573 C55.1379066,87.2231442 51.8474215,88.1762293 47.2025509,84.4167401 C46.5819381,83.9164145 45.9683979,83.4072803 45.3407127,82.9157632 C43.9527327,81.8305499 42.3773312,81.6508554 40.8178428,82.3255904 C39.1717162,83.0373212 38.8711346,84.7197543 39.1345856,86.1449776 C39.6774007,89.1486932 37.9570127,90.455882 35.3578655,91.9251481 Z" id="Shape" stroke="#FFFFFF" stroke-width="1.76666667" fill="#01B6D9"></path>
                <text id="埔鹽鄉" font-family="MicrosoftJhengHeiBold, Microsoft JhengHei" font-size="16.96" font-weight="bold" letter-spacing="-0.1211428" fill="#FFFFFF">
                    <tspan x="31.6207465" y="46.8428193">埔鹽鄉</tspan>
                </text>
            </g>
        </g>
    </g>
</svg>