<?xml version="1.0" encoding="UTF-8"?>
<svg width="551px" height="622px" viewBox="0 0 551 622" version="1.1" xmlns="http://www.w3.org/2000/svg" xmlns:xlink="http://www.w3.org/1999/xlink">
    <!-- Generator: Sketch 51.2 (57519) - http://www.bohemiancoding.com/sketch -->
    <title>map-ok</title>
    <desc>Created with Sketch.</desc>
    <defs>
        <filter x="-1.3%" y="-0.8%" width="102.5%" height="102.3%" filterUnits="objectBoundingBox" id="filter-1">
            <feOffset dx="0" dy="2" in="SourceAlpha" result="shadowOffsetOuter1"></feOffset>
            <feGaussianBlur stdDeviation="2" in="shadowOffsetOuter1" result="shadowBlurOuter1"></feGaussianBlur>
            <feColorMatrix values="0 0 0 0 0   0 0 0 0 0   0 0 0 0 0  0 0 0 0.5 0" type="matrix" in="shadowBlurOuter1" result="shadowMatrixOuter1"></feColorMatrix>
            <feMerge>
                <feMergeNode in="shadowMatrixOuter1"></feMergeNode>
                <feMergeNode in="SourceGraphic"></feMergeNode>
            </feMerge>
        </filter>
    </defs>
    <g id="map-ok" stroke="none" stroke-width="1" fill="none" fill-rule="evenodd">
        <g id="map" filter="url(#filter-1)" transform="translate(0.120000, 0.040000)">
            <g id="520" transform="translate(377.000000, 459.060000)">
                <path d="M23.3747667,8.88485953 C26.8420646,11.4957137 30.1838253,11.627842 33.8314721,10.3065595 C36.6976066,9.26538888 38.5576767,10.0493498 38.8370408,13.1023933 C39.4258272,19.5625838 44.8097751,20.5103838 49.0338315,22.6720019 C52.6319707,24.5129889 56.1081092,22.811177 59.1899552,20.8926749 C65.6259389,16.8865463 71.8709649,18.0404664 77.799496,21.6466867 C81.6964488,24.0161867 85.5403577,24.6504023 89.7838635,23.3291198 C92.5863454,22.4570733 95.4188855,22.1417272 98.4812821,22.4658819 C99.1478661,24.2152599 98.4671371,25.7743732 97.7563499,27.270065 C96.1243683,30.696591 93.9637166,33.8060091 91.7411805,36.8731462 C88.236752,41.7108019 88.777799,44.6810449 93.7250194,48.1110943 C93.9707891,48.2819801 94.218327,48.4458192 94.4764736,48.6026114 C101.071589,52.6034548 101.964493,55.5032294 98.5307897,62.5447843 C95.898048,67.9391403 92.3441119,71.968171 85.446647,71.0591287 C81.7654058,70.5764201 78.8073286,72.1795762 76.6820395,75.1709598 C74.7052731,77.9562233 72.1750828,78.9216404 68.8722208,77.9262742 C68.0199834,77.6690646 67.1040934,77.5985962 66.2164935,77.4752765 C62.7898626,76.9943297 60.9103432,78.1958159 59.9856125,81.5272095 C58.7726771,85.8892034 59.7752054,90.2300568 60.1677297,94.5761954 C60.227846,95.2685474 60.3993543,95.957376 60.39405,96.6479664 C60.3728324,99.2235864 59.4604787,101.575469 57.0593617,102.549695 C54.9871164,103.390031 53.0969882,101.975377 51.5887755,100.52549 C50.3723039,99.3521912 49.263688,98.0538109 48.222261,96.7219582 C46.5160181,94.5374378 44.4243234,92.962469 41.7721323,92.0974694 C39.4010734,91.3240788 37.5710616,89.8530509 36.3758075,87.635058 C36.1406465,87.1981539 35.9019493,86.69959 35.5235701,86.4194781 C29.5614445,81.9746838 25.7829563,75.5726297 20.8321996,70.2240781 C19.3416682,68.6173986 17.6230483,67.2009838 16.9352468,65.0147017 C16.3181703,63.0521567 16.7106946,61.6392653 18.784708,60.6579929 C23.5392026,58.4030041 24.3613818,55.457425 21.6950457,50.8029872 C19.0569997,46.1943538 15.6763401,42.1371357 12.1170996,38.2208544 C9.09713805,34.8982693 9.49143046,31.4770285 10.56822,27.1150346 C11.4717331,23.4594863 13.1143235,20.6389886 15.1671194,17.7533076 C16.632897,15.6903452 18.2082985,13.8423115 20.5086322,12.6584423 C21.8577134,11.9608052 22.9910831,10.9795327 23.3747667,8.88485953 Z" id="Shape" stroke="#000000" stroke-width="1.76666667" fill="#000000" fill-rule="nonzero" opacity="0.15"></path>
                <path d="M14.2710591,0.044598769 C17.7383569,2.65545298 21.0801177,2.78758123 24.7277645,1.46629874 C27.593899,0.425128128 29.453969,1.20908908 29.7333332,4.2621325 C30.3221196,10.7223231 35.7060675,11.670123 39.9301238,13.8317412 C43.5282631,15.6727281 47.0044015,13.9709163 50.0862476,12.0524141 C56.5222313,8.04628557 62.7672572,9.20020561 68.6957884,12.806426 C72.5927412,15.1759259 76.4366501,15.8101415 80.6801558,14.488859 C83.4826378,13.6168126 86.3151778,13.3014665 89.3775745,13.6256211 C90.0441585,15.3749991 89.3634295,16.9341125 88.6526423,18.4298043 C87.0206607,21.8563302 84.860009,24.9657484 82.6374729,28.0328855 C79.1330444,32.8705411 79.6740914,35.8407842 84.6213118,39.2708335 C84.8670815,39.4417194 85.1146193,39.6055584 85.3727659,39.7623506 C91.9678811,43.763194 92.8607855,46.6629687 89.4270821,53.7045235 C86.7943404,59.0988795 83.2404043,63.1279103 76.3429394,62.2188679 C72.6616981,61.7361594 69.703621,63.3393155 67.5783319,66.3306991 C65.6015654,69.1159626 63.0713751,70.0813796 59.7685132,69.0860135 C58.9162758,68.8288038 58.0003858,68.7583354 57.1127858,68.6350157 C53.6861549,68.1540689 51.8066355,69.3555551 50.8819049,72.6869487 C49.6689695,77.0489427 50.6714977,81.3897961 51.064022,85.7359346 C51.1241384,86.4282867 51.2956467,87.1171153 51.2903423,87.8077056 C51.2691248,90.3833256 50.3567711,92.7352085 47.9556541,93.7094341 C45.8834088,94.5497698 43.9932806,93.1351166 42.4850679,91.6852293 C41.2685963,90.5119304 40.1599804,89.2135502 39.1185534,87.8816974 C37.4123104,85.697177 35.3206157,84.1222083 32.6684246,83.2572087 C30.2973658,82.483818 28.4673539,81.0127902 27.2720998,78.7947973 C27.0369389,78.3578932 26.7982417,77.8593293 26.4198624,77.5792174 C20.4577369,73.1344231 16.6792486,66.7323689 11.7284919,61.3838174 C10.2379605,59.7771379 8.5193407,58.360723 7.83153915,56.1744409 C7.21446269,54.211896 7.60698697,52.7990046 9.6810004,51.8177321 C14.435495,49.5627433 15.2576742,46.6171642 12.5913381,41.9627264 C9.95329202,37.354093 6.57263244,33.2968749 3.013392,29.3805936 C-0.00656958226,26.0580086 0.387722826,22.6367677 1.46451241,18.2747738 C2.36802551,14.6192256 4.01061585,11.7987279 6.06341176,8.91304689 C7.52918936,6.85008448 9.10459087,5.0020507 11.4049246,3.81818158 C12.7540058,3.12054442 13.8873755,2.13927195 14.2710591,0.044598769 Z" id="Shape" stroke="#FFFFFF" stroke-width="1.76666667" fill="#FC6933"></path>
                <text id="田中鎮" font-family="MicrosoftJhengHeiBold, Microsoft JhengHei" font-size="16.96" font-weight="bold" letter-spacing="-0.121142842" fill="#FFFFFF">
                    <tspan x="22.0528489" y="47.7245988">田中鎮</tspan>
                </text>
            </g>
        </g>
    </g>
</svg>