<?xml version="1.0" encoding="UTF-8"?>
<svg width="551px" height="622px" viewBox="0 0 551 622" version="1.1" xmlns="http://www.w3.org/2000/svg" xmlns:xlink="http://www.w3.org/1999/xlink">
    <!-- Generator: Sketch 51.2 (57519) - http://www.bohemiancoding.com/sketch -->
    <title>map-ok</title>
    <desc>Created with Sketch.</desc>
    <defs>
        <filter x="-1.3%" y="-0.8%" width="102.5%" height="102.3%" filterUnits="objectBoundingBox" id="filter-1">
            <feOffset dx="0" dy="2" in="SourceAlpha" result="shadowOffsetOuter1"></feOffset>
            <feGaussianBlur stdDeviation="2" in="shadowOffsetOuter1" result="shadowBlurOuter1"></feGaussianBlur>
            <feColorMatrix values="0 0 0 0 0   0 0 0 0 0   0 0 0 0 0  0 0 0 0.5 0" type="matrix" in="shadowBlurOuter1" result="shadowMatrixOuter1"></feColorMatrix>
            <feMerge>
                <feMergeNode in="shadowMatrixOuter1"></feMergeNode>
                <feMergeNode in="SourceGraphic"></feMergeNode>
            </feMerge>
        </filter>
    </defs>
    <g id="map-ok" stroke="none" stroke-width="1" fill="none" fill-rule="evenodd">
        <g id="map" filter="url(#filter-1)" transform="translate(0.120000, 0.040000)">
            <g id="521" transform="translate(311.000000, 440.060000)">
                <path d="M80.7374644,84.3776139 C75.5904456,83.9195693 71.0640395,82.888969 66.7940118,80.8242449 C65.810933,80.3485832 64.7182303,79.4888687 63.7934996,79.6192352 C59.7374154,80.1935527 57.6103581,77.4787576 55.2658212,75.0740235 C52.4739481,72.209483 49.2329706,70.9498604 45.2263939,72.0491674 C43.9338928,72.4050328 42.8694801,72.9652566 41.9429813,73.9641462 C40.0351719,76.0200617 38.4933648,76.0323937 36.7570637,73.8566819 C33.9563499,70.3455938 32.3791802,66.2143839 32.000801,61.8048238 C31.6418711,57.6700904 29.9126425,54.8037883 25.990936,53.4278927 C22.2672597,52.1207039 20.4708423,49.7406337 21.0737737,45.711603 C21.8040103,40.8387131 19.3321682,37.486179 15.2053589,35.6839497 C10.6099958,33.6791237 9.1901895,30.1680357 9.10531938,25.7197179 C9.00807237,20.6459932 9.0805656,15.5634598 9.0805656,9.68111014 C13.3947964,13.0829721 18.2942774,12.506893 22.8861043,13.3965565 C24.9707265,13.7999881 26.2915176,15.3502929 27.4125104,17.0679602 C28.5547207,18.8155765 29.6580322,20.6001887 30.9293158,22.250911 C33.3251284,25.3708994 36.5554971,26.9071105 40.5178706,26.9071105 C44.4148234,26.9088722 48.3100081,26.9212042 52.2034246,26.9722937 C54.4984539,27.0040045 55.9058833,28.0698391 57.0763837,30.1926996 C59.4244568,34.4542761 62.0589667,38.5097325 63.243612,43.3473882 C63.7970359,45.6059004 65.7826429,46.8813784 68.143093,47.205533 C69.808669,47.4310319 71.4954626,47.4874066 73.3855907,47.6353903 C73.3855907,48.7575995 73.3661413,49.8128638 73.3873589,50.8698898 C73.4474752,53.8542266 74.3138576,56.4633191 76.4851181,58.6901205 C80.1115473,62.4090903 83.3454523,66.4645467 85.9145414,70.9991882 C87.9567286,74.6054086 87.5518274,76.0288703 83.8210786,77.7623929 C81.0239011,79.0607732 80.0319816,81.1096419 80.7374644,84.3776139 Z" id="Shape" stroke="#000000" stroke-width="1.76666667" fill="#000000" fill-rule="nonzero" opacity="0.15"></path>
                <path d="M71.8732906,75.4222926 C66.7262718,74.964248 62.1998657,73.9336477 57.929838,71.8689236 C56.9467592,71.3932619 55.8540564,70.5335474 54.9293258,70.6639139 C50.8732416,71.2382314 48.7461843,68.5234363 46.4016474,66.1187021 C43.6097743,63.2541617 40.3687967,61.994539 36.3622201,63.0938461 C35.0697189,63.4497115 34.0053063,64.0099353 33.0788075,65.0088248 C31.170998,67.0647404 29.629191,67.0770724 27.8928899,64.9013605 C25.0921761,61.3902725 23.5150064,57.2590626 23.1366272,52.8495025 C22.7776973,48.7147691 21.0484687,45.8484669 17.1267622,44.4725714 C13.4030859,43.1653826 11.6066685,40.7853124 12.2095999,36.7562816 C12.9398365,31.8833918 10.4679944,28.5308577 6.34118508,26.7286284 C1.74582198,24.7238024 0.326015686,21.2127144 0.241145572,16.7643966 C0.143898565,11.6906718 0.216391788,6.6081385 0.216391788,0.725788821 C4.53062263,4.12765082 9.43010363,3.55157165 14.0219305,4.4412352 C16.1065527,4.84466679 17.4273438,6.39497159 18.5483366,8.11263883 C19.6905469,9.86025515 20.7938584,11.6448674 22.065142,13.2955896 C24.4609546,16.415578 27.6913233,17.9517892 31.6536968,17.9517892 C35.5506496,17.9535509 39.4458342,17.9658828 43.3392508,18.0169724 C45.6342801,18.0486832 47.0417095,19.1145178 48.2122099,21.2373783 C50.560283,25.4989548 53.1947928,29.5544112 54.3794382,34.3920668 C54.9328621,36.650579 56.9184691,37.9260571 59.2789192,38.2502117 C60.9444952,38.4757106 62.6312887,38.5320853 64.5214169,38.680069 C64.5214169,39.8022782 64.5019675,40.8575425 64.5231851,41.9145685 C64.5833014,44.8989052 65.4496838,47.5079977 67.6209442,49.7347992 C71.2473735,53.453769 74.4812785,57.5092254 77.0503676,62.0438669 C79.0925548,65.6500873 78.6876536,67.073549 74.9569048,68.8070716 C72.1597273,70.1054519 71.1678078,72.1543206 71.8732906,75.4222926 Z" id="Shape" stroke="#FFFFFF" stroke-width="1.76666667" fill="#F2890C"></path>
                <text id="北" font-family="MicrosoftJhengHeiBold, Microsoft JhengHei" font-size="14.84" font-weight="bold" letter-spacing="-0.106" fill="#FFFFFF">
                    <tspan x="15.1834211" y="34.4057888">北</tspan>
                </text>
                <text id="斗" font-family="MicrosoftJhengHeiBold, Microsoft JhengHei" font-size="14.84" font-weight="bold" letter-spacing="-0.106" fill="#FFFFFF">
                    <tspan x="29.513" y="45.8457888">斗</tspan>
                </text>
                <text id="鎮" font-family="MicrosoftJhengHeiBold, Microsoft JhengHei" font-size="14.84" font-weight="bold" letter-spacing="-0.106" fill="#FFFFFF">
                    <tspan x="43.033" y="57.2857888">鎮</tspan>
                </text>
            </g>
        </g>
    </g>
</svg>