<?xml version="1.0" encoding="UTF-8"?>
<svg width="551px" height="622px" viewBox="0 0 551 622" version="1.1" xmlns="http://www.w3.org/2000/svg" xmlns:xlink="http://www.w3.org/1999/xlink">
    <!-- Generator: Sketch 51.2 (57519) - http://www.bohemiancoding.com/sketch -->
    <title>map-ok</title>
    <desc>Created with Sketch.</desc>
    <defs>
        <filter x="-1.3%" y="-0.8%" width="102.5%" height="102.3%" filterUnits="objectBoundingBox" id="filter-1">
            <feOffset dx="0" dy="2" in="SourceAlpha" result="shadowOffsetOuter1"></feOffset>
            <feGaussianBlur stdDeviation="2" in="shadowOffsetOuter1" result="shadowBlurOuter1"></feGaussianBlur>
            <feColorMatrix values="0 0 0 0 0   0 0 0 0 0   0 0 0 0 0  0 0 0 0.5 0" type="matrix" in="shadowBlurOuter1" result="shadowMatrixOuter1"></feColorMatrix>
            <feMerge>
                <feMergeNode in="shadowMatrixOuter1"></feMergeNode>
                <feMergeNode in="SourceGraphic"></feMergeNode>
            </feMerge>
        </filter>
    </defs>
    <g id="map-ok" stroke="none" stroke-width="1" fill="none" fill-rule="evenodd">
        <g id="map" filter="url(#filter-1)" transform="translate(0.120000, 0.040000)">
            <g id="522" transform="translate(280.000000, 395.060000)">
                <path d="M116.189609,72.456764 C116.497263,73.283006 117.552835,72.4039127 118.053215,73.3710915 C112.283816,77.6432382 107.214595,82.4650385 105.614439,90.0139658 C99.7018213,91.6699732 96.8038605,90.1002896 95.0887769,83.9853942 C93.799812,79.3838077 90.4668919,75.9079539 88.4052554,71.7309395 C87.8677446,70.6439644 86.4868371,70.3374269 85.2862786,70.1753496 C81.6191824,69.6820708 77.9184918,69.2839243 74.2372506,69.747254 C68.8745202,70.421989 64.6080288,68.6444236 62.168013,63.9265642 C59.1781096,58.1411086 54.8214437,55.2994704 48.2705317,55.6447655 C46.5872744,55.732851 44.9482203,55.0686863 43.4364714,54.2353975 C39.2477776,51.924034 35.0626201,49.6109088 30.2267916,48.8551352 C28.5152443,48.589117 27.4207735,47.4070096 26.5703042,46.0082118 C23.9959107,41.7765844 20.6506137,38.2831135 16.6281239,35.3903857 C15.5035948,34.5799991 14.5629511,33.5159263 13.5480459,32.5593177 C9.87564535,29.0905108 8.41694025,25.1090462 10.4449824,20.1744965 C11.0744357,18.6400471 11.3219736,16.9470438 11.7816867,15.1782869 C16.0587868,16.4520032 20.3164376,16.4889992 24.5740884,15.6750891 C27.983038,15.0250182 31.1320729,13.7248762 33.3139421,10.9184722 C34.4862105,9.41221011 35.7150591,9.37873762 37.3894757,9.69584542 C43.958069,10.9431361 45.9242266,12.9321067 46.6544632,19.3764418 C47.2644672,24.7426105 52.0260343,28.7187899 58.7166283,28.6694621 C64.15362,28.6307044 69.1185218,30.0647364 74.1223223,31.8123527 C77.144052,32.8658553 79.4408495,34.6363738 80.6449442,37.5431953 C83.0867282,43.4184981 88.4070235,45.2013487 93.7679857,46.8837817 C96.1072183,47.6201765 97.7674899,46.5860527 98.8354388,44.361013 C101.054439,39.7559031 101.07212,39.8369417 105.70815,41.9545171 C108.160543,43.0749647 110.116092,44.2412167 110.464413,47.3823456 C110.802125,50.4230571 113.401272,51.4906533 116.055232,50.988566 C119.957489,50.2521712 121.743297,52.3785552 123.05348,55.313564 C124.565229,58.7013324 125.330828,62.1384286 122.583158,65.3923069 C120.537434,67.8146582 117.987795,69.7948202 116.258566,72.4955216 C116.171928,72.6223647 116.083522,72.7527313 115.995115,72.8795744 C116.083522,72.8725276 116.17016,72.8690041 116.25503,72.8654807 C116.235581,72.729829 116.214363,72.5941774 116.189609,72.456764 Z" id="Shape" stroke="#000000" stroke-width="1.76666667" fill="#000000" fill-rule="nonzero" opacity="0.15"></path>
                <path d="M107.339943,63.5444343 C107.647597,64.3706763 108.703169,63.491583 109.203549,64.4587618 C103.434149,68.7309086 98.3649281,73.5527088 96.7647728,81.1016362 C90.8521548,82.7576436 87.954194,81.1879599 86.2391104,75.0730646 C84.9501456,70.471478 81.6172254,66.9956242 79.5555889,62.8186098 C79.0180782,61.7316348 77.6371707,61.4250972 76.4366122,61.2630199 C72.769516,60.7697411 69.0688253,60.3715946 65.3875841,60.8349244 C60.0248537,61.5096593 55.7583623,59.7320939 53.3183465,55.0142345 C50.3284431,49.2287789 45.9717772,46.3871407 39.4208652,46.7324359 C37.7376079,46.8205214 36.0985538,46.1563567 34.5868049,45.3230679 C30.3981111,43.0117044 26.2129536,40.6985791 21.3771252,39.9428055 C19.6655779,39.6767873 18.571107,38.4946799 17.7206377,37.0958822 C15.1462442,32.8642548 11.8009472,29.3707839 7.7784574,26.478056 C6.65392838,25.6676694 5.71328461,24.6035966 4.69837948,23.6469881 C1.02597889,20.1781811 -0.432726211,16.1967165 1.59531591,11.2621668 C2.22476926,9.72771741 2.47230709,8.03471411 2.93202022,6.26595727 C7.20912038,7.5396736 11.4667711,7.57666951 15.7244219,6.76275949 C19.1333715,6.1126885 22.2824064,4.81254652 24.4642756,2.0061425 C25.6365441,0.499880456 26.8653926,0.466407966 28.5398092,0.783515765 C35.1084025,2.03080644 37.0745602,4.01977703 37.8047968,10.4641122 C38.4148007,15.8302808 43.1763678,19.8064603 49.8669618,19.7571324 C55.3039536,19.7183748 60.2688553,21.1524067 65.2726558,22.900023 C68.2943855,23.9535256 70.591183,25.7240442 71.7952778,28.6308657 C74.2370617,34.5061685 79.557357,36.289019 84.9183193,37.9714521 C87.2575518,38.7078468 88.9178234,37.6737231 89.9857724,35.4486833 C92.2047723,30.8435734 92.2224535,30.9246121 96.8584836,33.0421875 C99.3108763,34.162635 101.266425,35.3288871 101.614746,38.470016 C101.952459,41.5107274 104.551606,42.5783237 107.205565,42.0762363 C111.107822,41.3398416 112.893631,43.4662255 114.203813,46.4012344 C115.715562,49.7890027 116.481161,53.2260989 113.733491,56.4799773 C111.687768,58.9023285 109.138128,60.8824905 107.4089,63.583192 C107.322261,63.7100351 107.233855,63.8404016 107.145449,63.9672447 C107.233855,63.9601979 107.320493,63.9566745 107.405363,63.9531511 C107.385914,63.8174994 107.364697,63.6818477 107.339943,63.5444343 Z" id="Shape" stroke="#FFFFFF" stroke-width="1.76666667" fill="#12A9CC"></path>
                <text id="田" font-family="MicrosoftJhengHeiBold, Microsoft JhengHei" font-size="14.84" font-weight="bold" fill="#FFFFFF">
                    <tspan x="28.096509" y="33.3030389">田</tspan>
                </text>
                <text id="尾" font-family="MicrosoftJhengHeiBold, Microsoft JhengHei" font-size="14.84" font-weight="bold" fill="#FFFFFF">
                    <tspan x="45.776509" y="41.6230389">尾</tspan>
                </text>
                <text id="鄉" font-family="MicrosoftJhengHeiBold, Microsoft JhengHei" font-size="14.84" font-weight="bold" fill="#FFFFFF">
                    <tspan x="63.456509" y="50.9830389">鄉</tspan>
                </text>
            </g>
        </g>
    </g>
</svg>