<?xml version="1.0" encoding="UTF-8"?>
<svg width="551px" height="622px" viewBox="0 0 551 622" version="1.1" xmlns="http://www.w3.org/2000/svg" xmlns:xlink="http://www.w3.org/1999/xlink">
    <!-- Generator: Sketch 51.2 (57519) - http://www.bohemiancoding.com/sketch -->
    <title>map-ok</title>
    <desc>Created with Sketch.</desc>
    <defs>
        <filter x="-1.3%" y="-0.8%" width="102.5%" height="102.3%" filterUnits="objectBoundingBox" id="filter-1">
            <feOffset dx="0" dy="2" in="SourceAlpha" result="shadowOffsetOuter1"></feOffset>
            <feGaussianBlur stdDeviation="2" in="shadowOffsetOuter1" result="shadowBlurOuter1"></feGaussianBlur>
            <feColorMatrix values="0 0 0 0 0   0 0 0 0 0   0 0 0 0 0  0 0 0 0.5 0" type="matrix" in="shadowBlurOuter1" result="shadowMatrixOuter1"></feColorMatrix>
            <feMerge>
                <feMergeNode in="shadowMatrixOuter1"></feMergeNode>
                <feMergeNode in="SourceGraphic"></feMergeNode>
            </feMerge>
        </filter>
    </defs>
    <g id="map-ok" stroke="none" stroke-width="1" fill="none" fill-rule="evenodd">
        <g id="map" filter="url(#filter-1)" transform="translate(0.120000, 0.040000)">
            <g id="523" transform="translate(237.000000, 387.060000)">
                <path d="M92.6319898,98.9388636 C90.2273365,98.7098413 87.776712,98.4455848 85.3243193,98.2465115 C81.6819768,97.9540677 78.3278392,98.6605134 75.7728951,101.481011 C74.0878697,103.339615 72.0156244,103.38542 69.7471169,103.274432 C62.8302026,102.929137 61.1239596,104.556957 60.8941031,111.568563 C60.8339867,113.370792 60.8180736,115.165974 59.9039517,116.786748 C59.3151653,117.826156 58.7051614,119.027643 57.2093256,118.685871 C55.8213456,118.367001 54.5341488,117.780352 54.3608724,116.064446 C54.1239433,113.705517 53.411388,111.640793 50.5470216,111.646078 C48.0751795,111.647839 46.1638338,113.978582 45.944586,117.035149 C45.792527,119.142154 46.070123,121.261491 46.8339541,123.192325 C48.1901078,126.617089 47.1292313,129.125764 44.4558227,131.331425 C42.3093161,133.101944 40.1274469,134.831943 38.5803354,137.238439 C36.5222351,140.430657 36.562902,144.022784 36.2729291,147.574391 C36.0890439,149.82938 36.3489586,152.885947 34.0026536,153.59944 C31.385825,154.393971 30.4204275,151.270459 29.234014,149.484085 C27.596728,147.021214 25.3193799,144.843741 25.9594421,141.244567 C26.3077632,139.283784 24.5749983,137.592543 23.1799458,136.163796 C21.8591546,134.812564 20.4570296,133.515946 18.9558895,132.369072 C12.397905,127.351722 10.955113,120.616705 12.2263966,112.933888 C12.523442,111.142229 12.7674436,109.311812 11.7914373,107.689277 C8.28700877,101.868587 9.03492666,95.6303722 9.96142541,89.4080125 C10.2584708,87.4084716 10.5537481,85.4829226 9.747482,83.3952963 C17.0144856,79.265848 14.5603248,72.4233664 14.4259471,66.2979008 C14.3729033,63.8438387 13.2342292,61.5060496 12.3766874,59.1682604 C10.2460939,53.3493323 10.4529648,47.7629499 13.8636826,42.3280746 C16.6113525,37.9555104 19.0248464,33.3750644 20.2360137,28.2696288 C20.8071188,25.8543244 20.3138113,23.8054557 18.7631636,21.8746215 C16.3425972,18.858574 16.1763932,15.8055306 18.1177971,12.838811 C20.0592009,9.87561475 23.3461498,8.78159284 27.0150141,9.74524821 C29.4161311,10.3794638 31.8420019,11.0365816 34.299699,11.3448809 C36.8104399,11.660227 39.421964,11.6796058 40.4297966,8.74283522 C42.4772882,8.73755009 43.3648881,9.79457609 44.4275327,11.1369991 C47.0797238,14.4895332 48.6445165,18.615458 51.8978709,21.513471 C52.63518,22.1670654 52.5786,22.8928899 52.4424541,23.6786126 C52.3239896,24.3603943 52.2196701,25.0703635 51.9420741,25.6957705 C48.3686886,33.753832 51.4646797,39.8035441 57.8706052,44.6870043 C61.9655883,47.8087544 65.5000749,51.3568383 68.1964692,55.7487813 C69.4076365,57.7236582 71.3278228,58.6274154 73.6016346,59.1171708 C81.0419147,60.7150418 81.0118565,60.7696548 81.0366103,68.3784803 C81.0507554,72.4568389 81.0136247,76.5440061 81.2275681,80.6135562 C81.4574247,84.9808353 83.3104222,88.2664244 87.5998992,90.2060671 C92.2412336,92.3095488 93.6415905,95.0366759 92.6319898,98.9388636 Z" id="Shape" stroke="#000000" stroke-width="1.76666667" fill="#000000" fill-rule="nonzero" opacity="0.15"></path>
                <path d="M83.442946,90.1960481 C81.0382928,89.9670258 78.5876682,89.7027693 76.1352755,89.503696 C72.4929331,89.2112522 69.1387954,89.9176979 66.5838513,92.7381956 C64.8988259,94.5967996 62.8265806,94.6426041 60.5580732,94.5316164 C53.6411588,94.1863212 51.9349159,95.8141412 51.7050593,102.825747 C51.644943,104.627976 51.6290298,106.423159 50.714908,108.043932 C50.1261216,109.083341 49.5161176,110.284827 48.0202818,109.943055 C46.6323018,109.624186 45.3451051,109.037536 45.1718286,107.321631 C44.9348995,104.962701 44.2223442,102.897977 41.3579778,102.903262 C38.8861357,102.905024 36.97479,105.235766 36.7555422,108.292333 C36.6034833,110.399338 36.8810793,112.518675 37.6449103,114.44951 C39.001064,117.874274 37.9401876,120.382949 35.266779,122.58861 C33.1202723,124.359128 30.9384031,126.089128 29.3895235,128.495623 C27.3331913,131.687842 27.3738583,135.279969 27.0838854,138.831576 C26.9000001,141.086565 27.1581467,144.143132 24.8136098,144.856624 C22.1967813,145.651155 21.2313837,142.527643 20.0449702,140.74127 C18.4076843,138.278399 16.1303362,136.100925 16.7703983,132.501752 C17.1187194,130.540969 15.3859546,128.849727 13.990902,127.42098 C12.6701109,126.069749 11.2679859,124.77313 9.7668457,123.626257 C3.2088612,118.608907 1.76606925,111.87389 3.03735285,104.191072 C3.33439825,102.399413 3.57839983,100.568997 2.60239351,98.9464616 C-0.902034983,93.1257718 -0.154117096,86.8875567 0.772381658,80.665197 C1.06942706,78.6656562 1.36470433,76.7401071 0.558438243,74.6524808 C7.82544183,70.5230326 5.37128101,63.6805509 5.23690332,57.5550853 C5.1838595,55.1010233 4.04518546,52.7632341 3.18764368,50.4254449 C1.05705017,44.6065168 1.26392107,39.0201344 4.67463881,33.5852591 C7.42230878,29.2126949 9.83580267,24.6322489 11.0469699,19.5268133 C11.6180751,17.1115089 11.1247675,15.0626402 9.57411982,13.131806 C7.15355342,10.1157585 6.98734944,7.0627151 8.92875332,4.09599547 C10.8701572,1.13279926 14.157106,0.0387773525 17.8259704,1.00243272 C20.2270874,1.63664832 22.6529581,2.29376615 25.1106552,2.6020654 C27.6213961,2.91741148 30.2329203,2.93679029 31.2407529,1.97326096e-05 C33.2882444,-0.00526539738 34.1776125,1.0517606 35.2384889,2.39418362 C37.89068,5.74671774 39.4554727,9.87264255 42.7088272,12.7706555 C43.4461363,13.4242499 43.3895562,14.1500744 43.2534104,14.9357971 C43.1349459,15.6175788 43.0306263,16.327548 42.7530303,16.952955 C39.1796449,25.0110165 42.2756359,31.0607287 48.6815615,35.9441888 C52.7765445,39.0659389 56.3110312,42.6140228 59.0074255,47.0059658 C60.2185927,48.9808427 62.1387791,49.8846 64.4125909,50.3743553 C71.852871,51.9722263 71.8228128,52.0268393 71.8475666,59.6356648 C71.8617116,63.7140234 71.8245809,67.8011906 72.0385243,71.8707407 C72.2683809,76.2380198 74.1213784,79.5236089 78.4108555,81.4632516 C83.0521899,83.5667334 84.4525468,86.2938604 83.442946,90.1960481 Z" id="Shape" stroke="#FFFFFF" stroke-width="1.76666667" fill="#FF9F7C"></path>
                <text id="埤頭鄉" font-family="MicrosoftJhengHeiBold, Microsoft JhengHei" font-size="16.96" font-weight="bold" fill="#FFFFFF">
                    <tspan x="13.7090706" y="79.294489">埤頭鄉</tspan>
                </text>
            </g>
        </g>
    </g>
</svg>