<?xml version="1.0" encoding="UTF-8"?>
<svg width="551px" height="622px" viewBox="0 0 551 622" version="1.1" xmlns="http://www.w3.org/2000/svg" xmlns:xlink="http://www.w3.org/1999/xlink">
    <!-- Generator: Sketch 51.2 (57519) - http://www.bohemiancoding.com/sketch -->
    <title>map-ok</title>
    <desc>Created with Sketch.</desc>
    <defs>
        <filter x="-1.3%" y="-0.8%" width="102.5%" height="102.3%" filterUnits="objectBoundingBox" id="filter-1">
            <feOffset dx="0" dy="2" in="SourceAlpha" result="shadowOffsetOuter1"></feOffset>
            <feGaussianBlur stdDeviation="2" in="shadowOffsetOuter1" result="shadowBlurOuter1"></feGaussianBlur>
            <feColorMatrix values="0 0 0 0 0   0 0 0 0 0   0 0 0 0 0  0 0 0 0.5 0" type="matrix" in="shadowBlurOuter1" result="shadowMatrixOuter1"></feColorMatrix>
            <feMerge>
                <feMergeNode in="shadowMatrixOuter1"></feMergeNode>
                <feMergeNode in="SourceGraphic"></feMergeNode>
            </feMerge>
        </filter>
    </defs>
    <g id="map-ok" stroke="none" stroke-width="1" fill="none" fill-rule="evenodd">
        <g id="map" filter="url(#filter-1)" transform="translate(0.120000, 0.040000)">
            <g id="524" transform="translate(249.000000, 479.060000)">
                <path d="M181.392265,84.4347245 C179.871676,85.2239706 178.513754,85.8529011 177.237166,86.6157215 C175.428372,87.6921263 173.916623,89.4379809 173.962594,91.3723385 C174.063377,95.5828254 171.839073,98.5900644 169.876452,101.946122 C166.036079,108.524347 166.361415,115.412633 169.766828,122.639167 C164.57207,121.918628 159.771604,121.203374 154.955225,120.595584 C142.283056,118.997713 129.593205,117.505545 116.928109,115.84249 C112.452978,115.255841 108.232458,113.608642 104.153388,111.746515 C94.5259348,107.351048 84.3839561,105.638666 73.8812794,105.675662 C66.7946248,105.698564 59.8777104,104.574593 53.5000749,101.528597 C41.0153274,95.56697 28.1026931,90.4333471 16.4029941,82.9196539 C14.3042269,81.5701841 12.3062429,80.0692072 10.1756494,78.7725886 C8.37746388,77.6785667 7.81343124,76.5352169 9.295122,74.748843 C11.0155099,72.677072 10.7432183,70.2564825 10.0713299,67.9292636 C8.68511805,63.1109868 8.96448217,58.7260906 12.986972,55.096968 C14.5517647,57.332578 16.0988762,59.6034222 17.7114084,61.8267002 C18.8500824,63.3946221 20.4007301,64.2208641 22.3845691,63.8420964 C24.3171323,63.473899 25.0774271,61.9923009 25.5954884,60.2887273 C26.3557832,57.7853374 26.5414366,55.193862 26.5909441,52.618242 C26.6669736,48.5205046 28.4722317,45.3969928 31.5540777,42.8583687 C32.6273311,41.9687051 33.7058888,41.0737564 34.7278664,40.1241947 C37.2916511,37.7317926 38.2234543,34.9130566 37.0441133,31.4759604 C36.3333261,29.400666 35.9903094,27.2390478 36.1352958,25.0210549 C36.2360791,23.5095078 36.7240822,22.1142335 38.3755132,21.9239688 C40.2850908,21.7002316 40.2143657,23.4284691 40.357584,24.6193851 C40.6811513,27.3218482 42.5677433,28.2361757 44.8291782,28.708314 C47.1631064,29.1945459 48.6041302,27.9190679 49.656166,26.0252296 C51.0706679,23.4795587 50.8885508,20.6291119 51.1767555,17.882606 C51.5975699,13.8694307 52.4356622,12.8828731 56.4811377,13.3338708 C60.3338873,13.7637281 63.4723134,13.1101337 66.2323603,10.1645546 C68.018169,8.25838434 70.67036,8.0223152 73.2429854,8.27247802 C75.7112912,8.50854716 78.1760608,8.80627615 80.8088025,9.0969583 C81.093471,12.865256 83.4733705,15.0515381 86.7620874,16.1807942 C90.3018785,17.3963741 91.6863222,19.8398659 91.9780632,23.3386219 C92.3157756,27.3694144 93.7903938,31.083099 95.8573347,34.5237187 C98.7323099,39.3120464 101.711605,39.7225249 105.893226,36.0705 C107.847007,34.3634031 110.849287,34.2436068 113.446666,35.7340134 C115.128155,36.7011922 116.325177,38.1792669 117.628287,39.551639 C119.401719,41.4137665 121.330746,42.8953646 124.154446,42.4725542 C125.183496,42.315762 126.113531,42.7949471 126.99229,43.2670854 C131.460348,45.6612493 136.266118,46.8944462 141.291136,47.2538351 C142.794045,47.3630611 143.798341,47.8581016 144.822087,49.0225919 C147.958745,52.5935781 151.804422,55.5655828 153.591998,60.2217824 C154.046407,61.4091749 155.391952,62.0328202 156.447524,62.793879 C159.051976,64.6665767 161.44602,66.7207305 163.104524,69.5641305 C164.168937,71.3945472 165.739034,72.8461962 167.834265,73.5085991 C171.214924,74.5797188 173.713288,76.7501455 175.804983,79.5177919 C177.260152,81.443341 178.978772,83.1011101 181.392265,84.4347245 Z" id="Shape" stroke="#000000" stroke-width="1.76666667" fill="#000000" fill-rule="nonzero" opacity="0.15"></path>
                <path d="M172.945439,76.2445969 C171.424849,77.033843 170.066927,77.6627735 168.790339,78.4255939 C166.981545,79.5019987 165.469796,81.2478533 165.515767,83.1822109 C165.61655,87.3926978 163.392246,90.3999367 161.429625,93.7559943 C157.589252,100.334219 157.914588,107.222505 161.320001,114.44904 C156.125243,113.7285 151.324777,113.013246 146.508398,112.405456 C133.836229,110.807585 121.146378,109.315417 108.481282,107.652363 C104.006151,107.065713 99.7856314,105.418514 95.7065615,103.556387 C86.0791079,99.1609205 75.9371291,97.4485384 65.4344524,97.4855343 C58.3477978,97.5084366 51.4308835,96.3844656 45.053248,93.338469 C32.5685005,87.3768424 19.6558661,82.2432195 7.95616715,74.7295263 C5.85739993,73.3800565 3.85941598,71.8790796 1.72882247,70.582461 C-0.0693630852,69.4884391 -0.633395723,68.3450893 0.848295031,66.5587154 C2.56868298,64.4869444 2.29639137,62.0663549 1.62450296,59.739136 C0.238291081,54.9208591 0.517655209,50.535963 4.54014503,46.9068404 C6.10493777,49.1424504 7.65204924,51.4132945 9.26458142,53.6365726 C10.4032555,55.2044944 11.9539032,56.0307364 13.9377421,55.6519688 C15.8720735,55.2837714 16.628832,53.8021733 17.1468933,52.0985997 C17.9071881,49.5952098 18.0946096,47.0037344 18.1423491,44.4281144 C18.2183785,40.330377 20.0218685,37.2068651 23.1037145,34.668241 C24.178736,33.7785775 25.2555256,32.8836288 26.2775032,31.9340671 C28.8412879,29.5416649 29.773091,26.722929 28.5937501,23.2858328 C27.8829629,21.2105384 27.5399461,19.0489202 27.6849326,16.8309273 C27.7857159,15.3193802 28.273719,13.9241058 29.92515,13.7338412 C31.8347276,13.510104 31.7640025,15.2383415 31.9072208,16.4292575 C32.2307881,19.1317206 34.11738,20.0460481 36.378815,20.5181864 C38.7127431,21.0044183 40.153767,19.7289403 41.2058028,17.835102 C42.6203047,15.2894311 42.4381876,12.4389843 42.7263923,9.69247843 C43.1472066,5.67930306 43.985299,4.69274546 48.0307745,5.14374322 C51.8835241,5.57360046 55.0219502,4.92000605 57.7819971,1.97442694 C59.5678057,0.0682567254 62.2199968,-0.167812414 64.7926222,0.0823504054 C67.260928,0.318419545 69.7256976,0.616148534 72.3584393,0.906830683 C72.6431078,4.67512836 75.0230073,6.86141047 78.3117242,7.99066657 C81.8515153,9.20624647 83.235959,11.6497382 83.5277,15.1484943 C83.8654124,19.1792868 85.3400306,22.8929714 87.4069715,26.333591 C90.2819467,31.1219188 93.2612413,31.5323972 97.4428626,27.8803724 C99.3966434,26.1732754 102.398924,26.0534792 104.996303,27.5438858 C106.677792,28.5110646 107.874814,29.9891393 109.177924,31.3615114 C110.951356,33.2236388 112.880383,34.7052369 115.704082,34.2824265 C116.733132,34.1256344 117.663167,34.6048195 118.541927,35.0769578 C123.009985,37.4711216 127.815755,38.7043186 132.840773,39.0637075 C134.343681,39.1729335 135.347978,39.667974 136.371723,40.8324643 C139.508381,44.4034505 143.354058,47.3754552 145.141635,52.0316547 C145.596044,53.2190473 146.941589,53.8426926 147.997161,54.6037513 C150.601613,56.4764491 152.995657,58.5306029 154.654161,61.3740029 C155.718573,63.2044195 157.28867,64.6560686 159.383901,65.3184715 C162.764561,66.3895912 165.262925,68.5600179 167.35462,71.3276643 C168.813325,73.2532133 170.531945,74.9109825 172.945439,76.2445969 Z" id="Shape" stroke="#FFFFFF" stroke-width="1.76666667" fill="#FFC675"></path>
                <text id="溪州鄉" font-family="MicrosoftJhengHeiBold, Microsoft JhengHei" font-size="17" font-weight="bold" fill="#FFFFFF">
                    <tspan x="53" y="68">溪州鄉</tspan>
                </text>
            </g>
        </g>
    </g>
</svg>