<?xml version="1.0" encoding="UTF-8"?>
<svg width="551px" height="622px" viewBox="0 0 551 622" version="1.1" xmlns="http://www.w3.org/2000/svg" xmlns:xlink="http://www.w3.org/1999/xlink">
    <!-- Generator: Sketch 51.2 (57519) - http://www.bohemiancoding.com/sketch -->
    <title>map-ok</title>
    <desc>Created with Sketch.</desc>
    <defs>
        <filter x="-1.3%" y="-0.8%" width="102.5%" height="102.3%" filterUnits="objectBoundingBox" id="filter-1">
            <feOffset dx="0" dy="2" in="SourceAlpha" result="shadowOffsetOuter1"></feOffset>
            <feGaussianBlur stdDeviation="2" in="shadowOffsetOuter1" result="shadowBlurOuter1"></feGaussianBlur>
            <feColorMatrix values="0 0 0 0 0   0 0 0 0 0   0 0 0 0 0  0 0 0 0.5 0" type="matrix" in="shadowBlurOuter1" result="shadowMatrixOuter1"></feColorMatrix>
            <feMerge>
                <feMergeNode in="shadowMatrixOuter1"></feMergeNode>
                <feMergeNode in="SourceGraphic"></feMergeNode>
            </feMerge>
        </filter>
    </defs>
    <g id="map-ok" stroke="none" stroke-width="1" fill="none" fill-rule="evenodd">
        <g id="map" filter="url(#filter-1)" transform="translate(0.120000, 0.040000)">
            <g id="525" transform="translate(138.000000, 444.060000)">
                <path d="M116.262023,76.7608233 C111.290049,73.0894197 109.143543,67.9610819 108.864178,62.0752088 C108.6078,56.6297632 110.05236,51.0046232 106.597439,45.9978434 C106.298626,45.5679861 106.429467,44.8351148 106.387032,44.2361334 C106.08645,39.9516547 106.19077,35.6918399 106.986427,31.4531657 C107.2764,29.908146 107.511561,28.2979431 106.608048,27.0876483 C101.722712,27.0876483 97.0442468,27.1739721 92.3675498,27.0647461 C86.5115119,26.925571 82.8709376,24.1050733 82.6251679,19.0577741 C82.4607321,15.662959 80.6873003,14.0069516 77.9343259,12.8935509 C74.1275477,11.3538163 70.0962172,10.5909959 66.096713,9.7629922 C58.4159676,8.16688295 55.1378595,10.9398145 55.3217447,18.7054321 C55.4313686,23.3722019 55.8009072,28.0195929 55.0370762,32.7039798 C53.5854436,41.6182323 50.4735394,44.3911639 41.4843797,44.2149929 C41.1873343,44.207946 40.8920571,44.1286691 40.5932435,44.1057669 C32.5889308,43.5226408 24.6907058,45.0359497 16.8402201,45.0553285 C15.2347605,49.1090232 15.2895724,53.8268826 10.7649344,56.2333785 L9.29915681,57.1336123 L9.2920843,57.1371357 C10.0753647,58.3703327 10.8922396,60.1884174 11.0938061,61.9078464 C11.3484165,64.090605 12.5825694,65.4735474 14.5575677,66.3878749 C16.4512321,67.2634447 18.4103173,68.112589 20.086502,69.3175986 C22.6467505,71.1585855 22.4504884,73.6972096 19.8619499,75.3285531 C15.533574,78.0539185 14.86699,80.0393656 16.8596695,84.7290376 C18.212287,87.9106859 19.53131,91.0800022 19.3209029,94.744359 C25.2565065,95.0491348 30.6669763,96.9183091 36.2259689,98.0827994 C50.9456294,101.160507 65.6582174,103.480679 80.6926047,99.6753852 C85.500143,98.461567 90.5640599,99.1486339 94.9030445,101.826433 C101.823495,106.093295 109.049832,109.511012 117.176145,110.990849 C117.193827,110.747733 117.032927,110.020146 117.289305,109.819311 C120.984692,106.907205 118.988476,103.323887 118.383776,100.018919 C117.791454,96.7615169 118.346646,93.9269255 120.305731,91.2984542 C120.837937,90.5831999 121.295882,89.8045241 121.74145,89.0293717 C123.679318,85.650412 123.576766,83.8957488 120.921039,80.9572165 C119.527755,79.4139586 117.938208,77.9993054 116.262023,76.7608233 Z" id="Shape" stroke="#000000" stroke-width="1.76666667" fill="#000000" fill-rule="nonzero" opacity="0.15"></path>
                <path d="M107.943876,67.9305248 C102.971901,64.2591211 100.825395,59.1307833 100.546031,53.2449102 C100.289652,47.7994646 101.734212,42.1743246 98.2792914,37.1675448 C97.9804779,36.7376876 98.1113193,36.0048162 98.0688842,35.4058348 C97.7683026,31.1213561 97.8726221,26.8615413 98.6682794,22.6228671 C98.9582523,21.0778474 99.1934133,19.4676445 98.2899002,18.2573497 C93.4045642,18.2573497 88.7260991,18.3436735 84.0494021,18.2344475 C78.1933642,18.0952724 74.5527899,15.2747747 74.3070202,10.2274756 C74.1425844,6.83266041 72.3691526,5.17665301 69.6161782,4.06325229 C65.8094,2.52351776 61.7780695,1.76069733 57.7785653,0.932693631 C50.09782,-0.663415625 46.8197118,2.10951591 47.003597,9.87513357 C47.1132209,14.5419033 47.4827595,19.1892943 46.7189285,23.8736812 C45.2672959,32.7879338 42.1553917,35.5608653 33.166232,35.3846943 C32.8691866,35.3776475 32.5739094,35.2983705 32.2750958,35.2754683 C24.2707831,34.6923423 16.3725581,36.2056512 8.52207245,36.22503 C6.91661278,40.2787247 6.97142473,44.996584 2.44678673,47.4030799 L0.98100912,48.3033137 L0.97393661,48.3068371 C1.75721704,49.5400341 2.5740919,51.3581188 2.77565842,53.0775478 C3.03026877,55.2603065 4.26442169,56.6432488 6.23941998,57.5575763 C8.13308442,58.4331462 10.0921696,59.2822904 11.7683543,60.4873 C14.3286028,62.328287 14.1323407,64.8669111 11.5438022,66.4982545 C7.21542631,69.2236199 6.54884228,71.2090671 8.54152185,75.8987391 C9.8941393,79.0803873 11.2131623,82.2497036 11.0027552,85.9140604 C16.9383588,86.2188362 22.3488287,88.0880105 27.9078212,89.2525008 C42.6274817,92.3302082 57.3400698,94.6503802 72.374457,90.8450867 C77.1819954,89.6312685 82.2459122,90.3183354 86.5848968,92.9961346 C93.5053474,97.2629962 100.731684,100.680714 108.857998,102.16055 C108.875679,101.917434 108.714779,101.189848 108.971158,100.989013 C112.666544,98.0769062 110.670328,94.4935881 110.065629,91.1886201 C109.473306,87.9312183 110.028498,85.0966269 111.987583,82.4681556 C112.519789,81.7529014 112.977734,80.9742256 113.423303,80.1990732 C115.36117,76.8201134 115.258619,75.0654502 112.602891,72.126918 C111.209607,70.58366 109.62006,69.1690069 107.943876,67.9305248 Z" id="Shape" stroke="#FFFFFF" stroke-width="1.76666667" fill="#AAC862"></path>
                <text id="竹塘鄉" font-family="MicrosoftJhengHeiBold, Microsoft JhengHei" font-size="16.96" font-weight="bold" fill="#FFFFFF">
                    <tspan x="32.7739366" y="64.0791009">竹塘鄉 </tspan>
                </text>
            </g>
        </g>
    </g>
</svg>