<?xml version="1.0" encoding="UTF-8"?>
<svg width="551px" height="622px" viewBox="0 0 551 622" version="1.1" xmlns="http://www.w3.org/2000/svg" xmlns:xlink="http://www.w3.org/1999/xlink">
    <!-- Generator: Sketch 51.2 (57519) - http://www.bohemiancoding.com/sketch -->
    <title>map-ok</title>
    <desc>Created with Sketch.</desc>
    <defs>
        <filter x="-1.3%" y="-0.8%" width="102.5%" height="102.3%" filterUnits="objectBoundingBox" id="filter-1">
            <feOffset dx="0" dy="2" in="SourceAlpha" result="shadowOffsetOuter1"></feOffset>
            <feGaussianBlur stdDeviation="2" in="shadowOffsetOuter1" result="shadowBlurOuter1"></feGaussianBlur>
            <feColorMatrix values="0 0 0 0 0   0 0 0 0 0   0 0 0 0 0  0 0 0 0.5 0" type="matrix" in="shadowBlurOuter1" result="shadowMatrixOuter1"></feColorMatrix>
            <feMerge>
                <feMergeNode in="shadowMatrixOuter1"></feMergeNode>
                <feMergeNode in="SourceGraphic"></feMergeNode>
            </feMerge>
        </filter>
    </defs>
    <g id="map-ok" stroke="none" stroke-width="1" fill="none" fill-rule="evenodd">
        <g id="map" filter="url(#filter-1)" transform="translate(0.120000, 0.040000)">
            <g id="526" transform="translate(110.000000, 288.060000)">
                <path d="M165.044593,105.565362 C162.944057,102.544029 161.603817,99.3165763 160.799319,95.7896329 C160.624274,95.0197656 160.157489,94.3520775 159.473223,93.8552753 C155.908679,91.2778936 153.60304,87.6663881 151.322156,84.0214101 C148.632834,79.7193143 146.054905,75.3308947 142.391345,71.7211509 C141.095307,70.4456729 140.706319,68.7033417 140.876059,67.0173853 C141.406498,61.7657278 138.91167,58.101371 135.014717,55.0219019 C132.903573,53.3518008 130.834864,51.6394187 128.50624,50.2582381 C126.955592,49.3403872 125.537554,48.2305099 124.807318,46.4793701 C122.814638,41.7068978 119.6214,37.7906164 115.772187,34.4380823 C113.312722,32.2940813 112.166975,29.7713125 112.28544,26.579094 C112.365005,24.3857651 112.384455,22.1730573 111.618855,20.0819076 C109.445827,14.137898 104.908812,7.8732573 98.3190012,9.43765577 C97.8062443,10.7571766 97.482677,12.1489275 96.7807304,13.3134178 C92.4187601,20.5487607 90.6859953,28.5768732 89.4041029,36.7705863 C88.0797755,45.2179858 86.7165493,53.6618618 85.282598,62.0898824 C84.3578674,67.5282812 81.4634428,71.1221695 75.6728256,72.0206416 C73.7225811,72.3218941 71.7988585,72.9631565 70.1562681,74.1963535 C63.0254104,79.5642838 58.0180736,86.0227127 58.967558,95.5905597 C59.0259062,96.1772091 58.9304273,96.7832373 58.884456,97.3769336 C57.9986242,108.836857 54.8708068,112.49769 44.1205923,114.003953 C41.2403128,114.407384 39.4969392,115.712811 38.579281,118.233818 C36.9526038,122.710323 34.9581561,127.132215 34.0157442,131.760228 C32.6914168,138.282078 29.3337429,143.274764 24.4236531,147.458825 C22.4822493,149.111309 21.0677473,151.063284 20.1359442,153.452163 C18.6171228,157.342018 16.9320974,161.164929 14.8350983,164.795813 C13.5885685,166.957432 12.5259239,169.275842 12.2271104,171.733427 C11.9725,173.836909 11.194524,175.29032 9.24781573,176.109515 C9.42109221,177.714433 9.42993285,179.025145 9.72167387,180.270674 C11.5499176,188.004581 12.8388825,196.041502 21.2374876,200.02649 C23.2337034,200.972528 24.8497718,202.558067 25.9725327,204.492425 C27.349904,206.860163 29.3973955,208.35057 31.9063683,209.249042 C33.6497419,209.872687 35.0907657,210.737687 36.2365122,211.844041 L36.2541935,211.829947 L38.8409639,209.902636 C40.7187152,208.061649 41.3322554,205.616396 41.9670131,203.229279 C43.0915421,198.980034 43.2630505,198.862 47.7045865,198.715778 C55.8839438,198.447998 64.0491561,197.824352 72.2514991,197.961766 C76.9759355,198.042804 79.3452262,195.889995 80.4061026,191.210893 C81.3768046,186.929938 81.9355328,182.60494 81.3608914,178.179524 C81.0019616,175.420686 80.952454,172.628376 81.6013568,169.869538 C82.549073,165.852839 85.574339,163.204989 89.7117571,163.30893 C96.0575663,163.465722 102.139925,165.037168 107.944687,167.537034 C110.766618,168.754376 112.395063,170.9019 112.635529,174.2192 C112.946719,178.512487 114.697165,180.143831 119.006092,180.771 C123.88966,181.480969 128.80859,181.054635 133.647955,180.557833 C138.177897,180.09098 139.549964,178.042111 139.795734,173.303111 C140.060953,168.155394 139.07257,163.264887 137.295601,158.4149 C135.073065,152.344047 135.324139,146.326046 138.809119,140.642769 C141.311019,136.564411 143.537091,132.3504 144.967506,127.759384 C145.635858,125.615383 145.543916,123.689834 143.873035,121.966882 C142.18801,120.228074 141.528498,118.080549 141.722992,115.67053 C142.267576,108.923181 148.12715,104.841299 154.646236,106.691094 C157.423964,107.478579 160.153952,108.470421 163.119102,108.370004 C165.127695,108.310106 165.987005,106.916593 165.044593,105.565362 Z" id="Shape" stroke="#000000" stroke-width="1.76666667" fill="#000000" fill-rule="nonzero" opacity="0.15"></path>
                <path d="M156.480675,96.5297205 C154.38014,93.5083879 153.039899,90.2809352 152.235402,86.7539918 C152.060357,85.9841245 151.593571,85.3164364 150.909306,84.8196342 C147.344761,82.2422525 145.039123,78.630747 142.758239,74.985769 C140.068917,70.6836732 137.490987,66.2952536 133.827427,62.6855098 C132.53139,61.4100318 132.142402,59.6677006 132.312142,57.9817441 C132.84258,52.7300866 130.347753,49.0657298 126.4508,45.9862607 C124.339656,44.3161597 122.270947,42.6037776 119.942323,41.2225969 C118.391675,40.304746 116.973637,39.1948687 116.2434,37.443729 C114.250721,32.6712566 111.057483,28.7549753 107.208269,25.4024412 C104.748804,23.2584401 103.603058,20.7356714 103.721522,17.5434529 C103.801088,15.3501239 103.820537,13.1374162 103.054938,11.0462664 C100.88191,5.10225689 96.3448946,-1.16238385 89.7550839,0.402014623 C89.2423269,1.72153541 88.9187596,3.11328631 88.216813,4.27777661 C83.8548427,11.5131196 82.1220779,19.541232 80.8401855,27.7349452 C79.5158581,36.1823446 78.1526319,44.6262206 76.7186806,53.0542413 C75.79395,58.49264 72.8995254,62.0865284 67.1089082,62.9850005 C65.1586637,63.2862529 63.2349411,63.9275153 61.5923507,65.1607123 C54.461493,70.5286427 49.4541562,76.9870715 50.4036406,86.5549185 C50.4619888,87.1415679 50.3665099,87.7475962 50.3205386,88.3412925 C49.4347068,99.801216 46.3068894,103.462049 35.5566749,104.968311 C32.6763954,105.371743 30.9330218,106.67717 30.0153636,109.198177 C28.3886864,113.674682 26.3942387,118.096574 25.4518268,122.724586 C24.1274994,129.246437 20.7698255,134.239123 15.8597357,138.423184 C13.9183319,140.075668 12.5038299,142.027643 11.5720268,144.416522 C10.0532054,148.306377 8.36817998,152.129288 6.27118089,155.760172 C5.02465108,157.92179 3.96200652,160.240201 3.66319299,162.697786 C3.40858264,164.801268 2.63060659,166.254679 0.683898331,167.073874 C0.857174815,168.678792 0.866015452,169.989504 1.15775647,171.235033 C2.9860002,178.96894 4.27496507,187.005861 12.6735702,190.990849 C14.669786,191.936887 16.2858544,193.522426 17.4086153,195.456784 C18.7859866,197.824522 20.8334781,199.314928 23.3424509,200.213401 C25.0858245,200.837046 26.5268483,201.702046 27.6725948,202.808399 L27.6902761,202.794306 L30.2770465,200.866995 C32.1547978,199.026008 32.768338,196.580755 33.4030957,194.193638 C34.5276247,189.944393 34.6991331,189.826358 39.1406691,189.680137 C47.3200264,189.412357 55.4852387,188.788711 63.6875817,188.926125 C68.4120181,189.007163 70.7813088,186.854354 71.8421852,182.175252 C72.8128872,177.894297 73.3716154,173.569299 72.796974,169.143883 C72.4380442,166.385045 72.3885366,163.592735 73.0374394,160.833897 C73.9851556,156.817198 77.0104216,154.169348 81.1478397,154.273289 C87.4936489,154.430081 93.5760071,156.001527 99.3807694,158.501393 C102.202701,159.718735 103.831146,161.866259 104.071611,165.183559 C104.382802,169.476846 106.133248,171.10819 110.442174,171.735359 C115.325742,172.445328 120.244673,172.018994 125.084037,171.522192 C129.61398,171.055338 130.986047,169.00647 131.231816,164.26747 C131.497035,159.119753 130.508652,154.229246 128.731684,149.379259 C126.509148,143.308406 126.760222,137.290405 130.245201,131.607128 C132.747101,127.52877 134.973174,123.314759 136.403589,118.723743 C137.071941,116.579742 136.979998,114.654193 135.309118,112.931241 C133.624093,111.192433 132.964581,109.044908 133.159075,106.634889 C133.703658,99.8875398 139.563232,95.8056577 146.082318,97.6554532 C148.860046,98.4429376 151.590035,99.4347803 154.553417,99.3343628 C156.562009,99.2744647 157.421319,97.8809521 156.480675,96.5297205 Z" id="Shape" stroke="#FFFFFF" stroke-width="1.76666667" fill="#FC6933"></path>
                <text id="二林鎮" font-family="MicrosoftJhengHeiBold, Microsoft JhengHei" font-size="16.96" font-weight="bold" fill="#FFFFFF">
                    <tspan x="62.1638983" y="116.738729">二林鎮</tspan>
                </text>
            </g>
        </g>
    </g>
</svg>