<?xml version="1.0" encoding="UTF-8"?>
<svg width="551px" height="622px" viewBox="0 0 551 622" version="1.1" xmlns="http://www.w3.org/2000/svg" xmlns:xlink="http://www.w3.org/1999/xlink">
    <!-- Generator: Sketch 51.2 (57519) - http://www.bohemiancoding.com/sketch -->
    <title>map-ok</title>
    <desc>Created with Sketch.</desc>
    <defs>
        <filter x="-1.3%" y="-0.8%" width="102.5%" height="102.3%" filterUnits="objectBoundingBox" id="filter-1">
            <feOffset dx="0" dy="2" in="SourceAlpha" result="shadowOffsetOuter1"></feOffset>
            <feGaussianBlur stdDeviation="2" in="shadowOffsetOuter1" result="shadowBlurOuter1"></feGaussianBlur>
            <feColorMatrix values="0 0 0 0 0   0 0 0 0 0   0 0 0 0 0  0 0 0 0.5 0" type="matrix" in="shadowBlurOuter1" result="shadowMatrixOuter1"></feColorMatrix>
            <feMerge>
                <feMergeNode in="shadowMatrixOuter1"></feMergeNode>
                <feMergeNode in="SourceGraphic"></feMergeNode>
            </feMerge>
        </filter>
    </defs>
    <g id="map-ok" stroke="none" stroke-width="1" fill="none" fill-rule="evenodd">
        <g id="map" filter="url(#filter-1)" transform="translate(0.120000, 0.040000)">
            <g id="527" transform="translate(2.000000, 424.060000)">
                <path d="M56.6929888,9.95608673 C60.0789527,11.321412 63.5444824,12.1864116 65.966817,15.197174 C67.3565651,16.921888 69.2024901,16.7104828 71.0554876,15.5037115 C76.2467096,12.1247517 81.5882225,13.3667573 86.7617632,15.4490985 C89.1558077,16.4127539 88.8658348,18.8791479 88.4414843,20.9491571 C86.8926047,28.4910376 89.8595224,34.3381531 95.1780496,39.3678351 C97.2856575,41.3620908 99.5081936,42.2676097 102.498097,41.2246774 C105.615306,40.1394641 108.928776,39.8945864 112.242247,39.7924072 C114.142984,39.7325091 115.304644,40.1993622 115.387746,42.3363164 C115.543341,46.2614063 117.180627,49.8517713 118.045241,53.6094987 C119.236959,58.7854027 122.308196,62.2630182 126.65779,64.8773958 C129.172067,66.3871813 131.396371,68.1330359 132.925801,70.7121793 C134.253665,72.9548362 136.449679,74.2690718 138.826042,75.0953138 C142.362297,76.3302725 144.593674,78.5147929 145.055155,82.3130397 C145.445911,85.524637 147.387315,87.3497685 150.294117,88.5917741 C152.309782,89.4514886 154.679073,90.0434231 155.679833,92.2402755 C155.520701,93.1246539 154.97435,93.3959572 154.465129,93.7148267 C149.735388,96.6604059 148.709875,99.5443251 150.59293,104.739608 C151.23476,106.511888 152.016273,108.233079 152.628045,110.017691 C153.612892,112.885755 152.410565,114.635133 149.339328,115.248208 C147.291836,115.656925 145.283244,116.266476 143.283492,116.872505 C137.896007,118.500325 132.409508,119.386465 126.767414,119.345945 C116.878277,119.277239 106.992677,119.173298 97.1601204,120.663705 C88.0471918,122.043123 79.0474234,121.312014 70.1696558,118.801577 C57.2959202,115.161884 44.0526461,113.127109 31.0675185,109.984219 C13.8282764,105.810728 7.81664328,93.6056007 8.68833009,77.4366264 C8.87044721,74.06119 9.51050932,70.7280347 10.2460503,67.4177816 C10.5519364,66.0401244 11.0151857,65.1117033 12.4579777,64.5972839 C19.7585757,61.9952383 25.3370176,57.118825 29.9394532,51.0567809 C32.8533272,47.2180148 36.1066816,43.6716926 39.9523586,40.8124373 C49.547986,33.6757501 55.0698478,24.3386871 56.1979131,12.4418595 C56.2739426,11.6596603 56.502031,10.8915547 56.6929888,9.95608673 Z" id="Shape" stroke="#000000" stroke-width="1.76666667" fill="#000000" fill-rule="nonzero" opacity="0.15"></path>
                <path d="M48.2063789,0.870398864 C51.5923428,2.23572411 55.0578725,3.10072372 57.480207,6.1114861 C58.8699552,7.83620019 60.7158802,7.62479499 62.5688777,6.41802364 C67.7600997,3.03906387 73.1016125,4.28106941 78.2751533,6.36341063 C80.6691978,7.327066 80.3792249,9.79345999 79.9548743,11.8634692 C78.4059947,19.4053497 81.3729125,25.2524652 86.6914397,30.2821472 C88.7990475,32.2764029 91.0215837,33.1819219 94.0114871,32.1389896 C97.1286957,31.0537762 100.442166,30.8088985 103.755637,30.7067193 C105.656374,30.6468212 106.818034,31.1136744 106.901136,33.2506286 C107.056731,37.1757184 108.694017,40.7660834 109.558631,44.5238108 C110.750349,49.6997148 113.821586,53.1773303 118.17118,55.791708 C120.685457,57.3014934 122.909761,59.047348 124.439191,61.6264915 C125.767055,63.8691483 127.963069,65.183384 130.339432,66.0096259 C133.875687,67.2445846 136.107064,69.429105 136.568545,73.2273518 C136.959301,76.4389491 138.900705,78.2640807 141.807507,79.5060862 C143.823172,80.3658007 146.192463,80.9577352 147.193223,83.1545876 C147.034091,84.038966 146.48774,84.3102694 145.978519,84.6291389 C141.248779,87.574718 140.223265,90.4586373 142.10632,95.65392 C142.748151,97.4262003 143.529663,99.1473909 144.141435,100.932003 C145.126282,103.800067 143.923955,105.549445 140.852718,106.16252 C138.805226,106.571237 136.796634,107.180789 134.796882,107.786817 C129.409397,109.414637 123.922898,110.300777 118.280804,110.260258 C108.391667,110.191551 98.5060669,110.08761 88.6735105,111.578017 C79.5605819,112.957436 70.5608135,112.226326 61.6830458,109.715889 C48.8093103,106.076196 35.5660361,104.041421 22.5809086,100.898531 C5.34166649,96.7250397 -0.669966648,84.5199129 0.201720157,68.3509385 C0.383837278,64.9755022 1.02389939,61.6423469 1.75944039,58.3320938 C2.06532643,56.9544366 2.52857581,56.0260154 3.97136776,55.5115961 C11.2719658,52.9095504 16.8504077,48.0331371 21.4528433,41.9710931 C24.3667172,38.132327 27.6200716,34.5860048 31.4657487,31.7267494 C41.0613761,24.5900622 46.5832379,15.2529993 47.7113032,3.35617167 C47.7873327,2.57397243 48.0154211,1.80586687 48.2063789,0.870398864 Z" id="Shape" stroke="#FFFFFF" stroke-width="1.76666667" fill="#FF9AE0"></path>
                <text id="大城鄉" font-family="MicrosoftJhengHeiBold, Microsoft JhengHei" font-size="16.96" font-weight="bold" fill="#FFFFFF">
                    <tspan x="42.52" y="69.7503989">大城鄉</tspan>
                </text>
            </g>
        </g>
    </g>
</svg>