<?xml version="1.0" encoding="UTF-8"?>
<svg width="551px" height="622px" viewBox="0 0 551 622" version="1.1" xmlns="http://www.w3.org/2000/svg" xmlns:xlink="http://www.w3.org/1999/xlink">
    <!-- Generator: Sketch 51.2 (57519) - http://www.bohemiancoding.com/sketch -->
    <title>map-ok</title>
    <desc>Created with Sketch.</desc>
    <defs>
        <filter x="-1.3%" y="-0.8%" width="102.5%" height="102.3%" filterUnits="objectBoundingBox" id="filter-1">
            <feOffset dx="0" dy="2" in="SourceAlpha" result="shadowOffsetOuter1"></feOffset>
            <feGaussianBlur stdDeviation="2" in="shadowOffsetOuter1" result="shadowBlurOuter1"></feGaussianBlur>
            <feColorMatrix values="0 0 0 0 0   0 0 0 0 0   0 0 0 0 0  0 0 0 0.5 0" type="matrix" in="shadowBlurOuter1" result="shadowMatrixOuter1"></feColorMatrix>
            <feMerge>
                <feMergeNode in="shadowMatrixOuter1"></feMergeNode>
                <feMergeNode in="SourceGraphic"></feMergeNode>
            </feMerge>
        </filter>
    </defs>
    <g id="map-ok" stroke="none" stroke-width="1" fill="none" fill-rule="evenodd">
        <g id="map" filter="url(#filter-1)" transform="translate(0.120000, 0.040000)">
            <g id="528" transform="translate(50.000000, 225.060000)">
                <path d="M62.8100639,79.5866749 C65.587792,77.8936716 68.544101,77.0850467 71.721426,77.4391504 C75.1162305,77.8232032 77.4643037,76.3997416 79.2518805,73.6479505 C82.2223345,69.0745514 84.5279727,64.3390749 84.37945,58.6698922 C84.2220866,52.6624611 85.9566196,47.0848872 88.9200011,41.8931279 C94.5479506,32.0345987 100.182973,22.1566908 108.33404,14.0633951 C110.530054,11.8823981 112.711923,9.56574946 116.347193,9.37196136 C119.469706,9.20459891 120.491684,10.6615331 120.663192,13.2917661 C120.916034,17.162243 121.320936,21.0415284 121.236065,24.9084818 C121.078702,32.0663095 122.95999,38.2287711 128.672809,42.9642476 C130.716765,44.6607743 131.57077,47.2187772 132.610429,49.5759452 C134.357339,53.5380309 137.119154,56.1277446 141.401558,57.4067461 C146.72539,58.9958085 150.675387,62.7570593 154.277062,66.7913752 C156.310409,69.0622194 156.895659,71.9056194 155.274286,74.5569929 C148.937317,84.914086 147.819861,96.6735002 145.897906,108.223271 C145.033292,113.422077 144.221722,118.629692 143.424296,123.839068 C142.632175,129.007925 140.033028,132.080348 134.571282,133.223697 C125.315135,135.165102 117.37978,145.175138 117.103952,154.628474 C116.981951,158.733258 116.508093,162.727055 115.296926,166.675047 C113.260043,173.314932 112.425487,174.412477 105.367122,174.773628 C100.297901,175.030837 97.4459114,177.317537 95.9642206,181.906791 C94.5320374,186.346301 92.6366049,190.648396 91.7295555,195.241174 C90.6987373,200.468168 87.8927191,204.627565 83.9586356,207.99067 C81.1473131,210.395404 79.1705467,213.175382 77.7472041,216.568436 C75.7173939,221.416662 72.748708,225.946018 71.2811622,230.933419 C69.986893,235.3236 68.738595,237.726573 63.4854886,236.845718 C60.3665118,236.320728 56.9292722,237.12583 53.7855417,238.244515 C52.0103418,238.873446 50.4720709,238.519342 49.126526,237.217438 C44.5205541,232.770882 41.1009958,227.994887 42.4624539,220.953332 C43.6700849,214.709832 41.645579,211.950994 35.2767841,211.063092 C30.6195366,210.416544 25.6953018,209.410608 21.4977674,212.930504 C20.8983722,213.434354 20.1027149,213.450209 19.6182479,212.805423 C16.9943469,209.333093 12.8374794,208.457523 9.0872812,206.708145 C9.60887878,202.2933 11.2125703,198.36821 13.4899184,194.717947 C16.080225,190.56912 19.0241571,186.677502 22.5780932,183.273878 C25.226748,180.740539 27.2547902,177.879522 27.8418085,174.13765 C28.1901295,171.919657 29.5887183,170.170279 30.8175669,168.350433 C33.8392966,163.879213 33.3123946,161.518522 28.6551471,159.011608 C26.9860348,158.113136 26.4326109,156.857037 26.6642356,155.097089 C27.0691368,152.010573 28.5791176,149.491328 30.6566673,147.243386 C34.178777,143.434569 37.8140469,139.731454 41.7640435,136.36835 C44.6496274,133.909003 46.4318999,130.93876 46.7855253,127.195126 C47.1479915,123.396879 48.5059133,120.114813 51.12451,117.280222 C53.0888995,115.150315 53.3417417,112.971079 52.790086,109.773576 C51.5842231,102.776064 50.9282478,95.4244478 57.2121726,89.7693587 C59.5655501,87.6500216 61.7686369,85.2717131 63.061138,82.2803295 C63.4412854,81.3977128 64.2740734,80.3723976 62.8100639,79.5866749 Z" id="Shape" stroke="#000000" stroke-width="1.76666667" fill="#000000" fill-rule="nonzero" opacity="0.15"></path>
                <path d="M54.2903497,71.0248787 C57.0680778,69.3318754 60.0243868,68.5232505 63.2017117,68.8773542 C66.5965163,69.261407 68.9445895,67.8379453 70.7321663,65.0861543 C73.7026203,60.5127551 76.0082584,55.7772787 75.8597357,50.1080959 C75.7023724,44.1006648 77.4369054,38.523091 80.4002869,33.3313316 C86.0282364,23.4728025 91.6632584,13.5948946 99.8143257,5.50159883 C102.01034,3.32060186 104.192209,1.00395322 107.827479,0.810165116 C110.949992,0.642802667 111.97197,2.09973683 112.143478,4.72996986 C112.39632,8.60044672 112.801221,12.4797321 112.716351,16.3466856 C112.558988,23.5045133 114.440275,29.6669748 120.153095,34.4024513 C122.19705,36.098978 123.051056,38.6569809 124.090715,41.0141489 C125.837625,44.9762347 128.59944,47.5659484 132.881844,48.8449498 C138.205676,50.4340123 142.155672,54.1952631 145.757348,58.229579 C147.790694,60.5004232 148.375944,63.3438231 146.754572,65.9951967 C140.417603,76.3522897 139.300147,88.1117039 137.378192,99.6614747 C136.513578,104.860281 135.702007,110.067896 134.904582,115.277272 C134.112461,120.446129 131.513314,123.518551 126.051568,124.661901 C116.795421,126.603306 108.860065,136.613342 108.584238,146.066678 C108.462237,150.171462 107.988379,154.165258 106.777211,158.113251 C104.740329,164.753136 103.905772,165.850681 96.8474079,166.211831 C91.7781867,166.469041 88.9261972,168.755741 87.4445064,173.344995 C86.0123232,177.784504 84.1168907,182.0866 83.2098413,186.679378 C82.179023,191.906372 79.3730049,196.065769 75.4389214,199.428873 C72.6275989,201.833608 70.6508324,204.613586 69.2274899,208.006639 C67.1976796,212.854865 64.2289938,217.384222 62.761448,222.371623 C61.4671788,226.761804 60.2188808,229.164776 54.9657743,228.283921 C51.8467976,227.758932 48.409558,228.564033 45.2658275,229.682719 C43.4906276,230.31165 41.9523567,229.957546 40.6068118,228.655642 C36.0008399,224.209086 32.5812816,219.43309 33.9427396,212.391536 C35.1503707,206.148035 33.1258648,203.389197 26.7570699,202.501296 C22.0998224,201.854748 17.1755876,200.848812 12.9780532,204.368708 C12.378658,204.872557 11.5830006,204.888413 11.0985337,204.243627 C8.47463269,200.771296 4.31776519,199.895727 0.567566988,198.146349 C1.08916457,193.731503 2.69285611,189.806413 4.9702042,186.15615 C7.56051083,182.007323 10.5044429,178.115706 14.058379,174.712082 C16.7070338,172.178743 18.7350759,169.317726 19.3220942,165.575854 C19.6704153,163.357861 21.0690041,161.608483 22.2978526,159.788637 C25.3195824,155.317417 24.7926804,152.956725 20.1354328,150.449812 C18.4663206,149.55134 17.9128967,148.295241 18.1445214,146.535293 C18.5494226,143.448777 20.0594034,140.929531 22.136953,138.681589 C25.6590628,134.872772 29.2943327,131.169658 33.2443293,127.806554 C36.1299132,125.347206 37.9121856,122.376963 38.2658111,118.63333 C38.6282772,114.835083 39.9861991,111.553017 42.6047957,108.718426 C44.5691853,106.588518 44.8220275,104.409283 44.2703717,101.211779 C43.0645089,94.2142674 42.4085336,86.8626515 48.6924584,81.2075625 C51.0458359,79.0882253 53.2489226,76.7099168 54.5414238,73.7185333 C54.9215712,72.8359166 55.7543592,71.8106013 54.2903497,71.0248787 Z" id="Shape" stroke="#FFFFFF" stroke-width="1.76666667" fill="#F2860D"></path>
                <text id="芳苑鄉" font-family="MicrosoftJhengHeiBold, Microsoft JhengHei" font-size="16.96" font-weight="bold" fill="#FFFFFF">
                    <tspan x="53.567567" y="129.037169">芳苑鄉</tspan>
                </text>
            </g>
        </g>
    </g>
</svg>