<?xml version="1.0" encoding="UTF-8"?>
<svg width="551px" height="622px" viewBox="0 0 551 622" version="1.1" xmlns="http://www.w3.org/2000/svg" xmlns:xlink="http://www.w3.org/1999/xlink">
    <!-- Generator: Sketch 51.2 (57519) - http://www.bohemiancoding.com/sketch -->
    <title>map-ok</title>
    <desc>Created with Sketch.</desc>
    <defs>
        <filter x="-1.3%" y="-0.8%" width="102.5%" height="102.4%" filterUnits="objectBoundingBox" id="filter-1">
            <feOffset dx="0" dy="2" in="SourceAlpha" result="shadowOffsetOuter1"></feOffset>
            <feGaussianBlur stdDeviation="2" in="shadowOffsetOuter1" result="shadowBlurOuter1"></feGaussianBlur>
            <feColorMatrix values="0 0 0 0 0   0 0 0 0 0   0 0 0 0 0  0 0 0 0.5 0" type="matrix" in="shadowBlurOuter1" result="shadowMatrixOuter1"></feColorMatrix>
            <feMerge>
                <feMergeNode in="shadowMatrixOuter1"></feMergeNode>
                <feMergeNode in="SourceGraphic"></feMergeNode>
            </feMerge>
        </filter>
    </defs>
    <g id="map-ok" stroke="none" stroke-width="1" fill="none" fill-rule="evenodd">
        <g id="map" filter="url(#filter-1)" transform="translate(0.120000, 0.040000)">
            <g id="530" transform="translate(409.000000, 523.140807)">
                <path d="M58.5176363,11.5385489 C56.4913624,17.2815576 56.4878261,17.2868458 62.0910218,20.0226191 C68.0725968,22.945243 72.8430045,27.2022614 76.3332879,32.8571331 C80.053428,38.8857058 83.8495975,44.8543453 89.1840378,49.6525251 C89.3307924,49.7864934 89.5252864,49.9239871 89.5783302,50.094973 C90.9150346,54.605826 94.5945077,53.9835786 98.0069935,53.9271709 C104.084047,53.8266947 110.093912,52.3477554 116.22401,53.1392259 C118.616286,53.4477055 120.920156,54.0346981 123.215186,54.7133532 C128.473597,56.2698531 131.224803,59.9874729 132.287447,65.1699302 C132.828494,67.7981763 133.411976,70.4211343 133.942415,73.0546686 C134.828246,77.4474181 132.669363,80.9587973 128.286175,80.5022475 C120.156325,79.656132 115.104785,83.8919976 110.491741,89.4270029 C105.516231,95.3974051 99.013058,97.0297029 91.6364305,96.0161271 C82.6525753,94.7822087 73.5820817,94.0982654 64.7821117,91.6621579 C60.9859422,90.6098018 57.0730763,90.7790249 53.1761235,91.172116 C50.3453515,91.45768 47.4597676,91.3184235 45.0392012,89.8183313 C38.0303442,85.4696504 30.0065821,84.7627914 22.2268216,83.1463583 C20.2765771,82.740928 18.2874338,82.0534592 16.3513343,82.1521726 C12.5869911,82.3443114 11.3563744,79.8341688 10.421035,77.1177856 C8.24623832,70.7824961 8.98001119,64.7080921 13.030791,59.3070551 C14.6574682,57.1371215 15.792606,54.9760015 15.7254172,52.2596184 C15.6458515,48.9174623 17.4882402,46.9502438 20.3667516,45.6317139 C30.5582379,40.9692651 30.8287614,40.4862742 29.8704363,29.3669068 C29.629971,26.5941159 29.2851862,23.8354269 29.8280013,21.0414832 C30.2859463,18.6794108 31.4705916,17.4877982 33.9618831,17.9126187 C35.0404408,18.0959437 36.1136942,18.3339137 37.1993244,18.4749329 C40.0601545,18.8503967 43.1773631,19.0055178 44.883606,16.3825599 C48.2872513,11.1401695 53.1602103,10.8616565 58.5176363,11.5385489 Z" id="Shape" stroke="#000000" stroke-width="1.76666667" fill="#000000" fill-rule="nonzero" opacity="0.15"></path>
                <path d="M49.7930897,0.978120943 C47.7668157,6.72112966 47.7632795,6.72641788 53.3664752,9.46219122 C59.3480501,12.3848151 64.1184578,16.6418335 67.6087413,22.2967052 C71.3288813,28.3252779 75.1250509,34.2939174 80.4594912,39.0920972 C80.6062458,39.2260654 80.8007398,39.3635592 80.8537836,39.534545 C82.1904879,44.0453981 85.869961,43.4231507 89.2824469,43.366743 C95.3595007,43.2662668 101.369366,41.7873275 107.499463,42.578798 C109.89174,42.8872776 112.19561,43.4742702 114.490639,44.1529253 C119.74905,45.7094252 122.500256,49.427045 123.562901,54.6095022 C124.103948,57.2377484 124.68743,59.8607063 125.217868,62.4942407 C126.1037,66.8869902 123.944816,70.3983694 119.561628,69.9418196 C111.431779,69.0957041 106.380239,73.3315696 101.767194,78.866575 C96.7916839,84.8369772 90.2885114,86.469275 82.9118839,85.4556992 C73.9280286,84.2217808 64.8575351,83.5378374 56.0575651,81.10173 C52.2613955,80.0493739 48.3485296,80.218597 44.4515769,80.6116881 C41.6208049,80.8972521 38.735221,80.7579956 36.3146546,79.2579034 C29.3057976,74.9092224 21.2820355,74.2023635 13.502275,72.5859304 C11.5520305,72.1805001 9.56288715,71.4930313 7.62678765,71.5917447 C3.86244443,71.7838834 2.63182777,69.2737409 1.69648838,66.5573577 C-0.478308314,60.2220682 0.255464554,54.1476642 4.30624441,48.7466272 C5.93292161,46.5766935 7.0680594,44.4155736 7.00087056,41.6991904 C6.92130482,38.3570344 8.76369357,36.3898159 11.642205,35.071286 C21.8336913,30.4088372 22.1042147,29.9258463 21.1458897,18.8064789 C20.9054244,16.033688 20.5606395,13.274999 21.1034546,10.4810553 C21.5613996,8.11898292 22.746045,6.92737031 25.2373365,7.35219078 C26.3158942,7.5355158 27.3891475,7.77348577 28.4747777,7.91450502 C31.3356079,8.28996875 34.4528165,8.44508992 36.1590594,5.82213198 C39.5627046,0.579741578 44.4356637,0.301228571 49.7930897,0.978120943 Z" id="Shape" stroke="#FFFFFF" stroke-width="1.76666667" fill="#E95D46"></path>
                <text id="二水鄉" font-family="MicrosoftJhengHeiBold, Microsoft JhengHei" font-size="16.96" font-weight="bold" fill="#FFFFFF">
                    <tspan x="22.56" y="57">二水鄉 </tspan>
                </text>
            </g>
        </g>
    </g>
</svg>