<?xml version="1.0" encoding="UTF-8"?>
<svg width="378px" height="264px" viewBox="0 0 378 264" version="1.1" xmlns="http://www.w3.org/2000/svg" xmlns:xlink="http://www.w3.org/1999/xlink">
    <!-- Generator: Sketch 51.2 (57519) - http://www.bohemiancoding.com/sketch -->
    <title>modal-maps</title>
    <desc>Created with Sketch.</desc>
    <defs>
        <filter x="-31.5%" y="-97.6%" width="163.0%" height="295.2%" filterUnits="objectBoundingBox" id="filter-1">
            <feGaussianBlur stdDeviation="1.82208626" in="SourceGraphic"></feGaussianBlur>
        </filter>
    </defs>
    <g id="modal-maps" stroke="none" stroke-width="1" fill="none" fill-rule="evenodd">
        <g id="inner-map-378x264">
            <g id="502" transform="translate(89.000000, 0.000000)">
                <path d="M16.5500886,32.9862094 C25.0286577,32.6847018 32.4357415,30.6671672 38.9933597,25.9071969 C41.5192332,24.0789064 44.3507857,22.6868396 47.5813296,22.8792913 C58.2897463,23.5207967 68.5090766,21.7438266 78.3519391,16.4546144 C80.9582545,25.037957 80.6622286,33.3422449 80.3275905,41.62408 C80.0508706,48.4978107 79.5714373,55.3362586 80.4176854,62.2292345 C80.7233643,64.6894078 81.6886663,65.7318542 83.8895548,66.1841155 C94.9165212,68.4742899 105.933834,71.2872912 117.269697,70.8286148 C130.616606,70.2993728 142.357896,73.7570871 152.580444,82.420618 C159.469482,88.2551099 167.960922,91.218865 175.99867,94.9845019 C182.582029,98.0669355 189.152518,101.20069 194.661175,106.069716 C200.485164,111.214589 202.048953,116.391538 199.803017,122.444142 C197.042253,129.898435 191.218265,134.918215 183.888405,134.05539 C174.22895,132.919926 163.70394,133.43313 156.528529,124.554695 C154.890733,122.527538 152.033439,122.309426 149.478607,122.094521 C140.578523,121.353583 131.672003,121.353583 122.784789,122.139427 C112.835744,123.021497 107.327087,128.195238 105.631373,138.048762 C105.203423,140.534595 105.032886,143.074957 104.872002,145.602488 C104.337868,153.743192 107.619895,159.484666 115.339093,162.775589 C126.436849,167.509899 131.794275,175.836639 130.922285,188.089393 C130.45894,194.59105 130.719572,201.140821 130.339886,207.648894 C130.037425,212.88037 129.448591,218.111847 128.666696,223.298419 C126.884105,235.143816 121.603903,244.817718 111.024194,251.268055 C103.858435,255.6335 98.6329338,263.270622 88.7289354,263.957033 C87.5898791,250.491834 77.5700445,241.016799 72.4635971,229.171401 C69.5902148,222.522197 66.5977787,215.921106 64.8634528,208.858131 C63.7597909,204.351556 61.6168205,200.419127 58.4860244,197.038394 C51.0210224,188.981085 47.6135064,179.45473 46.5709802,168.561968 C45.6732494,159.212026 42.6550719,150.160384 39.7913426,141.204968 C38.3337367,136.656695 37.847868,132.570305 40.2932997,128.185616 C42.3912226,124.429601 42.1563325,120.535663 39.2829503,117.033044 C38.4785319,116.05154 37.9025684,114.867963 37.0273613,113.966648 C17.3641599,93.6597932 13.1361373,68.8912684 16.0191725,42.037851 C16.3151984,39.1863594 16.3634635,36.2963774 16.5500886,32.9862094 Z" id="Shape" stroke="#000000" stroke-width="3.21655172" fill="#000000" fill-rule="nonzero" opacity="0.15"></path>
                <path d="M1.34826175,16.531595 C9.82683082,16.2300874 17.2339147,14.2125529 23.7915328,9.45258255 C26.3174063,7.62429207 29.1489588,6.23222528 32.3795028,6.42467691 C43.0879194,7.06618234 53.3072498,5.28921229 63.1501123,0 C65.7564276,8.58334269 65.4604017,16.8876305 65.1257637,25.1694657 C64.8490438,32.0431964 64.3696105,38.8816443 65.2158585,45.7746202 C65.5215375,48.2347935 66.4868395,49.2772398 68.687728,49.7295011 C79.7146943,52.0196755 90.7320076,54.8326769 102.067871,54.3740005 C115.414779,53.8447585 127.156069,57.3024728 137.378617,65.9660037 C144.267656,71.8004956 152.759095,74.7642507 160.796843,78.5298876 C167.380203,81.6123212 173.950691,84.7460752 179.459348,89.6151014 C185.283337,94.759975 186.847126,99.9369238 184.60119,105.989528 C181.840426,113.443821 176.016438,118.463601 168.686578,117.600776 C159.027123,116.465311 148.502114,116.978516 141.326702,108.10008 C139.688906,106.072923 136.831613,105.854811 134.27678,105.639907 C125.376696,104.898968 116.470176,104.898968 107.582963,105.684813 C97.6339168,106.566882 92.1252601,111.740624 90.4295463,121.594147 C90.0015958,124.079981 89.8310591,126.620342 89.6701754,129.147874 C89.1360416,137.288578 92.4180684,143.030051 100.137267,146.320974 C111.235022,151.055284 116.592448,159.382025 115.720458,171.634779 C115.257113,178.136436 115.517745,184.686207 115.138059,191.194279 C114.835598,196.425756 114.246764,201.657233 113.464869,206.843804 C111.682278,218.689202 106.402076,228.363104 95.8223667,234.813441 C88.6566083,239.178886 83.4311069,246.816008 73.5271086,247.502419 C72.3880523,234.03722 62.3682177,224.562184 57.2617702,212.716786 C54.388388,206.067583 51.3959518,199.466492 49.6616259,192.403517 C48.557964,187.896941 46.4149936,183.964513 43.2841975,180.583779 C35.8191955,172.526471 32.4116795,163.000115 31.3691534,152.107353 C30.4714225,142.757411 27.453245,133.70577 24.5895158,124.750354 C23.1319098,120.20208 22.6460411,116.115691 25.0914728,111.731001 C27.1893958,107.974987 26.9545057,104.081049 24.0811234,100.578429 C23.2767051,99.596926 22.7007416,98.4133484 21.8255345,97.5120333 C2.16233309,77.2051788 -2.06568959,52.4366541 0.817345659,25.5832367 C1.1133716,22.731745 1.1616367,19.841763 1.34826175,16.531595 Z" id="Shape" stroke="#FFFFFF" stroke-width="3.21655172" fill="#EAC7A3"></path>
            </g>
        </g>
        <g id="ic-section-info" transform="translate(130.000000, 75.000000)">
            <ellipse id="shadow" fill-opacity="0.5" fill="#4A4A4A" fill-rule="nonzero" style="mix-blend-mode: multiply;" filter="url(#filter-1)" cx="16.7658148" cy="45.3652597" rx="8.67197319" ry="2.80032468"></ellipse>
            <path d="M32.3753666,15.7112953 C32.3753666,17.1322989 32.1540506,19.0159547 31.1301602,20.54554 L19.9233025,43.5082023 C19.1596408,45.1180436 17.7052786,45.9253247 16.1876833,45.9253247 C14.670088,45.9253247 13.2157258,45.1180436 12.4520641,43.5082023 L1.24520641,20.54554 C0.221315982,19.0159547 0,17.1322989 0,15.7112953 C0,6.84693968 7.24019428,0 16.1876833,0 C25.1351723,0 32.3753666,6.84693968 32.3753666,15.7112953 Z" id="ic-map-marker" fill="#E0342B" fill-rule="evenodd"></path>
            <path d="M22.9394557,17.6420371 L23.1252839,20.8024073 C23.2078742,22.2125725 20.1623562,23.3627072 16.5180583,23.3627072 C12.8737605,23.3627072 9.82824248,22.2125725 9.9108328,20.8024073 L10.096661,17.6420371 L16.0225164,19.4522491 C16.1876971,19.502255 16.3528777,19.5222573 16.5180583,19.5222573 C16.683239,19.5222573 16.8484196,19.502255 17.0136003,19.4522491 L22.9394557,17.6420371 Z M28.4110643,14.4016576 C28.4110643,14.541674 28.3181502,14.661688 28.1839409,14.7116939 L16.6212962,18.2321062 C16.5800011,18.2421074 16.5490297,18.2421074 16.5180583,18.2421074 C16.487087,18.2421074 16.4561156,18.2421074 16.4148204,18.2321062 L9.68370942,16.1718649 C9.0952534,16.6219176 8.6823018,17.7220465 8.59971148,19.0722046 C8.9920155,19.2922304 9.25011025,19.6922773 9.25011025,20.1623323 C9.25011025,20.612385 9.01266308,21.0024307 8.65133043,21.2324577 L9.25011025,25.5629649 C9.26043404,25.6529755 9.22946267,25.742986 9.16751993,25.8129942 C9.10557719,25.8830024 9.01266308,25.9230071 8.91974897,25.9230071 L6.93758131,25.9230071 C6.8446672,25.9230071 6.75175309,25.8830024 6.68981035,25.8129942 C6.62786761,25.742986 6.59689624,25.6529755 6.60722003,25.5629649 L7.20599984,21.2324577 C6.8446672,21.0024307 6.60722003,20.612385 6.60722003,20.1623323 C6.60722003,19.6822761 6.88596236,19.2722281 7.27826637,19.0522023 C7.34020911,17.8820652 7.64992281,16.6219176 8.28999779,15.7518157 L4.85217575,14.7116939 C4.71796648,14.661688 4.62505237,14.541674 4.62505237,14.4016576 C4.62505237,14.2616411 4.71796648,14.1416271 4.85217575,14.0916212 L16.4148204,10.5712089 C16.4561156,10.5612077 16.487087,10.5612077 16.5180583,10.5612077 C16.5490297,10.5612077 16.5800011,10.5612077 16.6212962,10.5712089 L28.1839409,14.0916212 C28.3181502,14.1416271 28.4110643,14.2616411 28.4110643,14.4016576 Z" id="ic-cap" fill="#FFFFFF" fill-rule="evenodd"></path>
        </g>
    </g>
</svg>