<?xml version="1.0" encoding="UTF-8"?>
<svg width="378px" height="264px" viewBox="0 0 378 264" version="1.1" xmlns="http://www.w3.org/2000/svg" xmlns:xlink="http://www.w3.org/1999/xlink">
    <!-- Generator: Sketch 51.2 (57519) - http://www.bohemiancoding.com/sketch -->
    <title>modal-maps</title>
    <desc>Created with Sketch.</desc>
    <defs>
        <filter x="-31.5%" y="-97.6%" width="163.0%" height="295.2%" filterUnits="objectBoundingBox" id="filter-1">
            <feGaussianBlur stdDeviation="1.82208626" in="SourceGraphic"></feGaussianBlur>
        </filter>
    </defs>
    <g id="modal-maps" stroke="none" stroke-width="1" fill="none" fill-rule="evenodd">
        <g id="inner-map-378x264">
            <g id="516" transform="translate(22.000000, 1.000000)">
                <path d="M113.05263,262.989923 C113.353418,249.152301 106.083583,240.205047 96.6064203,234.057551 C79.5956534,223.033503 67.652022,207.980197 57.2678651,191.186251 C54.2322113,186.282069 49.9610095,182.358724 45.3751363,178.863631 C41.1640923,175.654039 38.4014623,171.445192 38.6189558,166.260113 C39.3501041,148.899769 34.9632143,133.44584 22.3439647,120.40486 C32.7836519,124.604498 42.7744696,125.23076 52.9688981,121.109405 C60.6413278,118.014935 64.9402947,112.769993 64.2878143,104.398347 C63.6260788,95.9714428 65.227201,88.6404965 71.2846259,82.1706602 C75.3799819,77.7960377 74.7275014,71.8235269 73.1819095,66.537141 C70.983837,59.0220002 73.5428561,53.5790489 79.8409121,49.9826487 C87.5642445,45.5896068 93.5753941,39.787476 97.9113812,32.1019551 C101.9836,24.8769208 108.300166,22.4869955 116.444602,23.5230903 C127.504377,24.936784 137.740454,28.4641112 147.282402,34.1327009 C150.327311,35.9424131 152.627188,38.382992 153.548065,41.8136169 C155.338916,48.5367209 159.998829,52.3357351 166.301513,54.3802955 C177.717607,58.068793 189.055033,61.702032 199.846412,67.1772174 C208.180577,71.3998792 217.977039,68.185683 226.926664,70.1980093 C229.971573,70.8795294 233.409821,70.7505932 236.038253,72.164287 C247.0934,78.0907492 258.6113,77.957208 270.35132,75.5028146 C273.738666,74.7890604 275.432338,75.9448817 277.366642,78.6018892 C281.38333,84.1231233 283.599913,90.3489017 286.390308,96.4641634 C294.784631,114.796134 301.966543,133.906327 314.396064,150.156898 C325.312386,164.445796 328.40357,181.838374 334.303659,198.121179 C335.423519,201.234069 332.873755,202.472777 330.615525,202.983917 C312.38772,207.086853 295.076165,217.291235 275.122294,210.066201 C269.189813,207.915729 262.211511,208.597249 255.709844,208.035455 C245.557063,207.160531 238.088245,202.836562 233.812415,193.055827 C228.495394,180.903586 209.795582,172.310907 197.102292,175.607991 C191.604797,177.035499 188.735734,180.78386 188.46271,186.295884 C188.226707,190.974428 188.31463,195.666786 188.42569,200.349934 C188.569143,206.805956 186.301658,212.534409 181.151227,216.034107 C173.830489,220.998152 170.804091,227.983734 168.698569,235.97778 C164.820706,250.699536 156.204262,253.190769 144.047765,243.363985 C142.423505,242.056203 140.817755,240.725397 139.174985,239.440639 C135.542381,236.604042 131.41926,236.134346 127.337787,237.898009 C123.029565,239.758375 122.242886,244.156022 122.932387,247.881358 C124.357663,255.732654 119.855085,259.149465 113.05263,262.989923 Z" id="Shape" stroke="#000000" stroke-width="4.61782178" fill="#000000" fill-rule="nonzero" opacity="0.15"></path>
                <path d="M90.7086649,239.697176 C91.0094537,225.859555 83.7396184,216.912301 74.2624556,210.764805 C57.2516887,199.740756 45.3080572,184.68745 34.9239003,167.893505 C31.8882466,162.989323 27.6170448,159.065977 23.0311716,155.570884 C18.8201275,152.361293 16.0574976,148.152446 16.274991,142.967367 C17.0061393,125.607023 12.6192495,110.153094 0,97.1121138 C10.4396872,101.311751 20.4305048,101.938013 30.6249334,97.8166583 C38.2973631,94.7221885 42.59633,89.4772464 41.9438495,81.1056005 C41.282114,72.6786963 42.8832363,65.34775 48.9406611,58.8779137 C53.0360171,54.5032912 52.3835367,48.5307804 50.8379447,43.2443945 C48.6398723,35.7292536 51.1988913,30.2863023 57.4969473,26.6899022 C65.2202797,22.2968603 71.2314294,16.4947295 75.5674165,8.80920858 C79.6396349,1.58417425 85.9562009,-0.805751065 94.1006377,0.230343725 C105.160413,1.6440375 115.396489,5.17136465 124.938437,10.8399544 C127.983346,12.6496666 130.283224,15.0902454 131.2041,18.5208704 C132.994951,25.2439744 137.654865,29.0429886 143.962176,31.087549 C155.373642,34.7760464 166.715696,38.4092855 177.507075,43.8844708 C185.84124,48.1071327 195.637702,44.8929364 204.587327,46.9052628 C207.632236,47.5867829 211.070484,47.4578467 213.698916,48.8715404 C224.754063,54.7980026 236.271963,54.6644615 248.011983,52.2100681 C251.399328,51.4963139 253.093001,52.6521352 255.027305,55.3091427 C259.043993,60.8303767 261.260576,67.0561552 264.050971,73.1714169 C272.445294,91.5033874 279.627206,110.61358 292.056727,126.864151 C302.973049,141.15305 306.064233,158.545628 311.964322,174.828433 C313.084182,177.941322 310.534418,179.180031 308.276188,179.691171 C290.048383,183.794106 272.736827,193.998489 252.782957,186.773454 C246.850475,184.622982 239.872174,185.304502 233.370507,184.742709 C223.217726,183.867784 215.748907,179.543815 211.473078,169.76308 C206.156057,157.61084 187.456245,149.01816 174.762955,152.315244 C169.26546,153.742753 166.396397,157.491113 166.123373,163.003138 C165.88737,167.681681 165.975292,172.374039 166.086353,177.057188 C166.229806,183.51321 163.966948,189.241662 158.807263,192.74136 C151.486525,197.705406 148.464753,204.690987 146.354604,212.685034 C142.476741,227.40679 133.864925,229.898022 121.708427,220.071239 C120.084168,218.763457 118.478418,217.43265 116.835648,216.147893 C113.203044,213.311296 109.079923,212.841599 104.998449,214.605263 C100.690227,216.465629 99.9035489,220.863275 100.59305,224.588612 C102.013698,232.439908 97.5111206,235.856718 90.7086649,239.697176 Z" id="Shape" stroke="#FFFFFF" stroke-width="4.61782178" fill="#EAC7A3"></path>
            </g>
        </g>
        <g id="ic-section-info" transform="translate(173.000000, 75.000000)">
            <ellipse id="shadow" fill-opacity="0.5" fill="#4A4A4A" fill-rule="nonzero" style="mix-blend-mode: multiply;" filter="url(#filter-1)" cx="16.7658148" cy="45.3652597" rx="8.67197319" ry="2.80032468"></ellipse>
            <path d="M32.3753666,15.7112953 C32.3753666,17.1322989 32.1540506,19.0159547 31.1301602,20.54554 L19.9233025,43.5082023 C19.1596408,45.1180436 17.7052786,45.9253247 16.1876833,45.9253247 C14.670088,45.9253247 13.2157258,45.1180436 12.4520641,43.5082023 L1.24520641,20.54554 C0.221315982,19.0159547 0,17.1322989 0,15.7112953 C0,6.84693968 7.24019428,0 16.1876833,0 C25.1351723,0 32.3753666,6.84693968 32.3753666,15.7112953 Z" id="ic-map-marker" fill="#E0342B" fill-rule="evenodd"></path>
            <path d="M22.9394557,17.6420371 L23.1252839,20.8024073 C23.2078742,22.2125725 20.1623562,23.3627072 16.5180583,23.3627072 C12.8737605,23.3627072 9.82824248,22.2125725 9.9108328,20.8024073 L10.096661,17.6420371 L16.0225164,19.4522491 C16.1876971,19.502255 16.3528777,19.5222573 16.5180583,19.5222573 C16.683239,19.5222573 16.8484196,19.502255 17.0136003,19.4522491 L22.9394557,17.6420371 Z M28.4110643,14.4016576 C28.4110643,14.541674 28.3181502,14.661688 28.1839409,14.7116939 L16.6212962,18.2321062 C16.5800011,18.2421074 16.5490297,18.2421074 16.5180583,18.2421074 C16.487087,18.2421074 16.4561156,18.2421074 16.4148204,18.2321062 L9.68370942,16.1718649 C9.0952534,16.6219176 8.6823018,17.7220465 8.59971148,19.0722046 C8.9920155,19.2922304 9.25011025,19.6922773 9.25011025,20.1623323 C9.25011025,20.612385 9.01266308,21.0024307 8.65133043,21.2324577 L9.25011025,25.5629649 C9.26043404,25.6529755 9.22946267,25.742986 9.16751993,25.8129942 C9.10557719,25.8830024 9.01266308,25.9230071 8.91974897,25.9230071 L6.93758131,25.9230071 C6.8446672,25.9230071 6.75175309,25.8830024 6.68981035,25.8129942 C6.62786761,25.742986 6.59689624,25.6529755 6.60722003,25.5629649 L7.20599984,21.2324577 C6.8446672,21.0024307 6.60722003,20.612385 6.60722003,20.1623323 C6.60722003,19.6822761 6.88596236,19.2722281 7.27826637,19.0522023 C7.34020911,17.8820652 7.64992281,16.6219176 8.28999779,15.7518157 L4.85217575,14.7116939 C4.71796648,14.661688 4.62505237,14.541674 4.62505237,14.4016576 C4.62505237,14.2616411 4.71796648,14.1416271 4.85217575,14.0916212 L16.4148204,10.5712089 C16.4561156,10.5612077 16.487087,10.5612077 16.5180583,10.5612077 C16.5490297,10.5612077 16.5800011,10.5612077 16.6212962,10.5712089 L28.1839409,14.0916212 C28.3181502,14.1416271 28.4110643,14.2616411 28.4110643,14.4016576 Z" id="ic-cap" fill="#FFFFFF" fill-rule="evenodd"></path>
        </g>
    </g>
</svg>