<?xml version="1.0" encoding="UTF-8"?>
<svg width="378px" height="264px" viewBox="0 0 378 264" version="1.1" xmlns="http://www.w3.org/2000/svg" xmlns:xlink="http://www.w3.org/1999/xlink">
    <!-- Generator: Sketch 51.2 (57519) - http://www.bohemiancoding.com/sketch -->
    <title>modal-maps</title>
    <desc>Created with Sketch.</desc>
    <defs>
        <filter x="-31.5%" y="-97.6%" width="163.0%" height="295.2%" filterUnits="objectBoundingBox" id="filter-1">
            <feGaussianBlur stdDeviation="1.82208626" in="SourceGraphic"></feGaussianBlur>
        </filter>
    </defs>
    <g id="modal-maps" stroke="none" stroke-width="1" fill="none" fill-rule="evenodd">
        <g id="inner-map-378x264">
            <g id="528" transform="translate(103.000000, 0.000000)">
                <path d="M69.0253331,87.3967624 C72.1057624,85.5188092 75.3842333,84.6218471 78.9078051,85.0146344 C82.6725564,85.4406426 85.2765093,83.8616767 87.2588862,80.8092698 C90.5530435,75.7362557 93.1099371,70.4834582 92.9452292,64.194953 C92.7707173,57.5312479 94.6942699,51.3443593 97.980584,45.5854329 C104.221836,34.6499216 110.470931,23.6929145 119.510255,14.7154772 C121.945579,12.2962201 124.365216,9.72649217 128.396637,9.51153394 C131.859424,9.3258882 132.992771,10.9419832 133.182969,13.8595526 C133.463364,18.1528547 133.91239,22.4559276 133.818271,26.7453213 C133.643759,34.6850966 135.730058,41.5207683 142.065429,46.7735657 C144.332123,48.6554273 145.279193,51.4928759 146.432148,54.1075496 C148.369426,58.5024683 151.432208,61.3750919 156.181285,62.7938162 C162.085278,64.5564736 166.465723,68.7286174 170.459889,73.2036569 C172.714818,75.7225765 173.363845,78.8766 171.565784,81.8176193 C164.538249,93.3061595 163.299018,106.350216 161.16762,119.161726 C160.208785,124.928469 159.308774,130.704983 158.42445,136.483451 C157.546008,142.216973 154.66362,145.625038 148.606684,146.893292 C138.341855,149.046782 129.541749,160.150352 129.235863,170.636405 C129.100567,175.189611 128.57507,179.619705 127.231917,183.99899 C124.973066,191.364241 124.047565,192.581686 116.220019,192.98229 C110.598383,193.267598 107.4356,195.804105 105.792443,200.894707 C104.204188,205.819204 102.102202,210.591277 101.096308,215.685787 C99.9531568,221.483797 96.8413546,226.097582 92.4785569,229.828084 C89.3608723,232.495521 87.168689,235.579194 85.5902386,239.342917 C83.3392311,244.720781 80.0470345,249.744941 78.419564,255.277184 C76.9842525,260.146965 75.5999221,262.812447 69.7743617,261.835364 C66.3154965,261.253023 62.5036859,262.146077 59.0173694,263.386972 C57.0487182,264.084609 55.3428153,263.691822 53.8506404,262.247693 C48.7427358,257.315379 44.9505332,252.017636 46.4603553,244.206836 C47.7995871,237.281272 45.554462,234.221049 38.4916318,233.236149 C33.3268637,232.51897 27.8660136,231.403142 23.2110555,235.307565 C22.5463417,235.866456 21.6639781,235.884044 21.1267167,235.168819 C18.2168777,231.317159 13.6070183,230.345938 9.44814461,228.405452 C10.0265829,223.508312 11.8050358,219.154431 14.3305564,215.1054 C17.20314,210.50334 20.4678852,206.186588 24.4091092,202.411139 C27.3463995,199.601049 29.5954462,196.427484 30.2464344,192.276836 C30.6327136,189.816541 32.1837127,187.876055 33.5464742,185.857402 C36.897495,180.897729 36.3131742,178.279147 31.1484061,175.498369 C29.2974034,174.501745 28.6836705,173.108425 28.9405364,171.156213 C29.3895614,167.732515 31.0640914,164.938058 33.3680407,162.444542 C37.2739701,158.219636 41.3053912,154.11198 45.6858362,150.381477 C48.8858747,147.653462 50.8623691,144.358739 51.2545307,140.206137 C51.6564964,135.992955 53.1623969,132.352345 56.0663534,129.208092 C58.244811,126.845506 58.5252066,124.428203 57.9134345,120.881392 C56.5761635,113.119446 55.8487037,104.964712 62.8174152,98.6918402 C65.4272505,96.3409789 67.8704172,93.7028552 69.3037678,90.3846818 C69.7253415,89.4056448 70.6488821,88.2683203 69.0253331,87.3967624 Z" id="Shape" stroke="#000000" stroke-width="1.95966387" fill="#000000" fill-rule="nonzero" opacity="0.15"></path>
                <path d="M59.5771885,77.8996439 C62.6576178,76.0216907 65.9360887,75.1247286 69.4596605,75.5175159 C73.2244118,75.943524 75.8283647,74.3645581 77.8107415,71.3121513 C81.1048989,66.2391371 83.6617924,60.9863397 83.4970846,54.6978345 C83.3225727,48.0341294 85.2461253,41.8472408 88.5324394,36.0883144 C94.773691,25.1528031 101.022786,14.195796 110.062111,5.2183587 C112.497434,2.79910155 114.917071,0.229373646 118.948492,0.0144154179 C122.411279,-0.171230325 123.544626,1.44486472 123.734824,4.36243412 C124.01522,8.65573618 124.464245,12.9588091 124.370126,17.2482028 C124.195614,25.1879781 126.281914,32.0236497 132.617284,37.2764472 C134.883978,39.1583087 135.831049,41.9957573 136.984004,44.6104311 C138.921282,49.0053497 141.984064,51.8779733 146.733141,53.2966976 C152.637133,55.0593551 157.017578,59.2314989 161.011744,63.7065384 C163.266673,66.225458 163.915701,69.3794814 162.11764,72.3205008 C155.090104,83.809041 153.850874,96.8530971 151.719475,109.664608 C150.76064,115.431351 149.860629,121.207864 148.976305,126.986332 C148.097863,132.719855 145.215475,136.12792 139.15854,137.396173 C128.89371,139.549664 120.093604,150.653233 119.787718,161.139286 C119.652422,165.692493 119.126926,170.122586 117.783772,174.501872 C115.524921,181.867122 114.59942,183.084567 106.771875,183.485171 C101.150238,183.77048 97.9874553,186.306987 96.3442982,191.397588 C94.7560438,196.322086 92.6540577,201.094159 91.6481632,206.188669 C90.5050122,211.986678 87.39321,216.600463 83.0304123,220.330966 C79.9127277,222.998402 77.7205444,226.082075 76.142094,229.845799 C73.8910865,235.223663 70.5988899,240.247823 68.9714193,245.780066 C67.5361079,250.649847 66.1517775,253.315329 60.3262171,252.338246 C56.8673519,251.755905 53.0555413,252.648958 49.5692248,253.889854 C47.6005736,254.587491 45.8946707,254.194703 44.4024958,252.750575 C39.2945911,247.818261 35.5023886,242.520517 37.0122107,234.709717 C38.3514425,227.784154 36.1063174,224.72393 29.0434872,223.739031 C23.8787191,223.021852 18.417869,221.906023 13.7629109,225.810446 C13.098197,226.369338 12.2158335,226.386925 11.6785721,225.671701 C8.76873311,221.82004 4.15887364,220.84882 0,218.908333 C0.578438343,214.011194 2.35689115,209.657313 4.88241177,205.608281 C7.75499541,201.006221 11.0197406,196.689469 14.9609646,192.914021 C17.8982549,190.103931 20.1473016,186.930365 20.7982898,182.779718 C21.184569,180.319423 22.7355681,178.378936 24.0983296,176.360283 C27.4493504,171.400611 26.8650296,168.782029 21.7002615,166.001251 C19.8492588,165.004626 19.2355259,163.611306 19.4923917,161.659095 C19.9414168,158.235396 21.6159467,155.440939 23.9198961,152.947424 C27.8258255,148.722518 31.8572466,144.614861 36.2376916,140.884359 C39.4377301,138.156344 41.4142245,134.86162 41.8063861,130.709018 C42.2083518,126.495837 43.7142523,122.855226 46.6182088,119.710973 C48.7966664,117.348387 49.077062,114.931084 48.4652899,111.384273 C47.1280189,103.622327 46.4005591,95.4675936 53.3692706,89.1947217 C55.9791059,86.8438604 58.4222726,84.2057367 59.8556232,80.8875633 C60.2771969,79.9085263 61.2007375,78.7712018 59.5771885,77.8996439 Z" id="Shape" stroke="#FFFFFF" stroke-width="1.95966387" fill="#EAC7A3"></path>
            </g>
        </g>
        <g id="ic-section-info" transform="translate(173.000000, 75.000000)">
            <ellipse id="shadow" fill-opacity="0.5" fill="#4A4A4A" fill-rule="nonzero" style="mix-blend-mode: multiply;" filter="url(#filter-1)" cx="16.7658148" cy="45.3652597" rx="8.67197319" ry="2.80032468"></ellipse>
            <path d="M32.3753666,15.7112953 C32.3753666,17.1322989 32.1540506,19.0159547 31.1301602,20.54554 L19.9233025,43.5082023 C19.1596408,45.1180436 17.7052786,45.9253247 16.1876833,45.9253247 C14.670088,45.9253247 13.2157258,45.1180436 12.4520641,43.5082023 L1.24520641,20.54554 C0.221315982,19.0159547 0,17.1322989 0,15.7112953 C0,6.84693968 7.24019428,0 16.1876833,0 C25.1351723,0 32.3753666,6.84693968 32.3753666,15.7112953 Z" id="ic-map-marker" fill="#E0342B" fill-rule="evenodd"></path>
            <path d="M22.9394557,17.6420371 L23.1252839,20.8024073 C23.2078742,22.2125725 20.1623562,23.3627072 16.5180583,23.3627072 C12.8737605,23.3627072 9.82824248,22.2125725 9.9108328,20.8024073 L10.096661,17.6420371 L16.0225164,19.4522491 C16.1876971,19.502255 16.3528777,19.5222573 16.5180583,19.5222573 C16.683239,19.5222573 16.8484196,19.502255 17.0136003,19.4522491 L22.9394557,17.6420371 Z M28.4110643,14.4016576 C28.4110643,14.541674 28.3181502,14.661688 28.1839409,14.7116939 L16.6212962,18.2321062 C16.5800011,18.2421074 16.5490297,18.2421074 16.5180583,18.2421074 C16.487087,18.2421074 16.4561156,18.2421074 16.4148204,18.2321062 L9.68370942,16.1718649 C9.0952534,16.6219176 8.6823018,17.7220465 8.59971148,19.0722046 C8.9920155,19.2922304 9.25011025,19.6922773 9.25011025,20.1623323 C9.25011025,20.612385 9.01266308,21.0024307 8.65133043,21.2324577 L9.25011025,25.5629649 C9.26043404,25.6529755 9.22946267,25.742986 9.16751993,25.8129942 C9.10557719,25.8830024 9.01266308,25.9230071 8.91974897,25.9230071 L6.93758131,25.9230071 C6.8446672,25.9230071 6.75175309,25.8830024 6.68981035,25.8129942 C6.62786761,25.742986 6.59689624,25.6529755 6.60722003,25.5629649 L7.20599984,21.2324577 C6.8446672,21.0024307 6.60722003,20.612385 6.60722003,20.1623323 C6.60722003,19.6822761 6.88596236,19.2722281 7.27826637,19.0522023 C7.34020911,17.8820652 7.64992281,16.6219176 8.28999779,15.7518157 L4.85217575,14.7116939 C4.71796648,14.661688 4.62505237,14.541674 4.62505237,14.4016576 C4.62505237,14.2616411 4.71796648,14.1416271 4.85217575,14.0916212 L16.4148204,10.5712089 C16.4561156,10.5612077 16.487087,10.5612077 16.5180583,10.5612077 C16.5490297,10.5612077 16.5800011,10.5612077 16.6212962,10.5712089 L28.1839409,14.0916212 C28.3181502,14.1416271 28.4110643,14.2616411 28.4110643,14.4016576 Z" id="ic-cap" fill="#FFFFFF" fill-rule="evenodd"></path>
        </g>
    </g>
</svg>