<?xml version="1.0" encoding="UTF-8"?>
<svg width="378px" height="264px" viewBox="0 0 378 264" version="1.1" xmlns="http://www.w3.org/2000/svg" xmlns:xlink="http://www.w3.org/1999/xlink">
    <!-- Generator: Sketch 51.2 (57519) - http://www.bohemiancoding.com/sketch -->
    <title>modal-maps</title>
    <desc>Created with Sketch.</desc>
    <defs>
        <filter x="-31.5%" y="-97.6%" width="163.0%" height="295.2%" filterUnits="objectBoundingBox" id="filter-1">
            <feGaussianBlur stdDeviation="1.82208626" in="SourceGraphic"></feGaussianBlur>
        </filter>
    </defs>
    <g id="modal-maps" stroke="none" stroke-width="1" fill="none" fill-rule="evenodd">
        <g id="inner-map-378x264">
            <g id="521" transform="translate(53.000000, 1.000000)">
                <path d="M252.751067,262.905736 C236.600077,261.466167 222.396527,258.227138 208.997474,251.738005 C205.912641,250.243068 202.483815,247.541108 199.582074,247.950832 C186.854361,249.755829 180.179803,241.223616 172.822807,233.66588 C164.062102,224.663039 153.892138,220.704225 141.319777,224.15919 C137.263997,225.277624 133.923944,227.038327 131.016655,230.177694 C125.03008,236.639143 120.191996,236.677901 114.743603,229.83995 C105.955156,218.805101 101.006106,205.821299 99.8187784,191.962681 C98.6924812,178.967805 93.2662812,169.959427 80.9602364,165.635184 C69.2755971,161.526876 63.638563,154.046655 65.5305203,141.383987 C67.8219525,126.069191 60.0654824,115.532655 47.1158394,109.868506 C32.6959069,103.567624 28.2406527,92.5327758 27.9743361,78.5523487 C27.6691817,62.6063565 27.8966604,46.6326803 27.8966604,28.1452956 C41.4344193,38.8368619 56.8086528,37.0263273 71.2174887,39.8224128 C77.7588894,41.0903406 81.903441,45.9627271 85.4210389,51.3611099 C89.0052161,56.8536183 92.4673315,62.4623996 96.4565317,67.6503839 C103.974426,77.4560617 114.111101,82.2841538 126.544756,82.2841538 C138.773125,82.2896906 150.995945,82.3284482 163.213218,82.4890155 C170.414862,82.5886779 174.831278,85.9384437 178.504227,92.6102911 C185.872319,106.003817 194.139229,118.749537 197.856565,133.953598 C199.593171,141.051779 205.823869,145.060424 213.230798,146.079196 C218.457261,146.787907 223.750303,146.965085 229.681394,147.430176 C229.681394,150.957119 229.620364,154.273664 229.686943,157.595746 C229.875584,166.97509 232.594232,175.175095 239.407497,182.173614 C250.786982,193.861805 260.934753,206.607525 268.996378,220.859255 C275.40462,232.193091 274.134068,236.666827 262.427236,242.115041 C253.649886,246.195665 250.537311,252.634967 252.751067,262.905736 Z" id="Shape" stroke="#000000" stroke-width="5.55238095" fill="#000000" fill-rule="nonzero" opacity="0.15"></path>
                <path d="M224.935901,234.760441 C208.784911,233.320872 194.581361,230.081842 181.182308,223.592709 C178.097475,222.097772 174.668649,219.395813 171.766908,219.805536 C159.039195,221.610534 152.364636,213.078321 145.007641,205.520585 C136.246936,196.517743 126.076972,192.558929 113.504611,196.013894 C109.448831,197.132328 106.108778,198.893032 103.201488,202.032399 C97.214914,208.493848 92.3768297,208.532605 86.9284366,201.694654 C78.1399898,190.659806 73.1909403,177.676003 72.0036123,163.817386 C70.8773151,150.822509 65.4511151,141.814131 53.1450704,137.489888 C41.460431,133.38158 35.823397,125.90136 37.7153542,113.238692 C40.0067864,97.9238951 32.2503163,87.3873593 19.3006733,81.72321 C4.8807408,75.4223283 0.425486559,64.3874803 0.159169992,50.4070531 C-0.145984408,34.4610609 0.0814943263,18.4873847 0.0814943263,0 C13.6192532,10.6915663 28.9934867,8.88103176 43.4023226,11.6771172 C49.9437233,12.945045 54.0882749,17.8174315 57.6058729,23.2158143 C61.19005,28.7083227 64.6521654,34.317104 68.6413656,39.5050883 C76.1592604,49.3107661 86.2959347,54.1388582 98.7295894,54.1388582 C110.957958,54.144395 123.180779,54.1831526 135.398052,54.3437199 C142.599696,54.4433823 147.016112,57.7931481 150.689061,64.4649955 C158.057153,77.8585216 166.324063,90.6042417 170.041399,105.808302 C171.778005,112.906484 178.008703,116.915129 185.415632,117.933901 C190.642095,118.642611 195.935136,118.819789 201.866228,119.28488 C201.866228,122.811824 201.805197,126.128369 201.871777,129.45045 C202.060418,138.829794 204.779066,147.029799 211.592331,154.028318 C222.971816,165.716509 233.119587,178.462229 241.181212,192.71396 C247.589454,204.047795 246.318902,208.521532 234.61207,213.969746 C225.834719,218.05037 222.722145,224.489671 224.935901,234.760441 Z" id="Shape" stroke="#FFFFFF" stroke-width="5.55238095" fill="#EAC7A3"></path>
            </g>
        </g>
        <g id="ic-section-info" transform="translate(173.000000, 109.000000)">
            <ellipse id="shadow" fill-opacity="0.5" fill="#4A4A4A" fill-rule="nonzero" style="mix-blend-mode: multiply;" filter="url(#filter-1)" cx="16.7658148" cy="45.3652597" rx="8.67197319" ry="2.80032468"></ellipse>
            <path d="M32.3753666,15.7112953 C32.3753666,17.1322989 32.1540506,19.0159547 31.1301602,20.54554 L19.9233025,43.5082023 C19.1596408,45.1180436 17.7052786,45.9253247 16.1876833,45.9253247 C14.670088,45.9253247 13.2157258,45.1180436 12.4520641,43.5082023 L1.24520641,20.54554 C0.221315982,19.0159547 0,17.1322989 0,15.7112953 C0,6.84693968 7.24019428,0 16.1876833,0 C25.1351723,0 32.3753666,6.84693968 32.3753666,15.7112953 Z" id="ic-map-marker" fill="#E0342B" fill-rule="evenodd"></path>
            <path d="M22.9394557,17.6420371 L23.1252839,20.8024073 C23.2078742,22.2125725 20.1623562,23.3627072 16.5180583,23.3627072 C12.8737605,23.3627072 9.82824248,22.2125725 9.9108328,20.8024073 L10.096661,17.6420371 L16.0225164,19.4522491 C16.1876971,19.502255 16.3528777,19.5222573 16.5180583,19.5222573 C16.683239,19.5222573 16.8484196,19.502255 17.0136003,19.4522491 L22.9394557,17.6420371 Z M28.4110643,14.4016576 C28.4110643,14.541674 28.3181502,14.661688 28.1839409,14.7116939 L16.6212962,18.2321062 C16.5800011,18.2421074 16.5490297,18.2421074 16.5180583,18.2421074 C16.487087,18.2421074 16.4561156,18.2421074 16.4148204,18.2321062 L9.68370942,16.1718649 C9.0952534,16.6219176 8.6823018,17.7220465 8.59971148,19.0722046 C8.9920155,19.2922304 9.25011025,19.6922773 9.25011025,20.1623323 C9.25011025,20.612385 9.01266308,21.0024307 8.65133043,21.2324577 L9.25011025,25.5629649 C9.26043404,25.6529755 9.22946267,25.742986 9.16751993,25.8129942 C9.10557719,25.8830024 9.01266308,25.9230071 8.91974897,25.9230071 L6.93758131,25.9230071 C6.8446672,25.9230071 6.75175309,25.8830024 6.68981035,25.8129942 C6.62786761,25.742986 6.59689624,25.6529755 6.60722003,25.5629649 L7.20599984,21.2324577 C6.8446672,21.0024307 6.60722003,20.612385 6.60722003,20.1623323 C6.60722003,19.6822761 6.88596236,19.2722281 7.27826637,19.0522023 C7.34020911,17.8820652 7.64992281,16.6219176 8.28999779,15.7518157 L4.85217575,14.7116939 C4.71796648,14.661688 4.62505237,14.541674 4.62505237,14.4016576 C4.62505237,14.2616411 4.71796648,14.1416271 4.85217575,14.0916212 L16.4148204,10.5712089 C16.4561156,10.5612077 16.487087,10.5612077 16.5180583,10.5612077 C16.5490297,10.5612077 16.5800011,10.5612077 16.6212962,10.5712089 L28.1839409,14.0916212 C28.3181502,14.1416271 28.4110643,14.2616411 28.4110643,14.4016576 Z" id="ic-cap" fill="#FFFFFF" fill-rule="evenodd"></path>
        </g>
    </g>
</svg>