<?xml version="1.0" encoding="UTF-8"?>
<svg width="378px" height="264px" viewBox="0 0 378 264" version="1.1" xmlns="http://www.w3.org/2000/svg" xmlns:xlink="http://www.w3.org/1999/xlink">
    <!-- Generator: Sketch 51.2 (57519) - http://www.bohemiancoding.com/sketch -->
    <title>modal-maps</title>
    <desc>Created with Sketch.</desc>
    <defs>
        <filter x="-31.5%" y="-97.6%" width="163.0%" height="295.2%" filterUnits="objectBoundingBox" id="filter-1">
            <feGaussianBlur stdDeviation="1.82208626" in="SourceGraphic"></feGaussianBlur>
        </filter>
    </defs>
    <g id="modal-maps" stroke="none" stroke-width="1" fill="none" fill-rule="evenodd">
        <g id="inner-map-378x264">
            <g id="526" transform="translate(85.000000, -1.000000)">
                <path d="M207.194088,132.752693 C204.54614,128.947524 202.856625,124.88276 201.84247,120.440808 C201.621807,119.471211 201.033374,118.630302 200.170786,118.004612 C195.677299,114.75857 192.770797,110.210118 189.895501,105.619508 C186.505325,100.201303 183.255572,94.6743782 178.637266,90.1281443 C177.003473,88.521764 176.513112,86.3274129 176.727088,84.2040621 C177.395762,77.5899463 174.250767,72.9749309 169.338244,69.0965429 C166.676923,66.9931609 164.069096,64.8365287 161.133619,63.0970229 C159.178863,61.9410503 157.391275,60.5432332 156.470735,58.3377883 C153.958751,52.3271745 149.933336,47.3948768 145.080994,43.1725815 C141.980577,40.4723537 140.536242,37.2950931 140.685579,33.2747047 C140.78588,30.5123518 140.810398,27.7255925 139.845279,25.0919274 C137.105946,17.60584 131.386558,9.71593865 123.079402,11.6861952 C122.433018,13.3480445 122.025127,15.1008629 121.140249,16.5674615 C115.641523,25.6798981 113.457189,35.7907756 111.841228,46.1102163 C110.171772,56.749158 108.453281,67.3836622 106.645634,77.9981976 C105.479912,84.8475017 101.831183,89.3737668 94.5314962,90.5053331 C92.0730061,90.8847406 89.6479498,91.6923683 87.5772904,93.2454985 C78.5880879,100.006052 72.2758088,108.140017 73.4727346,120.190088 C73.5462887,120.928935 73.4259275,121.692187 73.3679757,122.439908 C72.2512908,136.872925 68.3083453,141.483503 54.7565597,143.380541 C51.1256618,143.888636 48.9279545,145.532735 47.7711491,148.707777 C45.72055,154.34564 43.2063371,159.914721 42.018327,165.743397 C40.3488718,173.957236 36.1161677,180.245195 29.9264788,185.514744 C27.4791333,187.595938 25.6960036,190.054321 24.5213669,193.062956 C22.6067314,197.961973 20.4825782,202.776676 17.8390884,207.349535 C16.2677054,210.071951 14.9281292,212.991835 14.5514431,216.087002 C14.2304797,218.736198 13.2497584,220.566673 10.7957262,221.598395 C11.0141596,223.619683 11.0253041,225.270439 11.3930746,226.8391 C13.6977697,236.579445 15.3226467,246.701417 25.9099792,251.720246 C28.4264209,252.911718 30.4636466,254.9086 31.8790058,257.344796 C33.6153283,260.326806 36.1964085,262.203874 39.3592348,263.335441 C41.5569422,264.120881 43.3735055,265.210291 44.8178406,266.60367 L44.8401297,266.58592 L48.1010281,264.1586 C50.4681328,261.839998 51.2415653,258.760363 52.0417447,255.753947 C53.4593328,250.402304 53.6755373,250.253647 59.2745645,250.06949 C69.5855119,249.732239 79.878628,248.946799 90.2185513,249.119862 C96.1742044,249.221925 99.1609466,246.510603 100.498294,240.617584 C101.721967,235.226003 102.426303,229.778954 101.701906,224.205435 C101.249437,220.730861 101.187028,217.214131 102.005038,213.739557 C103.199735,208.68079 107.013404,205.345997 112.229058,205.476904 C120.228624,205.674373 127.896082,207.653505 135.2136,210.801922 C138.770944,212.335083 140.823772,215.039748 141.126904,219.217669 C141.519192,224.62478 143.725815,226.67935 149.157674,227.469227 C155.313929,228.363387 161.514763,227.826447 167.615295,227.200758 C173.325768,226.612787 175.055404,224.032372 175.365223,218.063915 C175.699559,211.580706 174.453598,205.421435 172.213541,199.313196 C169.411798,191.667358 169.728304,184.088083 174.12149,176.930371 C177.2754,171.793948 180.081601,166.48668 181.884791,160.704598 C182.727319,158.004371 182.611416,155.579269 180.505094,153.409324 C178.380941,151.219411 177.549557,148.514745 177.794737,145.479485 C178.481242,136.981644 185.867857,131.840783 194.085855,134.170479 C197.587476,135.162263 201.028917,136.411424 204.766802,136.284955 C207.298846,136.209517 208.382098,134.45448 207.194088,132.752693 Z" id="Shape" stroke="#000000" stroke-width="2.225" fill="#000000" fill-rule="nonzero" opacity="0.15"></path>
                <path d="M196.398361,121.372899 C193.750414,117.56773 192.060898,113.502967 191.046743,109.061015 C190.826081,108.091418 190.237648,107.250509 189.375059,106.624819 C184.881573,103.378777 181.975071,98.8303242 179.099775,94.2397152 C175.709599,88.8215096 172.459845,83.2945849 167.841539,78.748351 C166.207747,77.1419706 165.717386,74.9476196 165.931362,72.8242687 C166.600035,66.2101529 163.45504,61.5951375 158.542518,57.7167496 C155.881197,55.6133676 153.27337,53.4567354 150.337893,51.7172296 C148.383137,50.561257 146.595549,49.1634398 145.675009,46.957995 C143.163025,40.9473812 139.137609,36.0150835 134.285268,31.7927881 C131.184851,29.0925604 129.740516,25.9152998 129.889853,21.8949114 C129.990154,19.1325584 130.014672,16.3457991 129.049553,13.7121341 C126.31022,6.22604663 120.590832,-1.66385468 112.283676,0.306401888 C111.637292,1.96825118 111.229401,3.72106953 110.344523,5.18766817 C104.845797,14.3001048 102.661463,24.4109823 101.045501,34.7304229 C99.3760463,45.3693647 97.657555,56.0038689 95.8499073,66.6184043 C94.6841863,73.4677084 91.0354572,77.9939735 83.73577,79.1255398 C81.27728,79.5049473 78.8522236,80.312575 76.7815643,81.8657051 C67.7923617,88.6262589 61.4800826,96.7602236 62.6770084,108.810295 C62.7505625,109.549141 62.6302013,110.312394 62.5722496,111.060115 C61.4555646,125.493132 57.5126191,130.10371 43.9608335,132.000747 C40.3299357,132.508843 38.1322283,134.152942 36.9754229,137.327984 C34.9248238,142.965846 32.4106109,148.534927 31.2226008,154.363603 C29.5531456,162.577443 25.3204415,168.865402 19.1307526,174.13495 C16.6834071,176.216145 14.9002774,178.674528 13.7256408,181.683163 C11.8110053,186.582179 9.68685202,191.396883 7.04336226,195.969742 C5.47197922,198.692157 4.13240305,201.612042 3.7557169,204.707209 C3.43475356,207.356405 2.45403223,209.18688 0,210.218602 C0.218433386,212.23989 0.229577947,213.890645 0.597348445,215.459307 C2.90204356,225.199652 4.52692049,235.321623 15.114253,240.340452 C17.6306948,241.531925 19.6679204,243.528807 21.0832796,245.965002 C22.8196021,248.947012 25.4006824,250.824081 28.5635086,251.955647 C30.761216,252.741088 32.5777794,253.830497 34.0221144,255.223877 L34.0444035,255.206127 L37.3053019,252.778806 C39.6724066,250.460205 40.4458391,247.38057 41.2460185,244.374153 C42.6636066,239.022511 42.8798111,238.873854 48.4788383,238.689697 C58.7897857,238.352446 69.0829018,237.567006 79.4228251,237.740069 C85.3784783,237.842132 88.3652205,235.13081 89.7025677,229.23779 C90.9262405,223.84621 91.6305767,218.39916 90.9061803,212.825642 C90.4537111,209.351068 90.3913016,205.834337 91.2093123,202.359763 C92.4040092,197.300996 96.2176778,193.966204 101.433332,194.097111 C109.432898,194.29458 117.100355,196.273712 124.417874,199.422128 C127.975218,200.95529 130.028046,203.659955 130.331178,207.837875 C130.723466,213.244987 132.930089,215.299556 138.361948,216.089434 C144.518203,216.983593 150.719037,216.446654 156.819569,215.820964 C162.530042,215.232994 164.259678,212.652579 164.569496,206.684121 C164.903833,200.200912 163.657871,194.041642 161.417815,187.933403 C158.616072,180.287565 158.932578,172.708289 163.325764,165.550578 C166.479674,160.414155 169.285875,155.106887 171.089064,149.324805 C171.931593,146.624577 171.81569,144.199476 169.709368,142.029531 C167.585215,139.839617 166.75383,137.134952 166.999011,134.099692 C167.685516,125.601851 175.07213,120.46099 183.290129,122.790685 C186.79175,123.78247 190.23319,125.03163 193.968847,124.905161 C196.500891,124.829723 197.584143,123.074686 196.398361,121.372899 Z" id="Shape" stroke="#FFFFFF" stroke-width="2.225" fill="#EAC7A3"></path>
            </g>
        </g>
        <g id="ic-section-info" transform="translate(173.000000, 109.000000)">
            <ellipse id="shadow" fill-opacity="0.5" fill="#4A4A4A" fill-rule="nonzero" style="mix-blend-mode: multiply;" filter="url(#filter-1)" cx="16.7658148" cy="45.3652597" rx="8.67197319" ry="2.80032468"></ellipse>
            <path d="M32.3753666,15.7112953 C32.3753666,17.1322989 32.1540506,19.0159547 31.1301602,20.54554 L19.9233025,43.5082023 C19.1596408,45.1180436 17.7052786,45.9253247 16.1876833,45.9253247 C14.670088,45.9253247 13.2157258,45.1180436 12.4520641,43.5082023 L1.24520641,20.54554 C0.221315982,19.0159547 0,17.1322989 0,15.7112953 C0,6.84693968 7.24019428,0 16.1876833,0 C25.1351723,0 32.3753666,6.84693968 32.3753666,15.7112953 Z" id="ic-map-marker" fill="#E0342B" fill-rule="evenodd"></path>
            <path d="M22.9394557,17.6420371 L23.1252839,20.8024073 C23.2078742,22.2125725 20.1623562,23.3627072 16.5180583,23.3627072 C12.8737605,23.3627072 9.82824248,22.2125725 9.9108328,20.8024073 L10.096661,17.6420371 L16.0225164,19.4522491 C16.1876971,19.502255 16.3528777,19.5222573 16.5180583,19.5222573 C16.683239,19.5222573 16.8484196,19.502255 17.0136003,19.4522491 L22.9394557,17.6420371 Z M28.4110643,14.4016576 C28.4110643,14.541674 28.3181502,14.661688 28.1839409,14.7116939 L16.6212962,18.2321062 C16.5800011,18.2421074 16.5490297,18.2421074 16.5180583,18.2421074 C16.487087,18.2421074 16.4561156,18.2421074 16.4148204,18.2321062 L9.68370942,16.1718649 C9.0952534,16.6219176 8.6823018,17.7220465 8.59971148,19.0722046 C8.9920155,19.2922304 9.25011025,19.6922773 9.25011025,20.1623323 C9.25011025,20.612385 9.01266308,21.0024307 8.65133043,21.2324577 L9.25011025,25.5629649 C9.26043404,25.6529755 9.22946267,25.742986 9.16751993,25.8129942 C9.10557719,25.8830024 9.01266308,25.9230071 8.91974897,25.9230071 L6.93758131,25.9230071 C6.8446672,25.9230071 6.75175309,25.8830024 6.68981035,25.8129942 C6.62786761,25.742986 6.59689624,25.6529755 6.60722003,25.5629649 L7.20599984,21.2324577 C6.8446672,21.0024307 6.60722003,20.612385 6.60722003,20.1623323 C6.60722003,19.6822761 6.88596236,19.2722281 7.27826637,19.0522023 C7.34020911,17.8820652 7.64992281,16.6219176 8.28999779,15.7518157 L4.85217575,14.7116939 C4.71796648,14.661688 4.62505237,14.541674 4.62505237,14.4016576 C4.62505237,14.2616411 4.71796648,14.1416271 4.85217575,14.0916212 L16.4148204,10.5712089 C16.4561156,10.5612077 16.487087,10.5612077 16.5180583,10.5612077 C16.5490297,10.5612077 16.5800011,10.5612077 16.6212962,10.5712089 L28.1839409,14.0916212 C28.3181502,14.1416271 28.4110643,14.2616411 28.4110643,14.4016576 Z" id="ic-cap" fill="#FFFFFF" fill-rule="evenodd"></path>
        </g>
    </g>
</svg>