<?xml version="1.0" encoding="UTF-8"?>
<svg width="378px" height="264px" viewBox="0 0 378 264" version="1.1" xmlns="http://www.w3.org/2000/svg" xmlns:xlink="http://www.w3.org/1999/xlink">
    <!-- Generator: Sketch 51.2 (57519) - http://www.bohemiancoding.com/sketch -->
    <title>modal-maps</title>
    <desc>Created with Sketch.</desc>
    <defs>
        <filter x="-31.5%" y="-97.6%" width="163.0%" height="295.2%" filterUnits="objectBoundingBox" id="filter-1">
            <feGaussianBlur stdDeviation="1.82208626" in="SourceGraphic"></feGaussianBlur>
        </filter>
    </defs>
    <g id="modal-maps" stroke="none" stroke-width="1" fill="none" fill-rule="evenodd">
        <g id="inner-map-378x264">
            <g id="522" transform="translate(7.000000, 0.000000)">
                <path d="M339.086843,210.678457 C339.989957,213.101711 343.088571,210.523451 344.557429,213.360054 C327.621449,225.889674 312.740832,240.031352 308.043602,262.17132 C290.687207,267.028163 282.18029,262.424496 277.14569,244.490347 C273.361954,230.994525 263.578221,220.800323 257.52632,208.549713 C255.948466,205.361765 251.894834,204.462732 248.370614,203.987382 C237.605912,202.540662 226.742595,201.372954 215.936371,202.731836 C200.194162,204.710741 187.669945,199.497386 180.507318,185.660552 C171.730505,168.692604 158.941583,160.358469 139.711486,161.371173 C134.770311,161.629515 129.958895,159.681612 125.52118,157.23769 C113.225337,150.458778 100.939875,143.674699 86.7443782,141.458119 C81.7201587,140.677924 78.5073571,137.210965 76.0108183,133.108483 C68.4537277,120.697701 58.6336623,110.45183 46.8257083,101.967856 C43.5246715,99.5911038 40.7634268,96.4703242 37.7841892,93.6647227 C27.0039165,83.4911879 22.7219112,71.8140987 28.6751962,57.3417416 C30.5229463,52.8414121 31.2495896,47.8760658 32.5990701,42.6885447 C45.1544286,46.4241799 57.6526938,46.5326838 70.1509589,44.1455975 C80.1578755,42.2390285 89.4018166,38.4258905 95.8066585,30.1950926 C99.2478336,25.7774328 102.855099,25.6792626 107.770322,26.6092962 C127.052321,30.2674286 132.823945,36.1008063 134.967543,55.0011569 C136.7582,70.7393931 150.735703,82.4009818 170.375834,82.2563099 C186.336036,82.1426391 200.910425,86.3484579 215.599,91.4739768 C224.469239,94.5637552 231.211451,99.7564431 234.746052,108.281752 C241.913869,125.513209 257.53151,130.742064 273.268529,135.67641 C280.135308,137.836154 285.009009,134.803211 288.143955,128.277475 C294.657794,114.77132 294.709697,115.008995 308.318688,121.219553 C315.517647,124.505672 321.25813,127.926129 322.280621,137.138629 C323.27197,146.056619 330.901725,149.187732 338.692379,147.715179 C350.147392,145.555434 355.389605,151.791826 359.235624,160.399804 C363.673338,170.335664 365.920742,180.416195 357.855002,189.959374 C351.849814,197.063798 344.365387,202.871341 339.289265,210.792128 C339.03494,211.164141 338.775424,211.546488 338.515909,211.918502 C338.775424,211.897834 339.029749,211.887501 339.278884,211.877167 C339.221791,211.479319 339.159507,211.081472 339.086843,210.678457 Z" id="Shape" stroke="#000000" stroke-width="5.18893336" fill="#000000" fill-rule="nonzero" opacity="0.15"></path>
                <path d="M313.108789,184.539817 C314.011903,186.963072 317.110518,184.384812 318.579376,187.221414 C301.643396,199.751034 286.762779,213.892713 282.065549,236.032681 C264.709154,240.889523 256.202237,236.285856 251.167637,218.351707 C247.383901,204.855886 237.600168,194.661684 231.548267,182.411074 C229.970413,179.223125 225.916781,178.324092 222.392561,177.848742 C211.627859,176.402023 200.764542,175.234314 189.958317,176.593196 C174.216109,178.572101 161.691892,173.358746 154.529265,159.521912 C145.752452,142.553965 132.963529,134.21983 113.733433,135.232533 C108.792258,135.490876 103.980841,133.542972 99.5431269,131.09905 C87.2472838,124.320138 74.9618214,117.536059 60.766325,115.319479 C55.7421055,114.539284 52.5293039,111.072325 50.0327651,106.969844 C42.4756746,94.5590612 32.6556091,84.3131904 20.8476551,75.8292168 C17.5466183,73.4524641 14.7853737,70.3316845 11.8061361,67.526083 C1.02586334,57.3525482 -3.25614195,45.675459 2.69714298,31.2031019 C4.54489315,26.7027724 5.27153647,21.7374261 6.62101692,16.549905 C19.1763755,20.2855402 31.6746406,20.3940441 44.1729057,18.0069577 C54.1798223,16.1003888 63.4237635,12.2872508 69.8286053,4.05645293 C73.2697805,-0.361206929 76.8770455,-0.459377148 81.7922686,0.470656506 C101.074268,4.12878888 106.845892,9.96216663 108.98949,28.8625172 C110.780147,44.6007534 124.75765,56.2623421 144.397781,56.1176702 C160.357983,56.0039994 174.932372,60.2098182 189.620947,65.335337 C198.491186,68.4251155 205.233398,73.6178034 208.767999,82.1431119 C215.935816,99.3745688 231.553457,104.603425 247.290475,109.53777 C254.157255,111.697515 259.030955,108.664572 262.165902,102.138835 C268.679741,88.6326801 268.731644,88.8703553 282.340635,95.0809134 C289.539594,98.3670323 295.280077,101.787489 296.302568,110.999989 C297.293917,119.917979 304.923672,123.049092 312.714326,121.576539 C324.169339,119.416794 329.411551,125.653186 333.257571,134.261165 C337.695285,144.197024 339.942689,154.277556 331.876948,163.820734 C325.87176,170.925158 318.387334,176.732701 313.311212,184.653488 C313.056886,185.025501 312.797371,185.407849 312.537855,185.779862 C312.797371,185.759195 313.051696,185.748861 313.300831,185.738527 C313.243738,185.34068 313.181454,184.942832 313.108789,184.539817 Z" id="Shape" stroke="#FFFFFF" stroke-width="5.18893336" fill="#EAC7A3"></path>
            </g>
        </g>
        <g id="ic-section-info" transform="translate(173.000000, 75.000000)">
            <ellipse id="shadow" fill-opacity="0.5" fill="#4A4A4A" fill-rule="nonzero" style="mix-blend-mode: multiply;" filter="url(#filter-1)" cx="16.7658148" cy="45.3652597" rx="8.67197319" ry="2.80032468"></ellipse>
            <path d="M32.3753666,15.7112953 C32.3753666,17.1322989 32.1540506,19.0159547 31.1301602,20.54554 L19.9233025,43.5082023 C19.1596408,45.1180436 17.7052786,45.9253247 16.1876833,45.9253247 C14.670088,45.9253247 13.2157258,45.1180436 12.4520641,43.5082023 L1.24520641,20.54554 C0.221315982,19.0159547 0,17.1322989 0,15.7112953 C0,6.84693968 7.24019428,0 16.1876833,0 C25.1351723,0 32.3753666,6.84693968 32.3753666,15.7112953 Z" id="ic-map-marker" fill="#E0342B" fill-rule="evenodd"></path>
            <path d="M22.9394557,17.6420371 L23.1252839,20.8024073 C23.2078742,22.2125725 20.1623562,23.3627072 16.5180583,23.3627072 C12.8737605,23.3627072 9.82824248,22.2125725 9.9108328,20.8024073 L10.096661,17.6420371 L16.0225164,19.4522491 C16.1876971,19.502255 16.3528777,19.5222573 16.5180583,19.5222573 C16.683239,19.5222573 16.8484196,19.502255 17.0136003,19.4522491 L22.9394557,17.6420371 Z M28.4110643,14.4016576 C28.4110643,14.541674 28.3181502,14.661688 28.1839409,14.7116939 L16.6212962,18.2321062 C16.5800011,18.2421074 16.5490297,18.2421074 16.5180583,18.2421074 C16.487087,18.2421074 16.4561156,18.2421074 16.4148204,18.2321062 L9.68370942,16.1718649 C9.0952534,16.6219176 8.6823018,17.7220465 8.59971148,19.0722046 C8.9920155,19.2922304 9.25011025,19.6922773 9.25011025,20.1623323 C9.25011025,20.612385 9.01266308,21.0024307 8.65133043,21.2324577 L9.25011025,25.5629649 C9.26043404,25.6529755 9.22946267,25.742986 9.16751993,25.8129942 C9.10557719,25.8830024 9.01266308,25.9230071 8.91974897,25.9230071 L6.93758131,25.9230071 C6.8446672,25.9230071 6.75175309,25.8830024 6.68981035,25.8129942 C6.62786761,25.742986 6.59689624,25.6529755 6.60722003,25.5629649 L7.20599984,21.2324577 C6.8446672,21.0024307 6.60722003,20.612385 6.60722003,20.1623323 C6.60722003,19.6822761 6.88596236,19.2722281 7.27826637,19.0522023 C7.34020911,17.8820652 7.64992281,16.6219176 8.28999779,15.7518157 L4.85217575,14.7116939 C4.71796648,14.661688 4.62505237,14.541674 4.62505237,14.4016576 C4.62505237,14.2616411 4.71796648,14.1416271 4.85217575,14.0916212 L16.4148204,10.5712089 C16.4561156,10.5612077 16.487087,10.5612077 16.5180583,10.5612077 C16.5490297,10.5612077 16.5800011,10.5612077 16.6212962,10.5712089 L28.1839409,14.0916212 C28.3181502,14.1416271 28.4110643,14.2616411 28.4110643,14.4016576 Z" id="ic-cap" fill="#FFFFFF" fill-rule="evenodd"></path>
        </g>
    </g>
</svg>