<?xml version="1.0" encoding="UTF-8"?>
<svg width="378px" height="264px" viewBox="0 0 378 264" version="1.1" xmlns="http://www.w3.org/2000/svg" xmlns:xlink="http://www.w3.org/1999/xlink">
    <!-- Generator: Sketch 51.2 (57519) - http://www.bohemiancoding.com/sketch -->
    <title>modal-maps</title>
    <desc>Created with Sketch.</desc>
    <defs>
        <filter x="-31.5%" y="-97.6%" width="163.0%" height="295.2%" filterUnits="objectBoundingBox" id="filter-1">
            <feGaussianBlur stdDeviation="1.82208626" in="SourceGraphic"></feGaussianBlur>
        </filter>
    </defs>
    <g id="modal-maps" stroke="none" stroke-width="1" fill="none" fill-rule="evenodd">
        <g id="inner-map-378x264">
            <g id="525" transform="translate(44.000000, 1.000000)">
                <path d="M274.629345,181.379232 C262.785536,172.647245 257.672313,160.450117 257.006836,146.451284 C256.396113,133.499953 259.83722,120.121242 251.607205,108.213225 C250.895397,107.190862 251.207076,105.447817 251.105991,104.023212 C250.389972,93.8331008 250.638473,83.7016494 252.533819,73.6204783 C253.224567,69.9458369 253.784747,66.116165 251.632476,63.2376261 C239.99505,63.2376261 228.850414,63.4429368 217.709989,63.183156 C203.76024,62.8521449 195.087978,56.1439342 194.502527,44.1395471 C194.110822,36.0653921 189.886305,32.1267799 183.328407,29.4786917 C174.260228,25.8166204 164.65714,24.0023448 155.129866,22.0330387 C136.833456,18.2368869 129.024629,24.8319673 129.462665,43.3015445 C129.723801,54.4008888 130.604084,65.454143 128.784552,76.5953875 C125.326598,97.796853 117.913688,104.391933 96.5004865,103.972932 C95.7928905,103.956172 95.0895064,103.767622 94.3776986,103.713151 C75.3105147,102.326257 56.4960436,105.925478 37.7952933,105.971568 C33.9709056,115.612788 34.1014739,126.833643 23.3232712,132.557201 L19.8316221,134.698297 L19.8147746,134.706677 C21.6806377,137.639686 23.6265266,141.96378 24.106681,146.053232 C24.7131918,151.244658 27.6530846,154.533819 32.3577553,156.708435 C36.8686795,158.790872 41.5354433,160.810458 45.5283062,163.676427 C51.6271095,168.05499 51.1595907,174.092799 44.9933974,177.972751 C34.6827134,184.454701 33.0948344,189.176846 37.841624,200.33066 C41.0637127,207.897824 44.2057757,215.435657 43.7045619,224.150884 C57.8438454,224.875756 70.7322003,229.32136 83.9743533,232.090958 C119.03826,239.410911 154.085319,244.929158 189.898941,235.87873 C201.351045,232.991811 213.413871,234.625916 223.749826,240.994736 C240.235127,251.142947 257.449084,259.271573 276.806887,262.791183 C276.849006,262.212962 276.465725,260.482486 277.076448,260.004825 C285.879278,253.078733 281.124065,244.556247 279.683602,236.695783 C278.272622,228.948449 279.595152,222.206718 284.261916,215.955219 C285.529692,214.254073 286.620569,212.402088 287.681963,210.558482 C292.298185,202.522037 292.053895,198.348784 285.727651,191.359842 C282.408689,187.689391 278.622208,184.324811 274.629345,181.379232 Z" id="Shape" stroke="#000000" stroke-width="4.2018018" fill="#000000" fill-rule="nonzero" opacity="0.15"></path>
                <path d="M254.81457,160.37744 C242.970762,151.645453 237.857539,139.448326 237.192062,125.449492 C236.581339,112.498162 240.022445,99.1194509 231.792431,87.2114341 C231.080623,86.1890709 231.392302,84.4460255 231.291217,83.0214211 C230.575197,72.8313096 230.823698,62.6998582 232.719044,52.6186871 C233.409793,48.9440457 233.969973,45.1143738 231.817702,42.2358349 C220.180275,42.2358349 209.035639,42.4411456 197.895215,42.1813648 C183.945466,41.8503537 175.273203,35.142143 174.687752,23.1377559 C174.296047,15.0636009 170.071531,11.1249887 163.513632,8.47690051 C154.445453,4.81482918 144.842365,3.00055357 135.315091,1.03124748 C117.018681,-2.76490427 109.209855,3.83017614 109.64789,22.2997533 C109.909027,33.3990976 110.78931,44.4523518 108.969777,55.5935963 C105.511823,76.7950619 98.0989134,83.3901423 76.6857119,82.971141 C75.9781159,82.9543809 75.2747319,82.7658303 74.562924,82.7113602 C55.4957401,81.3244659 36.681269,84.923687 17.9805187,84.9697771 C14.156131,94.610997 14.2866993,105.831852 3.50849662,111.555409 L0.0168475228,113.696506 L0,113.704886 C1.86586315,116.637895 3.81175203,120.961988 4.29190643,125.051441 C4.89841725,130.242867 7.83830998,133.532027 12.5429807,135.706644 C17.053905,137.789081 21.7206688,139.808667 25.7135317,142.674636 C31.8123349,147.053199 31.3448162,153.091008 25.1786228,156.97096 C14.8679389,163.45291 13.2800598,168.175055 18.0268494,179.328869 C21.2489381,186.896032 24.3910011,194.433866 23.8897873,203.149093 C38.0290708,203.873965 50.9174258,208.319569 64.1595787,211.089167 C99.2234855,218.40912 134.270545,223.927367 170.084166,214.876939 C181.53627,211.99002 193.599096,213.624125 203.935052,219.992945 C220.420353,230.141156 237.634309,238.269781 256.992113,241.789392 C257.034232,241.21117 256.65095,239.480695 257.261673,239.003034 C266.064504,232.076942 261.30929,223.554456 259.868827,215.693992 C258.457847,207.946658 259.780378,201.204927 264.447142,194.953427 C265.714918,193.252282 266.805795,191.400296 267.867189,189.556691 C272.48341,181.520246 272.239121,177.346993 265.912876,170.358051 C262.593914,166.6876 258.807433,163.32302 254.81457,160.37744 Z" id="Shape" stroke="#FFFFFF" stroke-width="4.2018018" fill="#EAC7A3"></path>
            </g>
        </g>
        <g id="ic-section-info" transform="translate(173.000000, 75.000000)">
            <ellipse id="shadow" fill-opacity="0.5" fill="#4A4A4A" fill-rule="nonzero" style="mix-blend-mode: multiply;" filter="url(#filter-1)" cx="16.7658148" cy="45.3652597" rx="8.67197319" ry="2.80032468"></ellipse>
            <path d="M32.3753666,15.7112953 C32.3753666,17.1322989 32.1540506,19.0159547 31.1301602,20.54554 L19.9233025,43.5082023 C19.1596408,45.1180436 17.7052786,45.9253247 16.1876833,45.9253247 C14.670088,45.9253247 13.2157258,45.1180436 12.4520641,43.5082023 L1.24520641,20.54554 C0.221315982,19.0159547 0,17.1322989 0,15.7112953 C0,6.84693968 7.24019428,0 16.1876833,0 C25.1351723,0 32.3753666,6.84693968 32.3753666,15.7112953 Z" id="ic-map-marker" fill="#E0342B" fill-rule="evenodd"></path>
            <path d="M22.9394557,17.6420371 L23.1252839,20.8024073 C23.2078742,22.2125725 20.1623562,23.3627072 16.5180583,23.3627072 C12.8737605,23.3627072 9.82824248,22.2125725 9.9108328,20.8024073 L10.096661,17.6420371 L16.0225164,19.4522491 C16.1876971,19.502255 16.3528777,19.5222573 16.5180583,19.5222573 C16.683239,19.5222573 16.8484196,19.502255 17.0136003,19.4522491 L22.9394557,17.6420371 Z M28.4110643,14.4016576 C28.4110643,14.541674 28.3181502,14.661688 28.1839409,14.7116939 L16.6212962,18.2321062 C16.5800011,18.2421074 16.5490297,18.2421074 16.5180583,18.2421074 C16.487087,18.2421074 16.4561156,18.2421074 16.4148204,18.2321062 L9.68370942,16.1718649 C9.0952534,16.6219176 8.6823018,17.7220465 8.59971148,19.0722046 C8.9920155,19.2922304 9.25011025,19.6922773 9.25011025,20.1623323 C9.25011025,20.612385 9.01266308,21.0024307 8.65133043,21.2324577 L9.25011025,25.5629649 C9.26043404,25.6529755 9.22946267,25.742986 9.16751993,25.8129942 C9.10557719,25.8830024 9.01266308,25.9230071 8.91974897,25.9230071 L6.93758131,25.9230071 C6.8446672,25.9230071 6.75175309,25.8830024 6.68981035,25.8129942 C6.62786761,25.742986 6.59689624,25.6529755 6.60722003,25.5629649 L7.20599984,21.2324577 C6.8446672,21.0024307 6.60722003,20.612385 6.60722003,20.1623323 C6.60722003,19.6822761 6.88596236,19.2722281 7.27826637,19.0522023 C7.34020911,17.8820652 7.64992281,16.6219176 8.28999779,15.7518157 L4.85217575,14.7116939 C4.71796648,14.661688 4.62505237,14.541674 4.62505237,14.4016576 C4.62505237,14.2616411 4.71796648,14.1416271 4.85217575,14.0916212 L16.4148204,10.5712089 C16.4561156,10.5612077 16.487087,10.5612077 16.5180583,10.5612077 C16.5490297,10.5612077 16.5800011,10.5612077 16.6212962,10.5712089 L28.1839409,14.0916212 C28.3181502,14.1416271 28.4110643,14.2616411 28.4110643,14.4016576 Z" id="ic-cap" fill="#FFFFFF" fill-rule="evenodd"></path>
        </g>
    </g>
</svg>