<?xml version="1.0" encoding="UTF-8"?>
<svg width="378px" height="264px" viewBox="0 0 378 264" version="1.1" xmlns="http://www.w3.org/2000/svg" xmlns:xlink="http://www.w3.org/1999/xlink">
    <!-- Generator: Sketch 51.2 (57519) - http://www.bohemiancoding.com/sketch -->
    <title>modal-maps</title>
    <desc>Created with Sketch.</desc>
    <defs>
        <filter x="-31.5%" y="-97.6%" width="163.0%" height="295.2%" filterUnits="objectBoundingBox" id="filter-1">
            <feGaussianBlur stdDeviation="1.82208626" in="SourceGraphic"></feGaussianBlur>
        </filter>
    </defs>
    <g id="modal-maps" stroke="none" stroke-width="1" fill="none" fill-rule="evenodd">
        <g id="inner-map-378x264">
            <g id="505" transform="translate(54.000000, 2.000000)">
                <path d="M119.786612,26.5623289 C125.959551,24.5720619 131.322383,25.0127114 136.600906,25.1192017 C142.902142,25.2477245 148.98344,24.4765878 154.822806,22.0566875 C164.500097,18.0467767 172.824767,19.9636022 180.4493,27.1388454 C190.680103,36.7707097 199.682916,47.1002691 204.13667,60.7934533 C207.406421,70.8292464 213.934927,78.0816032 223.960455,81.6178157 C233.77704,85.0805866 241.661833,91.6279042 250.041488,97.3710365 C254.242312,100.246275 255.587602,104.946536 255.97616,109.885483 C257.805315,133.210532 257.805315,133.210532 268.695934,152.73865 C265.198912,158.749844 259.029639,161.863767 253.619153,165.66437 C245.287152,171.517664 243.69993,175.795637 246.826721,185.65517 C249.927853,195.400869 250.096473,204.970308 242.908151,213.214126 C237.86423,219.001323 237.959536,225.199793 240.573138,231.772815 C242.24467,235.962658 244.1618,240.053355 246.126584,244.562668 C240.503491,247.386497 235.382591,246.237136 229.931783,244.492899 C213.795633,239.329955 198.35962,232.485199 182.780647,225.912177 C172.938402,221.759055 162.494991,221.89125 152.630752,226.71269 C142.275317,231.776488 140.211562,238.907666 145.376449,249.160112 C147.080972,252.545769 151.564051,256.55568 146.842706,260.062515 C142.817832,263.044244 139.097207,259.041677 135.937425,256.618105 C129.166986,251.425785 124.584935,245.208954 123.98377,235.929609 C122.98305,220.437106 112.374686,214.073393 97.9687184,219.970752 C92.1733405,222.339243 87.3456917,222.100558 83.4124592,217.378264 C75.1427738,207.441617 64.3181368,204.177139 51.8732867,204.434184 C51.0888396,203.376625 52.0932251,202.623849 52.3938077,201.804975 C54.8974403,194.960219 53.7354322,193.153556 46.6240892,193.105819 C43.1050742,193.083787 39.5823935,193.285751 36.0633784,193.260046 C26.5327126,193.190277 20.3634393,189.048171 18.6295913,179.787187 C15.8217105,164.808775 16.7931053,149.643087 18.5782723,134.60225 C19.142781,129.857923 22.8927314,127.169961 27.4051351,125.991223 C36.9907855,123.483193 48.1369046,126.662698 58.186201,125.991223 C100.997219,123.130674 135.728483,34.6078549 127.645745,30.7191228 C125.27041,29.573434 122.968388,28.2514854 119.786612,26.5623289 Z" id="Shape" stroke="#000000" stroke-width="3.67244094" fill="#000000" fill-rule="nonzero" opacity="0.15"></path>
                <path d="M103.138872,6.98913468 C109.311811,4.99886763 114.674644,5.43951716 119.953166,5.54600747 C126.254403,5.67453025 132.3357,4.90339357 138.175066,2.48349323 C147.852358,-1.52641751 156.177028,0.390407953 163.80156,7.56565115 C174.032363,17.1975155 183.035177,27.5270749 187.48893,41.2202591 C190.758682,51.2560521 197.287188,58.508409 207.312715,62.0446215 C217.129301,65.5073924 225.014094,72.05471 233.393749,77.7978422 C237.594573,80.6730804 238.939863,85.3733421 239.328421,90.3122889 C241.157576,113.637337 241.157576,113.637337 252.048194,133.165456 C248.551173,139.17665 242.3819,142.290573 236.971414,146.091175 C228.639413,151.94447 227.05219,156.222443 230.178982,166.081976 C233.280114,175.827675 233.448733,185.397114 226.260412,193.640932 C221.21649,199.428129 221.311797,205.626599 223.925399,212.199621 C225.596931,216.389464 227.514061,220.48016 229.478844,224.989474 C223.855752,227.813303 218.734852,226.663942 213.284044,224.919704 C197.147894,219.756761 181.711881,212.912005 166.132908,206.338982 C156.290662,202.185861 145.847252,202.318056 135.983013,207.139496 C125.627578,212.203293 123.563822,219.334472 128.72871,229.586917 C130.433233,232.972575 134.916312,236.982485 130.194966,240.489321 C126.170093,243.47105 122.449468,239.468483 119.289685,237.044911 C112.519247,231.85259 107.937196,225.63576 107.336031,216.356415 C106.335311,200.863912 95.7269469,194.500198 81.3209789,200.397558 C75.525601,202.766049 70.6979522,202.527364 66.7647198,197.80507 C58.4950344,187.868423 47.6703974,184.603944 35.2255473,184.86099 C34.4411001,183.803431 35.4454857,183.050655 35.7460682,182.231781 C38.2497008,175.387025 37.0876927,173.580362 29.9763498,173.532625 C26.4573347,173.510592 22.934654,173.712557 19.415639,173.686852 C9.88497315,173.617083 3.71569987,169.474977 1.98185182,160.213993 C-0.826028948,145.235581 0.145365835,130.069893 1.93053285,115.029056 C2.49504152,110.284729 6.24499195,107.596767 10.7573956,106.418029 C20.343046,103.909999 31.4891651,107.089504 41.5384615,106.418029 C84.3494792,103.557479 119.080744,15.0346607 110.998006,11.1459286 C108.622671,10.0002398 106.320648,8.67829122 103.138872,6.98913468 Z" id="Shape" stroke="#FFFFFF" stroke-width="3.67244094" fill="#EAC7A3"></path>
            </g>
        </g>
        <g id="ic-section-info" transform="translate(173.000000, 75.000000)">
            <ellipse id="shadow" fill-opacity="0.5" fill="#4A4A4A" fill-rule="nonzero" style="mix-blend-mode: multiply;" filter="url(#filter-1)" cx="16.7658148" cy="45.3652597" rx="8.67197319" ry="2.80032468"></ellipse>
            <path d="M32.3753666,15.7112953 C32.3753666,17.1322989 32.1540506,19.0159547 31.1301602,20.54554 L19.9233025,43.5082023 C19.1596408,45.1180436 17.7052786,45.9253247 16.1876833,45.9253247 C14.670088,45.9253247 13.2157258,45.1180436 12.4520641,43.5082023 L1.24520641,20.54554 C0.221315982,19.0159547 0,17.1322989 0,15.7112953 C0,6.84693968 7.24019428,0 16.1876833,0 C25.1351723,0 32.3753666,6.84693968 32.3753666,15.7112953 Z" id="ic-map-marker" fill="#E0342B" fill-rule="evenodd"></path>
            <path d="M22.9394557,17.6420371 L23.1252839,20.8024073 C23.2078742,22.2125725 20.1623562,23.3627072 16.5180583,23.3627072 C12.8737605,23.3627072 9.82824248,22.2125725 9.9108328,20.8024073 L10.096661,17.6420371 L16.0225164,19.4522491 C16.1876971,19.502255 16.3528777,19.5222573 16.5180583,19.5222573 C16.683239,19.5222573 16.8484196,19.502255 17.0136003,19.4522491 L22.9394557,17.6420371 Z M28.4110643,14.4016576 C28.4110643,14.541674 28.3181502,14.661688 28.1839409,14.7116939 L16.6212962,18.2321062 C16.5800011,18.2421074 16.5490297,18.2421074 16.5180583,18.2421074 C16.487087,18.2421074 16.4561156,18.2421074 16.4148204,18.2321062 L9.68370942,16.1718649 C9.0952534,16.6219176 8.6823018,17.7220465 8.59971148,19.0722046 C8.9920155,19.2922304 9.25011025,19.6922773 9.25011025,20.1623323 C9.25011025,20.612385 9.01266308,21.0024307 8.65133043,21.2324577 L9.25011025,25.5629649 C9.26043404,25.6529755 9.22946267,25.742986 9.16751993,25.8129942 C9.10557719,25.8830024 9.01266308,25.9230071 8.91974897,25.9230071 L6.93758131,25.9230071 C6.8446672,25.9230071 6.75175309,25.8830024 6.68981035,25.8129942 C6.62786761,25.742986 6.59689624,25.6529755 6.60722003,25.5629649 L7.20599984,21.2324577 C6.8446672,21.0024307 6.60722003,20.612385 6.60722003,20.1623323 C6.60722003,19.6822761 6.88596236,19.2722281 7.27826637,19.0522023 C7.34020911,17.8820652 7.64992281,16.6219176 8.28999779,15.7518157 L4.85217575,14.7116939 C4.71796648,14.661688 4.62505237,14.541674 4.62505237,14.4016576 C4.62505237,14.2616411 4.71796648,14.1416271 4.85217575,14.0916212 L16.4148204,10.5712089 C16.4561156,10.5612077 16.487087,10.5612077 16.5180583,10.5612077 C16.5490297,10.5612077 16.5800011,10.5612077 16.6212962,10.5712089 L28.1839409,14.0916212 C28.3181502,14.1416271 28.4110643,14.2616411 28.4110643,14.4016576 Z" id="ic-cap" fill="#FFFFFF" fill-rule="evenodd"></path>
        </g>
    </g>
</svg>