<?xml version="1.0" encoding="UTF-8"?>
<svg width="378px" height="264px" viewBox="0 0 378 264" version="1.1" xmlns="http://www.w3.org/2000/svg" xmlns:xlink="http://www.w3.org/1999/xlink">
    <!-- Generator: Sketch 51.2 (57519) - http://www.bohemiancoding.com/sketch -->
    <title>modal-maps</title>
    <desc>Created with Sketch.</desc>
    <defs>
        <filter x="-31.5%" y="-97.6%" width="163.0%" height="295.2%" filterUnits="objectBoundingBox" id="filter-1">
            <feGaussianBlur stdDeviation="1.82208626" in="SourceGraphic"></feGaussianBlur>
        </filter>
    </defs>
    <g id="modal-maps" stroke="none" stroke-width="1" fill="none" fill-rule="evenodd">
        <g id="inner-map-378x264">
            <g id="513" transform="translate(35.000000, 1.000000)">
                <path d="M307.365136,259.931753 C297.166578,262.365933 290.28255,256.851277 283.3621,252.013118 C274.329091,245.701163 265.271799,239.89054 253.90162,238.452985 C237.456444,236.357053 222.346794,238.525466 210.175299,250.799048 C197.281407,263.803488 181.115477,262.782703 164.943477,261.520312 C159.643869,261.115622 156.280772,257.630456 154.896682,252.562772 C153.640074,247.972259 152.699136,243.297184 151.503233,238.68251 C148.643995,227.592798 141.420015,221.341244 130.140895,219.293633 C119.711654,217.409107 109.100297,215.953431 99.0170789,212.891076 C89.6137649,210.028046 84.8301552,213.706496 81.1878127,221.419766 C75.9367691,232.533639 69.7751398,243.091819 61.2763408,252.88894 C50.4707249,249.669541 42.8582292,240.258989 31.5001914,237.522802 C31.6701674,226.716976 38.5845475,219.505039 44.2058959,212.160218 C61.4948813,189.527781 69.3016353,164.189358 69.0770242,135.939583 C68.7977779,101.510737 69.0102479,67.0758497 69.0102479,32.1879517 C74.2430798,31.4570937 78.7717256,32.8161271 83.2760891,34.0422773 C96.2428281,37.5878445 109.154932,39.9072615 122.795504,37.4851619 C131.773878,35.8966029 139.513856,38.3549433 143.751115,48.0493818 C152.802335,68.8033322 167.353493,74.2938272 189.401806,66.4174735 C197.578865,63.5000818 204.044023,57.7921414 212.227152,53.4794753 C211.607954,62.6242602 208.366269,69.6791537 202.502098,75.8884264 C189.917805,89.2250745 192.84989,106.983111 208.912621,116.146017 C215.559895,119.93319 222.911357,121.539869 230.293171,123.074067 C236.649058,124.4029 243.168851,125.363283 249.251563,127.501496 C262.279008,132.079928 264.622248,135.776499 263.693451,149.662801 C263.122817,158.14921 261.866209,166.611458 260.718871,175.049545 C257.671445,197.361854 263.480981,216.188997 282.026574,230.292744 C287.19263,234.218841 292.152286,238.465065 296.893402,242.898534 C301.622376,247.332003 305.944623,252.182242 307.365136,259.931753 Z" id="Shape" stroke="#000000" stroke-width="6.05714286" fill="#000000" fill-rule="nonzero" opacity="0.15"></path>
                <path d="M275.864945,227.94943 C265.666386,230.38361 258.782359,224.868955 251.861908,220.030796 C242.828899,213.71884 233.771608,207.908218 222.401429,206.470662 C205.956253,204.374731 190.846602,206.543144 178.675108,218.816726 C165.781216,231.821166 149.615286,230.800381 133.443285,229.53799 C128.143677,229.1333 124.780581,225.648134 123.396491,220.580449 C122.139883,215.989936 121.198944,211.314861 120.003042,206.700188 C117.143803,195.610475 109.919824,189.358921 98.6407035,187.311311 C88.211463,185.426785 77.6001054,183.971109 67.5168875,180.908754 C58.1135734,178.045723 53.3299637,181.724174 49.6876213,189.437443 C44.4365776,200.551317 38.2749484,211.109496 29.7761494,220.906617 C18.9705335,217.687218 11.3580378,208.276667 0,205.540479 C0.16997598,194.734654 7.08435602,187.522716 12.7057045,180.177896 C29.9946899,157.545459 37.8014438,132.207036 37.5768327,103.957261 C37.2975865,69.5284142 37.5100564,35.0935273 37.5100564,0.205629197 C42.7428884,-0.525228778 47.2715342,0.833804647 51.7758976,2.0599548 C64.7426367,5.60552201 77.6547406,7.92493905 91.295313,5.50283948 C100.273687,3.91428041 108.013665,6.37262087 112.250923,16.0670593 C121.302144,36.8210097 135.853302,42.3115048 157.901615,34.4351511 C166.078674,31.5177593 172.543831,25.8098189 180.726961,21.4971529 C180.107763,30.6419378 176.866078,37.6968313 171.001906,43.906104 C158.417613,57.242752 161.349699,75.0007888 177.412429,84.1636941 C184.059704,87.9508673 191.411165,89.5575468 198.792979,91.0917445 C205.148867,92.4205772 211.66866,93.3809608 217.751372,95.5191734 C230.778816,100.097606 233.122057,103.794177 232.193259,117.680478 C231.622626,126.166887 230.366017,134.629135 229.21868,143.067223 C226.171253,165.379532 231.980789,184.206675 250.526383,198.310422 C255.692438,202.236518 260.652095,206.482743 265.39321,210.916212 C270.122185,215.349681 274.444431,220.19992 275.864945,227.94943 Z" id="Shape" stroke="#FFFFFF" stroke-width="6.05714286" fill="#EAC7A3"></path>
            </g>
        </g>
        <g id="ic-section-info" transform="translate(173.000000, 109.000000)">
            <ellipse id="shadow" fill-opacity="0.5" fill="#4A4A4A" fill-rule="nonzero" style="mix-blend-mode: multiply;" filter="url(#filter-1)" cx="16.7658148" cy="45.3652597" rx="8.67197319" ry="2.80032468"></ellipse>
            <path d="M32.3753666,15.7112953 C32.3753666,17.1322989 32.1540506,19.0159547 31.1301602,20.54554 L19.9233025,43.5082023 C19.1596408,45.1180436 17.7052786,45.9253247 16.1876833,45.9253247 C14.670088,45.9253247 13.2157258,45.1180436 12.4520641,43.5082023 L1.24520641,20.54554 C0.221315982,19.0159547 0,17.1322989 0,15.7112953 C0,6.84693968 7.24019428,0 16.1876833,0 C25.1351723,0 32.3753666,6.84693968 32.3753666,15.7112953 Z" id="ic-map-marker" fill="#E0342B" fill-rule="evenodd"></path>
            <path d="M22.9394557,17.6420371 L23.1252839,20.8024073 C23.2078742,22.2125725 20.1623562,23.3627072 16.5180583,23.3627072 C12.8737605,23.3627072 9.82824248,22.2125725 9.9108328,20.8024073 L10.096661,17.6420371 L16.0225164,19.4522491 C16.1876971,19.502255 16.3528777,19.5222573 16.5180583,19.5222573 C16.683239,19.5222573 16.8484196,19.502255 17.0136003,19.4522491 L22.9394557,17.6420371 Z M28.4110643,14.4016576 C28.4110643,14.541674 28.3181502,14.661688 28.1839409,14.7116939 L16.6212962,18.2321062 C16.5800011,18.2421074 16.5490297,18.2421074 16.5180583,18.2421074 C16.487087,18.2421074 16.4561156,18.2421074 16.4148204,18.2321062 L9.68370942,16.1718649 C9.0952534,16.6219176 8.6823018,17.7220465 8.59971148,19.0722046 C8.9920155,19.2922304 9.25011025,19.6922773 9.25011025,20.1623323 C9.25011025,20.612385 9.01266308,21.0024307 8.65133043,21.2324577 L9.25011025,25.5629649 C9.26043404,25.6529755 9.22946267,25.742986 9.16751993,25.8129942 C9.10557719,25.8830024 9.01266308,25.9230071 8.91974897,25.9230071 L6.93758131,25.9230071 C6.8446672,25.9230071 6.75175309,25.8830024 6.68981035,25.8129942 C6.62786761,25.742986 6.59689624,25.6529755 6.60722003,25.5629649 L7.20599984,21.2324577 C6.8446672,21.0024307 6.60722003,20.612385 6.60722003,20.1623323 C6.60722003,19.6822761 6.88596236,19.2722281 7.27826637,19.0522023 C7.34020911,17.8820652 7.64992281,16.6219176 8.28999779,15.7518157 L4.85217575,14.7116939 C4.71796648,14.661688 4.62505237,14.541674 4.62505237,14.4016576 C4.62505237,14.2616411 4.71796648,14.1416271 4.85217575,14.0916212 L16.4148204,10.5712089 C16.4561156,10.5612077 16.487087,10.5612077 16.5180583,10.5612077 C16.5490297,10.5612077 16.5800011,10.5612077 16.6212962,10.5712089 L28.1839409,14.0916212 C28.3181502,14.1416271 28.4110643,14.2616411 28.4110643,14.4016576 Z" id="ic-cap" fill="#FFFFFF" fill-rule="evenodd"></path>
        </g>
    </g>
</svg>