<?xml version="1.0" encoding="UTF-8"?>
<svg width="378px" height="264px" viewBox="0 0 378 264" version="1.1" xmlns="http://www.w3.org/2000/svg" xmlns:xlink="http://www.w3.org/1999/xlink">
    <!-- Generator: Sketch 51.2 (57519) - http://www.bohemiancoding.com/sketch -->
    <title>modal-maps</title>
    <desc>Created with Sketch.</desc>
    <defs>
        <filter x="-31.5%" y="-97.6%" width="163.0%" height="295.2%" filterUnits="objectBoundingBox" id="filter-1">
            <feGaussianBlur stdDeviation="1.82208626" in="SourceGraphic"></feGaussianBlur>
        </filter>
    </defs>
    <g id="modal-maps" stroke="none" stroke-width="1" fill="none" fill-rule="evenodd">
        <g id="inner-map-info">
            <g id="507" transform="translate(2.000000, 10.000000)">
                <path d="M374.09325,123.123071 C353.151244,163.664972 332.474268,203.685405 311.811002,243.678392 C301.479368,238.587211 291.55899,233.72017 281.666028,228.811961 C273.820201,224.919243 268.793754,218.442053 266.111459,210.345566 C260.079723,192.135331 248.733661,177.767498 234.869806,164.950347 C224.295989,155.165948 212.483839,150.930159 198.798194,156.680037 C185.633473,162.210349 171.605116,158.857397 158.408408,161.734623 C150.270133,163.509447 143.781447,161.647712 136.424556,159.291954 C126.042658,155.975597 114.506849,153.633562 104.150685,159.291954 C93.7945205,164.950347 86.0273973,189.031579 74.5855492,208.836051 C63.1437012,228.640524 60.1369863,228.983397 31.6575342,228.811961 C12.6712329,228.697669 4.04109589,222.542205 5.76712329,210.345566 C26.381288,174.223328 39.3264935,151.581824 44.6027397,142.421053 C52.5171091,128.679896 64.1305394,127.267375 74.5855492,127.235355 C93.9510788,127.171315 107.920032,117.926682 117.520546,101.550736 C120.646082,96.2216921 123.616255,90.7691426 126.225438,85.1702159 C131.041688,74.8597742 137.964477,66.4476613 147.217709,59.8423916 C158.9339,51.466873 166.852839,39.4136281 176.595007,29.1169092 C183.618324,21.6928422 188.987484,21.7202879 193.849429,30.9237523 C199.981694,42.5195686 210.441273,50.6023329 217.067045,61.7681662 C220.503307,67.5683615 227.042257,69.0092617 233.517235,68.1813159 C241.349353,67.1841214 247.997972,69.764019 254.92533,73.0026138 C270.813472,80.4266808 287.222537,86.5059076 304.833379,88.5460394 C310.878824,89.2413309 317.047645,90.7965883 320.904301,95.3617262 C334.009619,110.896003 351.91291,116.897467 370.501625,121.846845 C371.488636,122.098431 372.434522,122.523839 374.09325,123.123071 Z" id="Shape" stroke="#000000" stroke-width="4.5739726" fill="#000000" fill-rule="nonzero" opacity="0.15"></path>
                <path d="M368.915168,99.8178078 C347.973161,140.359709 327.296186,180.380142 306.632919,220.373129 C296.301286,215.281948 286.380907,210.414907 276.487946,205.506697 C268.642119,201.61398 263.615672,195.13679 260.933377,187.040303 C254.90164,168.830068 243.555579,154.462234 229.691724,141.645084 C219.117907,131.860685 207.305757,127.624895 193.620112,133.374774 C180.45539,138.905086 166.427034,135.552134 153.230325,138.42936 C145.092051,140.204183 138.603365,138.342449 131.246474,135.986691 C120.864576,132.670333 109.328767,130.328299 98.9726027,135.986691 C88.6164384,141.645084 80.8493151,165.726316 69.407467,185.530788 C57.965619,205.335261 54.9589041,205.678134 26.4794521,205.506697 C7.49315068,205.392406 -1.1369863,199.236941 0.589041096,187.040303 C21.2032058,150.918065 34.1484113,128.276561 39.4246575,119.115789 C47.3390269,105.374633 58.9524572,103.962111 69.407467,103.930091 C88.7729966,103.866051 102.74195,94.6214184 112.342464,78.2454727 C115.468,72.9164289 118.438173,67.4638794 121.047356,61.8649528 C125.863606,51.554511 132.786395,43.1423981 142.039627,36.5371284 C153.755818,28.1616098 161.674757,16.1083649 171.416925,5.81164601 C178.440242,-1.61242098 183.809401,-1.58497526 188.671347,7.61848918 C194.803612,19.2143054 205.263191,27.2970697 211.888962,38.462903 C215.325224,44.2630983 221.864175,45.7039986 228.339153,44.8760527 C236.171271,43.8788583 242.81989,46.4587558 249.747247,49.6973507 C265.63539,57.1214177 282.044454,63.2006444 299.655297,65.2407762 C305.700742,65.9360677 311.869563,67.4913252 315.726219,72.0564631 C328.831537,87.59074 346.734828,93.5922039 365.323543,98.5415819 C366.310554,98.7931677 367.25644,99.2185763 368.915168,99.8178078 Z" id="Shape" stroke="#FFFFFF" stroke-width="4.5739726" fill="#EAC7A3"></path>
            </g>
        </g>
        <g id="ic-section-info" transform="translate(184.000000, 75.000000)">
            <ellipse id="shadow" fill-opacity="0.5" fill="#4A4A4A" fill-rule="nonzero" style="mix-blend-mode: multiply;" filter="url(#filter-1)" cx="16.7658148" cy="45.3652597" rx="8.67197319" ry="2.80032468"></ellipse>
            <path d="M32.3753666,15.7112953 C32.3753666,17.1322989 32.1540506,19.0159547 31.1301602,20.54554 L19.9233025,43.5082023 C19.1596408,45.1180436 17.7052786,45.9253247 16.1876833,45.9253247 C14.670088,45.9253247 13.2157258,45.1180436 12.4520641,43.5082023 L1.24520641,20.54554 C0.221315982,19.0159547 0,17.1322989 0,15.7112953 C0,6.84693968 7.24019428,0 16.1876833,0 C25.1351723,0 32.3753666,6.84693968 32.3753666,15.7112953 Z" id="ic-map-marker" fill="#E0342B" fill-rule="evenodd"></path>
            <path d="M22.9394557,17.6420371 L23.1252839,20.8024073 C23.2078742,22.2125725 20.1623562,23.3627072 16.5180583,23.3627072 C12.8737605,23.3627072 9.82824248,22.2125725 9.9108328,20.8024073 L10.096661,17.6420371 L16.0225164,19.4522491 C16.1876971,19.502255 16.3528777,19.5222573 16.5180583,19.5222573 C16.683239,19.5222573 16.8484196,19.502255 17.0136003,19.4522491 L22.9394557,17.6420371 Z M28.4110643,14.4016576 C28.4110643,14.541674 28.3181502,14.661688 28.1839409,14.7116939 L16.6212962,18.2321062 C16.5800011,18.2421074 16.5490297,18.2421074 16.5180583,18.2421074 C16.487087,18.2421074 16.4561156,18.2421074 16.4148204,18.2321062 L9.68370942,16.1718649 C9.0952534,16.6219176 8.6823018,17.7220465 8.59971148,19.0722046 C8.9920155,19.2922304 9.25011025,19.6922773 9.25011025,20.1623323 C9.25011025,20.612385 9.01266308,21.0024307 8.65133043,21.2324577 L9.25011025,25.5629649 C9.26043404,25.6529755 9.22946267,25.742986 9.16751993,25.8129942 C9.10557719,25.8830024 9.01266308,25.9230071 8.91974897,25.9230071 L6.93758131,25.9230071 C6.8446672,25.9230071 6.75175309,25.8830024 6.68981035,25.8129942 C6.62786761,25.742986 6.59689624,25.6529755 6.60722003,25.5629649 L7.20599984,21.2324577 C6.8446672,21.0024307 6.60722003,20.612385 6.60722003,20.1623323 C6.60722003,19.6822761 6.88596236,19.2722281 7.27826637,19.0522023 C7.34020911,17.8820652 7.64992281,16.6219176 8.28999779,15.7518157 L4.85217575,14.7116939 C4.71796648,14.661688 4.62505237,14.541674 4.62505237,14.4016576 C4.62505237,14.2616411 4.71796648,14.1416271 4.85217575,14.0916212 L16.4148204,10.5712089 C16.4561156,10.5612077 16.487087,10.5612077 16.5180583,10.5612077 C16.5490297,10.5612077 16.5800011,10.5612077 16.6212962,10.5712089 L28.1839409,14.0916212 C28.3181502,14.1416271 28.4110643,14.2616411 28.4110643,14.4016576 Z" id="ic-cap" fill="#FFFFFF" fill-rule="evenodd"></path>
        </g>
    </g>
</svg>