<?xml version="1.0" encoding="UTF-8"?>
<svg width="378px" height="264px" viewBox="0 0 378 264" version="1.1" xmlns="http://www.w3.org/2000/svg" xmlns:xlink="http://www.w3.org/1999/xlink">
    <!-- Generator: Sketch 51.2 (57519) - http://www.bohemiancoding.com/sketch -->
    <title>modal-maps</title>
    <desc>Created with Sketch.</desc>
    <defs>
        <filter x="-31.5%" y="-97.6%" width="163.0%" height="295.2%" filterUnits="objectBoundingBox" id="filter-1">
            <feGaussianBlur stdDeviation="1.82208626" in="SourceGraphic"></feGaussianBlur>
        </filter>
    </defs>
    <g id="modal-maps" stroke="none" stroke-width="1" fill="none" fill-rule="evenodd">
        <g id="inner-map-378x264">
            <g id="500">
                <path d="M371.053311,161.075923 C360.97475,148.743273 356.413174,135.027218 353.705501,119.858587 C351.408451,106.948162 343.988776,95.0793594 346.013432,81.1883442 C346.354941,78.8772438 344.61894,76.3423573 342.809759,74.4951046 C323.591784,54.8426138 302.414202,39.5559869 272.796485,42.9087099 C261.823497,44.1537746 251.366837,41.8792937 241.158177,37.8796253 C233.689715,34.9541303 226.257844,31.7926427 218.240529,30.6370925 C204.031343,28.5782601 189.427796,28.3381986 176.430152,20.4649958 C174.417692,26.311917 170.722084,30.0918681 166.802869,33.6398954 C155.744504,43.6533074 149.658338,56.1690552 147.914206,70.8738382 C147.365353,75.4797635 145.344762,79.10103 141.697941,81.900391 C130.936363,90.1560646 119.772293,97.8339632 107.799173,104.22204 C101.871564,107.383528 95.4113652,109.86145 88.6828379,109.039545 C77.3724072,107.65614 67.8996165,111.029207 59.4147607,118.161881 C47.9417069,127.805029 34.6188164,130.250401 20.5356632,130.201575 L20.5356632,134.404685 C19.982745,141.525153 23.4669431,147.262215 26.9348789,152.95859 C29.5653062,157.26749 32.2933073,161.543839 35.301833,165.588265 C42.4653769,175.219206 46.3480014,184.866422 36.7369812,195.262305 C36.2938334,195.742428 36.1434072,196.491095 35.8466202,197.109558 C33.683734,201.65852 35.1798658,204.120167 40.1114087,204.677598 C45.193378,205.251304 50.1452488,204.205613 55.1377754,203.570874 C61.3215155,202.785588 67.1637474,203.432533 71.3797491,208.746437 C76.4820462,215.179271 83.5236228,217.217759 91.2360193,218.377378 C108.913141,221.030261 125.935705,218.011182 142.942007,213.53546 C156.151062,210.056603 169.335723,210.736099 180.23553,219.614305 C187.736517,225.713494 194.757765,226.413334 203.043408,222.735104 C207.230951,220.875645 211.544526,219.288798 215.772725,217.506646 C223.521711,214.247507 231.429255,213.865036 239.255488,216.859701 C245.886442,219.390519 252.383231,222.283463 258.823102,225.269991 C264.848285,228.061214 268.251172,232.707828 269.251303,239.559752 C270.21891,246.200097 272.414321,252.77534 278.520815,256.59598 C290.778525,264.261672 303.768038,265.645077 316.062338,257.454504 C324.392702,251.912746 332.906017,249.638265 342.630874,250.232316 C353.055009,250.862986 362.235078,246.85518 371.496459,242.192291 C370.866295,239.807951 370.565442,237.740981 369.797048,235.873384 C364.093046,222.031195 363.531997,209.368969 372.277049,195.571537 C378.883609,185.147172 379.436528,171.333465 371.053311,161.075923 Z" id="Shape" stroke="#000000" stroke-width="4.0652104" fill="#000000" fill-rule="nonzero" opacity="0.15"></path>
                <path d="M350.575817,140.610927 C340.497255,128.278277 335.93568,114.562222 333.228007,99.3935912 C330.930957,86.4831661 323.511282,74.6143636 325.535938,60.7233484 C325.877446,58.412248 324.141446,55.8773615 322.332265,54.0301088 C303.11429,34.377618 281.936708,19.0909911 252.318991,22.4437141 C241.346003,23.6887788 230.889343,21.414298 220.680683,17.4146295 C213.212221,14.4891345 205.780349,11.3276469 197.763035,10.1720967 C183.553849,8.11326432 168.950302,7.87320284 155.952657,0 C153.940198,5.84692118 150.24459,9.62687231 146.325375,13.1748996 C135.26701,23.1883116 129.180843,35.7040594 127.436712,50.4088424 C126.887859,55.0147677 124.867268,58.6360342 121.220447,61.4353952 C110.458869,69.6910688 99.2947987,77.3689674 87.3216792,83.7570441 C81.3940703,86.9185318 74.933871,89.3964545 68.2053437,88.5745491 C56.894913,87.191144 47.4221223,90.5642112 38.9372665,97.6968854 C27.4642127,107.340033 14.1413222,109.785405 0.0581690273,109.736579 L0.0581690273,113.939689 C-0.494749226,121.060157 2.98944888,126.79722 6.45738469,132.493594 C9.08781197,136.802494 11.8158131,141.078843 14.8243388,145.123269 C21.9878827,154.75421 25.8705072,164.401427 16.259487,174.79731 C15.8163392,175.277432 15.665913,176.026099 15.3691259,176.644562 C13.2062398,181.193524 14.7023716,183.655171 19.6339145,184.212602 C24.7158838,184.786308 29.6677546,183.740617 34.6602812,183.105878 C40.8440213,182.320592 46.6862532,182.967538 50.9022549,188.281441 C56.004552,194.714275 63.0461286,196.752763 70.7585251,197.912382 C88.4356469,200.565265 105.458211,197.546187 122.464513,193.070464 C135.673567,189.591607 148.858228,190.271103 159.758036,199.149309 C167.259023,205.252567 174.280271,205.94427 182.565914,202.270108 C186.753457,200.410649 191.067032,198.819733 195.29523,197.041651 C203.044217,193.782511 210.951761,193.40004 218.777994,196.394705 C225.408947,198.925523 231.905737,201.818467 238.345608,204.800926 C244.370791,207.596218 247.773678,212.242832 248.773809,219.090687 C249.741416,225.731032 251.936827,232.310344 258.043321,236.126915 C270.301031,243.792607 283.290544,245.176012 295.584844,236.98544 C303.915208,231.443682 312.428523,229.169201 322.153379,229.763251 C332.577515,230.393921 341.757584,226.386115 351.018965,221.723226 C350.3888,219.338886 350.087948,217.275985 349.319554,215.408388 C343.615552,201.56213 343.054502,188.903973 351.799555,175.106541 C358.406115,164.682177 358.959033,150.868469 350.575817,140.610927 Z" id="Shape" stroke="#FFFFFF" stroke-width="4.0652104" fill="#EAC7A3"></path>
            </g>
        </g>
        <g id="ic-section-info" transform="translate(173.000000, 75.000000)">
            <ellipse id="shadow" fill-opacity="0.5" fill="#4A4A4A" fill-rule="nonzero" style="mix-blend-mode: multiply;" filter="url(#filter-1)" cx="16.7658148" cy="45.3652597" rx="8.67197319" ry="2.80032468"></ellipse>
            <path d="M32.3753666,15.7112953 C32.3753666,17.1322989 32.1540506,19.0159547 31.1301602,20.54554 L19.9233025,43.5082023 C19.1596408,45.1180436 17.7052786,45.9253247 16.1876833,45.9253247 C14.670088,45.9253247 13.2157258,45.1180436 12.4520641,43.5082023 L1.24520641,20.54554 C0.221315982,19.0159547 0,17.1322989 0,15.7112953 C0,6.84693968 7.24019428,0 16.1876833,0 C25.1351723,0 32.3753666,6.84693968 32.3753666,15.7112953 Z" id="ic-map-marker" fill="#E0342B" fill-rule="evenodd"></path>
            <path d="M22.9394557,17.6420371 L23.1252839,20.8024073 C23.2078742,22.2125725 20.1623562,23.3627072 16.5180583,23.3627072 C12.8737605,23.3627072 9.82824248,22.2125725 9.9108328,20.8024073 L10.096661,17.6420371 L16.0225164,19.4522491 C16.1876971,19.502255 16.3528777,19.5222573 16.5180583,19.5222573 C16.683239,19.5222573 16.8484196,19.502255 17.0136003,19.4522491 L22.9394557,17.6420371 Z M28.4110643,14.4016576 C28.4110643,14.541674 28.3181502,14.661688 28.1839409,14.7116939 L16.6212962,18.2321062 C16.5800011,18.2421074 16.5490297,18.2421074 16.5180583,18.2421074 C16.487087,18.2421074 16.4561156,18.2421074 16.4148204,18.2321062 L9.68370942,16.1718649 C9.0952534,16.6219176 8.6823018,17.7220465 8.59971148,19.0722046 C8.9920155,19.2922304 9.25011025,19.6922773 9.25011025,20.1623323 C9.25011025,20.612385 9.01266308,21.0024307 8.65133043,21.2324577 L9.25011025,25.5629649 C9.26043404,25.6529755 9.22946267,25.742986 9.16751993,25.8129942 C9.10557719,25.8830024 9.01266308,25.9230071 8.91974897,25.9230071 L6.93758131,25.9230071 C6.8446672,25.9230071 6.75175309,25.8830024 6.68981035,25.8129942 C6.62786761,25.742986 6.59689624,25.6529755 6.60722003,25.5629649 L7.20599984,21.2324577 C6.8446672,21.0024307 6.60722003,20.612385 6.60722003,20.1623323 C6.60722003,19.6822761 6.88596236,19.2722281 7.27826637,19.0522023 C7.34020911,17.8820652 7.64992281,16.6219176 8.28999779,15.7518157 L4.85217575,14.7116939 C4.71796648,14.661688 4.62505237,14.541674 4.62505237,14.4016576 C4.62505237,14.2616411 4.71796648,14.1416271 4.85217575,14.0916212 L16.4148204,10.5712089 C16.4561156,10.5612077 16.487087,10.5612077 16.5180583,10.5612077 C16.5490297,10.5612077 16.5800011,10.5612077 16.6212962,10.5712089 L28.1839409,14.0916212 C28.3181502,14.1416271 28.4110643,14.2616411 28.4110643,14.4016576 Z" id="ic-cap" fill="#FFFFFF" fill-rule="evenodd"></path>
        </g>
    </g>
</svg>