<?xml version="1.0" encoding="UTF-8"?>
<svg width="378px" height="264px" viewBox="0 0 378 264" version="1.1" xmlns="http://www.w3.org/2000/svg" xmlns:xlink="http://www.w3.org/1999/xlink">
    <!-- Generator: Sketch 51.2 (57519) - http://www.bohemiancoding.com/sketch -->
    <title>modal-maps</title>
    <desc>Created with Sketch.</desc>
    <defs>
        <filter x="-31.5%" y="-97.6%" width="163.0%" height="295.2%" filterUnits="objectBoundingBox" id="filter-1">
            <feGaussianBlur stdDeviation="1.82208626" in="SourceGraphic"></feGaussianBlur>
        </filter>
    </defs>
    <g id="modal-maps" stroke="none" stroke-width="1" fill="none" fill-rule="evenodd">
        <g id="inner-map-378x264">
            <g id="515" transform="translate(0.000000, 38.000000)">
                <path d="M25.1473508,106.429069 C27.8880755,103.611457 31.3211938,102.449851 34.869711,102.761853 C44.1160505,103.587457 51.0399865,99.4018378 57.3484615,93.3778109 C65.2244387,85.8609774 73.5283536,78.9777466 84.1017808,75.3681305 C93.1990634,72.2673166 96.7523888,64.7552831 96.0744201,56.1968449 C95.040638,43.1647867 104.147537,35.172751 110.278105,26.1103105 C113.230395,21.7518911 121.81319,22.183893 127.087883,23.9311008 C137.031425,27.2335155 147.431754,29.7583268 156.437679,35.6431531 C159.899647,37.9039632 163.587604,40.1455732 165.563811,43.5919886 C175.266938,60.473664 191.268923,64.8800837 208.958618,66.2432897 C231.004623,67.9424973 252.824638,64.1312803 274.774476,63.5312776 C277.625792,63.4496773 280.83292,62.4080726 283.184174,60.7952654 C300.123775,49.1504134 319.376164,51.1088222 338.287164,51.1280222 C345.062043,51.1376223 351.832114,51.7808252 358.611801,51.9104257 C369.228503,52.1168267 374.363756,60.0896623 369.709332,69.8433058 C366.579136,76.3905351 366.636835,82.7745636 368.651508,89.5521938 C371.796129,100.131441 374.599362,110.806689 377.6382,121.750738 C365.266473,127.064361 352.716839,130.851578 343.148344,140.14442 C342.14822,141.118824 340.138355,141.469226 338.614128,141.430826 C325.521157,141.104424 313.413886,148.126855 300.090117,146.446848 C297.984087,146.178047 295.315486,147.627653 293.411404,148.981259 C286.929831,153.59888 279.876071,156.824494 272.34629,159.282105 C266.513836,161.187714 261.498791,164.576529 258.83019,170.283754 C256.868409,174.483773 253.767062,176.427782 249.420369,176.859784 C242.121387,177.579787 235.332083,180.786201 227.884043,180.978202 C221.801558,181.131803 218.426139,178.914193 216.863445,172.760565 C212.819674,156.939695 201.976983,151.568471 187.739639,159.896508 C173.689819,168.123745 157.673409,172.400564 144.618905,182.485409 C140.541476,185.624623 135.382182,186.843828 130.169997,187.520631 C120.139906,188.821437 114.187244,185.605423 110.205981,176.374982 C104.974563,164.274128 101.575103,161.230914 88.5782978,162.714121 C74.052457,164.370128 60.685414,159.618107 46.803884,157.784499 C43.5198227,157.347697 43.4717398,154.832485 42.7312633,152.547675 C40.1395956,144.56524 37.4469538,136.621204 34.7831618,128.662769 C32.2203438,120.977934 29.4459611,113.3651 25.1473508,106.429069 Z" id="Shape" stroke="#000000" stroke-width="4.80431655" fill="#000000" fill-rule="nonzero" opacity="0.15"></path>
                <path d="M0,83.7462048 C2.74072466,80.9285922 6.17384292,79.766987 9.72236012,80.0789884 C18.9686996,80.9045921 25.8926356,76.7189734 32.2011106,70.6949465 C40.0770878,63.1781129 48.3810027,56.2948822 58.95443,52.6852661 C68.0517125,49.5844522 71.605038,42.0724187 70.9270693,33.5139804 C69.8932872,20.4819222 79.0001863,12.4898865 85.1307546,3.42744607 C88.083044,-0.930973394 96.6658396,-0.498971465 101.940533,1.24823634 C111.884074,4.55065109 122.284403,7.07546236 131.290328,12.9602886 C134.752296,15.2210987 138.440253,17.4627088 140.41646,20.9091241 C150.119587,37.7907995 166.121573,42.1972192 183.811267,43.5604253 C205.857272,45.2596329 227.677287,41.4484159 249.627126,40.8484132 C252.478441,40.7668128 255.685569,39.7252082 258.036823,38.112401 C274.976424,26.467549 294.228813,28.4259577 313.139813,28.4451578 C319.914692,28.4547578 326.684763,29.0979607 333.46445,29.2275613 C344.081152,29.4339622 349.216405,37.4067978 344.561981,47.1604414 C341.431785,53.7076706 341.489485,60.0916991 343.504158,66.8693294 C346.648779,77.4485766 349.452011,88.1238243 352.49085,99.0678732 C340.119122,104.381497 327.569488,108.168714 318.000993,117.461555 C317.000869,118.43596 314.991005,118.786361 313.466777,118.747961 C300.373806,118.42156 288.266535,125.443991 274.942766,123.763983 C272.836736,123.495182 270.168136,124.944789 268.264053,126.298395 C261.78248,130.916015 254.72872,134.14163 247.19894,136.599241 C241.366485,138.504849 236.35144,141.893664 233.68284,147.60089 C231.721058,151.800909 228.619711,153.744917 224.273018,154.176919 C216.974036,154.896923 210.184732,158.103337 202.736692,158.295338 C196.654207,158.448938 193.278788,156.231328 191.716094,150.077701 C187.672323,134.25683 176.829632,128.885606 162.592288,137.213644 C148.542468,145.44088 132.526058,149.717699 119.471554,159.802544 C115.394125,162.941758 110.234831,164.160964 105.022646,164.837767 C94.9925551,166.138573 89.0398935,162.922558 85.0586303,153.692117 C79.827212,141.591263 76.4277517,138.54805 63.4309469,140.031256 C48.9051062,141.687264 35.5380631,136.935242 21.6565331,135.101634 C18.3724718,134.664832 18.3243889,132.149621 17.5839124,129.864811 C14.9922447,121.882375 12.299603,113.93834 9.63581092,105.979904 C7.07299294,98.2950697 4.29861026,90.6822357 0,83.7462048 Z" id="Shape" stroke="#FFFFFF" stroke-width="4.80431655" fill="#EAC7A3"></path>
            </g>
        </g>
        <g id="ic-section-info" transform="translate(173.000000, 100.000000)">
            <ellipse id="shadow" fill-opacity="0.5" fill="#4A4A4A" fill-rule="nonzero" style="mix-blend-mode: multiply;" filter="url(#filter-1)" cx="16.7658148" cy="45.3652597" rx="8.67197319" ry="2.80032468"></ellipse>
            <path d="M32.3753666,15.7112953 C32.3753666,17.1322989 32.1540506,19.0159547 31.1301602,20.54554 L19.9233025,43.5082023 C19.1596408,45.1180436 17.7052786,45.9253247 16.1876833,45.9253247 C14.670088,45.9253247 13.2157258,45.1180436 12.4520641,43.5082023 L1.24520641,20.54554 C0.221315982,19.0159547 0,17.1322989 0,15.7112953 C0,6.84693968 7.24019428,0 16.1876833,0 C25.1351723,0 32.3753666,6.84693968 32.3753666,15.7112953 Z" id="ic-map-marker" fill="#E0342B" fill-rule="evenodd"></path>
            <path d="M22.9394557,17.6420371 L23.1252839,20.8024073 C23.2078742,22.2125725 20.1623562,23.3627072 16.5180583,23.3627072 C12.8737605,23.3627072 9.82824248,22.2125725 9.9108328,20.8024073 L10.096661,17.6420371 L16.0225164,19.4522491 C16.1876971,19.502255 16.3528777,19.5222573 16.5180583,19.5222573 C16.683239,19.5222573 16.8484196,19.502255 17.0136003,19.4522491 L22.9394557,17.6420371 Z M28.4110643,14.4016576 C28.4110643,14.541674 28.3181502,14.661688 28.1839409,14.7116939 L16.6212962,18.2321062 C16.5800011,18.2421074 16.5490297,18.2421074 16.5180583,18.2421074 C16.487087,18.2421074 16.4561156,18.2421074 16.4148204,18.2321062 L9.68370942,16.1718649 C9.0952534,16.6219176 8.6823018,17.7220465 8.59971148,19.0722046 C8.9920155,19.2922304 9.25011025,19.6922773 9.25011025,20.1623323 C9.25011025,20.612385 9.01266308,21.0024307 8.65133043,21.2324577 L9.25011025,25.5629649 C9.26043404,25.6529755 9.22946267,25.742986 9.16751993,25.8129942 C9.10557719,25.8830024 9.01266308,25.9230071 8.91974897,25.9230071 L6.93758131,25.9230071 C6.8446672,25.9230071 6.75175309,25.8830024 6.68981035,25.8129942 C6.62786761,25.742986 6.59689624,25.6529755 6.60722003,25.5629649 L7.20599984,21.2324577 C6.8446672,21.0024307 6.60722003,20.612385 6.60722003,20.1623323 C6.60722003,19.6822761 6.88596236,19.2722281 7.27826637,19.0522023 C7.34020911,17.8820652 7.64992281,16.6219176 8.28999779,15.7518157 L4.85217575,14.7116939 C4.71796648,14.661688 4.62505237,14.541674 4.62505237,14.4016576 C4.62505237,14.2616411 4.71796648,14.1416271 4.85217575,14.0916212 L16.4148204,10.5712089 C16.4561156,10.5612077 16.487087,10.5612077 16.5180583,10.5612077 C16.5490297,10.5612077 16.5800011,10.5612077 16.6212962,10.5712089 L28.1839409,14.0916212 C28.3181502,14.1416271 28.4110643,14.2616411 28.4110643,14.4016576 Z" id="ic-cap" fill="#FFFFFF" fill-rule="evenodd"></path>
        </g>
    </g>
</svg>