<?xml version="1.0" encoding="UTF-8"?>
<svg width="378px" height="264px" viewBox="0 0 378 264" version="1.1" xmlns="http://www.w3.org/2000/svg" xmlns:xlink="http://www.w3.org/1999/xlink">
    <!-- Generator: Sketch 51.2 (57519) - http://www.bohemiancoding.com/sketch -->
    <title>modal-maps</title>
    <desc>Created with Sketch.</desc>
    <defs>
        <filter x="-31.5%" y="-97.6%" width="163.0%" height="295.2%" filterUnits="objectBoundingBox" id="filter-1">
            <feGaussianBlur stdDeviation="1.82208626" in="SourceGraphic"></feGaussianBlur>
        </filter>
    </defs>
    <g id="modal-maps" stroke="none" stroke-width="1" fill="none" fill-rule="evenodd">
        <g id="inner-map-info">
            <g id="506" transform="translate(1.000000, 13.000000)">
                <path d="M352.003037,67.4897711 C353.19926,70.7886964 352.586249,73.6757868 352.164804,76.4694712 C350.99838,84.1287521 352.68416,91.146929 356.09829,97.9867857 C359.078205,103.964761 362.692415,109.692239 364.12703,116.362267 C365.314739,121.911424 364.335624,125.617939 358.197001,128.169617 C344.093494,134.028712 343.229319,142.426748 355.349055,151.920181 C360.057319,155.601221 365.238113,158.700597 370.325252,161.876397 C375.723153,165.255991 377.996402,169.607855 375.480503,175.82359 C375.033516,176.935969 374.897291,178.218177 374.258738,179.190447 C371.678984,183.100756 374.72701,190.076476 369.222683,191.706833 C361.453622,194.008014 352.939582,195.566193 345.179034,191.821467 C336.422344,187.596975 327.329349,186.565265 317.883021,186.484596 C315.01379,186.463367 311.799739,186.832745 309.339182,185.720366 C296.887398,180.107523 283.860917,176.082579 271.153712,171.204246 C268.705925,170.261696 267.267052,168.329893 266.611471,165.943797 C264.576616,158.513786 259.004176,154.743585 252.550534,151.53382 C244.040751,147.29659 235.045667,144.910495 225.675966,143.916996 C216.902248,142.978692 210.133586,146.604538 205.748855,154.110973 C202.019705,160.500783 197.136903,165.336659 190.708803,169.132334 C182.428899,174.023405 179.921514,180.319809 182.330987,190.008545 C183.650664,195.315696 182.68432,199.336394 179.125451,203.166034 C175.336703,207.254664 174.093653,212.188192 174.046826,217.711875 C173.931887,232.635584 163.838492,240.638769 149.730728,235.641555 C140.624962,232.410561 131.195662,234.151307 122.217607,231.353377 C118.782191,230.279209 116.402517,230.151837 114.320834,226.041979 C106.726311,211.080058 93.6402308,201.438026 78.3107014,195.74876 C68.7026071,192.182354 62.3383621,186.883694 58.6092125,177.547353 C56.1231127,171.327372 53.1900259,164.980019 47.8900359,160.683349 C35.7064444,150.820539 32.6201048,137.701261 32.1773747,122.938889 C31.8623552,112.422237 32.5519925,101.824918 30.542679,91.3634608 C29.6061346,86.4766358 28.0778644,82.1035431 22.4458268,78.8640579 C44.522733,72.8096597 61.6614959,59.5715013 80.0986499,48.4222377 C93.3507534,40.4063163 104.82768,29.6901163 119.582511,23.8013011 C131.238232,19.1479908 144.511621,20.332547 153.996262,29.3419672 C157.120914,32.3097262 160.105085,35.5874229 163.685239,37.8801123 C168.665953,41.0644031 174.136224,40.4530192 179.615009,38.3598787 C195.021164,32.4838008 202.722114,36.5554473 204.220585,52.9906336 C205.531747,67.4048567 213.871249,75.9897048 224.943758,83.0418475 C229.549854,85.9756408 234.879643,87.7545979 239.61345,83.4069795 C244.521794,78.893778 243.278744,73.4932208 240.613849,68.2285266 C240.396741,67.8039545 240.158348,67.3921196 239.936983,66.959056 C233.232177,53.8185492 237.518996,45.5309017 252.388767,42.8093944 C263.214369,40.8351341 273.767522,42.435771 283.094653,47.717448 C298.905226,56.6716738 316.559088,60.565 333.165723,67.2732394 C339.172379,69.7017918 345.430198,68.8229276 352.003037,67.4897711 Z" id="Shape" stroke="#000000" stroke-width="4.25350318" fill="#000000" fill-rule="nonzero" opacity="0.15"></path>
                <path d="M330.217755,46.4519296 C331.413978,49.7508549 330.800967,52.642191 330.379522,55.4316297 C329.213098,63.0909106 330.898878,70.1133333 334.313009,76.9531899 C337.292923,82.9311652 340.907133,88.658643 342.341748,95.3286708 C343.529457,100.877828 342.550342,104.584343 336.411719,107.136021 C322.308212,112.995116 321.444037,121.393153 333.563773,130.886585 C338.272037,134.567625 343.452831,137.667001 348.53997,140.842801 C353.937871,144.222395 356.21112,148.574259 353.695221,154.789995 C353.248234,155.902374 353.112009,157.184581 352.473456,158.156851 C349.893702,162.067161 352.941728,169.04288 347.437401,170.673237 C339.66834,172.974418 331.1543,174.532598 323.393752,170.787872 C314.637062,166.563379 305.544067,165.531669 296.097739,165.451 C293.228508,165.429772 290.014457,165.799149 287.5539,164.686771 C275.102116,159.073927 262.075635,155.048984 249.36843,150.17065 C246.9249,149.2281 245.486027,147.296297 244.830446,144.910202 C242.795591,137.48019 237.223151,133.709989 230.769509,130.500224 C222.259726,126.262995 213.264642,123.876899 203.894941,122.883401 C195.121223,121.945096 188.352561,125.570942 183.96783,133.077377 C180.23868,139.467187 175.355878,144.303064 168.927778,148.098738 C160.647874,152.989809 158.140489,159.286213 160.549962,168.974949 C161.869639,174.2821 160.903295,178.302798 157.344426,182.132438 C153.555678,186.221068 152.312629,191.154596 152.265801,196.678279 C152.150862,211.601989 142.057467,219.605173 127.949703,214.607959 C118.843937,211.376965 109.414637,213.117711 100.436582,210.319781 C97.0011665,209.245613 94.6214923,209.118242 92.5398095,205.008384 C84.9452856,190.046463 71.8592059,180.40443 56.5296765,174.715164 C46.9215822,171.148758 40.5573371,165.850098 36.8281875,156.513757 C34.3420878,150.293776 31.409001,143.946423 26.1090109,139.649753 C13.9254194,129.786943 10.8390799,116.667665 10.3963498,101.905293 C10.0813303,91.3886416 10.7709675,80.7913218 8.76165407,70.329865 C7.82510965,65.4430401 6.29683943,61.0699473 0.664801851,57.8304621 C22.741708,51.7760639 39.8804709,38.5336598 58.3176249,27.3886419 C71.5697285,19.3727205 83.0466547,8.65652049 97.8014863,2.76770534 C109.457207,-1.88560497 122.730596,-0.701048785 132.215237,8.30837137 C135.339889,11.2761304 138.324061,14.5538271 141.904214,16.8465165 C146.884928,20.0308073 152.355199,19.4194235 157.833984,17.326283 C173.240139,11.450205 180.941089,15.5218515 182.43956,31.9570378 C183.750722,46.3755066 192.090224,54.9518632 203.162734,62.0082517 C207.768829,64.942045 213.098618,66.7210021 217.832425,62.3733837 C222.740769,57.8601822 221.497719,52.4638707 218.832825,47.1949308 C218.615716,46.766113 218.377323,46.354278 218.155958,45.9254602 C211.451152,32.7807077 215.737971,24.4973059 230.607742,21.7715529 C241.433344,19.7972926 251.98224,21.3979295 261.313628,26.6796065 C277.124201,35.6338323 294.78232,39.5271585 311.384698,46.2353978 C317.387097,48.6724418 323.644916,47.7893318 330.217755,46.4519296 Z" id="Shape" stroke="#FFFFFF" stroke-width="4.25350318" fill="#EAC7A3"></path>
            </g>
        </g>
        <g id="ic-section-info" transform="translate(184.000000, 75.000000)">
            <ellipse id="shadow" fill-opacity="0.5" fill="#4A4A4A" fill-rule="nonzero" style="mix-blend-mode: multiply;" filter="url(#filter-1)" cx="16.7658148" cy="45.3652597" rx="8.67197319" ry="2.80032468"></ellipse>
            <path d="M32.3753666,15.7112953 C32.3753666,17.1322989 32.1540506,19.0159547 31.1301602,20.54554 L19.9233025,43.5082023 C19.1596408,45.1180436 17.7052786,45.9253247 16.1876833,45.9253247 C14.670088,45.9253247 13.2157258,45.1180436 12.4520641,43.5082023 L1.24520641,20.54554 C0.221315982,19.0159547 0,17.1322989 0,15.7112953 C0,6.84693968 7.24019428,0 16.1876833,0 C25.1351723,0 32.3753666,6.84693968 32.3753666,15.7112953 Z" id="ic-map-marker" fill="#E0342B" fill-rule="evenodd"></path>
            <path d="M22.9394557,17.6420371 L23.1252839,20.8024073 C23.2078742,22.2125725 20.1623562,23.3627072 16.5180583,23.3627072 C12.8737605,23.3627072 9.82824248,22.2125725 9.9108328,20.8024073 L10.096661,17.6420371 L16.0225164,19.4522491 C16.1876971,19.502255 16.3528777,19.5222573 16.5180583,19.5222573 C16.683239,19.5222573 16.8484196,19.502255 17.0136003,19.4522491 L22.9394557,17.6420371 Z M28.4110643,14.4016576 C28.4110643,14.541674 28.3181502,14.661688 28.1839409,14.7116939 L16.6212962,18.2321062 C16.5800011,18.2421074 16.5490297,18.2421074 16.5180583,18.2421074 C16.487087,18.2421074 16.4561156,18.2421074 16.4148204,18.2321062 L9.68370942,16.1718649 C9.0952534,16.6219176 8.6823018,17.7220465 8.59971148,19.0722046 C8.9920155,19.2922304 9.25011025,19.6922773 9.25011025,20.1623323 C9.25011025,20.612385 9.01266308,21.0024307 8.65133043,21.2324577 L9.25011025,25.5629649 C9.26043404,25.6529755 9.22946267,25.742986 9.16751993,25.8129942 C9.10557719,25.8830024 9.01266308,25.9230071 8.91974897,25.9230071 L6.93758131,25.9230071 C6.8446672,25.9230071 6.75175309,25.8830024 6.68981035,25.8129942 C6.62786761,25.742986 6.59689624,25.6529755 6.60722003,25.5629649 L7.20599984,21.2324577 C6.8446672,21.0024307 6.60722003,20.612385 6.60722003,20.1623323 C6.60722003,19.6822761 6.88596236,19.2722281 7.27826637,19.0522023 C7.34020911,17.8820652 7.64992281,16.6219176 8.28999779,15.7518157 L4.85217575,14.7116939 C4.71796648,14.661688 4.62505237,14.541674 4.62505237,14.4016576 C4.62505237,14.2616411 4.71796648,14.1416271 4.85217575,14.0916212 L16.4148204,10.5712089 C16.4561156,10.5612077 16.487087,10.5612077 16.5180583,10.5612077 C16.5490297,10.5612077 16.5800011,10.5612077 16.6212962,10.5712089 L28.1839409,14.0916212 C28.3181502,14.1416271 28.4110643,14.2616411 28.4110643,14.4016576 Z" id="ic-cap" fill="#FFFFFF" fill-rule="evenodd"></path>
        </g>
    </g>
</svg>