<?xml version="1.0" encoding="UTF-8"?>
<svg width="378px" height="264px" viewBox="0 0 378 264" version="1.1" xmlns="http://www.w3.org/2000/svg" xmlns:xlink="http://www.w3.org/1999/xlink">
    <!-- Generator: Sketch 51.2 (57519) - http://www.bohemiancoding.com/sketch -->
    <title>modal-maps</title>
    <desc>Created with Sketch.</desc>
    <defs>
        <filter x="-31.5%" y="-97.6%" width="163.0%" height="295.2%" filterUnits="objectBoundingBox" id="filter-1">
            <feGaussianBlur stdDeviation="1.82208626" in="SourceGraphic"></feGaussianBlur>
        </filter>
    </defs>
    <g id="modal-maps" stroke="none" stroke-width="1" fill="none" fill-rule="evenodd">
        <g id="inner-map-378x264">
            <g id="520" transform="translate(61.000000, 0.000000)">
                <path d="M58.1212983,22.6585324 C66.9975807,29.3504306 75.5524883,29.6890894 84.8904641,26.3025013 C92.2277685,23.6338698 96.9895477,25.6432454 97.7047199,33.4685218 C99.2120131,50.0266801 112.99492,52.4559927 123.808504,57.9964509 C133.01974,62.715097 141.918655,58.3531715 149.808181,53.4358455 C166.284299,43.1677102 182.271566,46.1253306 197.448605,55.3684585 C207.424804,61.4417399 217.265211,63.0673022 228.128586,59.680714 C235.30294,57.4455659 242.554242,56.6373002 250.393978,57.4681431 C252.100433,61.9519858 250.357766,65.9481598 248.538151,69.7817776 C244.360278,78.5643295 238.82901,86.5341003 233.139318,94.3955003 C224.167981,106.794928 225.553061,114.407978 238.217945,123.199561 C238.847116,123.63756 239.480813,124.057497 240.141668,124.459372 C257.025163,134.713961 259.310998,142.146393 250.520717,160.19465 C243.780898,174.020961 234.682822,184.347797 217.025312,182.017824 C207.601334,180.780591 200.028657,184.889651 194.587917,192.556887 C189.527395,199.695814 183.050107,202.170281 174.594781,199.619052 C172.413053,198.959796 170.068375,198.779178 167.796119,198.463096 C159.023944,197.230378 154.212374,200.309916 151.845064,208.848633 C148.739949,220.02889 151.306421,231.154961 152.311283,242.294578 C152.465181,244.06915 152.904243,245.834691 152.890663,247.604748 C152.836346,254.206337 150.500721,260.234464 144.353861,262.731508 C139.048913,264.885378 134.210185,261.259471 130.349161,257.543255 C127.234993,254.535965 124.396937,251.208078 121.730884,247.794397 C117.362902,242.195238 112.008163,238.158425 105.218554,235.941338 C99.1486434,233.959055 94.4638131,230.188654 91.4039625,224.503701 C90.8019505,223.38387 90.1908857,222.105997 89.2222348,221.38804 C73.9591933,209.995558 64.2862635,193.586409 51.6123263,179.877501 C47.7965659,175.759409 43.3968992,172.128987 41.6361272,166.525312 C40.0564115,161.4951 41.0612736,157.873708 46.370748,155.358602 C58.5422541,149.578825 60.6470329,142.028991 53.8212125,130.09917 C47.0678146,118.286751 38.413326,107.887667 29.3016705,97.8498202 C21.5705689,89.3336798 22.5799574,80.5646743 25.3365388,69.3844179 C27.6495323,60.0148574 31.8545636,52.7856206 37.1097211,45.3893121 C40.8621118,40.1017191 44.8951396,35.3650111 50.783994,32.3306282 C54.2376419,30.5425096 57.1390682,28.0274035 58.1212983,22.6585324 Z" id="Shape" stroke="#000000" stroke-width="4.52815534" fill="#000000" fill-rule="nonzero" opacity="0.15"></path>
                <path d="M34.8158068,0 C43.6920892,6.69189818 52.2469968,7.03055699 61.5849726,3.64396885 C68.9222769,0.975337386 73.6840562,2.98471302 74.3992283,10.8099894 C75.9065216,27.3681477 89.6894282,29.7974602 100.503012,35.3379184 C109.714249,40.0565646 118.613163,35.6946391 126.502689,30.7773131 C142.978808,20.5091778 158.966074,23.4667981 174.143114,32.709926 C184.119313,38.7832075 193.95972,40.4087698 204.823094,37.0221816 C211.997448,34.7870334 219.248751,33.9787677 227.088486,34.8096107 C228.794941,39.2934534 227.052275,43.2896274 225.23266,47.1232452 C221.054787,55.9057971 215.523518,63.8755679 209.833826,71.7369678 C200.862489,84.1363959 202.247569,91.7494461 214.912454,100.541029 C215.541624,100.979028 216.175321,101.398965 216.836176,101.80084 C233.719671,112.055429 236.005506,119.487861 227.215226,137.536118 C220.475407,151.362428 211.37733,161.689264 193.71982,159.359292 C184.295843,158.122058 176.723165,162.231119 171.282425,169.898354 C166.221903,177.037282 159.744616,179.511749 151.289289,176.960519 C149.107561,176.301263 146.762883,176.120645 144.490627,175.804564 C135.718452,174.571846 130.906882,177.651383 128.539572,186.190101 C125.434457,197.370357 128.00093,208.496428 129.005792,219.636045 C129.15969,221.410618 129.598751,223.176159 129.585172,224.946216 C129.530855,231.547805 127.195229,237.575932 121.04837,240.072976 C115.743422,242.226846 110.904694,238.600939 107.043669,234.884723 C103.929502,231.877433 101.091445,228.549545 98.425392,225.135865 C94.0574101,219.536705 88.7026717,215.499892 81.9130625,213.282806 C75.8431519,211.300523 71.1583216,207.530122 68.098471,201.845169 C67.496459,200.725337 66.8853942,199.447465 65.9167433,198.729508 C50.6537018,187.337025 40.9807719,170.927877 28.3068348,157.218968 C24.4910744,153.100877 20.0914077,149.470454 18.3306357,143.86678 C16.7509199,138.836568 17.7557821,135.215176 23.0652565,132.70007 C35.2367625,126.920293 37.3415414,119.370459 30.515721,107.440638 C23.762323,95.6282183 15.1078345,85.229135 5.99617898,75.1912877 C-1.73492268,66.6751474 -0.725534112,57.9061418 2.03104722,46.7258855 C4.34404075,37.356325 8.54907204,30.1270881 13.8042295,22.7307796 C17.5566202,17.4431867 21.5896481,12.7064787 27.4785025,9.67209575 C30.9321503,7.8839772 33.8335766,5.36887107 34.8158068,0 Z" id="Shape" stroke="#FFFFFF" stroke-width="4.52815534" fill="#EAC7A3"></path>
            </g>
        </g>
        <g id="ic-section-info" transform="translate(173.000000, 75.000000)">
            <ellipse id="shadow" fill-opacity="0.5" fill="#4A4A4A" fill-rule="nonzero" style="mix-blend-mode: multiply;" filter="url(#filter-1)" cx="16.7658148" cy="45.3652597" rx="8.67197319" ry="2.80032468"></ellipse>
            <path d="M32.3753666,15.7112953 C32.3753666,17.1322989 32.1540506,19.0159547 31.1301602,20.54554 L19.9233025,43.5082023 C19.1596408,45.1180436 17.7052786,45.9253247 16.1876833,45.9253247 C14.670088,45.9253247 13.2157258,45.1180436 12.4520641,43.5082023 L1.24520641,20.54554 C0.221315982,19.0159547 0,17.1322989 0,15.7112953 C0,6.84693968 7.24019428,0 16.1876833,0 C25.1351723,0 32.3753666,6.84693968 32.3753666,15.7112953 Z" id="ic-map-marker" fill="#E0342B" fill-rule="evenodd"></path>
            <path d="M22.9394557,17.6420371 L23.1252839,20.8024073 C23.2078742,22.2125725 20.1623562,23.3627072 16.5180583,23.3627072 C12.8737605,23.3627072 9.82824248,22.2125725 9.9108328,20.8024073 L10.096661,17.6420371 L16.0225164,19.4522491 C16.1876971,19.502255 16.3528777,19.5222573 16.5180583,19.5222573 C16.683239,19.5222573 16.8484196,19.502255 17.0136003,19.4522491 L22.9394557,17.6420371 Z M28.4110643,14.4016576 C28.4110643,14.541674 28.3181502,14.661688 28.1839409,14.7116939 L16.6212962,18.2321062 C16.5800011,18.2421074 16.5490297,18.2421074 16.5180583,18.2421074 C16.487087,18.2421074 16.4561156,18.2421074 16.4148204,18.2321062 L9.68370942,16.1718649 C9.0952534,16.6219176 8.6823018,17.7220465 8.59971148,19.0722046 C8.9920155,19.2922304 9.25011025,19.6922773 9.25011025,20.1623323 C9.25011025,20.612385 9.01266308,21.0024307 8.65133043,21.2324577 L9.25011025,25.5629649 C9.26043404,25.6529755 9.22946267,25.742986 9.16751993,25.8129942 C9.10557719,25.8830024 9.01266308,25.9230071 8.91974897,25.9230071 L6.93758131,25.9230071 C6.8446672,25.9230071 6.75175309,25.8830024 6.68981035,25.8129942 C6.62786761,25.742986 6.59689624,25.6529755 6.60722003,25.5629649 L7.20599984,21.2324577 C6.8446672,21.0024307 6.60722003,20.612385 6.60722003,20.1623323 C6.60722003,19.6822761 6.88596236,19.2722281 7.27826637,19.0522023 C7.34020911,17.8820652 7.64992281,16.6219176 8.28999779,15.7518157 L4.85217575,14.7116939 C4.71796648,14.661688 4.62505237,14.541674 4.62505237,14.4016576 C4.62505237,14.2616411 4.71796648,14.1416271 4.85217575,14.0916212 L16.4148204,10.5712089 C16.4561156,10.5612077 16.487087,10.5612077 16.5180583,10.5612077 C16.5490297,10.5612077 16.5800011,10.5612077 16.6212962,10.5712089 L28.1839409,14.0916212 C28.3181502,14.1416271 28.4110643,14.2616411 28.4110643,14.4016576 Z" id="ic-cap" fill="#FFFFFF" fill-rule="evenodd"></path>
        </g>
    </g>
</svg>