<?xml version="1.0" encoding="UTF-8"?>
<svg width="378px" height="264px" viewBox="0 0 378 264" version="1.1" xmlns="http://www.w3.org/2000/svg" xmlns:xlink="http://www.w3.org/1999/xlink">
    <!-- Generator: Sketch 51.2 (57519) - http://www.bohemiancoding.com/sketch -->
    <title>modal-maps</title>
    <desc>Created with Sketch.</desc>
    <defs>
        <filter x="-31.5%" y="-97.6%" width="163.0%" height="295.2%" filterUnits="objectBoundingBox" id="filter-1">
            <feGaussianBlur stdDeviation="1.82208626" in="SourceGraphic"></feGaussianBlur>
        </filter>
    </defs>
    <g id="modal-maps" stroke="none" stroke-width="1" fill="none" fill-rule="evenodd">
        <g id="inner-map-info">
            <g id="530" transform="translate(5.000000, 0.000000)">
                <path d="M160.195866,29.8854784 C154.601251,45.737246 154.591487,45.7518424 170.062111,53.3030835 C186.577452,61.3700665 199.748718,73.1202257 209.385515,88.7287188 C219.656955,105.368696 230.138314,121.843246 244.866894,135.087111 C245.272089,135.456888 245.809094,135.836396 245.95555,136.308349 C249.646238,148.759139 259.805394,147.041621 269.22739,146.885925 C286.006352,146.608592 302.599804,142.526446 319.525222,144.711051 C326.130382,145.562512 332.49145,147.18272 338.828108,149.055934 C353.346768,153.352162 360.942946,163.613481 363.876946,177.918022 C365.370796,185.172469 366.98181,192.412318 368.446369,199.681361 C370.892182,211.806163 364.931428,221.49822 352.82929,220.238058 C330.382485,217.902622 316.435003,229.594396 303.698223,244.872035 C289.960661,261.351451 272.00517,265.856895 251.638038,263.059238 C226.833293,259.653395 201.789337,257.765585 177.492306,251.041477 C167.010946,248.136779 156.207384,248.603866 145.447758,249.688871 C137.631896,250.47708 129.664696,250.092706 122.981426,245.952174 C103.629722,233.949009 81.4758281,231.997948 59.9956318,227.536293 C54.6109372,226.41723 49.1188415,224.519689 43.7732017,224.792157 C33.3797158,225.322495 29.9819393,218.394037 27.3994339,210.896316 C21.3947427,193.409744 23.4207157,176.643264 34.6050634,161.735402 C39.0963772,155.745983 42.2305331,149.780892 42.0450223,142.283171 C41.8253385,133.058201 46.9122395,127.628314 54.8599122,123.988927 C82.9989693,111.119705 83.7458943,109.786561 81.0999247,79.0950478 C80.4359914,71.4416315 79.4840281,63.8271391 80.98276,56.1153369 C82.2471625,49.5955798 85.5180105,46.3065083 92.3965552,47.4790915 C95.3744915,47.9851025 98.3377823,48.6419437 101.335246,49.0311829 C109.2341,50.0675324 117.840824,50.4956955 122.551822,43.2558459 C131.949408,28.7858775 145.403822,28.0171301 160.195866,29.8854784 Z" id="Shape" stroke="#000000" stroke-width="4.87283582" fill="#000000" fill-rule="nonzero" opacity="0.15"></path>
                <path d="M136.107081,0.73674169 C130.512467,16.5885093 130.502703,16.6031057 145.973326,24.1543468 C162.488668,32.2213298 175.659934,43.971489 185.296731,59.5799821 C195.56817,76.2199591 206.04953,92.6945094 220.77811,105.938374 C221.183304,106.308151 221.720309,106.68766 221.866765,107.159612 C225.557453,119.610402 235.71661,117.892884 245.138605,117.737188 C261.917568,117.459855 278.511019,113.377709 295.436438,115.562314 C302.041598,116.413775 308.402665,118.033983 314.739323,119.907197 C329.257983,124.203425 336.854162,134.464744 339.788161,148.769286 C341.282011,156.023732 342.893026,163.263582 344.357585,170.532624 C346.803398,182.657426 340.842643,192.349483 328.740506,191.089321 C306.2937,188.753886 292.346218,200.445659 279.609438,215.723299 C265.871876,232.202714 247.916385,236.708159 227.549253,233.910502 C202.744509,230.504658 177.700552,228.616848 153.403521,221.89274 C142.922162,218.988043 132.118599,219.45513 121.358974,220.540134 C113.543111,221.328344 105.575911,220.94397 98.8926412,216.803437 C79.5409371,204.800273 57.3870437,202.849211 35.9068474,198.387556 C30.5221527,197.268494 25.030057,195.370952 19.6844173,195.64342 C9.29093137,196.173758 5.89315486,189.2453 3.31064944,181.747579 C-2.69404181,164.261007 -0.668068746,147.494527 10.5162789,132.586665 C15.0075927,126.597246 18.1417486,120.632155 17.9562378,113.134434 C17.736554,103.909465 22.8234551,98.4795775 30.7711277,94.8401907 C58.9101849,81.9709687 59.6571099,80.6378243 57.0111402,49.9463112 C56.3472069,42.2928948 55.3952437,34.6784024 56.8939755,26.9666002 C58.158378,20.4468431 61.4292261,17.1577716 68.3077708,18.3303548 C71.2857071,18.8363658 74.2489978,19.493207 77.2464615,19.8824462 C85.1453156,20.9187957 93.7520397,21.3469588 98.4630373,14.1071092 C107.860623,-0.362859131 121.315037,-1.13160661 136.107081,0.73674169 Z" id="Shape" stroke="#FFFFFF" stroke-width="4.87283582" fill="#EAC7A3"></path>
            </g>
        </g>
        <g id="ic-section-info" transform="translate(173.000000, 75.000000)">
            <ellipse id="shadow" fill-opacity="0.5" fill="#4A4A4A" fill-rule="nonzero" style="mix-blend-mode: multiply;" filter="url(#filter-1)" cx="16.7658148" cy="45.3652597" rx="8.67197319" ry="2.80032468"></ellipse>
            <path d="M32.3753666,15.7112953 C32.3753666,17.1322989 32.1540506,19.0159547 31.1301602,20.54554 L19.9233025,43.5082023 C19.1596408,45.1180436 17.7052786,45.9253247 16.1876833,45.9253247 C14.670088,45.9253247 13.2157258,45.1180436 12.4520641,43.5082023 L1.24520641,20.54554 C0.221315982,19.0159547 0,17.1322989 0,15.7112953 C0,6.84693968 7.24019428,0 16.1876833,0 C25.1351723,0 32.3753666,6.84693968 32.3753666,15.7112953 Z" id="ic-map-marker" fill="#E0342B" fill-rule="evenodd"></path>
            <path d="M22.9394557,17.6420371 L23.1252839,20.8024073 C23.2078742,22.2125725 20.1623562,23.3627072 16.5180583,23.3627072 C12.8737605,23.3627072 9.82824248,22.2125725 9.9108328,20.8024073 L10.096661,17.6420371 L16.0225164,19.4522491 C16.1876971,19.502255 16.3528777,19.5222573 16.5180583,19.5222573 C16.683239,19.5222573 16.8484196,19.502255 17.0136003,19.4522491 L22.9394557,17.6420371 Z M28.4110643,14.4016576 C28.4110643,14.541674 28.3181502,14.661688 28.1839409,14.7116939 L16.6212962,18.2321062 C16.5800011,18.2421074 16.5490297,18.2421074 16.5180583,18.2421074 C16.487087,18.2421074 16.4561156,18.2421074 16.4148204,18.2321062 L9.68370942,16.1718649 C9.0952534,16.6219176 8.6823018,17.7220465 8.59971148,19.0722046 C8.9920155,19.2922304 9.25011025,19.6922773 9.25011025,20.1623323 C9.25011025,20.612385 9.01266308,21.0024307 8.65133043,21.2324577 L9.25011025,25.5629649 C9.26043404,25.6529755 9.22946267,25.742986 9.16751993,25.8129942 C9.10557719,25.8830024 9.01266308,25.9230071 8.91974897,25.9230071 L6.93758131,25.9230071 C6.8446672,25.9230071 6.75175309,25.8830024 6.68981035,25.8129942 C6.62786761,25.742986 6.59689624,25.6529755 6.60722003,25.5629649 L7.20599984,21.2324577 C6.8446672,21.0024307 6.60722003,20.612385 6.60722003,20.1623323 C6.60722003,19.6822761 6.88596236,19.2722281 7.27826637,19.0522023 C7.34020911,17.8820652 7.64992281,16.6219176 8.28999779,15.7518157 L4.85217575,14.7116939 C4.71796648,14.661688 4.62505237,14.541674 4.62505237,14.4016576 C4.62505237,14.2616411 4.71796648,14.1416271 4.85217575,14.0916212 L16.4148204,10.5712089 C16.4561156,10.5612077 16.487087,10.5612077 16.5180583,10.5612077 C16.5490297,10.5612077 16.5800011,10.5612077 16.6212962,10.5712089 L28.1839409,14.0916212 C28.3181502,14.1416271 28.4110643,14.2616411 28.4110643,14.4016576 Z" id="ic-cap" fill="#FFFFFF" fill-rule="evenodd"></path>
        </g>
    </g>
</svg>