<?xml version="1.0" encoding="UTF-8"?>
<svg width="378px" height="264px" viewBox="0 0 378 264" version="1.1" xmlns="http://www.w3.org/2000/svg" xmlns:xlink="http://www.w3.org/1999/xlink">
    <!-- Generator: Sketch 51.2 (57519) - http://www.bohemiancoding.com/sketch -->
    <title>modal-maps</title>
    <desc>Created with Sketch.</desc>
    <defs>
        <filter x="-31.5%" y="-97.6%" width="163.0%" height="295.2%" filterUnits="objectBoundingBox" id="filter-1">
            <feGaussianBlur stdDeviation="1.82208626" in="SourceGraphic"></feGaussianBlur>
        </filter>
    </defs>
    <g id="modal-maps" stroke="none" stroke-width="1" fill="none" fill-rule="evenodd">
        <g id="inner-map-378x264">
            <g id="524" transform="translate(1.000000, 5.000000)">
                <path d="M376.737782,175.0476 C373.579635,176.683842 370.759335,177.987722 368.10796,179.569179 C364.351234,181.80075 361.211447,185.420204 361.306926,189.430458 C361.516245,198.159516 356.896537,204.394036 352.820323,211.351716 C344.844164,224.9895 345.519861,239.270093 352.592643,254.251933 C341.803529,252.758131 331.833331,251.275287 321.830082,250.015235 C295.510962,246.702576 269.155119,243.609056 242.850688,240.16126 C233.556186,238.945036 224.79049,235.530112 216.318576,231.669603 C196.323095,222.557051 175.258986,219.006991 153.445734,219.083689 C138.727298,219.13117 124.361399,216.800986 111.11554,210.486115 C85.18568,198.126645 58.3671318,187.483768 34.067757,171.9066 C29.7087789,169.108918 25.55912,165.997137 21.1340411,163.309025 C17.3993481,161.040931 16.2278957,158.670572 19.3052534,154.967114 C22.8783668,150.671979 22.3128381,145.653683 20.9173775,140.828961 C18.0383221,130.839851 18.6185399,121.749212 26.9729418,114.225421 C30.222896,118.860223 33.4361275,123.56807 36.7852328,128.177305 C39.1501712,131.427875 42.3707472,133.140816 46.4910281,132.355566 C50.5048133,131.59223 52.0838871,128.520624 53.1598606,124.988825 C54.7389344,119.79887 55.1245221,114.426299 55.2273455,109.086599 C55.3852529,100.59129 59.1346351,94.1157167 65.5353922,88.8527155 C67.7644568,87.0082911 70.0045382,85.1529097 72.1271072,83.1843062 C77.4518908,78.224448 79.3871742,72.380727 76.9377738,65.2550398 C75.4615234,60.9526002 74.7491041,56.4711967 75.0502298,51.8729188 C75.2595488,48.7392234 76.2730939,45.8465816 79.702989,45.4521304 C83.6690347,44.988285 83.5221442,48.5712165 83.8195976,51.0401886 C84.491622,56.642856 88.4099283,58.538413 93.1067547,59.5172363 C97.954144,60.5252781 100.94704,57.8809944 103.132037,53.9547444 C106.069849,48.6771339 105.691605,42.7676711 106.290185,37.0736955 C107.164184,28.7536977 108.904837,26.7083954 117.306978,27.6433908 C125.308843,28.5345582 131.827113,27.1795454 137.559518,21.072857 C141.268505,17.1210407 146.776902,16.6316291 152.120047,17.1502593 C157.246528,17.6396709 162.365665,18.256914 167.833667,18.8595477 C168.424901,26.6718722 173.367769,31.2044082 180.198182,33.5455489 C187.550055,36.0656536 190.425438,41.1314292 191.031362,48.3849478 C191.732765,56.7414688 194.795433,64.4405712 199.088311,71.5735631 C205.059413,81.5005841 211.247179,82.3515759 219.932084,74.780305 C223.989937,71.2412015 230.225442,70.9928433 235.619999,74.0827108 C239.112322,76.0878375 241.598445,79.1521387 244.304904,81.9973003 C247.988186,85.8578085 251.994626,88.9294143 257.859233,88.0528562 C259.996491,87.7277992 261.928102,88.7212318 263.753218,89.700055 C273.03303,94.6635655 283.014245,97.2201934 293.450821,97.9652679 C296.572246,98.1917121 298.658093,99.2180155 300.784334,101.632203 C307.298931,109.035467 315.286107,115.19694 318.998766,124.850037 C319.942538,127.311704 322.737131,128.604627 324.929473,130.182432 C330.338719,134.064854 335.310965,138.323466 338.75555,144.218319 C340.966253,148.013086 344.227224,151.022602 348.578857,152.395876 C355.600227,154.61649 360.789137,159.116155 365.133426,164.853959 C368.1557,168.845951 371.725141,172.282789 376.737782,175.0476 Z" id="Shape" stroke="#000000" stroke-width="3.66923077" fill="#000000" fill-rule="nonzero" opacity="0.15"></path>
                <path d="M359.194372,158.068067 C356.036225,159.704309 353.215926,161.008189 350.564551,162.589646 C346.807824,164.821217 343.668038,168.440671 343.763517,172.450925 C343.972836,181.179983 339.353127,187.414503 335.276913,194.372183 C327.300754,208.009967 327.976451,222.29056 335.049233,237.2724 C324.260119,235.778599 314.289921,234.295754 304.286672,233.035702 C277.967552,229.723043 251.611709,226.629523 225.307278,223.181728 C216.012776,221.965503 207.247081,218.550579 198.775166,214.690071 C178.779686,205.577518 157.715576,202.027458 135.902324,202.104157 C121.183888,202.151637 106.817989,199.821453 93.5721304,193.506582 C67.6422702,181.147112 40.8237219,170.504235 16.5243472,154.927067 C12.1653691,152.129385 8.01571011,149.017604 3.59063129,146.329492 C-0.144061792,144.061398 -1.31551419,141.691039 1.76184353,137.987581 C5.33495697,133.692446 4.76942822,128.67415 3.37396768,123.849428 C0.494912245,113.860318 1.07513005,104.769679 9.42953198,97.2458886 C12.6794861,101.88069 15.8927176,106.588537 19.2418229,111.197772 C21.6067613,114.448342 24.8273374,116.161283 28.9476182,115.376033 C32.9650757,114.612697 34.5368049,111.541091 35.6127785,108.009292 C37.1918522,102.819337 37.5811123,97.4467665 37.6802634,92.1070665 C37.8381708,83.6117571 41.5838807,77.1361838 47.9846378,71.8731826 C50.2173747,70.0287582 52.4537838,68.1733768 54.5763528,66.2047733 C59.9011364,61.2449151 61.8364199,55.4011942 59.3870194,48.2755069 C57.910769,43.9730674 57.1983497,39.4916639 57.4994754,34.8933859 C57.7087945,31.7596906 58.7223395,28.8670487 62.1522346,28.4725975 C66.1182804,28.0087522 65.9713898,31.5916836 66.2688432,34.0606557 C66.9408676,39.6633232 70.8591739,41.5588801 75.5560003,42.5377034 C80.4033896,43.5457453 83.3962852,40.9014615 85.5812827,36.9752115 C88.5190943,31.697601 88.1408511,25.7881382 88.7394302,20.0941626 C89.6134292,11.7741649 91.3540826,9.72886255 99.756224,10.6638579 C107.758088,11.5550253 114.276358,10.2000125 120.008763,4.09332414 C123.71775,0.141507845 129.226147,-0.347903785 134.569292,0.17072645 C139.695774,0.660138081 144.81491,1.27738111 150.282912,1.88001483 C150.874147,9.69233929 155.817015,14.2248754 162.647427,16.5660161 C169.999301,19.0861207 172.874684,24.1518963 173.480608,31.405415 C174.18201,39.761936 177.244679,47.4610383 181.537556,54.5940302 C187.508658,64.5210512 193.696424,65.3720431 202.38133,57.8007721 C206.439182,54.2616686 212.674688,54.0133104 218.069244,57.1031779 C221.561568,59.1083047 224.047691,62.1726058 226.75415,65.0177675 C230.437431,68.8782756 234.443872,71.9498815 240.308479,71.0733233 C242.445737,70.7482663 244.377348,71.7416989 246.202463,72.7205222 C255.482276,77.6840327 265.463491,80.2406606 275.900067,80.985735 C279.021492,81.2121792 281.107338,82.2384827 283.233579,84.6526699 C289.748177,92.0559339 297.735352,98.2174072 301.448012,107.870504 C302.391784,110.332171 305.186377,111.625094 307.378719,113.202899 C312.787965,117.085321 317.760211,121.343933 321.204795,127.238786 C323.415498,131.033553 326.676469,134.043069 331.028103,135.416343 C338.049473,137.636957 343.238383,142.136623 347.582672,147.874426 C350.61229,151.866418 354.181731,155.303256 359.194372,158.068067 Z" id="Shape" stroke="#FFFFFF" stroke-width="3.66923077" fill="#EAC7A3"></path>
            </g>
        </g>
        <g id="ic-section-info" transform="translate(173.000000, 109.000000)">
            <ellipse id="shadow" fill-opacity="0.5" fill="#4A4A4A" fill-rule="nonzero" style="mix-blend-mode: multiply;" filter="url(#filter-1)" cx="16.7658148" cy="45.3652597" rx="8.67197319" ry="2.80032468"></ellipse>
            <path d="M32.3753666,15.7112953 C32.3753666,17.1322989 32.1540506,19.0159547 31.1301602,20.54554 L19.9233025,43.5082023 C19.1596408,45.1180436 17.7052786,45.9253247 16.1876833,45.9253247 C14.670088,45.9253247 13.2157258,45.1180436 12.4520641,43.5082023 L1.24520641,20.54554 C0.221315982,19.0159547 0,17.1322989 0,15.7112953 C0,6.84693968 7.24019428,0 16.1876833,0 C25.1351723,0 32.3753666,6.84693968 32.3753666,15.7112953 Z" id="ic-map-marker" fill="#E0342B" fill-rule="evenodd"></path>
            <path d="M22.9394557,17.6420371 L23.1252839,20.8024073 C23.2078742,22.2125725 20.1623562,23.3627072 16.5180583,23.3627072 C12.8737605,23.3627072 9.82824248,22.2125725 9.9108328,20.8024073 L10.096661,17.6420371 L16.0225164,19.4522491 C16.1876971,19.502255 16.3528777,19.5222573 16.5180583,19.5222573 C16.683239,19.5222573 16.8484196,19.502255 17.0136003,19.4522491 L22.9394557,17.6420371 Z M28.4110643,14.4016576 C28.4110643,14.541674 28.3181502,14.661688 28.1839409,14.7116939 L16.6212962,18.2321062 C16.5800011,18.2421074 16.5490297,18.2421074 16.5180583,18.2421074 C16.487087,18.2421074 16.4561156,18.2421074 16.4148204,18.2321062 L9.68370942,16.1718649 C9.0952534,16.6219176 8.6823018,17.7220465 8.59971148,19.0722046 C8.9920155,19.2922304 9.25011025,19.6922773 9.25011025,20.1623323 C9.25011025,20.612385 9.01266308,21.0024307 8.65133043,21.2324577 L9.25011025,25.5629649 C9.26043404,25.6529755 9.22946267,25.742986 9.16751993,25.8129942 C9.10557719,25.8830024 9.01266308,25.9230071 8.91974897,25.9230071 L6.93758131,25.9230071 C6.8446672,25.9230071 6.75175309,25.8830024 6.68981035,25.8129942 C6.62786761,25.742986 6.59689624,25.6529755 6.60722003,25.5629649 L7.20599984,21.2324577 C6.8446672,21.0024307 6.60722003,20.612385 6.60722003,20.1623323 C6.60722003,19.6822761 6.88596236,19.2722281 7.27826637,19.0522023 C7.34020911,17.8820652 7.64992281,16.6219176 8.28999779,15.7518157 L4.85217575,14.7116939 C4.71796648,14.661688 4.62505237,14.541674 4.62505237,14.4016576 C4.62505237,14.2616411 4.71796648,14.1416271 4.85217575,14.0916212 L16.4148204,10.5712089 C16.4561156,10.5612077 16.487087,10.5612077 16.5180583,10.5612077 C16.5490297,10.5612077 16.5800011,10.5612077 16.6212962,10.5712089 L28.1839409,14.0916212 C28.3181502,14.1416271 28.4110643,14.2616411 28.4110643,14.4016576 Z" id="ic-cap" fill="#FFFFFF" fill-rule="evenodd"></path>
        </g>
    </g>
</svg>