<?xml version="1.0" encoding="UTF-8"?>
<svg width="378px" height="264px" viewBox="0 0 378 264" version="1.1" xmlns="http://www.w3.org/2000/svg" xmlns:xlink="http://www.w3.org/1999/xlink">
    <!-- Generator: Sketch 51.2 (57519) - http://www.bohemiancoding.com/sketch -->
    <title>modal-maps</title>
    <desc>Created with Sketch.</desc>
    <defs>
        <filter x="-31.5%" y="-97.6%" width="163.0%" height="295.2%" filterUnits="objectBoundingBox" id="filter-1">
            <feGaussianBlur stdDeviation="1.82208626" in="SourceGraphic"></feGaussianBlur>
        </filter>
    </defs>
    <g id="modal-maps" stroke="none" stroke-width="1" fill="none" fill-rule="evenodd">
        <g id="inner-map-378x264">
            <g id="527" transform="translate(19.000000, 0.000000)">
                <path d="M123.990769,19.8912071 C131.411771,22.8803002 139.007157,24.7740353 144.316177,31.3654678 C147.362082,35.1413674 151.407788,34.67854 155.468994,32.0365674 C166.846572,24.639044 178.553542,27.3581545 189.892369,31.9170037 C195.139386,34.0267249 194.503853,39.426377 193.573806,43.9582279 C190.179133,60.4695926 196.681714,73.270625 208.338306,84.2820584 C212.957541,88.6480628 217.828664,90.6305065 224.381622,88.3472251 C231.213594,85.9713781 238.475713,85.4352698 245.737832,85.2115699 C249.903669,85.0804355 252.449674,86.1025125 252.631808,90.7809254 C252.972825,99.374086 256.561258,107.234437 258.456229,115.461192 C261.068112,126.792748 267.799329,134.406258 277.332313,140.129889 C282.842844,143.435247 287.717841,147.25743 291.069887,152.903923 C293.98016,157.813749 298.793154,160.690993 304.001419,162.499876 C311.751813,165.203559 316.642312,169.986108 317.653738,178.301572 C318.510157,185.332691 322.765123,189.328433 329.135947,192.047544 C333.553671,193.929708 338.746435,195.225625 340.939797,200.035172 C340.591029,201.971333 339.393593,202.565295 338.277536,203.263393 C327.911384,209.71212 325.66377,216.025856 329.790855,227.399837 C331.197551,231.279873 332.910388,235.048059 334.251207,238.955093 C336.409691,245.234117 333.774557,249.064013 327.04334,250.406212 C322.555862,251.301012 318.153638,252.635497 313.770791,253.962269 C301.963065,257.526039 289.938329,259.466057 277.572576,259.377349 C255.898599,259.22693 234.232373,258.999373 212.682402,262.262306 C192.709637,265.282254 172.984884,263.681643 153.52752,258.185568 C125.312211,250.217224 96.2869859,245.762512 67.8275393,238.881812 C30.0443687,229.744829 16.868699,203.024265 18.7791711,167.625689 C19.1783164,160.235879 20.5811377,152.938635 22.1932197,145.69153 C22.8636287,142.675439 23.8789303,140.642856 27.0410911,139.516643 C43.0417794,133.82001 55.2680259,123.144126 65.3551636,109.872552 C71.7414882,101.46838 78.8718506,93.7044513 87.3004041,87.4447118 C108.331098,71.8204327 120.433338,51.3788926 122.905714,25.333285 C123.072347,23.6208239 123.572248,21.939218 123.990769,19.8912071 Z" id="Shape" stroke="#000000" stroke-width="3.87028451" fill="#000000" fill-rule="nonzero" opacity="0.15"></path>
                <path d="M105.390704,0 C112.811706,2.98909313 120.407092,4.88282826 125.716112,11.4742607 C128.762017,15.2501603 132.807722,14.787333 136.868929,12.1453603 C148.246507,4.74783696 159.953477,7.46694748 171.292303,12.0257966 C176.53932,14.1355178 175.903788,19.5351699 174.973741,24.0670208 C171.579068,40.5783856 178.081649,53.379418 189.738241,64.3908514 C194.357476,68.7568558 199.228598,70.7392995 205.781557,68.456018 C212.613529,66.0801711 219.875648,65.5440628 227.137767,65.3203629 C231.303604,65.1892285 233.849608,66.2113055 234.031742,70.8897184 C234.37276,79.482879 237.961192,87.3432297 239.856164,95.5699854 C242.468046,106.901541 249.199263,114.51505 258.732248,120.238682 C264.242778,123.54404 269.117776,127.366222 272.469821,133.012716 C275.380094,137.922542 280.193089,140.799786 285.401354,142.608669 C293.151748,145.312352 298.042246,150.094901 299.053673,158.410365 C299.910091,165.441484 304.165057,169.437226 310.535881,172.156337 C314.953606,174.038501 320.14637,175.334418 322.339731,180.143965 C321.990963,182.080126 320.793528,182.674088 319.677471,183.372185 C309.311319,189.820913 307.063705,196.134649 311.19079,207.50863 C312.597486,211.388666 314.310323,215.156852 315.651141,219.063886 C317.809626,225.34291 315.174492,229.172806 308.443275,230.515005 C303.955797,231.409805 299.553573,232.74429 295.170725,234.071062 C283.363,237.634832 271.338264,239.57485 258.97251,239.486142 C237.298534,239.335723 215.632307,239.108166 194.082337,242.371099 C174.109572,245.391047 154.384819,243.790436 134.927455,238.294361 C106.712146,230.326017 77.6869204,225.871304 49.2274738,218.990605 C11.4443033,209.853622 -1.7313664,183.133058 0.179105705,147.734482 C0.578250994,140.344672 1.9810723,133.047428 3.59315424,125.800323 C4.26356332,122.784232 5.27886493,120.751649 8.44102566,119.625435 C24.441714,113.928803 36.6679604,103.252919 46.7550982,89.9813454 C53.1414228,81.5771726 60.2717852,73.8132443 68.7003387,67.5535047 C89.7310327,51.9292257 101.833273,31.4876856 104.305648,5.44207794 C104.472282,3.72961685 104.972182,2.04801091 105.390704,0 Z" id="Shape" stroke="#FFFFFF" stroke-width="3.87028451" fill="#EAC7A3"></path>
            </g>
        </g>
        <g id="ic-section-info" transform="translate(173.000000, 109.000000)">
            <ellipse id="shadow" fill-opacity="0.5" fill="#4A4A4A" fill-rule="nonzero" style="mix-blend-mode: multiply;" filter="url(#filter-1)" cx="16.7658148" cy="45.3652597" rx="8.67197319" ry="2.80032468"></ellipse>
            <path d="M32.3753666,15.7112953 C32.3753666,17.1322989 32.1540506,19.0159547 31.1301602,20.54554 L19.9233025,43.5082023 C19.1596408,45.1180436 17.7052786,45.9253247 16.1876833,45.9253247 C14.670088,45.9253247 13.2157258,45.1180436 12.4520641,43.5082023 L1.24520641,20.54554 C0.221315982,19.0159547 0,17.1322989 0,15.7112953 C0,6.84693968 7.24019428,0 16.1876833,0 C25.1351723,0 32.3753666,6.84693968 32.3753666,15.7112953 Z" id="ic-map-marker" fill="#E0342B" fill-rule="evenodd"></path>
            <path d="M22.9394557,17.6420371 L23.1252839,20.8024073 C23.2078742,22.2125725 20.1623562,23.3627072 16.5180583,23.3627072 C12.8737605,23.3627072 9.82824248,22.2125725 9.9108328,20.8024073 L10.096661,17.6420371 L16.0225164,19.4522491 C16.1876971,19.502255 16.3528777,19.5222573 16.5180583,19.5222573 C16.683239,19.5222573 16.8484196,19.502255 17.0136003,19.4522491 L22.9394557,17.6420371 Z M28.4110643,14.4016576 C28.4110643,14.541674 28.3181502,14.661688 28.1839409,14.7116939 L16.6212962,18.2321062 C16.5800011,18.2421074 16.5490297,18.2421074 16.5180583,18.2421074 C16.487087,18.2421074 16.4561156,18.2421074 16.4148204,18.2321062 L9.68370942,16.1718649 C9.0952534,16.6219176 8.6823018,17.7220465 8.59971148,19.0722046 C8.9920155,19.2922304 9.25011025,19.6922773 9.25011025,20.1623323 C9.25011025,20.612385 9.01266308,21.0024307 8.65133043,21.2324577 L9.25011025,25.5629649 C9.26043404,25.6529755 9.22946267,25.742986 9.16751993,25.8129942 C9.10557719,25.8830024 9.01266308,25.9230071 8.91974897,25.9230071 L6.93758131,25.9230071 C6.8446672,25.9230071 6.75175309,25.8830024 6.68981035,25.8129942 C6.62786761,25.742986 6.59689624,25.6529755 6.60722003,25.5629649 L7.20599984,21.2324577 C6.8446672,21.0024307 6.60722003,20.612385 6.60722003,20.1623323 C6.60722003,19.6822761 6.88596236,19.2722281 7.27826637,19.0522023 C7.34020911,17.8820652 7.64992281,16.6219176 8.28999779,15.7518157 L4.85217575,14.7116939 C4.71796648,14.661688 4.62505237,14.541674 4.62505237,14.4016576 C4.62505237,14.2616411 4.71796648,14.1416271 4.85217575,14.0916212 L16.4148204,10.5712089 C16.4561156,10.5612077 16.487087,10.5612077 16.5180583,10.5612077 C16.5490297,10.5612077 16.5800011,10.5612077 16.6212962,10.5712089 L28.1839409,14.0916212 C28.3181502,14.1416271 28.4110643,14.2616411 28.4110643,14.4016576 Z" id="ic-cap" fill="#FFFFFF" fill-rule="evenodd"></path>
        </g>
    </g>
</svg>