<?xml version="1.0" encoding="UTF-8"?>
<svg width="378px" height="264px" viewBox="0 0 378 264" version="1.1" xmlns="http://www.w3.org/2000/svg" xmlns:xlink="http://www.w3.org/1999/xlink">
    <!-- Generator: Sketch 51.2 (57519) - http://www.bohemiancoding.com/sketch -->
    <title>modal-maps</title>
    <desc>Created with Sketch.</desc>
    <defs>
        <filter x="-31.5%" y="-97.6%" width="163.0%" height="295.2%" filterUnits="objectBoundingBox" id="filter-1">
            <feGaussianBlur stdDeviation="1.82208626" in="SourceGraphic"></feGaussianBlur>
        </filter>
    </defs>
    <g id="modal-maps" stroke="none" stroke-width="1" fill="none" fill-rule="evenodd">
        <g id="inner-map-378x264">
            <g id="509" transform="translate(40.000000, 0.000000)">
                <path d="M24.7412746,162.914168 C33.5485831,155.655923 43.2272029,153.959983 52.9529206,153.029801 C66.4841492,151.728484 78.706056,147.833931 89.8070326,139.598524 C100.427611,131.715459 111.085867,123.733738 123.491455,118.551961 C127.560715,116.856022 130.735113,113.576892 130.532592,108.780343 C130.061613,97.2376194 136.311506,89.4391165 145.363723,84.219757 C158.810176,76.472931 164.005075,65.4234859 164.377148,50.1835199 C164.909355,28.3665034 190.134993,15.611723 208.809313,27.2765921 C221.860143,35.427437 234.421155,44.3722259 247.12346,53.0774222 C252.351328,56.6619148 254.894615,61.9047638 257.070538,67.8945778 C269.009858,100.878487 276.328872,135.826115 298.285916,165.173855 C288.357678,171.863655 280.035478,179.972219 272.575169,189.006268 C270.323889,191.735744 266.824515,192.773978 263.621857,194.028316 C256.712594,196.724906 249.619649,199.01278 242.842261,201.986547 C229.819689,207.703883 226.626451,219.655324 234.717872,231.235631 C240.977184,240.203909 241.080799,243.830683 235.104075,252.549973 C228.91541,261.579324 224.309234,265.342336 212.991607,262.5236 C196.238882,258.351871 179.782873,253.249959 167.881232,239.1093 C161.598372,231.639649 152.282406,229.624253 142.858115,228.243073 C126.731791,225.880032 111.46265,220.491549 96.8246207,213.519875 C88.5495185,209.58304 80.5570037,206.05962 70.944321,207.793143 C65.3679288,208.80319 60.4509074,206.421358 57.4649001,201.248978 C50.8240953,189.743837 39.4876291,181.719835 33.9442055,169.340886 C32.5218487,166.193298 29.0695722,164.600712 24.7412746,162.914168 Z" id="Shape" stroke="#000000" stroke-width="4.71111111" fill="#000000" fill-rule="nonzero" opacity="0.15"></path>
                <path d="M0.912109002,140.480458 C9.71941755,133.222213 19.3980374,131.526274 29.1237551,130.596091 C42.6549837,129.294774 54.8816002,125.400221 65.977867,117.164814 C76.598445,109.281749 87.2567013,101.300028 99.6622899,96.1182517 C103.731549,94.4223122 106.905948,91.1431827 106.703427,86.3466336 C106.232448,74.8039097 112.48234,67.0054068 121.534558,61.7860473 C134.98101,54.0392213 140.175909,42.9897762 140.547983,27.7498102 C141.080189,5.93279366 166.305828,-6.82198671 184.980148,4.84288241 C198.030978,12.9937273 210.591989,21.9385162 223.294295,30.6437125 C228.522162,34.2282051 231.065449,39.4710541 233.241373,45.4608681 C245.180692,78.4447771 252.499707,113.392405 274.456751,142.740145 C264.528512,149.429945 256.206312,157.538509 248.746004,166.572558 C246.494724,169.302034 242.995349,170.340268 239.792692,171.594606 C232.883429,174.291197 225.790484,176.579071 219.013095,179.552837 C205.990524,185.270173 202.797286,197.221614 210.888706,208.801921 C217.148018,217.770199 217.251633,221.396973 211.274909,230.116263 C205.086244,239.145614 200.480069,242.908626 189.162442,240.08989 C172.409716,235.918161 155.953708,230.816249 144.052067,216.67559 C137.769206,209.20594 128.45324,207.190544 119.028949,205.809363 C102.902626,203.446323 87.6334845,198.057839 72.9954551,191.086165 C64.7203529,187.149331 56.7278382,183.625911 47.1151554,185.359433 C41.5387633,186.36948 36.617032,183.987648 33.6357345,178.815268 C26.9949297,167.310127 15.6584636,159.286125 10.11504,146.907176 C8.69268318,143.759588 5.24040662,142.167002 0.912109002,140.480458 Z" id="Shape" stroke="#FFFFFF" stroke-width="4.71111111" fill="#EAC7A3"></path>
            </g>
        </g>
        <g id="ic-section-info" transform="translate(173.000000, 75.000000)">
            <ellipse id="shadow" fill-opacity="0.5" fill="#4A4A4A" fill-rule="nonzero" style="mix-blend-mode: multiply;" filter="url(#filter-1)" cx="16.7658148" cy="45.3652597" rx="8.67197319" ry="2.80032468"></ellipse>
            <path d="M32.3753666,15.7112953 C32.3753666,17.1322989 32.1540506,19.0159547 31.1301602,20.54554 L19.9233025,43.5082023 C19.1596408,45.1180436 17.7052786,45.9253247 16.1876833,45.9253247 C14.670088,45.9253247 13.2157258,45.1180436 12.4520641,43.5082023 L1.24520641,20.54554 C0.221315982,19.0159547 0,17.1322989 0,15.7112953 C0,6.84693968 7.24019428,0 16.1876833,0 C25.1351723,0 32.3753666,6.84693968 32.3753666,15.7112953 Z" id="ic-map-marker" fill="#E0342B" fill-rule="evenodd"></path>
            <path d="M22.9394557,17.6420371 L23.1252839,20.8024073 C23.2078742,22.2125725 20.1623562,23.3627072 16.5180583,23.3627072 C12.8737605,23.3627072 9.82824248,22.2125725 9.9108328,20.8024073 L10.096661,17.6420371 L16.0225164,19.4522491 C16.1876971,19.502255 16.3528777,19.5222573 16.5180583,19.5222573 C16.683239,19.5222573 16.8484196,19.502255 17.0136003,19.4522491 L22.9394557,17.6420371 Z M28.4110643,14.4016576 C28.4110643,14.541674 28.3181502,14.661688 28.1839409,14.7116939 L16.6212962,18.2321062 C16.5800011,18.2421074 16.5490297,18.2421074 16.5180583,18.2421074 C16.487087,18.2421074 16.4561156,18.2421074 16.4148204,18.2321062 L9.68370942,16.1718649 C9.0952534,16.6219176 8.6823018,17.7220465 8.59971148,19.0722046 C8.9920155,19.2922304 9.25011025,19.6922773 9.25011025,20.1623323 C9.25011025,20.612385 9.01266308,21.0024307 8.65133043,21.2324577 L9.25011025,25.5629649 C9.26043404,25.6529755 9.22946267,25.742986 9.16751993,25.8129942 C9.10557719,25.8830024 9.01266308,25.9230071 8.91974897,25.9230071 L6.93758131,25.9230071 C6.8446672,25.9230071 6.75175309,25.8830024 6.68981035,25.8129942 C6.62786761,25.742986 6.59689624,25.6529755 6.60722003,25.5629649 L7.20599984,21.2324577 C6.8446672,21.0024307 6.60722003,20.612385 6.60722003,20.1623323 C6.60722003,19.6822761 6.88596236,19.2722281 7.27826637,19.0522023 C7.34020911,17.8820652 7.64992281,16.6219176 8.28999779,15.7518157 L4.85217575,14.7116939 C4.71796648,14.661688 4.62505237,14.541674 4.62505237,14.4016576 C4.62505237,14.2616411 4.71796648,14.1416271 4.85217575,14.0916212 L16.4148204,10.5712089 C16.4561156,10.5612077 16.487087,10.5612077 16.5180583,10.5612077 C16.5490297,10.5612077 16.5800011,10.5612077 16.6212962,10.5712089 L28.1839409,14.0916212 C28.3181502,14.1416271 28.4110643,14.2616411 28.4110643,14.4016576 Z" id="ic-cap" fill="#FFFFFF" fill-rule="evenodd"></path>
        </g>
    </g>
</svg>