<?xml version="1.0" encoding="UTF-8"?>
<svg width="378px" height="264px" viewBox="0 0 378 264" version="1.1" xmlns="http://www.w3.org/2000/svg" xmlns:xlink="http://www.w3.org/1999/xlink">
    <!-- Generator: Sketch 51.2 (57519) - http://www.bohemiancoding.com/sketch -->
    <title>modal-maps</title>
    <desc>Created with Sketch.</desc>
    <defs>
        <filter x="-31.5%" y="-97.6%" width="163.0%" height="295.2%" filterUnits="objectBoundingBox" id="filter-1">
            <feGaussianBlur stdDeviation="1.82208626" in="SourceGraphic"></feGaussianBlur>
        </filter>
    </defs>
    <g id="modal-maps" stroke="none" stroke-width="1" fill="none" fill-rule="evenodd">
        <g id="inner-map-378x264">
            <g id="511" transform="translate(45.000000, 1.000000)">
                <path d="M252.684401,55.3786741 C251.505196,57.5474689 250.787847,58.8742035 249.701995,60.8618574 C256.207276,62.6536834 262.57007,64.0734362 268.716675,66.1492127 C289.244668,73.0766273 293.5242,88.6253685 279.609581,105.231581 C277.65898,107.561934 275.693638,109.9902 273.335228,111.860358 C254.924891,126.429959 254.266501,146.203689 256.978673,166.917393 C258.054697,175.176437 258.207011,183.420795 258.113657,191.723901 C258.020304,200.110234 255.111598,207.350974 250.080324,213.896524 C235.438529,232.97996 235.443442,232.97996 234.509905,256.856285 C222.280567,255.177061 210.709618,259.274761 198.779995,261.091065 C192.775876,262.006561 187.489107,259.255178 182.374305,256.205157 C162.539095,244.372252 142.546658,240.690686 121.325882,253.605541 C108.349714,261.497408 89.1041064,257.801155 78.8646767,246.800519 C77.0860425,244.881405 76.7322811,242.467825 76.245859,239.98081 C72.9096916,223.232622 65.7067147,218.425045 49.8808014,224.099161 C40.7026561,227.389071 34.6150105,222.473789 27.3923802,219.325854 C28.2079969,215.610018 31.4262438,213.950376 33.5144192,211.527005 C45.0804546,198.08831 46.1613924,184.032757 36.4182115,169.164519 C35.356927,167.548938 34.1728087,166.006792 33.0083438,164.464647 C19.3295662,146.389725 20.3761106,135.57023 37.2289149,120.03128 C42.9284055,114.778194 48.7605567,109.627919 54.1013725,104.022343 C62.5867349,95.1317529 65.37752,84.6745391 61.8153383,72.6555972 C60.6410467,68.7096635 59.6092424,64.5874846 59.4618417,60.5093671 C59.117907,51.2222254 59.3537479,41.9155009 59.3537479,32.8829356 C62.3214138,30.8316376 63.726633,32.7262732 65.3529532,34.2733142 C71.2391513,39.8837857 75.1403544,46.9678626 79.6901202,53.5525783 C84.7852683,60.9303972 91.4379496,63.7747985 100.390081,62.7173275 C118.068328,60.6464466 131.845373,53.9246514 136.331265,35.0272519 C138.065679,27.7424513 142.497524,24.8246145 150.172183,24.9323198 C171.348739,25.2260618 192.09292,28.8195051 212.886234,32.143685 C219.622442,33.2207388 223.88232,38.3514318 228.574573,42.5568375 C235.237081,48.5540692 242.027336,54.1351665 252.684401,55.3786741 Z" id="Shape" stroke="#000000" stroke-width="4.90947368" fill="#000000" fill-rule="nonzero" opacity="0.15"></path>
                <path d="M229.100388,30.4492224 C227.921183,32.6180172 227.203833,33.9447517 226.117982,35.9324057 C232.623263,37.7242316 238.986056,39.1439845 245.132662,41.219761 C265.660655,48.1471756 269.940186,63.6959167 256.025568,80.3021289 C254.074966,82.6324818 252.109625,85.0607487 249.751215,86.9309059 C231.340877,101.500507 230.682488,121.274237 233.394659,141.987941 C234.470684,150.246986 234.622998,158.491343 234.529644,166.794449 C234.43629,175.180782 231.527585,182.421522 226.49631,188.967072 C211.854515,208.050508 211.859429,208.050508 210.925891,231.926834 C198.696553,230.247609 187.125605,234.345309 175.195981,236.161614 C169.191863,237.077109 163.905094,234.325726 158.790292,231.275706 C138.955082,219.4428 118.962645,215.761234 97.7418686,228.676089 C84.7657007,236.567957 65.5200931,232.871704 55.2806633,221.871067 C53.5020292,219.951953 53.1482677,217.538373 52.6618457,215.051358 C49.3256783,198.30317 42.1227013,193.495594 26.2967881,199.169709 C17.1186428,202.459619 11.0309972,197.544337 3.8083668,194.396402 C4.62398356,190.680567 7.84223044,189.020925 9.93040589,186.597553 C21.4964412,173.158859 22.5773791,159.103306 12.8341981,144.235067 C11.7729136,142.619486 10.5887953,141.077341 9.42433042,139.535195 C-4.25444712,121.460273 -3.20790272,110.640778 13.6449015,95.1018281 C19.3443922,89.8487427 25.1765434,84.698467 30.5173592,79.0928912 C39.0027215,70.2023012 41.7935066,59.7450873 38.2313249,47.7261454 C37.0570333,43.7802117 36.025229,39.6580329 35.8778284,35.5799153 C35.5338936,26.2927736 35.7697346,16.9860492 35.7697346,7.95348386 C38.7374004,5.90218583 40.1426197,7.79682148 41.7689398,9.34386248 C47.6551379,14.9543339 51.556341,22.0384109 56.1061068,28.6231265 C61.2012549,36.0009455 67.8539362,38.8453468 76.8060672,37.7878757 C94.4843149,35.7169949 108.26136,28.9951997 112.747252,10.0978002 C114.481666,2.81299954 118.913511,-0.104837277 126.58817,0.00286810919 C147.764726,0.296610071 168.508906,3.8900534 189.302221,7.21423326 C196.038429,8.29128712 200.298307,13.42198 204.99056,17.6273858 C211.653068,23.6246175 218.443323,29.2057148 229.100388,30.4492224 Z" id="Shape" stroke="#FFFFFF" stroke-width="4.90947368" fill="#EAC7A3"></path>
            </g>
        </g>
        <g id="ic-section-info" transform="translate(173.000000, 75.000000)">
            <ellipse id="shadow" fill-opacity="0.5" fill="#4A4A4A" fill-rule="nonzero" style="mix-blend-mode: multiply;" filter="url(#filter-1)" cx="16.7658148" cy="45.3652597" rx="8.67197319" ry="2.80032468"></ellipse>
            <path d="M32.3753666,15.7112953 C32.3753666,17.1322989 32.1540506,19.0159547 31.1301602,20.54554 L19.9233025,43.5082023 C19.1596408,45.1180436 17.7052786,45.9253247 16.1876833,45.9253247 C14.670088,45.9253247 13.2157258,45.1180436 12.4520641,43.5082023 L1.24520641,20.54554 C0.221315982,19.0159547 0,17.1322989 0,15.7112953 C0,6.84693968 7.24019428,0 16.1876833,0 C25.1351723,0 32.3753666,6.84693968 32.3753666,15.7112953 Z" id="ic-map-marker" fill="#E0342B" fill-rule="evenodd"></path>
            <path d="M22.9394557,17.6420371 L23.1252839,20.8024073 C23.2078742,22.2125725 20.1623562,23.3627072 16.5180583,23.3627072 C12.8737605,23.3627072 9.82824248,22.2125725 9.9108328,20.8024073 L10.096661,17.6420371 L16.0225164,19.4522491 C16.1876971,19.502255 16.3528777,19.5222573 16.5180583,19.5222573 C16.683239,19.5222573 16.8484196,19.502255 17.0136003,19.4522491 L22.9394557,17.6420371 Z M28.4110643,14.4016576 C28.4110643,14.541674 28.3181502,14.661688 28.1839409,14.7116939 L16.6212962,18.2321062 C16.5800011,18.2421074 16.5490297,18.2421074 16.5180583,18.2421074 C16.487087,18.2421074 16.4561156,18.2421074 16.4148204,18.2321062 L9.68370942,16.1718649 C9.0952534,16.6219176 8.6823018,17.7220465 8.59971148,19.0722046 C8.9920155,19.2922304 9.25011025,19.6922773 9.25011025,20.1623323 C9.25011025,20.612385 9.01266308,21.0024307 8.65133043,21.2324577 L9.25011025,25.5629649 C9.26043404,25.6529755 9.22946267,25.742986 9.16751993,25.8129942 C9.10557719,25.8830024 9.01266308,25.9230071 8.91974897,25.9230071 L6.93758131,25.9230071 C6.8446672,25.9230071 6.75175309,25.8830024 6.68981035,25.8129942 C6.62786761,25.742986 6.59689624,25.6529755 6.60722003,25.5629649 L7.20599984,21.2324577 C6.8446672,21.0024307 6.60722003,20.612385 6.60722003,20.1623323 C6.60722003,19.6822761 6.88596236,19.2722281 7.27826637,19.0522023 C7.34020911,17.8820652 7.64992281,16.6219176 8.28999779,15.7518157 L4.85217575,14.7116939 C4.71796648,14.661688 4.62505237,14.541674 4.62505237,14.4016576 C4.62505237,14.2616411 4.71796648,14.1416271 4.85217575,14.0916212 L16.4148204,10.5712089 C16.4561156,10.5612077 16.487087,10.5612077 16.5180583,10.5612077 C16.5490297,10.5612077 16.5800011,10.5612077 16.6212962,10.5712089 L28.1839409,14.0916212 C28.3181502,14.1416271 28.4110643,14.2616411 28.4110643,14.4016576 Z" id="ic-cap" fill="#FFFFFF" fill-rule="evenodd"></path>
        </g>
    </g>
</svg>