<?xml version="1.0" encoding="UTF-8"?>
<svg width="378px" height="264px" viewBox="0 0 378 264" version="1.1" xmlns="http://www.w3.org/2000/svg" xmlns:xlink="http://www.w3.org/1999/xlink">
    <!-- Generator: Sketch 51.2 (57519) - http://www.bohemiancoding.com/sketch -->
    <title>modal-maps</title>
    <desc>Created with Sketch.</desc>
    <defs>
        <filter x="-31.5%" y="-97.6%" width="163.0%" height="295.2%" filterUnits="objectBoundingBox" id="filter-1">
            <feGaussianBlur stdDeviation="1.82208626" in="SourceGraphic"></feGaussianBlur>
        </filter>
    </defs>
    <g id="modal-maps" stroke="none" stroke-width="1" fill="none" fill-rule="evenodd">
        <g id="inner-map-378x264">
            <g id="514" transform="translate(61.000000, 0.000000)">
                <path d="M256.670939,52.2986477 C255.388693,85.4112403 258.531642,118.149842 254.993414,150.787753 C253.055584,168.667403 243.308586,183.137979 232.877081,197.143465 C229.401519,201.813558 227.034667,206.7138 226.610465,212.683273 C226.123597,219.477444 221.780351,224.104384 216.087371,227.25454 C203.414346,234.254885 192.033208,242.530636 181.972879,253.222944 C170.977379,264.902972 141.924385,266.758543 128.089625,258.501972 C124.233246,256.195693 121.31686,253.050333 119.436875,249.027532 C115.406959,240.382585 107.641176,234.101453 104.199358,225.101694 C103.635363,223.615319 102.382039,223.188586 101.017845,222.968027 C87.1975475,220.695312 83.3652709,209.566681 80.2271426,198.615455 C78.2893122,191.802106 75.7441021,186.206624 69.8872267,181.867369 C62.5649272,176.434909 58.0674253,168.542739 53.2565926,160.981407 C45.3992206,148.644497 38.0094346,136.010312 27.6502367,125.39472 C23.2877081,120.911622 22.1789992,116.744978 29.8965774,113.335906 C36.915187,110.238493 41.4753551,104.441631 40.5160808,95.8973741 C40.2509548,93.5239693 39.5519861,90.7142416 42.03453,89.2374564 C44.8882504,87.5401124 47.3418715,89.3525306 49.2218562,91.3807129 C56.018724,98.6879227 64.5895261,101.037354 74.2642167,100.802411 C78.9497171,100.687336 82.7819936,100.131145 83.9581892,94.4589469 C84.7776697,90.5416304 86.9709852,86.9119992 87.8916957,82.9946827 C89.5113748,76.1765381 92.394018,70.6721569 98.3906872,66.3185175 C106.219136,60.6415251 108.451016,52.1260365 108.39317,42.6180332 C108.272658,23.3718782 111.555401,21.1902637 130.326325,26.9535617 C136.226585,28.7659799 141.389312,31.3024064 143.741703,37.64587 C149.135813,52.2027526 160.478388,58.3879893 175.35919,58.9202073 C184.103529,59.2270717 192.606844,60.6319356 201.172826,62.3676376 C210.297982,64.2136191 219.302627,63.6286588 228.379579,60.0613595 C237.152841,56.6187239 246.629892,54.9693274 256.670939,52.2986477 Z" id="Shape" stroke="#000000" stroke-width="4.80824742" fill="#000000" fill-rule="nonzero" opacity="0.15"></path>
                <path d="M232.44251,28.1428577 C231.160264,61.2554503 234.303213,93.9940518 230.764985,126.631963 C228.827155,144.511613 219.080157,158.982189 208.648652,172.987675 C205.173091,177.657768 202.806238,182.55801 202.382037,188.527483 C201.895169,195.321654 197.551922,199.948594 191.858943,203.09875 C179.185917,210.099095 167.804779,218.374846 157.744451,229.067154 C146.74895,240.747182 117.695956,242.602753 103.861197,234.346182 C100.004818,232.039903 97.0884311,228.894543 95.2084464,224.871742 C91.1785305,216.226795 83.4127475,209.945663 79.9709293,200.945904 C79.4069339,199.459529 78.1536107,199.032796 76.7845962,198.812237 C62.9642983,196.539522 59.1320218,185.410891 55.9987139,174.459665 C54.0560631,167.646316 51.510853,162.050834 45.6539775,157.711579 C38.3316781,152.279119 33.8341762,144.386949 29.0233435,136.825617 C21.1659715,124.488707 13.7761854,111.854522 3.4169876,101.23893 C-0.945541029,96.7558318 -2.05424996,92.5891879 5.66332831,89.1801156 C12.6819379,86.0827025 17.242106,80.2858412 16.2828317,71.7415841 C16.0177057,69.3681793 15.318737,66.5584516 17.8012809,65.0816664 C20.6550013,63.3843224 23.1086224,65.1967406 24.9886071,67.2249229 C31.7854749,74.5321327 40.356277,76.8815637 50.0309676,76.6466206 C54.716468,76.5315464 58.553565,75.9753546 59.7297605,70.3031569 C60.5444206,66.3858404 62.7377361,62.7562092 63.663267,58.8388927 C65.2781257,52.0207481 68.1607689,46.5163669 74.1574381,42.1627275 C81.9907077,36.4857351 84.2177666,27.9702465 84.1647413,18.4622432 C84.0442295,-0.783911848 87.326972,-2.96552633 106.097896,2.79777171 C111.998156,4.61018989 117.160883,7.1466164 119.513274,13.49008 C124.907384,28.0469626 136.249959,34.2321993 151.130761,34.7644173 C159.8751,35.0712817 168.378416,36.4761456 176.944397,38.2118477 C186.069554,40.0578291 195.074199,39.4728688 204.15115,35.9055695 C212.924412,32.4629339 222.401464,30.8135374 232.44251,28.1428577 Z" id="Shape" stroke="#FFFFFF" stroke-width="4.80824742" fill="#EAC7A3"></path>
            </g>
        </g>
        <g id="ic-section-info" transform="translate(173.000000, 75.000000)">
            <ellipse id="shadow" fill-opacity="0.5" fill="#4A4A4A" fill-rule="nonzero" style="mix-blend-mode: multiply;" filter="url(#filter-1)" cx="16.7658148" cy="45.3652597" rx="8.67197319" ry="2.80032468"></ellipse>
            <path d="M32.3753666,15.7112953 C32.3753666,17.1322989 32.1540506,19.0159547 31.1301602,20.54554 L19.9233025,43.5082023 C19.1596408,45.1180436 17.7052786,45.9253247 16.1876833,45.9253247 C14.670088,45.9253247 13.2157258,45.1180436 12.4520641,43.5082023 L1.24520641,20.54554 C0.221315982,19.0159547 0,17.1322989 0,15.7112953 C0,6.84693968 7.24019428,0 16.1876833,0 C25.1351723,0 32.3753666,6.84693968 32.3753666,15.7112953 Z" id="ic-map-marker" fill="#E0342B" fill-rule="evenodd"></path>
            <path d="M22.9394557,17.6420371 L23.1252839,20.8024073 C23.2078742,22.2125725 20.1623562,23.3627072 16.5180583,23.3627072 C12.8737605,23.3627072 9.82824248,22.2125725 9.9108328,20.8024073 L10.096661,17.6420371 L16.0225164,19.4522491 C16.1876971,19.502255 16.3528777,19.5222573 16.5180583,19.5222573 C16.683239,19.5222573 16.8484196,19.502255 17.0136003,19.4522491 L22.9394557,17.6420371 Z M28.4110643,14.4016576 C28.4110643,14.541674 28.3181502,14.661688 28.1839409,14.7116939 L16.6212962,18.2321062 C16.5800011,18.2421074 16.5490297,18.2421074 16.5180583,18.2421074 C16.487087,18.2421074 16.4561156,18.2421074 16.4148204,18.2321062 L9.68370942,16.1718649 C9.0952534,16.6219176 8.6823018,17.7220465 8.59971148,19.0722046 C8.9920155,19.2922304 9.25011025,19.6922773 9.25011025,20.1623323 C9.25011025,20.612385 9.01266308,21.0024307 8.65133043,21.2324577 L9.25011025,25.5629649 C9.26043404,25.6529755 9.22946267,25.742986 9.16751993,25.8129942 C9.10557719,25.8830024 9.01266308,25.9230071 8.91974897,25.9230071 L6.93758131,25.9230071 C6.8446672,25.9230071 6.75175309,25.8830024 6.68981035,25.8129942 C6.62786761,25.742986 6.59689624,25.6529755 6.60722003,25.5629649 L7.20599984,21.2324577 C6.8446672,21.0024307 6.60722003,20.612385 6.60722003,20.1623323 C6.60722003,19.6822761 6.88596236,19.2722281 7.27826637,19.0522023 C7.34020911,17.8820652 7.64992281,16.6219176 8.28999779,15.7518157 L4.85217575,14.7116939 C4.71796648,14.661688 4.62505237,14.541674 4.62505237,14.4016576 C4.62505237,14.2616411 4.71796648,14.1416271 4.85217575,14.0916212 L16.4148204,10.5712089 C16.4561156,10.5612077 16.487087,10.5612077 16.5180583,10.5612077 C16.5490297,10.5612077 16.5800011,10.5612077 16.6212962,10.5712089 L28.1839409,14.0916212 C28.3181502,14.1416271 28.4110643,14.2616411 28.4110643,14.4016576 Z" id="ic-cap" fill="#FFFFFF" fill-rule="evenodd"></path>
        </g>
    </g>
</svg>