<?xml version="1.0" encoding="UTF-8"?>
<svg width="378px" height="264px" viewBox="0 0 378 264" version="1.1" xmlns="http://www.w3.org/2000/svg" xmlns:xlink="http://www.w3.org/1999/xlink">
    <!-- Generator: Sketch 51.2 (57519) - http://www.bohemiancoding.com/sketch -->
    <title>modal-maps</title>
    <desc>Created with Sketch.</desc>
    <defs>
        <filter x="-31.5%" y="-97.6%" width="163.0%" height="295.2%" filterUnits="objectBoundingBox" id="filter-1">
            <feGaussianBlur stdDeviation="1.82208626" in="SourceGraphic"></feGaussianBlur>
        </filter>
    </defs>
    <g id="modal-maps" stroke="none" stroke-width="1" fill="none" fill-rule="evenodd">
        <g id="inner-map-378x264">
            <g id="504" transform="translate(118.000000, 1.000000)">
                <path d="M122.204832,160.748412 C121.917353,157.964754 120.677388,155.480821 118.9733,153.344845 C110.785369,143.019815 109.943716,131.327072 112.222759,118.990091 C113.338036,112.943902 113.182174,107.035518 110.563699,101.289055 C109.611211,99.1909761 108.634478,96.7966165 108.738386,94.5882934 C108.984301,89.286251 105.80126,87.784178 101.592996,87.7531719 C97.5059569,87.7256109 93.4293091,88.4800926 89.3353434,88.7970438 C84.7564747,89.1553364 79.8832008,89.3379279 77.2023805,84.8937208 C74.5423419,80.4839649 76.4750262,76.0018615 79.4433246,72.4947275 C83.8039869,67.3546059 82.8999894,62.6416793 79.5576231,57.6049113 C75.4671209,51.4415884 71.4043275,45.2541497 67.5216409,38.9564671 C64.9204833,34.7430832 63.5523644,30.0921688 63.6770537,25.0726264 C63.6839809,24.7143337 63.6874445,24.3491508 63.7116896,23.9943033 L63.7982794,21.3760107 C63.5246557,21.3656754 63.2614227,21.3691205 62.9947261,21.3587851 C57.0269571,21.0900656 51.2843215,20.731773 46.2066956,16.6355232 C43.7163729,18.9885414 41.8529604,21.3897912 39.4215188,22.8746387 C36.7891889,24.4835106 35.1959366,27.1190287 32.2899829,28.5005226 C24.3652843,32.2694858 23.5097771,35.35976 25.9585367,43.9518937 C28.8437088,54.0736615 28.9580074,64.0714048 21.6359738,72.6600934 C17.9611027,76.9596054 17.7844595,81.3452454 19.8418332,86.171861 C21.3658137,89.7444522 22.9902383,93.2688118 24.597345,96.8035067 C26.5785196,101.175366 27.47559,105.688476 26.40534,110.439299 C25.0580028,116.433811 26.2044517,121.939115 29.0480608,127.337621 C31.9366965,132.829145 35.0747109,138.265547 36.1692059,144.511553 C37.263701,150.767894 35.2201817,154.574754 29.4775462,157.048351 C28.5804758,157.434205 27.6903327,157.840729 26.8313619,158.305821 C21.0852627,161.444326 20.7700758,163.335698 25.2865998,167.886704 C28.3380244,170.959753 31.9609416,173.261094 35.6565943,175.469417 C46.6638897,182.053045 47.8969285,184.89527 43.8860889,196.832617 C41.8598876,202.85469 41.6589993,208.146397 46.5392004,212.942007 C48.3471955,214.723135 49.3516371,217.138165 50.0443555,219.594537 C53.9235786,233.39225 62.2881533,245.115999 68.0134709,258.059321 C68.6992621,259.613071 69.6898495,261.14615 71.6848785,262.152126 C74.1405652,261.111699 76.6689874,259.268559 79.6927032,259.575175 C86.1384479,260.226303 90.9459137,257.30484 95.323894,253.057005 C101.097702,247.444901 107.401439,242.58728 115.184131,239.944871 C119.188043,238.580603 120.944084,235.583347 121.203854,231.500878 C121.352788,229.171975 121.938135,226.853408 121.917353,224.538287 C121.841154,216.201092 130.025622,212.060056 132.18344,204.68405 C132.623316,203.178532 138.220481,203.181977 141.427767,202.444721 C141.652901,202.393044 141.787981,201.927952 142.082386,201.476641 C141.185316,200.3053 140.274391,199.065056 139.311513,197.852373 C130.600579,186.85899 123.663004,175.059448 122.204832,160.748412 Z" id="Shape" stroke="#000000" stroke-width="3.45481481" fill="#000000" fill-rule="nonzero" opacity="0.15"></path>
                <path d="M104.458091,144.319922 C104.170613,141.536264 102.930647,139.052331 101.22656,136.916356 C93.0386283,126.591326 92.1969754,114.898583 94.476019,102.561602 C95.5912956,96.5154128 95.4354339,90.6104741 92.8169584,84.8605659 C91.8644706,82.7590416 90.8877376,80.3681271 90.9916454,78.159804 C91.2375604,72.8577616 88.0545194,71.3556885 83.8462551,71.3246824 C79.7592165,71.2971215 75.6825687,72.0516031 71.5886029,72.3685543 C67.0097343,72.726847 62.1364603,72.9094384 59.4556401,68.4652314 C56.7956014,64.0554755 58.7282858,59.5733721 61.6965841,56.0662381 C66.0572465,50.9261164 65.153249,46.2131899 61.8108827,41.1764218 C57.7203805,35.013099 53.6575871,28.8256603 49.7749004,22.5279777 C47.1737428,18.3145938 45.805624,13.6636794 45.9303133,8.64413698 C45.9372405,8.28584432 45.940704,7.92066141 45.9649492,7.56581387 L46.051539,4.94752132 C45.7779152,4.93718596 45.5146822,4.94063108 45.2479856,4.93029571 C39.2802166,4.66157622 33.537581,4.30328355 28.4599551,0.207033769 C25.9696325,2.56005194 24.10622,4.96130181 21.6747784,6.44614929 C19.0424485,8.05502116 17.4491961,10.6905393 14.5432424,12.0720331 C6.6185439,15.8409964 5.76303667,18.9312706 8.21179622,27.5234043 C11.0969684,37.645172 11.2112669,47.6429154 3.88923339,56.231604 C0.214362261,60.5311159 0.0377190686,64.9167559 2.09509273,69.7433715 C3.61907321,73.3159628 5.24349787,76.8403224 6.85060456,80.3750173 C8.8317792,84.7468768 9.72884953,89.2634315 8.65859959,94.0108093 C7.3112623,100.005321 8.45771126,105.507181 11.3013203,110.909132 C14.189956,116.400656 17.3279704,121.837058 18.4224655,128.083064 C19.5169606,134.339405 17.4734413,138.146264 11.7308057,140.619862 C10.8337354,141.005715 9.94359223,141.41224 9.08462141,141.877331 C3.33852226,145.015837 3.02333539,146.907209 7.53985937,151.458215 C10.5912839,154.531263 14.2142012,156.832605 17.9098539,159.040928 C28.9171493,165.624555 30.150188,168.466781 26.1393485,180.404128 C24.1131472,186.426201 23.9122588,191.717908 28.79246,196.513517 C30.600455,198.294645 31.6048967,200.709676 32.2976151,203.166047 C36.1768382,216.96376 44.5414129,228.687509 50.2667305,241.630832 C50.9525217,243.184582 51.943109,244.717661 53.938138,245.723637 C56.3938247,244.68321 58.9222469,242.84007 61.9459628,243.146686 C68.3917075,243.797814 73.1991732,240.87635 77.5771535,236.628515 C83.3509614,231.016412 89.6546989,226.15879 97.4373901,223.516382 C101.441303,222.152113 103.197344,219.154858 103.457113,215.072388 C103.606048,212.743486 104.191395,210.424919 104.170613,208.109797 C104.094414,199.772602 112.278882,195.631566 114.4367,188.25556 C114.876576,186.750042 120.473741,186.753487 123.681027,186.016231 C123.90616,185.964554 124.04124,185.499463 124.335646,185.048152 C123.438575,183.876811 122.527651,182.636567 121.564772,181.423884 C112.853838,170.4305 105.916263,158.630958 104.458091,144.319922 Z" id="Shape" stroke="#FFFFFF" stroke-width="3.45481481" fill="#EAC7A3"></path>
            </g>
        </g>
        <g id="ic-section-info" transform="translate(173.000000, 109.000000)">
            <ellipse id="shadow" fill-opacity="0.5" fill="#4A4A4A" fill-rule="nonzero" style="mix-blend-mode: multiply;" filter="url(#filter-1)" cx="16.7658148" cy="45.3652597" rx="8.67197319" ry="2.80032468"></ellipse>
            <path d="M32.3753666,15.7112953 C32.3753666,17.1322989 32.1540506,19.0159547 31.1301602,20.54554 L19.9233025,43.5082023 C19.1596408,45.1180436 17.7052786,45.9253247 16.1876833,45.9253247 C14.670088,45.9253247 13.2157258,45.1180436 12.4520641,43.5082023 L1.24520641,20.54554 C0.221315982,19.0159547 0,17.1322989 0,15.7112953 C0,6.84693968 7.24019428,0 16.1876833,0 C25.1351723,0 32.3753666,6.84693968 32.3753666,15.7112953 Z" id="ic-map-marker" fill="#E0342B" fill-rule="evenodd"></path>
            <path d="M22.9394557,17.6420371 L23.1252839,20.8024073 C23.2078742,22.2125725 20.1623562,23.3627072 16.5180583,23.3627072 C12.8737605,23.3627072 9.82824248,22.2125725 9.9108328,20.8024073 L10.096661,17.6420371 L16.0225164,19.4522491 C16.1876971,19.502255 16.3528777,19.5222573 16.5180583,19.5222573 C16.683239,19.5222573 16.8484196,19.502255 17.0136003,19.4522491 L22.9394557,17.6420371 Z M28.4110643,14.4016576 C28.4110643,14.541674 28.3181502,14.661688 28.1839409,14.7116939 L16.6212962,18.2321062 C16.5800011,18.2421074 16.5490297,18.2421074 16.5180583,18.2421074 C16.487087,18.2421074 16.4561156,18.2421074 16.4148204,18.2321062 L9.68370942,16.1718649 C9.0952534,16.6219176 8.6823018,17.7220465 8.59971148,19.0722046 C8.9920155,19.2922304 9.25011025,19.6922773 9.25011025,20.1623323 C9.25011025,20.612385 9.01266308,21.0024307 8.65133043,21.2324577 L9.25011025,25.5629649 C9.26043404,25.6529755 9.22946267,25.742986 9.16751993,25.8129942 C9.10557719,25.8830024 9.01266308,25.9230071 8.91974897,25.9230071 L6.93758131,25.9230071 C6.8446672,25.9230071 6.75175309,25.8830024 6.68981035,25.8129942 C6.62786761,25.742986 6.59689624,25.6529755 6.60722003,25.5629649 L7.20599984,21.2324577 C6.8446672,21.0024307 6.60722003,20.612385 6.60722003,20.1623323 C6.60722003,19.6822761 6.88596236,19.2722281 7.27826637,19.0522023 C7.34020911,17.8820652 7.64992281,16.6219176 8.28999779,15.7518157 L4.85217575,14.7116939 C4.71796648,14.661688 4.62505237,14.541674 4.62505237,14.4016576 C4.62505237,14.2616411 4.71796648,14.1416271 4.85217575,14.0916212 L16.4148204,10.5712089 C16.4561156,10.5612077 16.487087,10.5612077 16.5180583,10.5612077 C16.5490297,10.5612077 16.5800011,10.5612077 16.6212962,10.5712089 L28.1839409,14.0916212 C28.3181502,14.1416271 28.4110643,14.2616411 28.4110643,14.4016576 Z" id="ic-cap" fill="#FFFFFF" fill-rule="evenodd"></path>
        </g>
    </g>
</svg>