<?xml version="1.0" encoding="UTF-8"?>
<svg width="378px" height="264px" viewBox="0 0 378 264" version="1.1" xmlns="http://www.w3.org/2000/svg" xmlns:xlink="http://www.w3.org/1999/xlink">
    <!-- Generator: Sketch 51.2 (57519) - http://www.bohemiancoding.com/sketch -->
    <title>modal-maps</title>
    <desc>Created with Sketch.</desc>
    <defs>
        <filter x="-31.5%" y="-97.6%" width="163.0%" height="295.2%" filterUnits="objectBoundingBox" id="filter-1">
            <feGaussianBlur stdDeviation="1.82208626" in="SourceGraphic"></feGaussianBlur>
        </filter>
    </defs>
    <g id="modal-maps" stroke="none" stroke-width="1" fill="none" fill-rule="evenodd">
        <g id="inner-map-378x264">
            <g id="523" transform="translate(110.000000, 0.000000)">
                <path d="M158.370821,169.60948 C154.25964,169.216871 150.069862,168.76386 145.877062,168.422591 C139.649831,167.921259 133.915338,169.132309 129.547208,173.967448 C126.666358,177.153626 123.123487,177.232148 119.245071,177.041883 C107.419379,176.449949 104.502254,179.240497 104.109273,191.260393 C104.006493,194.349929 103.979287,197.427385 102.416434,200.205853 C101.409799,201.987697 100.366889,204.047387 97.8094921,203.461493 C95.4364941,202.91486 93.2358029,201.909175 92.939556,198.967622 C92.5344837,194.923743 91.3162439,191.384216 86.4191014,191.393276 C82.1930488,191.396296 78.9252642,195.391854 78.5504212,200.631683 C78.2904494,204.243692 78.765049,207.876842 80.0709537,211.186843 C82.3895391,217.057867 80.5757826,221.358453 76.0051162,225.139586 C72.3352823,228.174761 68.6049898,231.140474 65.9599282,235.265895 C62.4412407,240.73827 62.510768,246.896201 62.0150079,252.984671 C61.7006234,256.850366 62.1449938,262.090195 58.133569,263.313325 C53.6596363,264.675378 52.0091179,259.320787 49.9807336,256.258431 C47.1815027,252.036368 43.2879722,248.303556 44.3822719,242.133544 C44.9777886,238.772201 42.0153197,235.87293 39.6302299,233.42365 C37.3721031,231.107253 34.9749216,228.884478 32.4084562,226.91841 C21.1964182,218.317238 18.7297093,206.771494 20.9031942,193.60095 C21.411046,190.529535 21.82821,187.391678 20.159554,184.610189 C14.1681118,174.631864 15.4468101,163.937781 17.0308241,153.270879 C17.5386759,149.843094 18.0435048,146.542153 16.6650499,142.963365 C29.0892818,135.884311 24.8934585,124.154342 24.663716,113.653544 C24.5730281,109.446581 22.6262629,105.438942 21.160143,101.431304 C17.5175154,91.4559982 17.8711979,81.8793427 23.702425,72.5624135 C28.4000543,65.0665892 32.5263503,57.2143961 34.5970557,48.4622208 C35.5734612,44.321699 34.7300645,40.8093526 32.0789571,37.4993512 C27.9405694,32.328984 27.6564142,27.0951953 30.9755885,22.0093902 C34.2947629,16.9296253 39.9143851,15.0541592 46.1869596,16.7061398 C50.2920951,17.7933665 54.4395516,18.9198542 58.6414208,19.4483672 C62.9339778,19.9889605 67.3988417,20.0221813 69.1219104,14.9877175 C72.6224604,14.9786573 74.13997,16.7907019 75.9567494,19.0919985 C80.4911406,24.8391998 83.1664314,31.9122138 88.728618,36.880236 C89.9891788,38.0006835 89.8924451,39.2449541 89.6596797,40.5919072 C89.4571435,41.760676 89.2787908,42.9777659 88.8041912,44.0498923 C82.6948548,57.863712 87.9880008,68.2346471 98.940067,76.606293 C105.941167,81.9578646 111.983999,88.0402942 116.593963,95.5693394 C118.664669,98.9548427 121.947568,100.504141 125.835053,101.343721 C138.555532,104.082929 138.504142,104.176551 138.546463,117.220252 C138.570646,124.211724 138.507165,131.218296 138.872939,138.194668 C139.26592,145.681432 142.433948,151.31387 149.76757,154.638972 C157.702754,158.244941 160.096913,162.920016 158.370821,169.60948 Z" id="Shape" stroke="#000000" stroke-width="3.02857143" fill="#000000" fill-rule="nonzero" opacity="0.15"></path>
                <path d="M142.660521,154.621797 C138.549339,154.229187 134.359562,153.776176 130.166761,153.434908 C123.939531,152.933575 118.205037,154.144625 113.836907,158.979764 C110.956057,162.165942 107.413186,162.244464 103.53477,162.054199 C91.709078,161.462265 88.791953,164.252814 88.3989724,176.272709 C88.2961929,179.362245 88.2689865,182.439701 86.706133,185.218169 C85.6994982,187.000013 84.6565882,189.059704 82.0991915,188.473809 C79.7261935,187.927176 77.5255023,186.921491 77.2292554,183.979939 C76.8241831,179.936059 75.6059433,176.396532 70.7088008,176.405592 C66.4827482,176.408613 63.2149636,180.404171 62.8401206,185.644 C62.5801488,189.256009 63.0547484,192.889158 64.3606531,196.199159 C66.6792385,202.070184 64.865482,206.370769 60.2948156,210.151902 C56.6249817,213.187077 52.8946892,216.15279 50.2466047,220.278211 C46.73094,225.750586 46.8004674,231.908518 46.3047073,237.996987 C45.9903228,241.862682 46.4316702,247.102511 42.4232684,248.325641 C37.9493357,249.687695 36.2988173,244.333103 34.270433,241.270748 C31.4712021,237.048684 27.5776715,233.315872 28.6719713,227.14586 C29.267488,223.784518 26.3050191,220.885246 23.9199293,218.435966 C21.6618025,216.119569 19.264621,213.896795 16.6981556,211.930726 C5.48611754,203.329555 3.01940872,191.783811 5.19289358,178.613267 C5.70074539,175.541851 6.11790939,172.403994 4.44925342,169.622506 C-1.54218884,159.64418 -0.263490519,148.950097 1.32052348,138.283195 C1.8283753,134.855411 2.33320418,131.554469 0.954749255,127.975681 C13.3789812,120.896627 9.18315785,109.166659 8.95341536,98.6658605 C8.86272754,94.458897 6.91596224,90.4512584 5.44984241,86.4436199 C1.8072148,76.4683145 2.16089732,66.891659 7.99212442,57.5747299 C12.6897537,50.0789055 16.8160497,42.2267124 18.8867551,33.4745371 C19.8631606,29.3340153 19.0197639,25.8216689 16.3686565,22.5116675 C12.2302687,17.3413003 11.9461136,12.1075116 15.2652879,7.02170652 C18.5844623,1.94194159 24.2040845,0.0664754614 30.476659,1.71845609 C34.5817945,2.80568283 38.729251,3.93217054 42.9311202,4.46068354 C47.2236772,5.00127683 51.6885411,5.03449765 53.4116098,3.38273308e-05 C56.9121598,-0.0090263955 58.4326923,1.80301817 60.2464488,4.10431477 C64.78084,9.85151612 67.4561308,16.9245301 73.0183174,21.8925523 C74.2788781,23.0129998 74.1821445,24.2572704 73.9493791,25.6042236 C73.7468429,26.7729923 73.5684902,27.9900822 73.0938906,29.0622086 C66.9845541,42.8760283 72.2777002,53.2469634 83.2297664,61.6186093 C90.2308664,66.9701809 96.2736985,73.0526105 100.883663,80.5816557 C102.954368,83.967159 106.237267,85.5164571 110.124752,86.3560377 C122.845231,89.0952451 122.793841,89.1888674 122.836162,102.232568 C122.860346,109.22404 122.796864,116.230612 123.162638,123.206984 C123.555619,130.693748 126.723647,136.326187 134.057269,139.651288 C141.992454,143.257257 144.386612,147.932332 142.660521,154.621797 Z" id="Shape" stroke="#FFFFFF" stroke-width="3.02857143" fill="#EAC7A3"></path>
            </g>
        </g>
        <g id="ic-section-info" transform="translate(173.000000, 75.000000)">
            <ellipse id="shadow" fill-opacity="0.5" fill="#4A4A4A" fill-rule="nonzero" style="mix-blend-mode: multiply;" filter="url(#filter-1)" cx="16.7658148" cy="45.3652597" rx="8.67197319" ry="2.80032468"></ellipse>
            <path d="M32.3753666,15.7112953 C32.3753666,17.1322989 32.1540506,19.0159547 31.1301602,20.54554 L19.9233025,43.5082023 C19.1596408,45.1180436 17.7052786,45.9253247 16.1876833,45.9253247 C14.670088,45.9253247 13.2157258,45.1180436 12.4520641,43.5082023 L1.24520641,20.54554 C0.221315982,19.0159547 0,17.1322989 0,15.7112953 C0,6.84693968 7.24019428,0 16.1876833,0 C25.1351723,0 32.3753666,6.84693968 32.3753666,15.7112953 Z" id="ic-map-marker" fill="#E0342B" fill-rule="evenodd"></path>
            <path d="M22.9394557,17.6420371 L23.1252839,20.8024073 C23.2078742,22.2125725 20.1623562,23.3627072 16.5180583,23.3627072 C12.8737605,23.3627072 9.82824248,22.2125725 9.9108328,20.8024073 L10.096661,17.6420371 L16.0225164,19.4522491 C16.1876971,19.502255 16.3528777,19.5222573 16.5180583,19.5222573 C16.683239,19.5222573 16.8484196,19.502255 17.0136003,19.4522491 L22.9394557,17.6420371 Z M28.4110643,14.4016576 C28.4110643,14.541674 28.3181502,14.661688 28.1839409,14.7116939 L16.6212962,18.2321062 C16.5800011,18.2421074 16.5490297,18.2421074 16.5180583,18.2421074 C16.487087,18.2421074 16.4561156,18.2421074 16.4148204,18.2321062 L9.68370942,16.1718649 C9.0952534,16.6219176 8.6823018,17.7220465 8.59971148,19.0722046 C8.9920155,19.2922304 9.25011025,19.6922773 9.25011025,20.1623323 C9.25011025,20.612385 9.01266308,21.0024307 8.65133043,21.2324577 L9.25011025,25.5629649 C9.26043404,25.6529755 9.22946267,25.742986 9.16751993,25.8129942 C9.10557719,25.8830024 9.01266308,25.9230071 8.91974897,25.9230071 L6.93758131,25.9230071 C6.8446672,25.9230071 6.75175309,25.8830024 6.68981035,25.8129942 C6.62786761,25.742986 6.59689624,25.6529755 6.60722003,25.5629649 L7.20599984,21.2324577 C6.8446672,21.0024307 6.60722003,20.612385 6.60722003,20.1623323 C6.60722003,19.6822761 6.88596236,19.2722281 7.27826637,19.0522023 C7.34020911,17.8820652 7.64992281,16.6219176 8.28999779,15.7518157 L4.85217575,14.7116939 C4.71796648,14.661688 4.62505237,14.541674 4.62505237,14.4016576 C4.62505237,14.2616411 4.71796648,14.1416271 4.85217575,14.0916212 L16.4148204,10.5712089 C16.4561156,10.5612077 16.487087,10.5612077 16.5180583,10.5612077 C16.5490297,10.5612077 16.5800011,10.5612077 16.6212962,10.5712089 L28.1839409,14.0916212 C28.3181502,14.1416271 28.4110643,14.2616411 28.4110643,14.4016576 Z" id="ic-cap" fill="#FFFFFF" fill-rule="evenodd"></path>
        </g>
    </g>
</svg>