<?xml version="1.0" encoding="UTF-8"?>
<svg width="378px" height="264px" viewBox="0 0 378 264" version="1.1" xmlns="http://www.w3.org/2000/svg" xmlns:xlink="http://www.w3.org/1999/xlink">
    <!-- Generator: Sketch 51.2 (57519) - http://www.bohemiancoding.com/sketch -->
    <title>modal-maps</title>
    <desc>Created with Sketch.</desc>
    <defs>
        <filter x="-31.5%" y="-97.6%" width="163.0%" height="295.2%" filterUnits="objectBoundingBox" id="filter-1">
            <feGaussianBlur stdDeviation="1.82208626" in="SourceGraphic"></feGaussianBlur>
        </filter>
    </defs>
    <g id="modal-maps" stroke="none" stroke-width="1" fill="none" fill-rule="evenodd">
        <g id="inner-map-info">
            <g id="508" transform="translate(88.000000, 1.000000)">
                <path d="M19.8062977,198.125405 C37.2780665,164.474025 54.4296239,131.467181 71.5443754,98.4383649 C72.4277174,96.7281468 73.6202291,95.508655 75.1881612,94.3843789 C79.4686894,91.3155078 82.8769173,87.3933588 85.1846483,82.6728638 C88.1033575,76.6925935 88.4603749,71.1151584 83.6903281,65.4278592 C77.3045014,57.8032893 79.0233378,51.8633026 88.0371069,47.8166408 C88.6075986,47.5602912 89.144965,47.2014018 89.7338596,47.0402677 C102.380373,43.5099673 113.536246,37.7164661 121.662993,26.9900659 C124.055377,23.8296414 127.574023,21.8337766 131.335588,19.4057795 C139.889283,29.2276318 143.010425,40.4008128 140.772625,53.1706856 C138.994899,63.3294545 136.208691,73.4113185 138.295587,83.8777069 C140.846237,96.6842011 148.450339,106.835646 156.109651,116.891875 C168.711997,133.433749 183.195125,148.269067 198.686736,162.115608 C202.139131,165.199128 202.065519,167.989677 199.665773,171.201371 C198.061035,173.340059 196.235462,175.390856 194.225858,177.156006 C183.758256,186.325998 178.042297,197.931311 176.268251,211.539814 C175.815539,215.007858 174.726084,218.018135 171.899389,220.120201 C161.240395,228.03408 150.559318,235.918662 138.354476,241.419192 C134.313186,243.235612 129.992172,244.19143 125.62699,243.678731 C116.477039,242.605724 107.985914,244.348902 101.106888,250.354807 C88.000301,261.795324 72.5565381,263.648365 56.1410991,262.622967 C49.9356214,262.238443 44.9263361,259.891013 41.2935921,254.822615 C34.5213033,245.366976 29.972092,235.164261 29.9500084,223.258653 C29.9316055,213.762731 29.0409023,204.475551 19.8062977,198.125405 Z" id="Shape" stroke="#000000" stroke-width="3.67244094" fill="#000000" fill-rule="nonzero" opacity="0.15"></path>
                <path d="M0.943265119,179.326512 C18.415034,145.675132 35.5665914,112.668288 52.6813429,79.639472 C53.5646849,77.9292539 54.7571966,76.7097621 56.3251287,75.585486 C60.6056568,72.5166149 64.0138847,68.5944658 66.3216157,63.8739708 C69.240325,57.8937006 69.5973424,52.3162655 64.8272955,46.6289662 C58.4414689,39.0043964 60.1603052,33.0644096 69.1740743,29.0177479 C69.744566,28.7613983 70.2819324,28.4025088 70.8708271,28.2413748 C83.5173402,24.7110744 94.6732137,18.9175732 102.79996,8.191173 C105.192345,5.0307485 108.710991,3.03488366 112.472555,0.606886624 C121.02625,10.4287389 124.147392,21.6019198 121.909592,34.3717926 C120.131867,44.5305616 117.345659,54.6124256 119.432554,65.078814 C121.983204,77.8853082 129.587307,88.0367528 137.246618,98.0929819 C149.848964,114.634856 164.332093,129.470174 179.823703,143.316716 C183.276098,146.400235 183.202486,149.190784 180.80274,152.402478 C179.198002,154.541166 177.372429,156.591963 175.362826,158.357114 C164.895223,167.527105 159.179264,179.132418 157.405219,192.740921 C156.952506,196.208965 155.863051,199.219242 153.036357,201.321308 C142.377363,209.235187 131.696286,217.119769 119.491444,222.620299 C115.450154,224.436719 111.129139,225.392537 106.763958,224.879838 C97.6140065,223.806832 89.1228814,225.550009 82.2438555,231.555914 C69.1372684,242.996431 53.6935056,244.849473 37.2780665,243.824074 C31.0725889,243.43955 26.0633036,241.09212 22.4305596,236.023722 C15.6582708,226.568083 11.1090594,216.365369 11.0869759,204.45976 C11.0685729,194.963838 10.1778697,185.676658 0.943265119,179.326512 Z" id="Shape" stroke="#FFFFFF" stroke-width="3.67244094" fill="#EAC7A3"></path>
            </g>
        </g>
        <g id="ic-section-info" transform="translate(184.000000, 75.000000)">
            <ellipse id="shadow" fill-opacity="0.5" fill="#4A4A4A" fill-rule="nonzero" style="mix-blend-mode: multiply;" filter="url(#filter-1)" cx="16.7658148" cy="45.3652597" rx="8.67197319" ry="2.80032468"></ellipse>
            <path d="M32.3753666,15.7112953 C32.3753666,17.1322989 32.1540506,19.0159547 31.1301602,20.54554 L19.9233025,43.5082023 C19.1596408,45.1180436 17.7052786,45.9253247 16.1876833,45.9253247 C14.670088,45.9253247 13.2157258,45.1180436 12.4520641,43.5082023 L1.24520641,20.54554 C0.221315982,19.0159547 0,17.1322989 0,15.7112953 C0,6.84693968 7.24019428,0 16.1876833,0 C25.1351723,0 32.3753666,6.84693968 32.3753666,15.7112953 Z" id="ic-map-marker" fill="#E0342B" fill-rule="evenodd"></path>
            <path d="M22.9394557,17.6420371 L23.1252839,20.8024073 C23.2078742,22.2125725 20.1623562,23.3627072 16.5180583,23.3627072 C12.8737605,23.3627072 9.82824248,22.2125725 9.9108328,20.8024073 L10.096661,17.6420371 L16.0225164,19.4522491 C16.1876971,19.502255 16.3528777,19.5222573 16.5180583,19.5222573 C16.683239,19.5222573 16.8484196,19.502255 17.0136003,19.4522491 L22.9394557,17.6420371 Z M28.4110643,14.4016576 C28.4110643,14.541674 28.3181502,14.661688 28.1839409,14.7116939 L16.6212962,18.2321062 C16.5800011,18.2421074 16.5490297,18.2421074 16.5180583,18.2421074 C16.487087,18.2421074 16.4561156,18.2421074 16.4148204,18.2321062 L9.68370942,16.1718649 C9.0952534,16.6219176 8.6823018,17.7220465 8.59971148,19.0722046 C8.9920155,19.2922304 9.25011025,19.6922773 9.25011025,20.1623323 C9.25011025,20.612385 9.01266308,21.0024307 8.65133043,21.2324577 L9.25011025,25.5629649 C9.26043404,25.6529755 9.22946267,25.742986 9.16751993,25.8129942 C9.10557719,25.8830024 9.01266308,25.9230071 8.91974897,25.9230071 L6.93758131,25.9230071 C6.8446672,25.9230071 6.75175309,25.8830024 6.68981035,25.8129942 C6.62786761,25.742986 6.59689624,25.6529755 6.60722003,25.5629649 L7.20599984,21.2324577 C6.8446672,21.0024307 6.60722003,20.612385 6.60722003,20.1623323 C6.60722003,19.6822761 6.88596236,19.2722281 7.27826637,19.0522023 C7.34020911,17.8820652 7.64992281,16.6219176 8.28999779,15.7518157 L4.85217575,14.7116939 C4.71796648,14.661688 4.62505237,14.541674 4.62505237,14.4016576 C4.62505237,14.2616411 4.71796648,14.1416271 4.85217575,14.0916212 L16.4148204,10.5712089 C16.4561156,10.5612077 16.487087,10.5612077 16.5180583,10.5612077 C16.5490297,10.5612077 16.5800011,10.5612077 16.6212962,10.5712089 L28.1839409,14.0916212 C28.3181502,14.1416271 28.4110643,14.2616411 28.4110643,14.4016576 Z" id="ic-cap" fill="#FFFFFF" fill-rule="evenodd"></path>
        </g>
    </g>
</svg>