<?xml version="1.0" encoding="UTF-8"?>
<svg width="378px" height="264px" viewBox="0 0 378 264" version="1.1" xmlns="http://www.w3.org/2000/svg" xmlns:xlink="http://www.w3.org/1999/xlink">
    <!-- Generator: Sketch 51.2 (57519) - http://www.bohemiancoding.com/sketch -->
    <title>modal-maps</title>
    <desc>Created with Sketch.</desc>
    <defs>
        <filter x="-31.5%" y="-97.6%" width="163.0%" height="295.2%" filterUnits="objectBoundingBox" id="filter-1">
            <feGaussianBlur stdDeviation="1.82208626" in="SourceGraphic"></feGaussianBlur>
        </filter>
    </defs>
    <g id="modal-maps" stroke="none" stroke-width="1" fill="none" fill-rule="evenodd">
        <g id="inner-map-378x264">
            <g id="503" transform="translate(4.000000, 0.000000)">
                <path d="M28.1162788,32.0233586 C58.6829389,42.4472205 87.514782,41.8251607 116.556906,34.4650887 C131.586147,30.6571525 146.615387,26.4945842 162.257947,31.4594353 C168.595579,33.4709557 174.816388,35.7557174 179.629483,40.4763955 C188.747495,49.4061512 199.407567,50.1328565 210.774416,46.412125 C217.643591,44.1622452 224.524448,41.7088878 230.973061,38.4997569 C244.057204,31.9652222 256.936907,32.1686997 270.032732,38.0986156 C275.424099,40.534532 280.792102,43.057653 286.294452,45.2261419 C296.323681,49.1910464 301.726731,55.7662766 303.490754,66.9575393 C305.83889,81.7707017 314.255966,93.148001 329.682404,97.2059238 C337.871675,99.3627853 339.775885,103.943936 338.181255,111.536554 C332.118157,140.5757 337.258356,168.940465 343.444118,197.287788 C346.376368,210.740558 352.10068,222.670153 360.605373,233.407952 C363.379912,236.919392 366.101881,240.454087 369.308664,244.564333 C354.390405,244.564333 340.710467,244.657351 327.036369,244.541078 C308.368101,244.378296 290.097031,245.593347 273.940451,256.569505 C270.686939,258.772876 266.825948,260.307678 262.795565,260.226287 C237.742937,259.749568 212.941477,264.755115 187.777867,262.819171 C167.842072,261.290183 150.406284,256.91251 139.033594,238.233275 C132.865355,228.088468 121.743834,222.373657 110.680724,219.49009 C77.9470026,210.955662 64.6993081,184.933796 54.7343316,157.371315 C49.2027766,142.063993 46.4924899,126.018338 36.7786822,112.123732 C30.5812378,103.257926 30.5169853,92.0492224 32.146662,81.5439696 C34.7342849,64.911137 36.7494765,48.4875956 28.1162788,32.0233586 Z" id="Shape" stroke="#000000" stroke-width="5.83" fill="#000000" fill-rule="nonzero" opacity="0.15"></path>
                <path d="M0,2.83804321 C30.5666602,13.2619051 59.3985032,12.6398453 88.4406271,5.27977327 C103.469868,1.47183711 118.499108,-2.69073126 134.141668,2.27411984 C140.4793,4.28564032 146.700109,6.57040201 151.513204,11.2910801 C160.631216,20.2266494 171.291288,20.9475411 182.658137,17.2268096 C189.527312,14.9711161 196.408169,12.5177588 202.856782,9.30862786 C215.940925,2.77409314 228.820628,2.97757065 241.916453,8.90748649 C247.307821,11.3434029 252.675824,13.866524 258.178173,16.0350128 C268.207402,19.9941037 273.610452,26.5751475 275.374475,37.7664103 C277.722611,52.5795726 286.139687,63.9568719 301.566125,68.0147947 C309.755396,70.1716563 311.659606,74.7528069 310.064976,82.3454247 C304.001878,111.384571 309.142077,139.749335 315.327839,168.096659 C318.260089,181.549429 323.984401,193.479024 332.489094,204.216823 C335.263633,207.728263 337.985602,211.262958 341.192386,215.373203 C326.274126,215.373203 312.594188,215.466222 298.920091,215.349949 C280.251823,215.187167 261.980752,216.402218 245.824172,227.378376 C242.57066,229.581747 238.70967,231.116549 234.679286,231.035158 C209.626658,230.558439 184.825198,235.563986 159.661588,233.628042 C139.725794,232.099054 122.290005,227.721381 110.917315,209.042146 C104.749076,198.897339 93.6275551,193.182528 82.5644451,190.298961 C49.8307238,181.764533 36.5830294,155.742667 26.6180528,128.180186 C21.0864978,112.872864 18.3762111,96.8272093 8.66240341,82.9326026 C2.46495903,74.0667971 2.40070654,62.8580934 4.03038324,52.3528405 C6.61800611,35.7258216 8.63319773,19.3022801 0,2.83804321 Z" id="Shape" stroke="#FFFFFF" stroke-width="5.83" fill="#EAC7A3"></path>
            </g>
        </g>
        <g id="ic-section-info" transform="translate(173.000000, 75.000000)">
            <ellipse id="shadow" fill-opacity="0.5" fill="#4A4A4A" fill-rule="nonzero" style="mix-blend-mode: multiply;" filter="url(#filter-1)" cx="16.7658148" cy="45.3652597" rx="8.67197319" ry="2.80032468"></ellipse>
            <path d="M32.3753666,15.7112953 C32.3753666,17.1322989 32.1540506,19.0159547 31.1301602,20.54554 L19.9233025,43.5082023 C19.1596408,45.1180436 17.7052786,45.9253247 16.1876833,45.9253247 C14.670088,45.9253247 13.2157258,45.1180436 12.4520641,43.5082023 L1.24520641,20.54554 C0.221315982,19.0159547 0,17.1322989 0,15.7112953 C0,6.84693968 7.24019428,0 16.1876833,0 C25.1351723,0 32.3753666,6.84693968 32.3753666,15.7112953 Z" id="ic-map-marker" fill="#E0342B" fill-rule="evenodd"></path>
            <path d="M22.9394557,17.6420371 L23.1252839,20.8024073 C23.2078742,22.2125725 20.1623562,23.3627072 16.5180583,23.3627072 C12.8737605,23.3627072 9.82824248,22.2125725 9.9108328,20.8024073 L10.096661,17.6420371 L16.0225164,19.4522491 C16.1876971,19.502255 16.3528777,19.5222573 16.5180583,19.5222573 C16.683239,19.5222573 16.8484196,19.502255 17.0136003,19.4522491 L22.9394557,17.6420371 Z M28.4110643,14.4016576 C28.4110643,14.541674 28.3181502,14.661688 28.1839409,14.7116939 L16.6212962,18.2321062 C16.5800011,18.2421074 16.5490297,18.2421074 16.5180583,18.2421074 C16.487087,18.2421074 16.4561156,18.2421074 16.4148204,18.2321062 L9.68370942,16.1718649 C9.0952534,16.6219176 8.6823018,17.7220465 8.59971148,19.0722046 C8.9920155,19.2922304 9.25011025,19.6922773 9.25011025,20.1623323 C9.25011025,20.612385 9.01266308,21.0024307 8.65133043,21.2324577 L9.25011025,25.5629649 C9.26043404,25.6529755 9.22946267,25.742986 9.16751993,25.8129942 C9.10557719,25.8830024 9.01266308,25.9230071 8.91974897,25.9230071 L6.93758131,25.9230071 C6.8446672,25.9230071 6.75175309,25.8830024 6.68981035,25.8129942 C6.62786761,25.742986 6.59689624,25.6529755 6.60722003,25.5629649 L7.20599984,21.2324577 C6.8446672,21.0024307 6.60722003,20.612385 6.60722003,20.1623323 C6.60722003,19.6822761 6.88596236,19.2722281 7.27826637,19.0522023 C7.34020911,17.8820652 7.64992281,16.6219176 8.28999779,15.7518157 L4.85217575,14.7116939 C4.71796648,14.661688 4.62505237,14.541674 4.62505237,14.4016576 C4.62505237,14.2616411 4.71796648,14.1416271 4.85217575,14.0916212 L16.4148204,10.5712089 C16.4561156,10.5612077 16.487087,10.5612077 16.5180583,10.5612077 C16.5490297,10.5612077 16.5800011,10.5612077 16.6212962,10.5712089 L28.1839409,14.0916212 C28.3181502,14.1416271 28.4110643,14.2616411 28.4110643,14.4016576 Z" id="ic-cap" fill="#FFFFFF" fill-rule="evenodd"></path>
        </g>
    </g>
</svg>