<?xml version="1.0" encoding="UTF-8"?>
<svg width="378px" height="264px" viewBox="0 0 378 264" version="1.1" xmlns="http://www.w3.org/2000/svg" xmlns:xlink="http://www.w3.org/1999/xlink">
    <!-- Generator: Sketch 51.2 (57519) - http://www.bohemiancoding.com/sketch -->
    <title>modal-maps</title>
    <desc>Created with Sketch.</desc>
    <defs>
        <filter x="-31.5%" y="-97.6%" width="163.0%" height="295.2%" filterUnits="objectBoundingBox" id="filter-1">
            <feGaussianBlur stdDeviation="1.82208626" in="SourceGraphic"></feGaussianBlur>
        </filter>
    </defs>
    <g id="modal-maps" stroke="none" stroke-width="1" fill="none" fill-rule="evenodd">
        <g id="inner-map-378x264">
            <g id="512" transform="translate(0.000000, 7.000000)">
                <path d="M30.2434974,95.8166859 C35.2074722,90.7807133 41.787172,88.4435055 47.6336312,84.9828884 C54.8622166,80.7023117 62.9148867,77.0480034 67.4376193,69.7845814 C72.3367055,61.894891 77.0476148,63.2700989 83.5299818,67.4215481 C113.592851,86.6228077 108.090301,83.1040833 125.519368,57.2333881 C130.165389,50.3444359 132.254801,40.1691887 138.516546,36.353471 C145.109224,32.3311493 154.258511,39.7172424 162.707001,40.0336048 C166.34076,40.1756451 169.91612,41.2474033 173.536902,41.8413898 C188.727313,44.3722889 192.854225,48.1492683 196.351719,62.7858708 C201.860757,85.8738682 204.702876,87.5589821 228.199023,88.3079216 C245.199826,88.8502571 259.572642,84.6794388 272.537376,73.2581112 C288.681649,59.0347168 312.223218,58.5117504 330.320637,70.8886215 C342.655952,79.3271038 354.452692,88.727586 371.453494,87.1586869 C370.79812,107.999866 371.401584,127.820937 376.787334,147.39021 C379.097367,155.81578 374.08797,163.86688 368.267466,170.161846 C361.343857,177.644784 353.966028,184.791992 346.283222,191.513078 C328.763312,206.834056 317.758212,224.027383 328.685445,247.941797 C311.81442,251.609018 308.109283,249.446132 304.858367,234.331758 C303.800683,229.379718 301.471184,225.505893 297.097695,223.013732 C292.665806,220.482833 288.201474,217.971303 283.574919,215.834243 C263.66711,206.588714 259.41042,207.944553 249.696603,227.888296 C246.348353,234.764335 242.260374,235.506818 235.641741,233.143785 C217.622188,226.713235 201.516848,218.746068 193.892442,199.170339 C190.576637,190.641467 182.880854,184.837186 173.945699,181.337831 C153.817269,173.44814 133.559061,166.875551 111.419084,166.89492 C85.2884618,166.914289 74.7181156,156.952102 71.5126208,130.900628 C69.2480101,112.474134 56.6336743,104.455316 40.7424662,99.3741486 C37.3423058,98.2894776 33.3062374,99.1352627 30.2434974,95.8166859 Z" id="Shape" stroke="#000000" stroke-width="6.48492606" fill="#000000" fill-rule="nonzero" opacity="0.15"></path>
                <path d="M0,60.6592788 C4.96397474,55.6233062 11.5436746,53.2860984 17.3901337,49.8254813 C24.6187192,45.5449046 32.6713893,41.8905963 37.1941218,34.6271743 C42.093208,26.7374839 46.8041174,28.1126918 53.2864844,32.264141 C83.3493536,51.4654006 77.8468038,47.9466762 95.2758707,22.075981 C99.9218915,15.1870288 102.011303,5.01178155 108.273049,1.19606385 C114.865727,-2.82625786 124.015013,4.55983529 132.463504,4.87619767 C136.097263,5.01823792 139.672623,6.08999619 143.293404,6.68398271 C158.483816,9.21488176 162.610728,12.9918612 166.108221,27.6284636 C171.61726,50.7164611 174.459379,52.401575 197.955526,53.1505145 C214.956328,53.69285 229.329144,49.5220317 242.293878,38.1007041 C258.438151,23.8773097 281.979721,23.3543433 300.07714,35.7312144 C312.412455,44.1696967 324.209195,53.5701789 341.209997,52.0012797 C340.554622,72.8424586 341.158086,92.6635303 346.543836,112.232803 C348.853869,120.658373 343.844472,128.709473 338.023969,135.004438 C331.100359,142.487377 323.72253,149.634584 316.039725,156.355671 C298.519814,171.676649 287.514715,188.869976 298.441948,212.78439 C281.570923,216.451611 277.865786,214.288725 274.614869,199.174351 C273.557186,194.222311 271.227686,190.348486 266.854198,187.856325 C262.422309,185.325426 257.957976,182.813896 253.331422,180.676836 C233.423612,171.431307 229.166923,172.787146 219.453105,192.730888 C216.104856,199.606928 212.016877,200.349411 205.398244,197.986378 C187.378691,191.555828 171.273351,183.588661 163.648945,164.012932 C160.33314,155.48406 152.637357,149.679779 143.702202,146.180424 C123.573771,138.290733 103.315563,131.718143 81.1755869,131.737513 C55.0449643,131.756882 44.4746181,121.794695 41.2691233,95.7432212 C39.0045126,77.3167266 26.3901768,69.2979087 10.4989688,64.2167415 C7.09880832,63.1320705 3.06273997,63.9778556 0,60.6592788 Z" id="Shape" stroke="#FFFFFF" stroke-width="6.48492606" fill="#EAC7A3"></path>
            </g>
        </g>
        <g id="ic-section-info" transform="translate(173.000000, 75.000000)">
            <ellipse id="shadow" fill-opacity="0.5" fill="#4A4A4A" fill-rule="nonzero" style="mix-blend-mode: multiply;" filter="url(#filter-1)" cx="16.7658148" cy="45.3652597" rx="8.67197319" ry="2.80032468"></ellipse>
            <path d="M32.3753666,15.7112953 C32.3753666,17.1322989 32.1540506,19.0159547 31.1301602,20.54554 L19.9233025,43.5082023 C19.1596408,45.1180436 17.7052786,45.9253247 16.1876833,45.9253247 C14.670088,45.9253247 13.2157258,45.1180436 12.4520641,43.5082023 L1.24520641,20.54554 C0.221315982,19.0159547 0,17.1322989 0,15.7112953 C0,6.84693968 7.24019428,0 16.1876833,0 C25.1351723,0 32.3753666,6.84693968 32.3753666,15.7112953 Z" id="ic-map-marker" fill="#E0342B" fill-rule="evenodd"></path>
            <path d="M22.9394557,17.6420371 L23.1252839,20.8024073 C23.2078742,22.2125725 20.1623562,23.3627072 16.5180583,23.3627072 C12.8737605,23.3627072 9.82824248,22.2125725 9.9108328,20.8024073 L10.096661,17.6420371 L16.0225164,19.4522491 C16.1876971,19.502255 16.3528777,19.5222573 16.5180583,19.5222573 C16.683239,19.5222573 16.8484196,19.502255 17.0136003,19.4522491 L22.9394557,17.6420371 Z M28.4110643,14.4016576 C28.4110643,14.541674 28.3181502,14.661688 28.1839409,14.7116939 L16.6212962,18.2321062 C16.5800011,18.2421074 16.5490297,18.2421074 16.5180583,18.2421074 C16.487087,18.2421074 16.4561156,18.2421074 16.4148204,18.2321062 L9.68370942,16.1718649 C9.0952534,16.6219176 8.6823018,17.7220465 8.59971148,19.0722046 C8.9920155,19.2922304 9.25011025,19.6922773 9.25011025,20.1623323 C9.25011025,20.612385 9.01266308,21.0024307 8.65133043,21.2324577 L9.25011025,25.5629649 C9.26043404,25.6529755 9.22946267,25.742986 9.16751993,25.8129942 C9.10557719,25.8830024 9.01266308,25.9230071 8.91974897,25.9230071 L6.93758131,25.9230071 C6.8446672,25.9230071 6.75175309,25.8830024 6.68981035,25.8129942 C6.62786761,25.742986 6.59689624,25.6529755 6.60722003,25.5629649 L7.20599984,21.2324577 C6.8446672,21.0024307 6.60722003,20.612385 6.60722003,20.1623323 C6.60722003,19.6822761 6.88596236,19.2722281 7.27826637,19.0522023 C7.34020911,17.8820652 7.64992281,16.6219176 8.28999779,15.7518157 L4.85217575,14.7116939 C4.71796648,14.661688 4.62505237,14.541674 4.62505237,14.4016576 C4.62505237,14.2616411 4.71796648,14.1416271 4.85217575,14.0916212 L16.4148204,10.5712089 C16.4561156,10.5612077 16.487087,10.5612077 16.5180583,10.5612077 C16.5490297,10.5612077 16.5800011,10.5612077 16.6212962,10.5712089 L28.1839409,14.0916212 C28.3181502,14.1416271 28.4110643,14.2616411 28.4110643,14.4016576 Z" id="ic-cap" fill="#FFFFFF" fill-rule="evenodd"></path>
        </g>
    </g>
</svg>