<?xml version="1.0" encoding="UTF-8"?>
<svg width="378px" height="264px" viewBox="0 0 378 264" version="1.1" xmlns="http://www.w3.org/2000/svg" xmlns:xlink="http://www.w3.org/1999/xlink">
    <!-- Generator: Sketch 51.2 (57519) - http://www.bohemiancoding.com/sketch -->
    <title>modal-maps</title>
    <desc>Created with Sketch.</desc>
    <defs>
        <filter x="-31.5%" y="-97.6%" width="163.0%" height="295.2%" filterUnits="objectBoundingBox" id="filter-1">
            <feGaussianBlur stdDeviation="1.82208626" in="SourceGraphic"></feGaussianBlur>
        </filter>
    </defs>
    <g id="modal-maps" stroke="none" stroke-width="1" fill="none" fill-rule="evenodd">
        <g id="inner-map-378x264">
            <g id="510" transform="translate(24.000000, 1.000000)">
                <path d="M249.085303,24.3224588 C249.684712,28.9029048 250.166128,32.2618985 250.562588,35.6302881 C252.011554,47.7696444 256.094146,58.8989537 264.197973,68.177293 C270.970827,75.9147233 275.534835,84.4038165 278.413888,94.424423 C282.727748,109.452984 289.297653,123.720486 297.7885,137.015524 C301.215046,142.366424 304.344246,147.92873 307.21386,153.603785 C311.305891,161.702953 312.528309,170.130974 309.488784,179.01469 C307.468727,184.919942 307.643358,190.956735 309.465185,197.007622 C310.673443,201.014925 312.679341,203.725609 316.563703,205.919525 C332.398496,214.854918 334.904688,226.956691 325.229181,241.778545 C314.874029,257.638633 296.688796,261.819758 286.258128,249.981067 C270.975547,232.627049 250.12365,232.49081 230.135469,229.474762 C220.172057,227.976134 209.930179,228.351966 199.825174,227.633188 C191.27769,227.02716 185.58566,231.010973 183.711915,238.82357 C179.950267,254.476951 169.812224,261.52379 154.454127,263.623749 C147.822865,264.525744 143.00871,263.337177 139.166826,257.953392 C134.687774,251.686402 130.180404,245.4476 125.512562,239.321547 C124.082475,237.456483 121.82643,234.40755 120.410502,234.642445 C112.146203,236.018928 110.970983,229.066046 107.284851,224.805056 C103.645917,220.614535 99.7851535,216.311265 95.2069868,213.276426 C77.1775059,201.31559 73.1940289,184.47834 76.743288,164.526387 C77.7155585,159.062737 78.2205727,153.467546 78.3621655,147.914636 C78.607593,138.044362 75.3934368,133.543781 66.1568677,129.625738 C59.2282608,126.680159 51.7852003,125.749976 44.5167708,124.166786 C39.5327048,123.081572 34.6477538,121.808443 30.5982003,118.552803 C23.7026318,113.004591 22.5746093,104.553081 28.6583791,98.4411218 C34.1993767,92.8694203 37.3852143,86.3675359 38.5321158,78.9307708 C39.2212007,74.4254911 41.1940601,72.2315749 45.3710472,70.4698649 C52.2005391,67.5900563 58.5297364,63.5451702 65.2506738,60.383488 C75.841814,55.403721 81.7084749,58.3023212 84.5922479,69.5208905 C87.0795611,79.2596233 92.5733611,83.5112168 102.635888,82.1582235 C111.04178,81.0307291 119.320238,78.8696982 127.631734,77.0375198 C130.883648,76.32344 133.328484,74.4254911 134.933202,71.3718604 C136.028186,69.2766 137.113731,66.4249788 138.963876,65.5981495 C152.976842,59.2982746 165.078305,48.8219725 181.46059,47.6052181 C192.778573,46.7689931 204.370302,45.5099577 215.117194,42.1368703 C222.607453,39.7879236 228.011577,32.2384091 236.101245,29.6968488 C240.131919,28.4331155 243.940765,26.4881877 249.085303,24.3224588 Z" id="Shape" stroke="#000000" stroke-width="4.71111111" fill="#000000" fill-rule="nonzero" opacity="0.15"></path>
                <path d="M224.391951,0 C224.99136,4.58044599 225.472776,7.93943971 225.869235,11.3078292 C227.318201,23.4471856 231.400793,34.5764948 239.50462,43.8548341 C246.277475,51.5922644 250.841482,60.0813577 253.720536,70.1019641 C258.034396,85.1305249 264.604301,99.3980269 273.095148,112.693065 C276.521693,118.043965 279.650894,123.606271 282.520508,129.281326 C286.612539,137.380494 287.834957,145.808515 284.795432,154.692231 C282.775375,160.597483 282.950006,166.634276 284.771833,172.685163 C285.980091,176.692466 287.985989,179.40315 291.870351,181.597066 C307.705144,190.532459 310.211336,202.634233 300.535829,217.456086 C290.180677,233.316174 271.995444,237.497299 261.564776,225.658608 C246.282195,208.30459 225.430298,208.168351 205.442117,205.152303 C195.478704,203.653675 185.236827,204.029507 175.131822,203.310729 C166.584337,202.704701 160.892308,206.688515 159.018563,214.501111 C155.256915,230.154492 145.118872,237.201332 129.760774,239.30129 C123.129512,240.203285 118.315358,239.014718 114.473474,233.630933 C109.994422,227.363943 105.487052,221.125141 100.81921,214.999088 C99.3891226,213.134024 97.1330776,210.085091 95.7171498,210.319986 C87.4528511,211.696469 86.277631,204.743587 82.5914989,200.482597 C78.9525644,196.292077 75.0918012,191.988806 70.5136346,188.953967 C52.4841536,176.993131 48.5006767,160.155881 52.0499357,140.203928 C53.0222062,134.740278 53.5272204,129.145087 53.6688132,123.592177 C53.9142407,113.721904 50.7000846,109.221322 41.4635154,105.303279 C34.5349086,102.3577 27.091848,101.427517 19.8234185,99.8443267 C14.8393526,98.7591134 9.95440156,97.4859843 5.90484799,94.2303442 C-0.990720512,88.6821322 -2.11874301,80.2306221 3.96502687,74.1186629 C9.50602442,68.5469614 12.691862,62.0450771 13.8387636,54.608312 C14.5278484,50.1030323 16.5007079,47.9091161 20.6776949,46.1474061 C27.5071868,43.2675975 33.8363842,39.2227113 40.5573216,36.0610291 C51.1484617,31.0812622 57.0151226,33.9798624 59.8988956,45.1984316 C62.3862089,54.9371645 67.8800088,59.1887579 77.9425359,57.8357647 C86.3484274,56.7082703 94.6268854,54.5472393 102.938382,52.715061 C106.190296,52.0009812 108.635131,50.1030323 110.23985,47.0494016 C111.334834,44.9541412 112.420378,42.1025199 114.270524,41.2756907 C128.28349,34.9758158 140.384953,24.4995137 156.767238,23.2827593 C168.085221,22.4465343 179.67695,21.1874989 190.423842,17.8144115 C197.9141,15.4654648 203.318225,7.91595025 211.407892,5.37438996 C215.438567,4.11065666 219.247413,2.16572882 224.391951,0 Z" id="Shape" stroke="#FFFFFF" stroke-width="4.71111111" fill="#EAC7A3"></path>
            </g>
        </g>
        <g id="ic-section-info" transform="translate(173.000000, 75.000000)">
            <ellipse id="shadow" fill-opacity="0.5" fill="#4A4A4A" fill-rule="nonzero" style="mix-blend-mode: multiply;" filter="url(#filter-1)" cx="16.7658148" cy="45.3652597" rx="8.67197319" ry="2.80032468"></ellipse>
            <path d="M32.3753666,15.7112953 C32.3753666,17.1322989 32.1540506,19.0159547 31.1301602,20.54554 L19.9233025,43.5082023 C19.1596408,45.1180436 17.7052786,45.9253247 16.1876833,45.9253247 C14.670088,45.9253247 13.2157258,45.1180436 12.4520641,43.5082023 L1.24520641,20.54554 C0.221315982,19.0159547 0,17.1322989 0,15.7112953 C0,6.84693968 7.24019428,0 16.1876833,0 C25.1351723,0 32.3753666,6.84693968 32.3753666,15.7112953 Z" id="ic-map-marker" fill="#E0342B" fill-rule="evenodd"></path>
            <path d="M22.9394557,17.6420371 L23.1252839,20.8024073 C23.2078742,22.2125725 20.1623562,23.3627072 16.5180583,23.3627072 C12.8737605,23.3627072 9.82824248,22.2125725 9.9108328,20.8024073 L10.096661,17.6420371 L16.0225164,19.4522491 C16.1876971,19.502255 16.3528777,19.5222573 16.5180583,19.5222573 C16.683239,19.5222573 16.8484196,19.502255 17.0136003,19.4522491 L22.9394557,17.6420371 Z M28.4110643,14.4016576 C28.4110643,14.541674 28.3181502,14.661688 28.1839409,14.7116939 L16.6212962,18.2321062 C16.5800011,18.2421074 16.5490297,18.2421074 16.5180583,18.2421074 C16.487087,18.2421074 16.4561156,18.2421074 16.4148204,18.2321062 L9.68370942,16.1718649 C9.0952534,16.6219176 8.6823018,17.7220465 8.59971148,19.0722046 C8.9920155,19.2922304 9.25011025,19.6922773 9.25011025,20.1623323 C9.25011025,20.612385 9.01266308,21.0024307 8.65133043,21.2324577 L9.25011025,25.5629649 C9.26043404,25.6529755 9.22946267,25.742986 9.16751993,25.8129942 C9.10557719,25.8830024 9.01266308,25.9230071 8.91974897,25.9230071 L6.93758131,25.9230071 C6.8446672,25.9230071 6.75175309,25.8830024 6.68981035,25.8129942 C6.62786761,25.742986 6.59689624,25.6529755 6.60722003,25.5629649 L7.20599984,21.2324577 C6.8446672,21.0024307 6.60722003,20.612385 6.60722003,20.1623323 C6.60722003,19.6822761 6.88596236,19.2722281 7.27826637,19.0522023 C7.34020911,17.8820652 7.64992281,16.6219176 8.28999779,15.7518157 L4.85217575,14.7116939 C4.71796648,14.661688 4.62505237,14.541674 4.62505237,14.4016576 C4.62505237,14.2616411 4.71796648,14.1416271 4.85217575,14.0916212 L16.4148204,10.5712089 C16.4561156,10.5612077 16.487087,10.5612077 16.5180583,10.5612077 C16.5490297,10.5612077 16.5800011,10.5612077 16.6212962,10.5712089 L28.1839409,14.0916212 C28.3181502,14.1416271 28.4110643,14.2616411 28.4110643,14.4016576 Z" id="ic-cap" fill="#FFFFFF" fill-rule="evenodd"></path>
        </g>
    </g>
</svg>